<?xml version="1.0" standalone="no"?>
<!DOCTYPE svg PUBLIC "-//W3C//DTD SVG 1.1//EN" "http://www.w3.org/Graphics/SVG/1.1/DTD/svg11.dtd" >
<svg xmlns="http://www.w3.org/2000/svg" xmlns:xlink="http://www.w3.org/1999/xlink" version="1.1">
<metadata>
Created by FontForge 20190801 at Thu Feb  7 17:54:35 2008
 By Jimmy Wärting
2008 Iconian Fonts - www.iconian.com
</metadata>
<defs>
<font id="Incubus" horiz-adv-x="577" >
  <font-face 
    font-family="Incubus"
    font-weight="400"
    font-stretch="normal"
    units-per-em="1000"
    panose-1="0 0 0 0 0 0 0 0 0 0"
    ascent="800"
    descent="-200"
    x-height="789"
    cap-height="832"
    bbox="-72.2 -373 1591 1186.04"
    underline-thickness="50"
    underline-position="-125"
    unicode-range="U+0020-2122"
  />
<missing-glyph horiz-adv-x="500" 
 />
    <glyph glyph-name=".notdef" horiz-adv-x="500" 
 />
    <glyph glyph-name=".null" horiz-adv-x="0" 
 />
    <glyph glyph-name="nonmarkingreturn" horiz-adv-x="500" 
 />
    <glyph glyph-name="space" unicode=" " horiz-adv-x="500" 
 />
    <glyph glyph-name="FL0021h" unicode="!" horiz-adv-x="208" 
d="M94 268q8 0 8 9q0 8 -8 8q-7 0 -7 -8q0 -9 7 -9zM94 507v-57t1 -53.5t3 -53.5t6 -58q4 62 7.5 125t3.5 127v9q0 6 -0.5 11.5t-0.5 10.5v4l-10 8l-10 -8v-8v-40v-17zM114 605q7 0 7 8t-7 8q-8 0 -8 -8t8 -8v0zM171 654h-19q6 -10 19 -10v10zM114 662h-20q7 -10 20 -10v10z
M46 670q0 1 0.5 2.5l0.5 1.5q0 1 -0.5 3l-0.5 2q-1 2 -4 4.5t-5 3.5l-2 0.5t-3 0.5t-2.5 -0.5t-2.5 -0.5zM56 900q12 -24 17.5 -48.5t8.5 -49.5t5 -49.5t7 -49.5q5 -11 10.5 -8.5t14.5 2.5v178l14 9q2 -5 5.5 -16.5t4.5 -16.5q1 -8 2.5 -30.5t3 -47.5t2.5 -47t1 -31
q18 -25 24 -39.5t5 -23t-6 -13t-10 -11t-7 -16.5t4 -28q-1 0 -5 -10t-5 -15q-8 -37 -10.5 -79t-3.5 -85t-1.5 -85t-3.5 -79q-1 -2 -4.5 -4.5t-5.5 -3.5q-5 -2 -14.5 -2.5l-9.5 -0.5v60l-24 -8q-5 17 -13 37t-16 37v320q-15 5 -27.5 12t-12.5 21t14 24t26 17v172zM53 47
q0 9 4 19.5t11.5 19.5t17.5 14.5t22 5.5t19.5 -5.5t12 -14.5t6 -19.5t1.5 -19.5t-6 -17.5t-15 -15.5t-19.5 -11t-20.5 -4q-24 0 -28.5 15.5t-4.5 32.5zM108 70q-11 0 -11 -11q0 -12 11 -12q10 0 10 12q0 11 -10 11z" />
    <glyph glyph-name="FL0022h" unicode="&#x22;" horiz-adv-x="203" 
d="M185 578q-17 16 -20 25.5t-2 18.5t2 19.5t-7 27.5l-55 183q-2 0 -6 -4t-4 -6t-4.5 -0.5t-9.5 3t-9.5 1t-4.5 -6.5q0 -10 0.5 -19t0.5 -12q-14 -2 -23 -12t-9 -25v-5q1 -6 6 -19.5t11.5 -29.5t12 -32.5t7.5 -28.5l16 -108zM144 558v7l5 2zM80 601q2 -16 4 -27zM320 576
q-17 16 -16 27t7 21.5t11 22.5t-3 29l-55 183q-2 0 -6 -4t-4 -6t-4.5 -0.5t-9.5 3t-9.5 1t-4.5 -6.5q0 -10 0.5 -19t0.5 -12q-7 -1 -6 -9.5t3 -18t3 -16.5t-6 -5l-26 7q-6 1 -2 -11t12 -30t16.5 -37.5t10.5 -31.5l16 -108zM305 565v7l5 2zM241 608q2 -16 4 -27z" />
    <glyph glyph-name="FL0023h" unicode="#" horiz-adv-x="800" 
d="M55 488l168 52h1v-192q-6 -1 -10 -1.5t-6 -0.5q-17 -3 -47 -4.5t-59.5 -5t-51.5 -11t-22 -21.5q0 -25 27 -26h-25q1 -3 4 -9.5t6.5 -14t6.5 -14t4 -9.5v-11l-11 -21q0 -2 -1 -5t-1 -5h23l163 50v-101q8 -22 16 -48.5t13 -49.5l24 10v-79l9.5 0.5t14.5 3.5q2 1 5.5 4.5
t4.5 5.5q3 57 3 121q0 65 2 131l142 44v-101q8 -22 16 -48.5t13 -49.5l24 10v-79l9.5 0.5t14.5 3.5q2 1 5.5 4.5t4.5 5.5q4 63 4 136q0 74 2 147l227 68q0 2 -4 6t-6 4q-3 0 -12 0.5t-20 0.5q-10 0 -19 -0.5t-12 -0.5q-2 14 -12 23t-25 9h-5q-16 -2 -45 -5.5t-61 -8.5
q2 14 3.5 28.5t3.5 28.5q1 7 5 20t5 13q-8 31 -3 44.5t11.5 22.5t10 20t-6.5 38l186 56q0 2 -4 6t-6 4q-3 0 -12 0.5t-20 0.5q-10 0 -19 -0.5t-12 -0.5q-2 14 -12 23t-25 9h-5q-14 -2 -39.5 -5t-54.5 -8q-1 21 -2 47t-2.5 50.5t-2.5 44.5t-1 29q-1 6 -4.5 22t-5.5 22
l-14 -12v-207q-8 -2 -14 -2.5t-13 -2.5q-4 31 -6 61.5t-5 61.5t-8.5 61.5t-16.5 60.5l-10 -11v-228q-5 -4 -9.5 -7.5t-9.5 -8.5h-3q-17 -3 -47.5 -4.5t-60.5 -5.5q-1 21 -2 45.5t-2 47t-2 40t-1 25.5q-1 6 -4.5 22t-5.5 22l-14 -12v-195q-19 -5 -28 -10q-3 30 -5 60t-5 60
t-9 59.5t-16 58.5l-10 -11v-228q-5 -4 -9.5 -7.5t-9.5 -8.5h-3q-17 -3 -47 -4.5t-59.5 -5t-51.5 -11t-22 -21.5q0 -23 24 -26h-22q1 -3 4 -9.5t6.5 -14t6.5 -14t4 -9.5v-11l-11 -21q0 -2 -1 -5t-1 -5h23zM330 421q1 7 5 20t5 13q-6 26 -3.5 39.5t7.5 21.5t10.5 15t4.5 21
l98 31h1v-192q-6 -1 -10 -1.5t-6 -0.5q-18 -4 -52 -5t-66 -6q2 22 6 44zM82 252q35 5 70.5 20t71.5 21v-26q-17 -7 -37.5 -12t-40.5 -8.5t-37 -5.5t-27 -2v13zM76 538v13q29 4 57 15t57 19q5 -7 12 -11.5t15 -8.5q-17 -6 -37.5 -11t-40 -8.5t-36.5 -5.5t-27 -2zM506 398v109
l10 10l10 -10v-6q0 -7 0.5 -14t0.5 -15v-12v-30t-1 -29q-5 -1 -10 -1.5t-10 -1.5zM272 361v104l10 10l10 -10v-6q0 -7 0.5 -14t0.5 -15v-12v-24t-1 -24q-13 -3 -20 -9zM524 301q-2 -45 -4 -88.5t-4 -86.5q-5 47 -7 88t-3 82zM282 84q-4 40 -6 76t-4 71h17q-2 -38 -4 -74.5
t-3 -72.5zM506 103q-7 0 -7 12q0 11 7 11q8 0 8 -11q0 -12 -8 -12zM272 61q-7 0 -7 12q0 11 7 11q8 0 8 -11q0 -12 -8 -12zM526 550q-8 0 -8 11t8 11q7 0 7 -11t-7 -11zM292 508q-8 0 -8 11t8 11q7 0 7 -11t-7 -11zM565 615h18v-13q-13 0 -19 12zM451 607q-14 -5 -30.5 -9.5
t-33.5 -8.5l61 19q1 -1 3 -1zM390 290l68 20v-1q-15 -6 -32.5 -11t-35.5 -8zM272 254l10 3l-8 -16q0 -2 -2 -8v21zM579 346q-2 -5 -5 -5q-4 0 -6 5t6 5q7 0 5 -5z" />
    <glyph glyph-name="FL0024h" unicode="$" horiz-adv-x="884" 
d="M160 119q0 -13 15 -13q1 0 2.5 0.5l1.5 0.5l200 102l18 12l5 3q-1 -20 -1.5 -35.5t-1.5 -23.5q1 -52 9 -85.5t18.5 -37t20.5 29.5t15 114q0 17 0.5 34.5t1.5 34.5l247 126q29 17 54 42t42 48q0 2 0.5 5t0.5 5q0 10 -5 16.5t-22 11.5q-32 5 -52 6.5t-43 1.5h-34
q-48 0 -93.5 -0.5t-90.5 -3.5q-2 29 -4.5 58t-2.5 59q69 32 141.5 59.5t142.5 56.5v21q-48 0 -89 -12t-86 -21l-108 -43l17 106h-21h-10t-10 1l-30 -128l-229 -90q-13 -8 -34.5 -15.5t-41.5 -16.5t-35 -20t-15 -25h48q-8 -7 -22.5 -13t-29 -11.5t-25.5 -12t-11 -15.5
q0 -5 17.5 -10t45 -10t59.5 -9.5t61.5 -7.5t51 -5t27.5 -2q19 0 35 2t31 4t31 4.5t37 2.5q-1 -32 -2 -68.5t-2 -71.5q-14 -7 -39.5 -19.5t-54 -26t-55.5 -25.5t-42 -19q-5 -3 -25 -8.5t-42 -11.5t-39.5 -10.5t-17.5 -5.5l1 -3q7 -6 18.5 -7t23.5 -1q14 0 23 1t14 1
q-5 -8 -7.5 -13t-2.5 -13zM474 419v15q25 8 53.5 10t54.5 2h13q11 0 20 -3.5t9 -12.5q0 -1 -0.5 -2.5l-0.5 -1.5q0 -2 -3 -6t-5 -6q-3 -3 -10.5 -8.5t-16 -11.5t-16 -11.5t-10.5 -7.5q-13 -9 -40 -25.5t-53 -32.5q2 25 3.5 50.5t1.5 51.5zM409 605v-21q0 -23 0.5 -43.5
t0.5 -32.5q-36 -4 -69.5 -11t-70.5 -7q-8 0 -15 1t-7 9q0 1 0.5 1.5t0.5 1.5q35 29 75 54t85 48zM623 458q22 8 43 8v-28q-3 0 -10 2.5t-14 6t-12.5 7t-6.5 4.5zM711 446l-8 25h42v-6zM675 394q8 0 8 -6q0 -7 -8 -7q-7 0 -7 7q0 6 7 6zM224 490q5 0 5 -6q0 -7 -5 -7
q-8 0 -8 7q0 6 8 6zM153 541q-5 -5 -12 -7.5t-13 -4.5q5 6 11 8t14 4zM191 561q1 0 2.5 -0.5t2.5 -0.5q-1 -1 -4.5 -3t-5.5 -2l-1 -0.5t-2 -0.5t-2 0.5t-2 0.5q2 5 7 5l2 0.5t3 0.5zM790 535h-9v-6h9v6zM711 414h8l-25 -13q3 2 9 6.5t8 6.5zM231 580h8l-15 -7q0 7 7 7z" />
    <glyph glyph-name="FL0025h" unicode="%" horiz-adv-x="905" 
d="M187 -113v10q15 41 34 80t37.5 78.5t33 80t19.5 83.5q5 40 23.5 64.5t43.5 47t52.5 50t50 74t36.5 120t12 186.5q1 0 2.5 0.5t2.5 0.5t3 -0.5l2 -0.5q2 -1 5.5 -4t4.5 -5q9 5 15.5 16.5t11.5 26t7.5 28.5t2.5 24h-9l-19 -57h-9v19q0 1 6.5 15t15.5 32t18.5 36.5
t16.5 29.5q6 11 15 24t19.5 24t23.5 18t27 7v-54q14 -5 21.5 -11.5t7.5 -21.5q0 -2 -0.5 -7t-0.5 -7q-59 -124 -101.5 -212.5t-72 -151t-47.5 -102.5t-28 -66.5t-15 -42.5t-7.5 -31t-5 -32.5t-8.5 -45.5q-6 -11 -19.5 -39.5t-28 -60.5t-28 -60.5t-19.5 -39.5q-2 -8 -7.5 -9
t-11.5 -1q-14 0 -20 12.5t-8 26.5l-76 -162q-1 -2 -4.5 -5t-5.5 -4l-1.5 -0.5t-2.5 -0.5q-9 0 -12 6t-3 14zM463 542l-10 -9h10v9zM463 571q0 -2 3.5 -6t5.5 -4q4 8 12 21.5t16 29.5t14 32.5t6 30.5v10q-9 -4 -15.5 -15.5t-11.5 -26l-10 -29t-11 -24.5l-5.5 -11t-3.5 -8z
M539 733q-8 -3 -9 -8.5t-1 -10.5v-10q2 2 5.5 9.5t4.5 9.5v5v5zM12 622q0 84 38 149t113 98q1 0 7.5 4.5t7.5 5.5l10 5q1 0 -1 0.5t0 0.5q0 -10 8.5 -16t20 -8.5t23.5 -2.5t19 1q42 -35 61 -76.5t19 -94.5q0 -23 -3 -64.5t-13.5 -84t-30.5 -77t-53 -43.5h-10
q-6 0 -13.5 -0.5t-15.5 -0.5h-9h-33t-34 6q-23 10 -43 33.5t-35 52.5t-24 59t-9 53zM233 489q-2 -2 -7 -6t-10.5 -9t-10.5 -9.5t-7 -5.5q-5 -3 -8.5 -4t-3.5 -7q6 0 14 3.5t15.5 9t12.5 12t5 13.5v3zM273 484q-5 -8 -11 -18.5t-14 -16.5l2 -1q1 0 2 0.5l1 0.5q6 5 16 14.5
t10 20.5h-6zM133 469q4 -6 11 -6h14q14 0 25 3.5t20 17.5h-3h-2l-55 -10h-5q-5 -3 -5 -5zM78 571q0 -7 2.5 -20t7.5 -26t12.5 -22.5t17.5 -9.5q1 0 2.5 0.5t2.5 0.5q-23 30 -27.5 68t-4.5 74l-1.5 -0.5t-1.5 -1.5q-2 -2 -3.5 -7.5t-1.5 -7.5q0 -1 -0.5 -6.5t-1.5 -13
t-2 -14.5t-1 -11v-3zM113 561q0 -10 2.5 -22t7.5 -22t14 -17t21 -7q31 0 52 29t34 68t18.5 78t5.5 59q0 16 -7 29t-19 22.5t-27 15t-30 5.5h-2q-22 -24 -34 -53t-17 -60.5t-5 -63.5t1 -63l-5 -10l-10 20v-8zM213 499q-4 0 -4 -5t4 -5t4 5t-4 5zM313 704q-12 -36 -18.5 -73
t-6.5 -75v-7q7 3 12 19t8 35.5t4 37.5t1 25v7v23v8zM52 644q0 -5 0.5 -12t0.5 -8q0 -7 2 -18.5t3 -11.5h5q2 24 9 47.5t16 46t18.5 45.5t16.5 46h-5q-1 0 -5.5 -4t-10 -9.5t-11 -11.5t-8.5 -10q-17 -21 -24 -47.5t-7 -52.5zM268 599q-3 0 -3 -3t2.5 -2.5t2.5 2.5q0 1 -2 3z
M278 644q-3 1 -3 -8q0 -3 0.5 -6t2.5 -1t2 7q0 4 -2 8zM98 659q0 2 -3 2t-2.5 -2.5t2.5 -2.5q1 0 3 3zM277 789q0 -2 0.5 -3t0.5 -2q1 -5 3.5 -11.5l5 -13t4.5 -11l2 -4.5h6q0 3 -1.5 10t-4 15t-5 14t-5.5 6h-6zM98 794v-5l5 5h-5zM197 826q0 -6 7 -11t16.5 -9t18.5 -7
t14 -5v2q0 7 -5 14t-12.5 12.5t-15.5 8.5t-15 3h-2q-5 -3 -5 -5l-0.5 -1t-0.5 -2zM143 829q-22 -10 -35 -25l1.5 -0.5t3.5 -0.5q8 0 19 7.5t11 15.5v3zM170 834h-2q-5 -3 -5 -5l-0.5 -1t-0.5 -2l1 -2l10 10h-3zM263 849q-4 0 -4 -5t4 -5t4 5t-4 5zM258 849q0 2 -3 2
t-2.5 -2.5t2.5 -2.5q1 0 3 3zM558 233q0 84 38 149t113 98q1 0 7.5 4.5t7.5 5.5l10 5q1 0 -1 0.5t0 0.5q0 -10 8.5 -16t20 -8.5t23.5 -2.5t19 1q42 -35 61 -76.5t19 -94.5q0 -23 -3 -64.5t-13.5 -84t-30.5 -77t-53 -43.5h-10q-6 0 -13.5 -0.5t-15.5 -0.5h-9h-33t-34 6
q-23 10 -43 33.5t-35 52.5t-24 59t-9 53zM779 100q-2 -2 -7 -6t-10.5 -9t-10.5 -9.5t-7 -5.5q-5 -3 -8.5 -4t-3.5 -7q6 0 14 3.5t15.5 9t12.5 12t5 13.5v3zM819 95q-5 -8 -11 -18.5t-14 -16.5l2 -1q1 0 2 0.5l1 0.5q6 5 16 14.5t10 20.5h-6zM679 80q4 -6 11 -6h14
q14 0 25 3.5t20 17.5h-3h-2l-55 -10h-5q-5 -3 -5 -5zM624 182q0 -7 2.5 -20t7.5 -26t12.5 -22.5t17.5 -9.5q1 0 2.5 0.5t2.5 0.5q-23 30 -27.5 68t-4.5 74l-1.5 -0.5t-1.5 -1.5q-2 -2 -3.5 -7.5t-1.5 -7.5q0 -1 -0.5 -6.5t-1.5 -13t-2 -14.5t-1 -11v-3zM659 172
q0 -10 2.5 -22t7.5 -22t14 -17t21 -7q31 0 52 29t34 68t18.5 78t5.5 59q0 16 -7 29t-19 22.5t-27 15t-30 5.5h-2q-22 -24 -34 -53t-17 -60.5t-5 -63.5t1 -63l-5 -10l-10 20v-8zM759 110q-4 0 -4 -5t4 -5t4 5t-4 5zM859 315q-12 -36 -18.5 -73t-6.5 -75v-7q7 3 12 19t8 35.5
t4 37.5t1 25v7v23v8zM598 255q0 -5 0.5 -12t0.5 -8q0 -7 2 -18.5t3 -11.5h5q2 24 9 47.5t16 46t18.5 45.5t16.5 46h-5q-1 0 -5.5 -4t-10 -9.5t-11 -11.5t-8.5 -10q-17 -21 -24 -47.5t-7 -52.5zM814 210q-3 0 -3 -3t2.5 -2.5t2.5 2.5q0 1 -2 3zM824 255q-3 1 -3 -8
q0 -3 0.5 -6t2.5 -1t2 7q0 4 -2 8zM644 270q0 2 -3 2t-2.5 -2.5t2.5 -2.5q1 0 3 3zM823 400q0 -2 0.5 -3t0.5 -2q1 -5 3.5 -11.5l5 -13t4.5 -11l2 -4.5h6q0 3 -1.5 10t-4 15t-5 14t-5.5 6h-6zM644 405v-5l5 5h-5zM743 437q0 -6 7 -11t16.5 -9t18.5 -7t14 -5v2q0 7 -5 14
t-12.5 12.5t-15.5 8.5t-15 3h-2q-5 -3 -5 -5l-0.5 -1t-0.5 -2zM689 440q-22 -10 -35 -25l1.5 -0.5t3.5 -0.5q8 0 19 7.5t11 15.5v3zM716 445h-2q-5 -3 -5 -5l-0.5 -1t-0.5 -2l1 -2l10 10h-3zM809 460q-4 0 -4 -5t4 -5t4 5t-4 5zM804 460q0 2 -3 2t-2.5 -2.5t2.5 -2.5
q1 0 3 3z" />
    <glyph glyph-name="FL0026h" unicode="&#x26;" horiz-adv-x="680" 
d="M414 705v5q-28 13 -55.5 26t-56 23t-58.5 16.5t-63 7.5q-13 -8 -17 -18.5t-4 -22.5q0 -7 2 -15.5t6.5 -15t12.5 -10t20 -0.5l31 -49l131 -106q23 -16 40 -27.5t31 -21.5v-1l21 -32l41 -127q-21 11 -40 23l7 51q21 -11 28.5 -13.5t6 1t-10.5 11.5t-22 18v3v8l-9 -5
q-12 9 -24.5 18.5t-23 17l-17.5 12.5t-7 6q-8 13 -19 20t-23.5 11.5t-25.5 10t-23 16.5q-3 3 -11 12.5t-18 19t-20 17.5t-17 8h-5q28 -27 49.5 -57.5t51.5 -57.5q5 -5 13 -12t16 -13.5t14.5 -11t7.5 -4.5h21q24 -14 42 -24h-3q-1 0 -3 -15t-4 -32q-35 19 -67 37.5t-57.5 33
t-41.5 23.5t-19 10q-1 13 -12.5 21.5t-27 13.5t-32.5 6.5t-29 1.5q-5 0 -20.5 -0.5t-20.5 -1.5q17 -26 31.5 -53t28.5 -54t29 -54t33 -52l273 -295v-16l-20 16q-5 5 -18 17t-27.5 24.5t-27.5 24t-18 16.5l-36 10l66 -125q22 -10 27 -31t5 -38q-9 0 -12.5 4.5t-5.5 10.5
t-4.5 12t-9.5 10q-4 7 -15.5 24.5t-24.5 37t-24.5 37t-16.5 24.5l-20 24q-7 10 -21 27t-28.5 33t-25 28t-10.5 13v17q-7 7 -22 28t-31.5 44t-31.5 43.5t-22 28.5q-3 3 -14.5 17.5t-26 33t-29 36.5t-22.5 28q-14 17 -22.5 36t-8.5 41q0 20 8.5 33.5t37.5 13.5q23 0 43.5 -6.5
t40.5 -15t40.5 -15t43.5 -6.5h10q-6 8 -14.5 13.5t-18 12.5t-19.5 17.5t-19 30.5q-6 12 -21 38.5t-30.5 54.5t-28 51t-12.5 28t1.5 10.5t9.5 6.5l182 8q7 0 17.5 -1.5t21 -5t19.5 -8t13 -10.5h-20q8 -9 18 -12t22 -3v9q3 0 24 -8t45 -19.5t43.5 -22.5t19.5 -17l10 8
q14 -14 45.5 -32t63 -37.5t55.5 -38t24 -33.5q-2 0 -13 0.5t-13 1.5q-1 0 -5.5 1t-9.5 2.5t-9.5 3t-5.5 1.5t-5.5 -3.5t-5.5 -4.5l-2 -0.5t-3 -0.5t-2.5 0.5t-2.5 0.5q-13 16 -22.5 25t-20 16t-24 14t-34.5 18q3 -2 10.5 -11.5t9.5 -12.5q1 -4 1.5 -5.5t0.5 -2.5h-16z
M374 398l15 -7.5t38 -20.5q-3 -23 -3 -38v-7l31 30q10 -5 20 -10.5t21 -12.5zM385 537q2 -1 4 -1h3l42 -34q-19 13 -34 23.5t-15 11.5zM69 517l1 4q3 5 13.5 9.5t21 8t18.5 5.5l8 2q-25 12 -49.5 15t-54.5 3q0 -18 8 -38.5t21.5 -39.5t30.5 -36t34 -27q-5 7 -14 20.5
t-17.5 28t-14.5 27.5t-6 18zM151 783q-9 8 -19 8.5t-22 0.5q-2 0 -10 -0.5t-10 -0.5q4 -13 10 -19t21 -6q11 0 17.5 3.5t12.5 13.5zM465 428l-2 -17q-5 3 -12 5.5t-14 6.5l19 11q4 -5 9 -6zM496 332v5v-5zM343 136q-8 0 -8 -8t8 -8t8 8t-8 8zM151 668q-8 0 -8 -7q0 -9 8 -9
t8 9q0 7 -8 7zM272 816q-8 0 -8 -8q0 -9 8 -9t8 9q0 8 -8 8zM456 360l-1 -5q-8 4 -15 8t-13 7v6q7 -5 14 -8t15 -8v0zM465 -126q12 -6 12 -17h-12v17zM434 497v5v-5zM191 767v-8h-10v8h10zM566 701v-8h-10v8h10zM515 718q-2 4 5 4q6 0 5 -4.5t-5 -4.5q-3 0 -5 5zM384 78
q5 2 5 -4q0 -5 -5 -3.5t-5 3.5q0 4 5 4zM191 595l10 -17q0 1 1 2.5l1 1.5q0 1 -1 3l-1 2q-1 2 -4.5 4.5t-5.5 3.5zM52 1v9q15 33 34 65t37.5 64.5t33.5 65.5t20 68q5 33 24 53t44 38.5t53 41t51 61t37 98.5t12 153h5h5q2 -1 5.5 -3.5t4.5 -4.5q9 4 16 14t12 21.5t7.5 23
t2.5 19.5h-10l-19 -47h-9v16q0 1 6.5 12t15.5 26t19 30t17 24q6 9 15 19.5t20 19.5t23.5 15t27.5 6v-44q14 -5 21.5 -9.5t7.5 -17.5q0 -2 -0.5 -6t-0.5 -6q-60 -101 -103 -173.5t-72.5 -124t-48 -84t-29 -54t-15 -35t-7 -25.5t-5 -26.5t-8.5 -37.5q-6 -9 -19.5 -32
t-28.5 -49.5t-28.5 -50t-19.5 -32.5q-2 -7 -8 -7.5t-12 -0.5q-14 0 -20 10t-8 22l-77 -133q-1 -2 -4.5 -4.5t-5.5 -2.5l-1.5 -0.5t-2.5 -0.5q-9 0 -12 4.5t-3 11.5zM331 538l-10 -7h10v7zM331 562q0 -2 3.5 -5.5t5.5 -3.5q4 7 12 18t16.5 24.5t14.5 27t6 24.5v8
q-9 -3 -16 -12.5t-12 -21t-10 -23.5t-11 -21q-2 -2 -5.5 -8t-3.5 -7zM408 695q-8 -3 -9 -7t-1 -9v-8q2 2 5.5 7.5t4.5 7.5v4v5z" />
    <glyph glyph-name="FL0027h" unicode="'" horiz-adv-x="203" 
d="M185 578q-17 16 -20 25.5t-2 18.5t2 19.5t-7 27.5l-55 183q-2 0 -6 -4t-4 -6t-4.5 -0.5t-9.5 3t-9.5 1t-4.5 -6.5q0 -10 0.5 -19t0.5 -12q-14 -2 -23 -12t-9 -25v-5q1 -6 6 -19.5t11.5 -29.5t12 -32.5t7.5 -28.5l16 -108zM144 558v7l5 2zM80 601q2 -16 4 -27z" />
    <glyph glyph-name="FL0028h" unicode="(" horiz-adv-x="428" 
d="M259 39q-9 0 -25 -1t-33 1.5t-31.5 10.5t-21.5 26q2 1 3.5 4.5t2.5 5.5v5v4q-22 13 -32 42t-13 64t-1 71.5t4 66.5q-7 -3 -9.5 -15t-3 -27t0.5 -30.5t1 -25.5q0 -26 2.5 -48t2.5 -47v-4l-5 -19v-5v-4l59 -74q14 -18 38 -25.5t38 -13.5h-24q-31 0 -63 17.5t-58.5 49
t-43.5 76.5t-17 101v9q1 5 2.5 19t3.5 19q0 -2 2 -5.5t4 -4.5h3h2l12 76q2 14 12 39.5t20.5 50.5t19 44l8.5 19q0 1 -0.5 3l-0.5 2q-2 3 -6 10t-6 9q19 25 32 52t33 50l1 -3q0 -1 -0.5 -3l-0.5 -2q-2 -3 -5.5 -14t-5.5 -15q-2 -2 -6.5 -10t-9.5 -17.5t-9 -18t-5 -10.5v-9
v-29v-8q-2 -32 -10 -63t-8 -64v-4q1 -2 2.5 -5.5t3.5 -3.5q4 24 9 58.5t12.5 69.5t18 65.5t25.5 48.5q8 10 19.5 20.5t23 22t22.5 24.5t18 27q-1 0 -2 0.5t-2 0.5q-6 0 -13.5 -6.5t-16 -14.5l-17 -16t-15.5 -11v9q4 0 13 8t11 11q1 1 0.5 9t-0.5 10q0 1 2 4t4 5
q15 17 31.5 30t34 23.5t35 20t34.5 20.5q8 5 10.5 17t2.5 23q-41 0 -84 -28.5t-83.5 -76t-76.5 -109.5t-63 -129.5t-43 -136t-16 -128.5q0 -74 18 -126t48 -85t68 -48.5t79 -15.5zM47 100v5q20 -29 39 -53t44 -41q13 -8 26.5 -11t26.5 -17h-12q-12 0 -32.5 10t-41 26
t-35.5 37t-15 44zM200 -17q0 -4 -2 -4t-3 4t3 4q3 0 2 -4zM224 -17q0 -4 -2 -4t-3.5 4t3.5 4q3 0 2 -4zM266 -8q1 -5 -1 -8t-5 -1t0.5 8t5.5 1zM284 11q4 0 4 -10q0 -9 -4 -9q-5 0 -5 9q0 10 5 10zM224 76q2 -7 6 -9h3h3q25 0 24.5 9.5t-24.5 9.5q-2 0 -6 -4zM165 86v-10h42
q-9 8 -15 9.5t-15 1.5q-2 0 -6 -0.5t-6 -0.5zM42 123q3 -2 3 -5t-3 -4t-3 4q0 6 3 5zM41 268q0 -13 3.5 -36t10 -45.5t15.5 -39t19 -16.5v11q-2 3 -6.5 10.5t-9.5 16.5t-9 17t-5 12q-2 4 -3 15.5t-2.5 23.5t-4 21.5t-8.5 9.5zM65 450q5 0 5 -9q0 -8 -5 -8t-5 8q0 9 5 9z
M242 703q-2 5 -5 -1t-1 -8q3 -2 5.5 1t0.5 8zM295 722v-11q2 0 3 0.5t3 0.5q2 1 6 4.5t6 5.5h-18zM260 751q4 0 4 -10t-4 -10q-5 0 -5 10t5 10zM392 826q-5 0 -7.5 -6t-2.5 -14q1 0 3 0.5t4 0.5t9 3.5t9 5.5q-2 2 -6 5.5t-6 4.5h-3z" />
    <glyph glyph-name="FL0029h" unicode=")" horiz-adv-x="428" 
d="M159 767q9 0 25 1t33 -1.5t31.5 -10.5t21.5 -26q-2 -1 -3.5 -4.5t-2.5 -5.5v-5v-4q22 -14 32 -42.5t13 -63.5t1 -71.5t-4 -66.5q7 3 9.5 15t3 27t-0.5 30.5t-1 25.5q0 26 -2.5 48t-2.5 47v4l5 19v5v4l-59 74q-14 18 -38 25.5t-38 13.5h24q31 0 63 -17.5t58.5 -49
t43.5 -77t17 -100.5v-9q-1 -5 -2.5 -19t-3.5 -19q0 2 -2 5.5t-4 4.5h-3h-2l-12 -76q-2 -14 -12 -39.5t-20.5 -50.5t-19 -44l-8.5 -19q0 -1 0.5 -3l0.5 -2q2 -3 6 -10t6 -9q-19 -25 -32 -52t-33 -50l-1 3q0 1 0.5 3l0.5 2q2 3 5.5 14t5.5 15q1 2 6 10t10 17.5t9 18t5 10.5v9
v29v8q2 32 10 63t8 64v4q-1 2 -2.5 5.5t-3.5 3.5q-4 -24 -9 -58.5t-12.5 -69.5t-18 -65.5t-25.5 -48.5q-8 -10 -19.5 -20.5t-23 -22t-22.5 -24.5t-18 -27q1 0 2 -0.5t2 -0.5q6 0 13.5 6.5t16 14.5t16.5 16t16 11v-9q-4 0 -13 -8t-11 -11q-1 -1 -0.5 -9t0.5 -10q0 -1 -2 -4
t-4 -5q-15 -17 -31.5 -30t-34 -23.5t-35.5 -20t-34 -20.5q-8 -5 -10.5 -17t-2.5 -23q41 0 84 28.5t83.5 76t76.5 109.5t63 129.5t43 136t16 128.5q0 73 -18 125.5t-48 85.5t-68.5 48.5t-78.5 15.5zM371 706v-5q-20 29 -39 53t-44 41q-13 8 -26.5 11t-26.5 17h12
q12 0 32.5 -10t41 -26t35.5 -37.5t15 -43.5zM218 823q0 4 2 4t3 -4t-3 -4q-3 0 -2 4zM194 823q0 4 2 4t3.5 -4t-3.5 -4q-3 0 -2 4zM152 814q-1 5 1 8t5 1t-0.5 -8t-5.5 -1zM134 795q-4 0 -4 10q0 9 4 9q5 0 5 -9q0 -10 -5 -10zM194 730q-2 7 -6 9h-3h-3q-25 0 -24.5 -9.5
t24.5 -9.5q2 0 6 4zM253 720v10h-42q9 -8 15 -9.5t15 -1.5q2 0 6 0.5t6 0.5zM376 683q-3 1 -3 5q0 3 3 4t3 -4q0 -7 -3 -5zM377 538q0 13 -3.5 36t-10 45.5t-15.5 39t-19 16.5v-11q2 -3 6.5 -10.5t9.5 -16.5t9 -17t5 -12q2 -4 3 -15.5t2.5 -23.5t4 -21.5t8.5 -9.5zM353 356
q-5 0 -5 9q0 8 5 8t5 -8q0 -9 -5 -9zM176 103q2 -5 5 1t1 8q-3 2 -5.5 -1t-0.5 -8zM123 84v11q-2 0 -3 -0.5t-3 -0.5q-2 -1 -6 -4.5t-6 -5.5h18zM158 55q-4 0 -4 10t4 10q5 0 5 -10t-5 -10zM26 -20q5 0 7.5 6t2.5 14q-1 0 -3 -0.5t-4 -0.5t-9 -3.5t-9 -5.5q2 -2 6 -5.5
t6 -4.5h3z" />
    <glyph glyph-name="FL002Ah" unicode="*" horiz-adv-x="402" 
d="M375 699q0 2 -2.5 4.5t-4.5 2.5t-8 0.5t-14 0.5t-14 -0.5t-8 -0.5q-3 22 -26 22h-4q-9 -1 -24 -3t-32 -4l58 108q-2 2 -6 2q-3 0 -4 -2q-2 -2 -6.5 -6t-9.5 -9l-9.5 -9.5l-6.5 -6.5q-16 13 -33 -2l-3 -3q-6 -7 -14 -18.5t-19 -25.5l-28 93q-2 0 -4.5 -2.5t-2.5 -4.5
q0 -1 -3 0.5t-6.5 2t-6.5 0t-3 -4.5v-21q-22 -3 -22 -26v-4q1 -6 7.5 -21.5t11.5 -31.5l-88 48q-1 -2 -1 -6q0 -3 1 -4t-2 -2.5t-6 -3.5t-5 -4.5t1 -5.5q5 -5 9.5 -9t6.5 -5q-13 -19 3 -35l2 -2q0 -3 3 -3q-16 -3 -27 -7.5t-11 -13.5q0 -17 19 -18h-18q2 -4 7.5 -16t7.5 -17
v-7l-8 -15q0 -2 -0.5 -3.5t-0.5 -3.5h16l38 12q-13 -16 -19.5 -29.5t0.5 -21.5q13 -12 28 3l-14 -14q4 -2 16.5 -6.5t17.5 -6.5l6 -6l5 -16q1 -1 1.5 -2.5t1.5 -2.5l12 11l18 35q-1 -14 -1.5 -27.5t0 -24t3.5 -17.5t9 -7q16 0 19 20v-18q4 2 16 7t16 7h8l15 -7q2 0 3.5 -1
t3.5 -1v16l-11 78q10 -12 20.5 -24.5t20.5 -21.5t18 -13t13 1q11 11 -2 27l14 -13q2 5 6.5 17t6.5 17l5 5l16 5q1 2 2 2q2 0 4 2l-12 12l-91 69zM300 572q-20 15 -41.5 32.5t-40.5 34.5l-3 12l8 2q11 -6 23.5 -16t24 -21.5t21 -21.5t14.5 -16zM196 514q-4 24 -6.5 50
t-3.5 52q6 -5 10 -7t6 -4v-1h1q4 -24 3 -51t-1 -39h-9zM109 559q11 15 19 34t18 36q2 -8 3 -14t1 -8t0.5 -4t0.5 -4q-10 -15 -19.5 -28t-16.5 -19zM52 640q16 2 33 8.5t34 11.5q-5 -5 -10 -11t-11 -12q-14 -3 -26.5 -4.5t-19.5 -1.5v9zM236 676q-2 -3 -3 -3h-1l-3 2
q-5 5 3 5q4 0 4 -4z" />
    <glyph glyph-name="FL002Bh" unicode="+" 
d="M331 297l-13 41l229 69q0 2 -4 6t-6 4q-3 0 -12 0.5t-20 0.5q-10 0 -19 -0.5t-12 -0.5q-2 14 -12 23t-25 9h-5q-21 -2 -61.5 -8t-79.5 -12l-55 183q-2 0 -6 -4t-4 -6t-4.5 -0.5t-9.5 3t-9.5 1t-4.5 -6.5q0 -10 0.5 -19t0.5 -12q-14 -2 -23 -12t-9 -25v-5q1 -6 6 -19.5
t11.5 -29.5t12 -32.5t7.5 -28.5q-18 -3 -47.5 -4.5t-57.5 -5t-48 -11t-20 -20.5q0 -25 30 -26h-28q1 -3 4 -9.5t6.5 -14t6.5 -14t4 -9.5v-11l-11 -21q0 -2 -1 -5t-1 -5h23l156 48q2 -12 3.5 -20.5t2.5 -11.5q3 -17 0 -48t-5 -62t1 -54t17 -23q23 0 26 30v-28q3 1 9.5 4
t14 6.5t14 6.5t9.5 4h11l21 -11q2 0 5 -1t5 -1v23zM291 143q-6 42 -10 87.5t-4 87.5v7l5 2q12 -8 16.5 -32.5t6 -54t0.5 -57t-1 -40.5h-13zM85 323q32 5 64 17.5t64 20.5q2 -16 4 -27q-17 -6 -36 -10.5t-37.5 -7.5t-34 -4.5t-24.5 -1.5v13zM348 375q-2 -5 -5 -5q-4 0 -6 5
t6 5q7 0 5 -5z" />
    <glyph glyph-name="FL002Ch" unicode="," horiz-adv-x="134" 
d="M9 46q0 9 4 19.5t11.5 19.5t17.5 14.5t22 5.5t19.5 -5.5t12 -14.5t6 -19.5t1.5 -19.5t-13.5 -30.5t-32 -44t-37 -39.5t-28.5 -17q-9 0 -9 10t4 27.5t9 36t9 34.5t4 23zM64 69q-11 0 -11 -11q0 -12 11 -12q10 0 10 12q0 11 -10 11z" />
    <glyph glyph-name="FL002Dh" unicode="-" 
d="M232 312l-168 -52h-23q0 2 1 5t1 5l11 21v5v6q-1 3 -4 9.5t-6.5 14t-6.5 14t-4 9.5h31q-33 1 -33 26q0 14 22 21.5t51.5 11t59.5 5t47 4.5q4 1 19 3t35.5 5.5t44.5 7t47 6.5t43 6t32 4h5q15 0 25 -9t12 -23q3 0 12 0.5t19 0.5q11 0 20 -0.5t12 -0.5q2 0 6 -4t4 -6z
M85 323v-13q14 0 42 4t57 11t52 17t28 23q-1 0 -4.5 0.5t-6.5 0.5q-21 0 -42 -5.5t-42 -13t-42 -14.5t-42 -10zM348 375q2 5 -5 5q-8 0 -6 -5t6 -5q3 0 5 5z" />
    <glyph glyph-name="period" unicode="." horiz-adv-x="134" 
d="M9 46q0 9 4 19.5t11.5 19.5t17.5 14.5t22 5.5t19.5 -5.5t12 -14.5t6 -19.5t1.5 -19.5t-6 -17.5t-15 -15.5t-19.5 -11t-20.5 -4q-24 0 -28.5 15.5t-4.5 32.5zM64 69q-11 0 -11 -11q0 -12 11 -12q10 0 10 12q0 11 -10 11z" />
    <glyph glyph-name="FL002Fh" unicode="/" horiz-adv-x="589" 
d="M51 -113v10q15 41 34 80t37.5 78.5t33 80t19.5 83.5q5 40 23.5 64.5t43.5 47t52.5 50t50 74t36.5 120t12 186.5q1 0 2.5 0.5t2.5 0.5t3 -0.5l2 -0.5q2 -1 5.5 -4t4.5 -5q9 5 15.5 16.5t11.5 26t7.5 28.5t2.5 24h-9l-19 -57h-9v19q0 1 6.5 15t15.5 32t18.5 36.5t16.5 29.5
q6 11 15 24t19.5 24t23.5 18t27 7v-54q14 -5 21.5 -11.5t7.5 -21.5q0 -2 -0.5 -7t-0.5 -7q-59 -124 -101.5 -212.5t-72 -151t-47.5 -102.5t-28 -66.5t-15 -42.5t-7.5 -31t-5 -32.5t-8.5 -45.5q-6 -11 -19.5 -39.5t-28 -60.5t-28 -60.5t-19.5 -39.5q-2 -8 -7.5 -9t-11.5 -1
q-14 0 -20 12.5t-8 26.5l-76 -162q-1 -2 -4.5 -5t-5.5 -4l-1.5 -0.5t-2.5 -0.5q-9 0 -12 6t-3 14zM327 542l-10 -9h10v9zM327 571q0 -2 3.5 -6t5.5 -4q4 8 12 21.5t16 29.5t14 32.5t6 30.5v10q-9 -4 -15.5 -15.5t-11.5 -26l-10 -29t-11 -24.5l-5.5 -11t-3.5 -8zM403 733
q-8 -3 -9 -8.5t-1 -10.5v-10q2 2 5.5 9.5t4.5 9.5v5v5z" />
    <glyph glyph-name="FL0030h" unicode="0" horiz-adv-x="670" 
d="M661 524q0 -84 -19 -159t-56.5 -138.5t-94 -113.5t-131.5 -83q-1 0 -5.5 -3t-9.5 -6.5t-9.5 -6.5t-5.5 -4l-20 -10q-2 -1 1 -1.5t1 -0.5q0 20 -17.5 31.5t-40.5 16.5t-47 5.5t-37 -1.5q-85 69 -123 152.5t-38 189.5q0 31 2.5 79.5t10 104t21 113.5t36 107.5t54.5 85.5
t77 48h19q13 0 28.5 0.5t29.5 0.5h18q14 0 31.5 0.5t35.5 0t35.5 -3t32.5 -8.5q30 -13 58.5 -39t53 -60t44.5 -73.5t34.5 -79t22.5 -77t8 -67.5zM220 790q4 3 14 11.5t21 18t21 18.5t14 12q10 6 17 7.5t7 14.5q-11 0 -27.5 -7t-31.5 -18t-25.5 -25t-10.5 -27q0 -1 0.5 -2.5
t0.5 -2.5zM140 800q8 16 20.5 37t29.5 33q-1 0 -2.5 0.5t-2.5 0.5t-3 -0.5l-2 -0.5l-15 -12.5t-17 -17t-14 -20t-6 -20.5h12zM420 830q-11 11 -23 11h-27q-29 0 -51 -7.5t-39 -33.5h5h5l110 20h10q2 1 5.5 4.5t4.5 5.5zM530 625q0 14 -5 40t-15.5 52t-25.5 45t-34 19
q-2 0 -5.5 -0.5t-4.5 -0.5q23 -30 36 -65t19 -71.5t7 -74.5t1 -74q1 0 3.5 1.5t3.5 3.5q2 2 5.5 13.5t4.5 16.5q0 2 1 13t2.5 25t3.5 28.5t3 23.5v5zM460 645q0 20 -5 44t-15.5 44.5t-28 34t-42.5 13.5q-42 0 -74 -27t-56.5 -70.5t-41.5 -96.5t-27.5 -105t-15 -97t-4.5 -72
q0 -32 14.5 -58t37.5 -45t53 -29.5t60 -10.5h5q44 49 67.5 107t33.5 120.5t10.5 126.5t-1.5 126l10 20l20 -40v15zM260 770q8 0 8 10t-8 10t-8 -10t8 -10zM60 360q23 72 36.5 146t13.5 149v15q-10 -4 -18 -20.5t-13.5 -39.5t-9.5 -49.5t-6 -51t-3 -44.5t-1 -30v-14
q0 -11 0.5 -23t0.5 -23v-15zM581 480q0 8 -0.5 23t-0.5 17q0 7 -1.5 17t-3 19.5t-3 16.5t-2.5 7h-10q-4 -49 -18.5 -95.5t-32.5 -92t-37 -91t-32 -91.5h10q2 0 10.5 8t19.5 19t22 23t18 20q34 42 47.5 95.5t13.5 104.5zM150 570q5 -2 5 5t-5 5t-5 -5t5 -5zM130 480
q2 -2 3.5 3t1.5 12t-1.5 12t-3.5 3q-5 -5 -5 -15t5 -15zM490 450q-2 -5 5 -5q6 0 5 5t-5 5q-3 0 -5 -5zM132 190q0 2 -1 5t-1 5q-3 9 -8 22.5t-9.5 26.5t-8.5 22l-4 9h-12q0 -5 3 -20t7.5 -30.5t10.5 -27.5t11 -12h12zM490 180v10l-10 -10h10zM291 115q0 13 -14 23
t-32.5 17.5t-37 13.5t-27.5 11v-5q0 -15 10 -28.5t24.5 -24t31 -16.5t29.5 -6h5q2 1 5.5 4.5t4.5 5.5l0.5 2t0.5 3zM400 110q20 8 38 20.5t32 29.5q-1 0 -4.5 0.5t-5.5 0.5q-8 0 -18.5 -4t-20 -10.5t-16 -15t-6.5 -16.5q0 -1 0.5 -2.5t0.5 -2.5zM345 99q1 0 3 0.5l2 0.5
q2 1 5.5 4.5t4.5 5.5l0.5 2t0.5 3t-0.5 2.5t-0.5 2.5l-20 -20q1 0 2.5 -0.5t2.5 -0.5zM160 70q8 0 8 10t-8 10t-8 -10t8 -10zM170 70q-2 -5 5 -5t5 5t-5 5t-5 -5z" />
    <glyph glyph-name="FL0031h" unicode="1" 
d="M302 705v-12q0 -8 -0.5 -17t-0.5 -17v-12q0 -54 6.5 -106.5t6.5 -106.5q0 -60 -6 -116.5t-6 -116.5h32l168 52h23q0 -2 -1 -5t-1 -5l-11 -21v-5v-6q1 -3 4 -9.5t6.5 -14t6.5 -14t4 -9.5h-31q33 -2 33 -26q0 -14 -22 -21.5t-51.5 -11t-60 -5t-46.5 -4.5q-7 -1 -35.5 -5.5
t-64 -10t-69.5 -10t-52 -6.5h-5q-15 0 -25 9t-12 23q-3 0 -12 -0.5t-19 -0.5q-11 0 -20 0.5t-12 0.5q-2 0 -6 4t-4 6q11 17 40 26t62.5 15.5t66 13t51.5 19.5q2 19 4 66.5t3.5 101.5t2.5 101.5t1 66.5q0 10 -0.5 33.5t-0.5 49.5t-1 49.5t-1 33.5q-29 0 -58.5 -5.5
t-59.5 -11.5t-60 -11.5t-61 -5.5v36l74 21v10h-53v21l252 53q5 -1 10 -1h10h21zM481 190v13q-14 0 -42 -4t-57 -11t-52 -17t-28 -23q1 0 4.5 -0.5t6.5 -0.5q21 0 42 5.5t42 13t42 14.5t42 10zM218 138q-2 -5 5 -5q8 0 6 5t-6 5q-3 0 -5 -5z" />
    <glyph glyph-name="FL0032h" unicode="2" horiz-adv-x="787" 
d="M589 -43q0 -19 -13 -19q-1 0 -3 0.5l-2 0.5l-506 73q-14 142 -2 237t39.5 154.5t65 88.5t75 40t70 9.5t49.5 -4.5q33 -6 64 -17t65 -11q8 0 14 1.5t6 12.5q0 1 -0.5 2.5t-0.5 2.5q0 54 -4 96.5t-18.5 76.5t-43.5 61t-78 49t-121.5 41t-175.5 37v30q21 0 51 -2t60.5 -5.5
t59.5 -9t49 -12.5l286 -108q12 -12 30.5 -45t36 -72.5t30 -77.5t12.5 -59h-43q7 -11 20 -19.5l26 -17t23 -18t10 -22.5q0 -8 -16 -15.5t-40 -15t-52.5 -14t-54.5 -11t-45.5 -7.5t-24.5 -3q-21 0 -37 3.5t-32 7.5t-34.5 7t-43.5 1q-56 15 -89 4.5t-50 -30t-22 -41t-5 -28.5
q0 -1 0.5 -3l0.5 -2q0 -3 2.5 -10t4.5 -9q2 -4 -3 -19t-11 -32t-10.5 -32.5t-0.5 -19.5q10 -11 22.5 -32.5t28 -43t35.5 -38.5t45 -19q5 0 27.5 0.5t56.5 0t77 -2t89 -6.5q4 -4 22 -9t38.5 -9.5t36.5 -8t16 -4.5t-0.5 -3l-0.5 -2q-6 -8 -16 -10t-21 -2q-13 0 -20.5 1.5
t-12.5 1.5q5 -11 7 -19.5t2 -19.5zM104 184q-7 0 -7 -9q0 -10 7 -10q6 0 6 10q0 9 -6 9zM94 286q-1 0 -2 -0.5t-2 -0.5l-1 -91q-1 1 0.5 15t3.5 30.5t3.5 30.5t0.5 15l-1 0.5t-2 0.5zM533 509q-6 0 -6 -10q0 -9 6 -9t6 9q0 10 -6 10v0zM595 585q5 -8 11 -12t12 -7
q-5 8 -10 12t-13 7zM561 614q-1 0 -2 -0.5t-2 -0.5q1 -2 3.5 -5t4.5 -4l1 -0.5t2 -0.5t1.5 0.5t1.5 0.5q-2 7 -6 9l-1.5 0.5t-2.5 0.5zM521 643q-1 0 -1.5 -0.5l-0.5 -0.5l14 -10q0 2 -2.5 5.5t-4.5 4.5l-2 0.5t-3 0.5z" />
    <glyph glyph-name="FL0033h" unicode="3" horiz-adv-x="680" 
d="M255 746v5q28 16 55 31.5t55 28.5t57.5 21t62.5 9q13 -9 17 -22.5t4 -27.5q0 -8 -2 -18.5t-6.5 -19t-12.5 -12.5t-20 0l-30 -60l-130 -130q-23 -19 -39.5 -33t-30.5 -26v-1l-20 -40l-41 -155q10 8 20 14.5t20 14.5l-7 62q-21 -13 -28.5 -16t-6 1t10.5 13.5t22 21.5v4v10
l9 -6l24 22t22.5 20.5t17.5 16t7 7.5q7 16 18 24.5t23.5 14.5l25 12t23.5 19q3 4 11 15.5t17.5 24t19.5 22t17 9.5q1 0 2.5 -0.5t2.5 -0.5q-28 -33 -49.5 -70.5t-50.5 -69.5q-5 -6 -13 -14.5t-16 -16.5t-14 -13.5t-7 -5.5h-21q-12 -8 -22.5 -15.5t-19.5 -13.5l3 -1
q1 0 3 -18t4 -39q34 24 66 46.5t57 39.5t41 28t19 13q1 16 12 26.5t26.5 16t32.5 7.5t29 2q5 0 20 -0.5t20 -1.5q-17 -32 -31 -65l-28 -66t-28.5 -65.5t-32.5 -63.5l-270 -360v-20l20 20q5 6 18 20.5t27 30t27 29.5t18 20l35 12l-65 -152q-11 -6 -17.5 -16t-9.5 -22
t-4 -24.5t-1 -22.5q9 0 12.5 5.5t5.5 13t4.5 15t9.5 11.5q4 9 15 30.5t24 45.5t24.5 45t16.5 29l20 30q7 13 21 33.5t28 40.5t24.5 34.5t10.5 15.5v20q7 9 22 34.5t31 54t31 53.5t22 34q2 3 13.5 21t26 40.5t28.5 44.5t22 34q14 21 22.5 44.5t8.5 49.5q0 25 -8.5 41
t-36.5 16q-23 0 -43.5 -8t-40 -18t-40 -18t-42.5 -8q-2 0 -5.5 0.5t-4.5 0.5q6 10 14.5 16.5t17.5 15t19 21.5t19 37q6 15 20.5 47t30.5 66t28 62.5t12 34.5q0 5 -1.5 12t-9.5 8l-180 10q-7 0 -17 -2t-20.5 -6t-19.5 -9.5t-13 -12.5h20q-8 -11 -18 -14.5t-22 -3.5v10
q-3 0 -24 -10t-44.5 -23.5t-42.5 -27.5t-19 -21l-10 10q-14 -16 -45 -38t-62.5 -46t-55 -47t-23.5 -41q2 0 13 0.5t13 1.5q1 0 5.5 1.5t9.5 3.5t9.5 3.5t5.5 1.5t5 -4.5t5 -5.5l2 -0.5t3 -0.5t2.5 0.5t2.5 0.5q13 19 22.5 30.5t19.5 20.5t23.5 17.5t34.5 21.5
q-3 -3 -10.5 -14.5t-9.5 -15.5l-2 -10h16zM295 371l-15 -9.5t-38 -24.5q3 -27 3 -46v-9l-30 37q-10 -7 -20 -13.5t-21 -14.5zM284 540q-2 -1 -4 -1h-3l-42 -42q19 17 34 29.5t15 13.5zM596 516q0 1 -0.5 3l-0.5 2q-3 6 -13 11.5t-20.5 9.5t-18.5 6.5l-8 2.5q24 15 48.5 19
t53.5 4q0 -22 -8 -47t-21 -49t-29.5 -44t-33.5 -33q5 9 13.5 25.5t17 34.5t14.5 33.5t6 21.5zM515 841q9 9 19 10t21 1q2 0 10 -0.5t10 -0.5q-4 -16 -10 -23.5t-20 -7.5q-11 0 -17.5 4.5t-12.5 16.5zM205 407l2 -20q5 3 11.5 6.5t13.5 8.5l-18 13q-6 -6 -9 -8zM174 291v5v-5
zM325 51q8 0 8 -10t-8 -10t-8 10t8 10zM515 701q8 0 8 -10t-8 -10t-8 10t8 10zM395 881q8 0 8 -10t-8 -10t-8 10t8 10zM214 325l1 -6q7 5 14 9t13 9v7q-7 -5 -14 -9.5t-14 -9.5v0zM205 -269q-12 -6 -12 -20h12v20zM235 492v5v-5zM475 821v-10h10v10h-10zM105 741v-10h10v10
h-10zM155 761q2 5 -5 5q-6 0 -5 -5t5 -5q3 0 5 5zM285 -19q-5 2 -5 -5q0 -6 5 -5t5 5q0 3 -5 5zM475 611l-10 -20q0 1 -0.5 2.5t-0.5 2.5t0.5 3l0.5 2q1 2 4.5 5.5t5.5 4.5z" />
    <glyph glyph-name="FL0034h" unicode="4" horiz-adv-x="480" 
d="M428 890v-210q13 -8 27.5 -20.5t14.5 -29.5t-13 -25.5t-29 -14.5v-390q-8 -20 -16 -44.5t-14 -45.5l-25 10v-74l-10 1t-15 3q-2 1 -5.5 4.5t-4.5 5.5q-3 45 -3.5 96t-1.5 103.5t-4 104t-11 96.5q-1 7 -5 18.5t-5 11.5h-190l-10 -10q-44 -6 -65 -6t-28.5 5.5t-7 16.5
t0.5 28v36q0 6 1.5 31t3.5 54t3.5 54t1.5 31q1 17 0 30.5t-1 26.5q0 25 11 53q1 0 4.5 0.5t5.5 0.5q10 0 16.5 -6.5t12.5 -15t13 -17t18 -12.5l20 -200q5 -1 20 -1.5t20 -0.5q20 0 42.5 3t44.5 10.5t41 19.5t32 29q0 10 1 37.5t2.5 58t3.5 57.5t3 37q1 5 4.5 20t5.5 20
l15 -10v-217q9 0 14.5 -3t10.5 10q5 30 7.5 60.5t5.5 60.5t9 60t18 59zM428 620l20 20q-1 0 -2.5 0.5t-2.5 0.5t-3 -0.5l-2 -0.5q-2 -1 -5.5 -4.5t-4.5 -5.5l-0.5 -2t-0.5 -3t0.5 -2.5t0.5 -2.5zM358 598q14 0 20 12h-20v-12zM298 588q14 0 20 12h-20v-12zM358 540q8 0 8 10
t-8 10t-8 -10t8 -10zM116 507q6 0 22 0.5t34 1t34 1t22 0.5q7 0 21 1t27.5 5t24 12t10.5 23q-6 0 -23 0.5t-38.5 -0.5t-45 -3t-43.5 -7t-32.5 -13t-12.5 -21zM379 421v21q0 13 -0.5 25.5t-0.5 22.5v10l-10 10l-10 -10v-5q0 -6 -0.5 -12.5t-0.5 -13.5v-12q0 -78 3.5 -155
t7.5 -152q4 37 6.5 70.5t3.5 65.5t1 65v70zM378 130q8 0 8 10t-8 10t-8 -10t8 -10z" />
    <glyph glyph-name="FL0035h" unicode="5" horiz-adv-x="884" 
d="M165 24q0 -18 15 -18q1 0 3 0.5l2 0.5l588 68q10 7 16.5 39.5t11.5 77.5t8 96.5t6.5 97.5t7 80.5t9.5 44.5q0 2 0.5 6.5t0.5 6.5q0 20 -15.5 30t-36.5 14.5t-42 5t-32 0.5h-35q-63 0 -123.5 -1t-120.5 -9q-38 -6 -74.5 -16t-75.5 -10q-8 0 -15.5 1t-7.5 12l0.5 1.5
t0.5 2.5q0 50 4.5 90t22 71.5t50.5 56.5t90 45.5t141.5 38t203.5 34.5v28q-25 0 -59 -1.5t-70 -5t-69.5 -8.5t-56.5 -12l-332 -100q-9 -7 -22 -24t-27 -39t-28 -47t-25 -49t-18 -44.5t-7 -33.5h50q-8 -10 -23 -18l-30 -16t-26.5 -16.5t-11.5 -20.5q0 -7 18.5 -14.5t46.5 -14
t61 -13t63 -11t52.5 -7t28.5 -2.5q24 0 42.5 3.5l37 7t40 6t51.5 1.5q14 12 32 19t37.5 11t39 5t37.5 1h13q6 0 11.5 -17t10.5 -39t8 -42t3 -27q0 -1 -0.5 -2.5l-0.5 -1.5q0 -3 -3 -9.5t-5 -8.5q-3 -3 3 -17t13.5 -30t12 -30.5t0.5 -18.5q-11 -11 -25.5 -30.5t-33 -39.5
t-42 -36t-51.5 -18q-6 0 -32 0.5t-66 0.5t-89.5 -2t-102.5 -6q-5 -4 -26 -8.5t-44.5 -8.5t-42 -7.5t-18.5 -4.5t0.5 -2.5l0.5 -1.5q7 -8 18.5 -10t24.5 -2q14 0 23.5 1.5t14.5 1.5q-5 -11 -7.5 -18t-2.5 -18zM727 235q8 0 8 -8q0 -10 -8 -10q-7 0 -7 10q0 8 7 8zM739 330
q1 0 2.5 -0.5t2.5 -0.5l1 -85q1 1 -0.5 14.5t-4 28.5t-4 28t-0.5 14l1 0.5t2 0.5zM642 493q11 5 22.5 8t22.5 3l3 -141q-2 0 -6 9.5t-9.5 23.5t-11 30.5t-10 31t-8 24.5t-3.5 11zM724 511h44v-9l-35 -27zM230 538q6 0 6 -10q0 -8 -6 -8q-8 0 -8 8q0 10 8 10zM157 608
q-5 -8 -12 -11.5t-14 -5.5q5 8 11.5 11t14.5 6zM197 635q1 0 2.5 -0.5t2.5 -0.5q-1 -2 -4.5 -4.5t-5.5 -3.5l-1 -0.5t-2 -0.5t-2 0.5t-2 0.5q1 6 7 8l2 0.5t3 0.5zM243 662q1 0 2 -0.5l1 -0.5l-16 -9q0 2 3 5t5 4l2 0.5t3 0.5z" />
    <glyph glyph-name="FL0036h" unicode="6" horiz-adv-x="643" 
d="M569 188v112q41 74 47.5 116.5t-9.5 62.5t-49.5 21.5t-73 -6.5t-79 -21t-68.5 -23l-220 -110l-43 -29v-4v-6q2 -2 5 -5.5l3 -3.5l317 138l156 4q1 0 -3 -21t-10 -49.5t-12.5 -59t-10.5 -49.5q-8 -44 -32 -71.5t-54.5 -43.5t-64.5 -22t-62 -6q-11 0 -30 -1t-39.5 1.5
t-38.5 11t-26 26.5q2 1 4.5 4.5t2.5 5.5v5v4q-26 14 -37.5 43t-15 64t-1 72t4.5 67q-8 -3 -11.5 -15t-4 -27.5t0.5 -31.5t1 -26q0 -26 3.5 -47.5t3.5 -46.5v-4l-7 -19v-5v-5l71 -75q8 -9 20.5 -15t25.5 -10t25 -6.5t20 -5.5h-28q-37 0 -76 17t-71 49t-52.5 76.5t-20.5 100.5
v10q1 5 3 19t4 19q1 -2 3.5 -5.5t3.5 -4.5h4h4l14 77q3 14 14.5 39.5t24 51t22.5 44.5l10 19v5q-2 3 -7 10t-7 9q22 23 37.5 51t40.5 51l0.5 -1.5t0.5 -2.5t-0.5 -3l-0.5 -2q-2 -3 -7 -14t-7 -15q-2 -2 -7.5 -10t-11.5 -17t-11 -17.5t-6 -10.5v-9v-29v-9q-2 -32 -11.5 -63.5
t-9.5 -63.5v-4q1 -2 3 -5.5t4 -3.5q4 24 10 58.5t15 69.5t22 66t31 48q10 10 23.5 21t27.5 22.5t27 24.5t21 27q-1 0 -2 0.5l-1 0.5q-8 0 -17.5 -6.5t-19.5 -14.5l-20 -16t-19 -11v9q2 0 6.5 2.5t9 5.5t8.5 6t5 5q1 1 0.5 9t-0.5 10q0 1 3 4.5t5 5.5q17 16 37 29t41 23.5
t42.5 20t41.5 20.5q8 5 11.5 17.5t3.5 23.5q-49 0 -100.5 -28.5t-100.5 -76.5t-92.5 -110.5t-76 -130.5t-51.5 -137t-19 -129q0 -74 21.5 -126t57.5 -85t82 -48.5t95 -15.5zM52 174v5q23 -29 46 -53t53 -41q16 -8 32 -11t32 -17h-14q-14 0 -39 9.5t-49.5 26t-42.5 37.5
t-18 44zM235 57q0 -4 -3 -4q-2 0 -3 4.5t3 4.5q5 0 3 -5zM264 57q0 -4 -3 -4q-2 0 -3.5 4.5t3.5 4.5t3 -5zM314 67q2 -5 0 -8.5t-7 -1.5q-3 2 1 8.5t6 1.5zM336 85q4 0 4 -9t-4 -9q-7 0 -7 9t7 9zM423 113h4q2 -1 4.5 -4.5t2.5 -5.5q-13 -11 -23 -11q0 8 3 14.5t9 6.5z
M501 162q0 -26 -18 -38t-35 -12q0 7 6.5 16t15 16.5t17.5 12.5t14 5zM264 150q2 -7 8 -9h2h4q5 0 18.5 4.5t17.5 4.5q-5 2 -18.5 6t-17.5 4q-2 0 -7 -4t-7 -6zM193 160v-10h50q-11 8 -18 9.5t-18 1.5q-2 0 -7 -0.5t-7 -0.5zM356 169q-5 0 -5 -9q0 -10 5 -10q7 0 7 10
q0 9 -7 9zM44 198q4 -1 4 -5t-3.5 -4.5t-3.5 4.5q0 8 3 5zM44 343q0 -14 4.5 -37t12 -45t18 -38.5t22.5 -16.5v11q-2 3 -7 11t-11 16.5t-11 16.5t-6 11q-3 4 -4 15.5t-3 24t-5 22t-10 9.5zM73 526q6 0 6 -9t-6 -9t-6 9t6 9zM286 781q-2 5 -6.5 -1.5t-1.5 -8.5q5 -2 7 1.5
t1 8.5zM350 800v-11q2 0 3 0.5t3 0.5q2 1 7 4.5t7 5.5h-20zM307 827q6 0 6 -8q0 -10 -6 -10t-6 10q0 8 6 8zM466 903q-6 0 -9 -6t-3 -14q1 0 3.5 0.5t4.5 0.5q3 0 11.5 3.5t10.5 5.5q-2 2 -7 5.5t-7 4.5h-4z" />
    <glyph glyph-name="FL0037h" unicode="7" horiz-adv-x="1049" 
d="M9 -39q15 4 22.5 10t14 11t15.5 9t28 4q0 -8 -7 -15.5t-16.5 -14t-19.5 -10.5t-17 -4q-6 0 -11.5 1t-8.5 9zM133 37q18 21 36.5 37t37.5 31t38.5 30.5t39.5 34.5q45 40 85 80t86 82l19 9q24 11 48 32t44 42.5t33.5 38.5t16.5 20l181 190q4 18 21 33.5t27 23.5h-21
q0 19 16 19h5q2 -1 9.5 -5t9.5 -4l11 7t17 12q7 5 23 17l34 25.5l34 25.5t23 17q-3 0 -12 0.5t-12 0.5q-56 0 -99 -29q-15 -4 -45.5 -12t-69 -18.5t-81 -22t-81.5 -22.5q-38 -10 -68.5 -18t-44.5 -12l-31.5 -9t-25.5 -19q1 0 4.5 -0.5t5.5 -0.5q34 0 76 13.5t86 29.5
t88 29.5t82 13.5h9q-2 -6 -18.5 -13.5t-41 -16t-53.5 -17t-56 -16t-48 -13.5t-30 -9q-19 -6 -46 -15t-56.5 -18.5t-58.5 -19t-52.5 -17t-38 -12l-14.5 -4.5l-37 -28q-2 -1 -5.5 2.5t-4.5 6.5q-8 23 -11.5 34t-5.5 14t-2.5 2t-2.5 -1.5t-5.5 3t-10.5 15.5q9 8 17 17t12 21
h-105q-1 0 -5 3.5t-4 5.5l-0.5 2t-0.5 3q0 10 21.5 16.5t49.5 16t54.5 25t36.5 42.5q1 3 2 10.5t3.5 16t7 15t12.5 6.5q1 0 2 -0.5l1 -0.5q6 -10 8 -19t2 -18t-1.5 -19t-1.5 -20h12q91 23 186 44t191.5 37.5t193 26.5t189.5 10v-32q-24 -16 -42 -40t-14 -55l-114 -114
q-32 -52 -61 -85t-55.5 -55t-50 -37.5t-43.5 -31.5q-10 -8 -30.5 -25t-47 -38.5t-55.5 -45.5t-55 -45.5t-47 -39t-30 -25.5q-13 -11 -20 -20t-7 -26q1 0 3.5 -1t4.5 0l28 19h5h5q2 -1 5 -4.5t4 -5.5q-10 -23 -41.5 -45.5t-76 -45.5t-98 -45.5t-107.5 -43.5q-1 0 -5 -3
t-9 -6.5t-9.5 -6.5l-4.5 -3l-2 -0.5t-3 -0.5t-2.5 0.5t-2.5 0.5q1 9 8.5 18t15 17.5t12.5 16.5t2 14zM85 37q5 -2 5 -5q0 -2 -4.5 -4t-4.5 3q0 7 4 6zM180 123q8 0 8 -10q0 -9 -8 -9q-7 0 -7 9q0 10 7 10zM209 151q8 0 8 -9q0 -10 -8 -10t-8 10q0 9 8 9zM238 170h9l-9 -9v9z
M294 218q8 0 8 -10q0 -9 -8 -9q-7 0 -7 9q0 10 7 10zM361 265q2 -5 -1.5 -8t-8.5 -1q-2 1 -1 3t3 4.5t4.5 3t3.5 -1.5zM275 474q0 -5 -4 -5t-5 5t5 5t4 -5zM418 550q8 0 8 -9q0 -10 -8 -10t-8 10q0 9 8 9zM579 560q0 -5 -4 -5q-3 0 -5 4.5t5 4.5q5 0 4 -4zM504 588
q0 -1 0.5 -2t0.5 -3q0 -1 -0.5 -2.5l-0.5 -1.5q-2 -1 -13 -4.5t-16 -5.5h-5h-4q5 9 17.5 13t20.5 6zM541 588q0 -5 -4 -5q-3 0 -5 5t5 5q6 0 4 -5zM612 637q0 -8 -5.5 -14t-13.5 -10.5t-17 -7t-16 -2.5v14q1 1 14.5 8.5t23.5 10.5q2 0 7.5 0.5t6.5 0.5zM655 617q8 0 8 -10
q0 -9 -8 -9q-7 0 -7 9q0 10 7 10zM693 617q5 -2 5 -5t-4.5 -5t-4.5 5q0 5 4 5zM712 636q5 -2 5 -5t-4.5 -5t-4.5 5q0 5 4 5zM285 645v-9l19 9h-19zM651 655h4q0 -2 -3.5 -5.5t-5.5 -4.5l-2 -0.5t-3 -0.5t-2.5 0.5t-2.5 0.5q1 2 4.5 5.5t5.5 4.5h5zM741 655h9v-10h-9v10z
M779 683q0 -1 0.5 -2.5t0.5 -2.5t-0.5 -2.5l-0.5 -1.5q-1 -2 -4.5 -5.5t-5.5 -4.5v5v5q1 2 4.5 5t5.5 4zM456 731q-40 -5 -82 -13.5t-80 -24.5q-2 -1 -5 -4.5t-4 -5.5h5h4l105 29q3 0 16.5 2t21.5 4q15 4 19 13zM798 721q8 0 8 -9q0 -10 -8 -10t-8 10q0 9 8 9zM827 769
q-2 -5 -5 -5t-5 4.5t5 4.5q5 0 5 -4zM846 778q7 0 7 -9q0 -10 -7 -10q-8 0 -8 10q0 9 8 9z" />
    <glyph glyph-name="FL0038h" unicode="8" horiz-adv-x="552" 
d="M423 148l-39 -23q8 12 20.5 23t19.5 11q0 -3 -0.5 -6t-0.5 -5l58 36l49 106q8 45 4 77.5t-15.5 54t-29.5 33.5t-38.5 17t-42 3.5t-40.5 -6.5l24 15l16 12q-15 3 -15 12v8l-237 -120l-83 -9l35 53q0 3 3.5 24t8 48.5t9.5 55.5t9 46q7 42 14 62t17.5 27t25.5 5.5t39 -1.5
q9 0 25 1t33 -2t32 -11t22 -26q-5 -3 -5 -9v-9q11 -7 24.5 -14.5t27.5 -15.5l-6 -17v-4q0 -22 2.5 -41.5t3.5 -42.5l29 15l6 -9v-10l-20 -16q2 0 11 4.5t22 11.5q-2 12 -2.5 23t-3.5 15q-1 3 -5 10.5t-9 16.5t-9.5 16.5t-5.5 10.5v10q-3 2 -6.5 3.5t-6.5 3.5v11l-59 74
q-7 9 -17.5 14.5t-21.5 9.5t-21 6.5t-16 5.5h23q25 0 51.5 -11t50.5 -32t43 -51t29 -68q-15 13 -34 25q3 -6 9.5 -18.5t11 -26.5t5.5 -27.5t-6 -20.5q5 -9 10.5 -2t8.5 20t2.5 27.5t-7.5 22.5q7 -5 14 -10.5t13 -12.5q-5 62 -24.5 106t-48.5 72t-65.5 41t-74.5 13l-125 -77
q2 8 2 14q-8 0 -19 -11q0 -7 6 -9l-22 -14q4 7 4 15q-12 0 -25.5 -9.5t-17.5 -29.5l39 24q-8 -13 -20.5 -23.5t-19.5 -10.5q0 3 0.5 5.5t0.5 4.5l24 11l-19 -111q-12 -68 -16.5 -114t0.5 -72t20.5 -34.5t44.5 -0.5l-23 -14l-16 -13q15 -3 15 -11v-8l237 120l83 9l47 -6
q0 -3 -3.5 -24t-8 -48.5t-9.5 -55.5t-9 -46q-7 -42 -26.5 -69.5t-45.5 -43t-54 -21.5t-52 -6q-9 0 -25 -1t-33 1.5t-32 10.5t-22 26q2 1 4 4.5t2 5.5v9q-11 7 -25 14t-28 15l6 18v4q0 22 -2.5 41.5t-3.5 42.5l-29 -15l-6 9v10l20 15q-2 0 -11 -4t-22 -11q-5 9 -10 2t-8 -20
t-3 -28t7 -23q-14 10 -27 24q5 -62 24.5 -106t49 -72t66 -41t74.5 -13l124 76q-2 -8 -2 -13q9 0 19 10q0 2 -2 5.5t-4 4.5l22 14q-4 -10 -4 -15q13 0 26 9t17 29zM54 305q2 -12 3 -23.5t3 -14.5q1 -3 5 -10.5t9 -16.5t9 -16.5t6 -10.5v-10q5 -2 13 -8v-11l59 -73
q7 -9 17.5 -14.5t21.5 -9.5t21.5 -6.5t16.5 -5.5h-24q-25 0 -51.5 11t-50 32t-43 50.5t-29.5 67.5q8 -7 17 -12.5t17 -11.5q-3 6 -9.5 18.5t-11 26.5t-5.5 27t6 21zM447 646v-5q-20 29 -39 52t-44 40q-14 8 -27 10.5t-27 16.5h12q12 0 33 -9.5t41.5 -25t35.5 -36.5t15 -43z
M48 171v5q20 -29 39 -52.5t44 -39.5q7 -4 13.5 -6t13.5 -4.5t13.5 -6.5t13.5 -11h-12q-12 0 -33 9.5t-41.5 25.5t-35.5 36.5t-15 43.5zM269 669q0 2 -2 5t-4 4h-5q-4 0 -15.5 -4.5t-14.5 -4.5q4 -2 15 -5.5t15 -3.5q1 0 5.5 3.5t5.5 5.5zM226 147q1 -2 3 -5t4 -4h5
q4 0 15.5 4.5t14.5 4.5q-5 2 -15.5 6t-14.5 4q-2 0 -6 -4zM329 660v9h-42q9 -8 15 -9t15 -1q2 0 6 0.5t6 0.5zM166 157v-10h42q-8 8 -14.5 9.5t-15.5 1.5q-2 0 -6 -0.5t-6 -0.5zM192 651q5 0 5 9t-5 9q-6 0 -6 -9t6 -9zM303 166q-4 0 -4 -9q0 -10 4 -10q6 0 6 10q0 9 -6 9z
M286 84q3 0 3 -9t-3 -9q-6 0 -6 9t6 9zM209 733q-3 0 -3 9t3 9q6 0 6 -9t-6 -9zM228 751q-2 5 -0.5 8t5.5 1q3 -2 -0.5 -8t-4.5 -1zM268 66q1 -5 -0.5 -8.5t-5.5 -1.5q-3 2 0.5 8.5t5.5 1.5zM42 194q3 -2 3 -5q0 -4 -3 -4.5t-3 4.5q0 8 3 5zM454 622q-4 1 -4 5t3 4.5t3 -4.5
q0 -4 -1 -5t-1 0zM226 56q0 -4 -3 -4q-2 0 -3.5 4.5t3.5 4.5t3 -5zM269 760q0 4 3 4q2 0 3.5 -4.5t-3.5 -4.5q-3 0 -3 5zM202 56q0 -4 -3 -4q-2 0 -2.5 4.5t2.5 4.5t3 -5zM294 760q0 4 2 4t2.5 -4.5t-2.5 -4.5q-4 0 -2 5zM89 202v1l-15 9q8 -10 15 -10zM406 615v-1l15 -9
q-8 10 -15 10zM136 706h-2l10 6q-4 -6 -8 -6zM359 111h2l-10 -7q3 7 8 7z" />
    <glyph glyph-name="FL0039h" unicode="9" horiz-adv-x="625" 
d="M283 82q-5 0 -5 9v4q-30 -17 -63.5 -30t-63.5 -27q-9 -5 -13 -16.5t-4 -22.5q51 0 105.5 27t106 72.5t97 105t79.5 124.5t54 130t20 123q0 70 -23 119.5t-60.5 81t-85.5 46t-99 14.5q-32 0 -60.5 -5.5t-56.5 -14.5t-55.5 -20t-57.5 -22q-1 0 -3 -0.5t-4 -0.5t-4.5 0.5
t-3.5 0.5q3 16 -1 15t-12 -11.5t-18.5 -27t-20 -32t-16 -25.5t-6.5 -9v-106q12 -38 37 -70.5t58 -60.5t72 -52t79.5 -45t80.5 -39.5t75 -34.5q-11 -9 -30 -29t-39.5 -42t-38.5 -42.5t-26 -32.5q1 0 1.5 -0.5t1.5 -0.5q8 0 24 16t34 36t34.5 37.5t25.5 20.5v-8q-5 0 -16.5 -8
t-14.5 -11v-18l-7 -11t-15.5 -24.5t-15.5 -25t-8 -12.5q-8 -8 -17 -14t-19 -12q5 -3 5 -10q0 -9 -7 -9zM443 269q0 3 5 11l11 20l-1 1q8 11 17.5 25t11.5 17l-39 -19q2 30 11.5 59.5t9.5 61.5v4l-2.5 5t-3.5 3q-4 -20 -3.5 -36.5t0 -32.5t-4.5 -33.5t-17 -39.5l-322 143
q-1 1 -11 20.5t-21.5 46.5t-19 55.5t-2.5 46.5q9 41 34 67.5t57 41.5t67.5 20.5t64.5 5.5q11 0 31 1t41.5 -1.5t40 -10.5t27.5 -25q-2 -1 -4.5 -4t-2.5 -5v-9q27 -13 39.5 -40.5t16 -61t1 -68.5t-5.5 -63q9 3 12.5 14t4 25.5t-0.5 29.5t-1 25q0 25 -3 46t-3 45v3l6 18v9
l-74 71q-9 9 -22 14.5t-26.5 9.5t-26.5 7t-21 6h29q39 0 80 -16.5t74.5 -47t55 -73.5t21.5 -96v-9q-1 -5 -3.5 -18t-3.5 -18q-1 2 -4 5.5t-5 4.5h-6l-15 -73q-3 -14 -15 -38.5t-25.5 -48t-24 -41.5l-10.5 -18q0 -1 0.5 -3l0.5 -2q2 -4 7 -10t8 -8q-12 -12 -15.5 -14.5
t-5.5 -3.5l-6 -3t-17 -13l-0.5 1.5t-0.5 2.5t0.5 3l0.5 2q1 0 5 8q4 0 4 -2zM552 703v-4q-26 28 -49.5 50.5t-54.5 39.5q-17 8 -34 10.5t-34 15.5h15q15 0 41.5 -9.5t52 -25t44.5 -35.5t19 -42zM559 543q0 13 -4.5 35t-12.5 43.5t-19 37t-24 15.5v-11q3 -3 8.5 -10
t11.5 -15.5t11 -16.5t7 -12t3.5 -14.5t3 -22t5 -20.5t10.5 -9zM81 715q0 25 18.5 36t37.5 11q0 -7 -6.5 -15.5t-15.5 -15.5t-18.5 -11.5t-15.5 -4.5zM329 726q-1 2 -3.5 5t-4.5 4h-7q-5 0 -19 -4.5t-18 -4.5q4 -2 18 -5.5t19 -3.5q2 0 7.5 3.5t7.5 5.5zM403 717v9h-52
q11 -8 18.5 -9t18.5 -1q2 0 7.5 0.5t7.5 0.5zM116 10q13 0 13 19q-1 0 -3.5 -0.5t-4.5 -0.5q-4 0 -12 -3.5t-11 -5.5q2 -2 7.5 -5t7.5 -4h3zM162 761h-5q-2 1 -4 4t-2 5q6 5 12 8t11 3q0 -8 -3 -14t-9 -6zM232 708q6 0 6 9t-6 9t-6 -9t6 -9zM254 789q-6 0 -6 9q0 8 6 8t6 -8
q0 -9 -6 -9zM529 368q-6 0 -6 10q0 8 6 8t6 -8q0 -10 -6 -10zM239 109v11q-2 0 -3.5 -0.5t-3.5 -0.5q-2 -1 -7.5 -4.5t-7.5 -5.5h22zM306 127q1 -2 2.5 -1.5t3 3t2.5 4.5t0 3q-5 2 -7.5 -1t-0.5 -8zM277 806q-2 5 0 8t6 1t0 -7.5t-6 -1.5zM558 681q-3 1 -3 5q0 3 4 4t4 -4
q0 -7 -5 -5zM329 815q0 4 3 4q2 0 3.5 -4t-3.5 -4t-3 4zM358 815q0 4 4 4q3 0 3.5 -4t-3.5 -4t-4 4zM285 101h-2q-3 0 -5 -6q2 2 3.5 3t3.5 3z" />
    <glyph glyph-name="FL003Ah" unicode=":" horiz-adv-x="154" 
d="M14 105q0 9 4 19.5t11.5 19.5t17.5 14.5t22 5.5t19.5 -5.5t12 -14.5t6 -19.5t1.5 -19.5t-6 -17.5t-15 -15.5t-19.5 -11t-20.5 -4q-24 0 -28.5 15.5t-4.5 32.5zM69 128q-11 0 -11 -11q0 -12 11 -12q10 0 10 12q0 11 -10 11zM22 416q0 9 4 19.5t11.5 19.5t17.5 14.5t22 5.5
t19.5 -5.5t12 -14.5t6 -19.5t1.5 -19.5t-6 -17.5t-15 -15.5t-19.5 -11t-20.5 -4q-24 0 -28.5 15.5t-4.5 32.5zM77 439q-11 0 -11 -11q0 -12 11 -12q10 0 10 12q0 11 -10 11z" />
    <glyph glyph-name="FL003Bh" unicode=";" horiz-adv-x="134" 
d="M9 46q0 9 4 19.5t11.5 19.5t17.5 14.5t22 5.5t19.5 -5.5t12 -14.5t6 -19.5t1.5 -19.5t-13.5 -30.5t-32 -44t-37 -39.5t-28.5 -17q-9 0 -9 10t4 27.5t9 36t9 34.5t4 23zM64 69q-11 0 -11 -11q0 -12 11 -12q10 0 10 12q0 11 -10 11zM24 320q0 9 4 19.5t11.5 19.5t17.5 14.5
t22 5.5t19.5 -5.5t12 -14.5t6 -19.5t1.5 -19.5t-6 -17.5t-15 -15.5t-19.5 -11t-20.5 -4q-24 0 -28.5 15.5t-4.5 32.5zM79 343q-11 0 -11 -11q0 -12 11 -12q10 0 10 12q0 11 -10 11z" />
    <glyph glyph-name="FL003Ch" unicode="&#x3c;" horiz-adv-x="366" 
d="M10 390q15 42 30 61.5t29 27t28 7.5t25.5 3t21 14t16 40t9 81t1.5 137q1 0 2.5 0.5t2.5 0.5t3 -0.5l2 -0.5q2 -1 5.5 -4t4.5 -5q9 5 15.5 16.5t11.5 26t7.5 28.5t2.5 24h-9l-19 -57h-9v19q0 1 6.5 15t15.5 32t18.5 36.5t16.5 29.5q6 11 15 24t19.5 24t23.5 18t27 7v-54
q14 -5 21.5 -11.5t7.5 -21.5q0 -2 -0.5 -7t-0.5 -7q-57 -133 -108.5 -264.5t-100.5 -267.5v-5v-4q7 -10 23 -35.5t34 -54.5t34.5 -55t23.5 -36q2 -3 5 -10t4 -9v-5v-5l-38 29v-10q24 -34 46 -71t22 -81h-30l-7 6.5t-17 16t-19.5 19t-13.5 15.5q-7 8 -17.5 25t-22.5 37
t-24.5 41.5t-23.5 39t-19 28.5t-12 11zM208 205q0 -1 0.5 -3l0.5 -2q2 -2 9 -9.5t10 -9.5v5v5q-2 3 -9.5 10t-9.5 9q0 -1 -0.5 -2.5t-0.5 -2.5zM180 267q-8 0 -8 -10q0 -9 8 -9t8 9q0 10 -8 10zM170 277q-7 0 -7 -10t7 -10q8 0 8 10t-8 10zM142 324q-8 0 -8 -9q0 -10 8 -10
t8 10q0 9 -8 9zM104 542l-10 -9h10v9zM104 571q0 -2 3.5 -6t5.5 -4q4 8 12 21.5t16 29.5t14 32.5t6 30.5v10q-9 -4 -15.5 -15.5t-11.5 -26l-10 -29t-11 -24.5l-5.5 -11t-3.5 -8zM180 733q-8 -3 -9 -8.5t-1 -10.5v-10q2 2 5.5 9.5t4.5 9.5v5v5z" />
    <glyph glyph-name="FL003Dh" unicode="=" 
d="M232 212l-168 -52h-23q0 2 1 5t1 5l11 21v5v6q-1 3 -4 9.5t-6.5 14t-6.5 14t-4 9.5h31q-33 1 -33 26q0 14 22 21.5t51.5 11t59.5 5t47 4.5q4 1 19 3t35.5 5.5t44.5 7t47 6.5t43 6t32 4h5q15 0 25 -9t12 -23q3 0 12 0.5t19 0.5q11 0 20 -0.5t12 -0.5q2 0 6 -4t4 -6z
M85 223v-13q14 0 42 4t57 11t52 17t28 23q-1 0 -4.5 0.5t-6.5 0.5q-21 0 -42 -5.5t-42 -13t-42 -14.5t-42 -10zM348 275q2 5 -5 5q-8 0 -6 -5t6 -5q3 0 5 5zM220 414l-168 -52h-23q0 2 1 5t1 5l11 21v5v6q-1 3 -4 9.5t-6.5 14t-6.5 14t-4 9.5h31q-33 1 -33 26q0 14 22 21.5
t51.5 11t59.5 5t47 4.5q4 1 19 3t35.5 5.5t44.5 7t47 6.5t43 6t32 4h5q15 0 25 -9t12 -23q3 0 12 0.5t19 0.5q11 0 20 -0.5t12 -0.5q2 0 6 -4t4 -6zM73 425v-13q14 0 42 4t57 11t52 17t28 23q-1 0 -4.5 0.5t-6.5 0.5q-21 0 -42 -5.5t-42 -13t-42 -14.5t-42 -10zM336 477
q2 5 -5 5q-8 0 -6 -5t6 -5q3 0 5 5z" />
    <glyph glyph-name="FL003Eh" unicode="&#x3e;" horiz-adv-x="366" 
d="M360 614q-15 -42 -30 -61.5t-29 -27t-28 -7.5t-25.5 -3t-21 -14t-16 -40t-9.5 -81t-1 -137q-1 0 -2.5 -0.5t-2.5 -0.5t-3 0.5l-2 0.5q-2 1 -5.5 4t-4.5 5q-9 -5 -15.5 -16.5t-11.5 -26t-7.5 -28.5t-2.5 -24h9l19 57h9v-19q0 -1 -6.5 -15t-15.5 -32l-18.5 -37t-16.5 -29
q-6 -11 -15 -24t-19.5 -24t-23.5 -18t-27 -7v54q-14 5 -21.5 11.5t-7.5 21.5q0 2 0.5 7t0.5 7q57 133 108.5 264.5t100.5 267.5v5v4q-7 10 -23 35.5t-34 54.5t-34.5 55t-23.5 36q-2 3 -5 10t-4 9v5v5l38 -29v10q-24 34 -46 71t-22 81h30l7 -6.5t17 -16t19 -19t14 -15.5
q7 -8 17.5 -25t22.5 -37t24.5 -41.5t23.5 -39t19 -28.5t12 -11zM162 799q0 1 -0.5 3l-0.5 2q-2 2 -9 9.5t-10 9.5v-5v-5q2 -3 9.5 -10t9.5 -9q0 1 0.5 2.5t0.5 2.5zM190 737q8 0 8 10q0 9 -8 9t-8 -9q0 -10 8 -10zM200 727q7 0 7 10t-7 10q-8 0 -8 -10t8 -10zM228 680
q8 0 8 9q0 10 -8 10t-8 -10q0 -9 8 -9zM266 462l10 9h-10v-9zM266 433q0 2 -3.5 6t-5.5 4q-4 -8 -12 -21.5t-16 -29.5t-14 -32.5t-6 -30.5v-10q9 4 15.5 15.5t11.5 26l10 29t11 24.5l5.5 11t3.5 8zM190 271q8 3 9 8.5t1 10.5v10q-2 -2 -5.5 -9.5t-4.5 -9.5v-5v-5z" />
    <glyph glyph-name="FL003Fh" unicode="?" horiz-adv-x="884" 
d="M72 190q-10 8 -16.5 29.5t-11 50t-8 60.5t-6.5 61.5t-6.5 53.5t-9.5 35q0 2 -0.5 7.5t-0.5 7.5q0 21 15.5 32t36.5 15.5t42 5t32 0.5h35q63 0 123.5 -1.5t120.5 -9.5q38 -6 74.5 -17t75.5 -11q8 0 15.5 1.5t7.5 12.5q0 1 -0.5 2.5t-0.5 2.5q0 54 -4.5 96.5t-22 76.5
t-50.5 61t-90 49t-141.5 41t-203.5 37v30q25 0 59 -2t70 -5.5t69.5 -9t56.5 -12.5l332 -108q14 -12 35.5 -45t42 -72.5t35 -77.5t14.5 -59h-50q8 -11 23 -19.5l30 -17t26.5 -18t11.5 -22.5q0 -8 -18.5 -15.5t-46.5 -15t-61 -14t-63 -11t-52.5 -7.5t-28.5 -3q-24 0 -42.5 3.5
t-37 7.5t-40 7t-51.5 1q-14 13 -37.5 23.5t-46.5 16.5t-41 6t-21 -7l-73 -168zM119 184q-8 0 -8 -9q0 -10 7.5 -10.5t7.5 10.5q0 9 -7 9zM107 286q-1 0 -2.5 -0.5t-2.5 -0.5l-1 -91q-1 1 0.5 15t4 30.5t4 30.5t0.5 15l-1 0.5t-2 0.5zM204 461q-11 5 -22.5 8.5t-22.5 3.5
l-3 -152q2 0 6 10t9.5 25.5t11 33t10 33t8 26.5t3.5 12zM122 480h-44v-9l35 -29zM616 509q-6 0 -6 -10q0 -9 6 -9q8 0 8 9q0 10 -8 10zM689 585q5 -8 12 -12t14 -7q-5 8 -11.5 12t-14.5 7zM649 614q-1 0 -2.5 -0.5t-2.5 -0.5q1 -2 4.5 -5t5.5 -4l1 -0.5t2 -0.5t2 0.5t2 0.5
q-1 7 -7 9l-2 0.5t-3 0.5zM603 643q-1 0 -2 -0.5l-1 -0.5l16 -10q0 2 -3 5.5t-5 4.5l-2 0.5t-3 0.5zM63 69q0 9 6 20t16 20.5t23.5 15.5t28.5 6q16 0 27 -6t17 -15.5t8.5 -20.5t2.5 -20q0 -10 -8 -19t-20.5 -16t-27.5 -11.5t-28 -4.5q-16 0 -25 4.5t-13.5 12t-5.5 16.5
t-1 18zM137 93q-14 0 -14 -12t14 -12q15 0 15 12t-15 12z" />
    <glyph glyph-name="FL0040h" unicode="@" horiz-adv-x="788" 
d="M739 658l22 -113q-54 -20 -97 -24.5t-71 0t-38.5 15.5t0 23t44.5 21.5t95 11.5q-11 43 -43 71t-73.5 44t-87 22t-82.5 6q-14 0 -39.5 1t-53 -1.5t-51.5 -11t-35 -26.5q2 -1 5.5 -4.5t4.5 -5.5v-5v-4q-35 -14 -51 -43t-20.5 -64.5t-1.5 -73t6 -67.5q-11 3 -15.5 15
t-5.5 27.5t0.5 31t1.5 26.5q0 26 4.5 48.5t4.5 47.5v4l-9 19v5v5l95 75q11 9 28 15t34.5 10.5t33.5 7.5t27 6h-38q-50 0 -102 -17.5t-95 -50t-70 -78t-27 -101.5v-10q1 -5 4 -19t5 -19q1 2 4.5 5.5t5.5 4.5h5h4l19 -77q4 -15 19.5 -41t32.5 -51.5t30.5 -44.5l13.5 -19
q0 -1 -0.5 -3l-0.5 -2q-2 -3 -9 -10t-10 -9q30 -25 51.5 -53t53.5 -51l0.5 1.5t0.5 2.5t-0.5 3l-0.5 2q-2 3 -9 14t-10 15q-2 2 -9.5 10t-15.5 18t-15 18.5t-8 10.5v9v29v9q-2 16 -6.5 32l-9 32t-8.5 32t-4 33v4q1 2 4 5.5t5 3.5q6 -25 14 -59.5t20.5 -70t29.5 -67t41 -49.5
q13 -10 31.5 -21t37 -22.5t36 -24.5t28.5 -27q-1 0 -2.5 -0.5t-2.5 -0.5q-10 0 -22.5 6.5t-26 14.5t-26.5 16t-25 11v-9q3 0 8.5 -2.5t11.5 -5.5t11 -6.5t7 -4.5q1 -1 0.5 -9t-0.5 -10q0 -1 4 -4.5t6 -5.5q23 -17 50 -30t55.5 -24t57 -20.5t55.5 -20.5q11 -5 16 -17.5
t5 -23.5q-66 0 -135 29t-135 77t-124 111.5t-102 132t-69.5 138t-25.5 130.5q0 75 31 137.5t80.5 102.5t110.5 52t121 -13zM67 673v-5q32 29 62.5 53.5t70.5 41.5q21 8 43.5 11.5t42.5 17.5h-19q-19 0 -52.5 -10t-66.5 -26.5t-57 -38t-24 -44.5zM314 792q0 4 -4 4t-5 -4.5
t5 -4.5t4 5zM352 792q0 4 -4 4q-3 0 -5 -4.5t5 -4.5q6 0 4 5zM419 782q2 5 -1 8.5t-8 1.5q-2 -1 -1.5 -3.5t2.5 -5t4.5 -3t3.5 1.5zM448 763q7 0 7 10q0 9 -7 9q-8 0 -8 -9q0 -10 8 -10zM566 734h5q2 1 5.5 4.5t3.5 5.5q-17 11 -30 11q0 -8 4 -14.5t12 -6.5zM669 685
q0 13 -6.5 22.5t-17 15.5t-23 9t-24.5 3q0 -8 8.5 -16.5t20 -16t23.5 -12.5t19 -5zM352 697q1 2 4.5 5t5.5 4h4h5q3 0 9.5 -1.5t14.5 -3t14.5 -3t9.5 -1.5q-3 -1 -10 -3t-14.5 -3.5t-14 -2.5t-9.5 -1q-2 0 -9.5 4t-9.5 6zM257 687v10h67q-14 -8 -24 -9.5t-24 -1.5
q-2 0 -9.5 0.5t-9.5 0.5zM476 678q-8 0 -8 9q0 10 8 10t8 -10q0 -9 -8 -9zM58 649q5 2 5 5q0 4 -5 4.5t-5 -4.5q0 -7 5 -5zM57 502q0 13 6 36.5t16 46.5t24 39.5t31 16.5v-11q-3 -3 -10 -11t-15 -17t-14.5 -17t-8.5 -12q-3 -4 -4.5 -15.5t-4 -24t-7 -22t-13.5 -9.5zM96 317
q8 0 8 9t-8 9t-8 -9t8 -9zM381 60q-2 -5 -8 1.5t-2 8.5q5 2 8.5 -1.5t1.5 -8.5zM467 41v11q2 0 4.5 -0.5t4.5 -0.5q2 -1 9.5 -4.5t9.5 -5.5h-28zM410 12q7 0 7 10t-7 10q-8 0 -8 -10t8 -10zM623 -64q-8 0 -12 6t-4 14q1 0 5 -0.5t6 -0.5q4 0 15 -3.5t14 -5.5
q-2 -2 -9.5 -5.5t-9.5 -4.5h-5zM438 112v-26q2 2 4 10.5t2 10.5v5h-6zM459 139q2 0 3 -2t3 -4q3 -5 4 -9.5t2 -7.5t4 -5t11 -2v6q0 5 -2 7l-5 5q-2 6 -1.5 14.5t0.5 17.5q0 16 0.5 31.5t1.5 26.5q-5 5 -5 10v11q0 16 9 26t22.5 17.5t27.5 13t25 12.5q2 0 3 5t2 5
q1 1 5.5 3.5t10 5t10 5t6.5 2.5v-11v-10l-5 -89v-3v-3q0 -2 0.5 -8t1 -12.5t1.5 -13t2 -8.5q2 -4 9.5 -5.5t11.5 -1.5q9 0 12 16.5t3 33.5v15v9v16v23v25v27v25v22v17q0 8 1 9q5 45 11 87t6 88q-10 0 -18.5 -6t-14.5 -11l-42 -32q-4 -3 -10.5 -4t-12.5 -2t-11.5 -3t-7.5 -6
q-1 -2 0 -5.5t0 -5.5q-5 -8 -16 -7t-24.5 4.5t-26 8t-20.5 4.5v15q-5 -1 -15 -4.5t-19.5 -9t-17 -11.5t-7.5 -12h25q0 -5 -4 -6.5t-8.5 -2.5t-8.5 -2.5t-4 -6.5l1 -3q5 -3 9 -4t6.5 -2.5t4 -4.5t1.5 -12v-3q-2 -2 -6.5 -10.5t-4.5 -10.5v-4q0 -9 4 -27.5t9.5 -38t12 -37
t12.5 -23.5v37l2 -47q-2 -1 -4.5 -8t-5 -15.5t-4.5 -16t-2 -8.5q0 -5 7 -19t9 -28q1 -3 2 -12t2 -19t1.5 -19t0.5 -13zM456 426q0 2 2.5 5.5t2.5 5.5v2v3l-5 26v3v2q29 18 68 23.5t77 5.5q13 0 15 -5t2 -17q0 -2 -0.5 -8t-0.5 -8q-16 -2 -16 -18v-3l11 11v-16h-7
q0 -10 1 -17t1 -14q0 -6 -1 -12.5t-5 -14.5q-33 -13 -56 -25.5t-38.5 -21.5t-24.5 -12t-13.5 4t-6 26t-1.5 54q0 2 -2.5 10.5t-2.5 10.5zM533 322q2 -2 -0.5 -4t-4.5 -1t1 4.5t4 0.5zM554 338v-5h-5zM596 354v-11h-6q0 8 6 11zM414 426q4 0 4 -5t-4 -5t-4 5t4 5zM606 480
q-4 0 -4 -5q0 -6 4 -6q5 0 5 6q0 5 -5 5zM472 547v-11l10 11h-10zM498 557v-5h5v5h-5zM634 560q0 -12 -12 -12h-5q3 5 7 8.5t10 3.5z" />
    <glyph glyph-name="FL0041h" unicode="A" horiz-adv-x="504" 
d="M75 19h12q0 -2 -0.5 -5t-0.5 -5q0 -3 -1.5 -9t-3.5 -12.5t-3.5 -12.5t-2.5 -8v52zM117 72l-31 -21q0 7 -1.5 25t-3 38t-3.5 38t-3 25q-2 13 -7 27.5t-10.5 27.5t-10 23.5t-4.5 15.5q0 3 4 18t9 31.5t10.5 30.5t8.5 15l-5 94v-73q-11 12 -18.5 32t-12 42.5t-6 44.5
t-1.5 40q0 2 0.5 5.5l0.5 3.5q0 1 3 7l6.5 13t7 13.5t4.5 8.5v5q0 18 -3 24.5t-8 9.5t-13 4.5t-18 8.5l-0.5 2.5t-0.5 3.5q0 10 7.5 13t17 4.5t17 4.5t7.5 14h-50q0 12 15 24t34.5 22.5t39 18t29.5 9.5v-30q16 0 36 5.5t39 15t35.5 23t25.5 28.5q2 2 0.5 10.5t-0.5 10.5
q5 9 15.5 12.5t23 6t25 4.5t20.5 8l84 63q13 10 30 22t36 12q0 -91 -12.5 -175.5t-21.5 -173.5q-1 -5 -1 -19v-33v-45v-50v-54v-50v-45q0 -20 -1 -33v-18v-29q0 -17 -1.5 -34.5t-4.5 -32.5t-9 -24.5t-15 -9.5q-7 0 -22.5 3.5t-19.5 11.5q-1 4 -3 16.5t-3.5 26t-2.5 25.5
t-1 16v6v5l10 178v21v21q-4 -1 -13 -5t-19 -9.5t-19 -10t-12 -6.5q-2 -1 -5 -10.5t-5 -10.5q-21 -14 -50 -25t-55.5 -25t-45 -34.5t-18.5 -52.5q0 -11 1 -21.5t10 -20.5q-2 -23 -3 -54t-1 -63q0 -17 -1.5 -34t3.5 -30q1 -1 5.5 -5t4.5 -5q2 -2 3 -12.5t1 -12.5
q-16 0 -22 3.5t-8.5 9.5t-4 15t-8.5 20q-2 3 -5.5 7t-5.5 4zM149 555q0 -2 1.5 -8t3.5 -13.5t3.5 -13.5t1.5 -7q0 -5 1 -18.5t1 -28.5t-1 -28.5t-1 -19.5q33 13 62.5 30.5t59 36.5t59 37.5t61.5 32.5q7 16 9 29t1.5 25.5t-2 26.5t-1.5 34h14v32l-21 -21v5q0 14 9 24.5
t22 12.5q0 3 1 15t1 16q0 25 -4 34.5t-29 9.5q-38 0 -71 -16.5t-63.5 -40t-59.5 -49t-58 -43.5v-5v-5l10 -53v-5v-5q-1 -2 -5.5 -10.5t-4.5 -10.5zM264 439q-1 3 -3 2t-4.5 -3.5t-3.5 -5t1 -3.5q5 -2 9 1.5t1 8.5zM306 471l-10 -11h10v11zM390 502q-12 -6 -12 -21h12v21z
M65 555q-8 0 -8 -11q0 -10 8 -10t8 10q0 11 -8 11zM411 754q9 0 9 -10q0 -11 -9 -11q-8 0 -8 11q0 10 8 10zM180 796h21l-21 -21v21zM233 817h10v-10h-10v10zM466 915q-12 0 -19.5 -7.5t-14.5 -16.5q2 0 5.5 -0.5t5.5 -0.5q23 0 23 25z" />
    <glyph glyph-name="FL0042h" unicode="B" horiz-adv-x="680" 
d="M205 -269q-12 -6 -12 -20h12v20zM255 -139q-11 -6 -17.5 -16t-9.5 -22t-4 -24.5t-1 -22.5q9 0 12.5 5.5t5.5 13t4.5 15t9.5 11.5q4 9 15 30.5t24 45.5t24.5 45t16.5 29l20 30q7 13 21 33.5t28 40.5t24.5 34.5t10.5 15.5v20q7 9 22 34.5t31.5 53.5t31 53.5t21.5 34.5
q2 3 13.5 21t26 40.5t28.5 44.5t22 34q14 21 22.5 44.5t8.5 49.5q0 25 -8.5 41t-36.5 16q-23 0 -43.5 -8t-40 -18t-40 -18t-42.5 -8q-2 0 -5.5 0.5t-4.5 0.5q6 10 14.5 16.5t17.5 15t19 21.5t19 37q6 15 20.5 47t30.5 66t28 62.5t12 34.5q0 5 -1.5 12t-9.5 8l-180 10
q-7 0 -17 -2t-20.5 -6t-19.5 -9.5t-13 -12.5h20q-8 -11 -18 -14.5t-22 -3.5v10q-3 0 -24 -10t-44.5 -23.5t-42.5 -27.5t-19 -21l-10 10q-14 -16 -45 -38t-62.5 -46t-55 -47t-23.5 -41q2 0 13 0.5t13 1.5q1 0 5.5 1.5t9.5 3.5t9.5 3.5t5.5 1.5t5 -4.5t5 -5.5l2 -0.5t3 -0.5
t2.5 0.5t2.5 0.5q13 19 22.5 30.5t19.5 20.5t23.5 17.5t34.5 21.5q-3 -3 -10.5 -14.5t-9.5 -15.5q-2 -8 -2 -10h16q0 9 5 18.5t12.5 17.5t15.5 14.5t13 9.5l5.5 -11t6.5 -14.5t5.5 -14.5t2.5 -10v-180l-20 -40q-9 25 -9 52q0 20 1.5 40.5t1.5 40.5t-3 39.5t-11 37.5
q-7 -4 -14 -13t-13 -20t-9.5 -22t-3.5 -19v-6l30 -450q0 -9 -0.5 -19.5t1 -20.5t7 -18t17.5 -12v50h15q0 -4 3 -16.5t7 -27.5t7 -29.5t3 -21.5v-5l-70 -110v-20l20 20q5 6 18 20.5t27 30t27 29.5t18 20l35 12zM285 -19q-5 2 -5 -5q0 -6 5 -5t5 5q0 3 -5 5zM325 51q8 0 8 -10
t-8 -10t-8 10t8 10zM295 101v270l4.5 5.5t10.5 12t13 13t12 9.5q5 4 17.5 12.5t27 18t27.5 18t18 11.5q1 16 12 26.5t26.5 16t32.5 7.5t29 2q5 0 20 -0.5t20 -1.5q-17 -32 -31 -65l-28 -66t-28.5 -65.5t-32.5 -63.5q-31 -57 -71.5 -108.5t-88.5 -91.5q0 2 -0.5 7.5t-0.5 7.5
q0 7 1 15t10 10zM215 191l10 -60h-10v60zM214 216q0 1 0.5 3l0.5 2q1 2 4.5 5.5t5.5 4.5l-20 180v5v5l30 -20q1 0 2.5 -13t3 -30.5t3 -36t1.5 -30.5v-9q0 -7 0.5 -16.5t0.5 -19.5v-15v-12q0 -8 -0.5 -18t-0.5 -19v-11q-3 2 -8.5 8t-10.5 13t-8.5 13.5t-3.5 10.5zM335 381
q-5 2 -5 -5t5 -5t5 5t-5 5zM596 516q0 1 -0.5 3l-0.5 2q-3 6 -13 11.5t-20.5 9.5t-18.5 6.5l-8 2.5q24 15 48.5 19t53.5 4q0 -22 -8 -47t-21 -49t-29.5 -44t-33.5 -33q5 9 13.5 25.5t17 34.5t14.5 33.5t6 21.5zM440 622q1 0 2.5 -0.5t2.5 -0.5q-28 -33 -49.5 -70.5
t-50.5 -69.5q-5 -6 -13 -14.5t-16 -16.5t-14 -13.5t-7 -5.5h-21q0 3 1.5 10t3 15t3.5 15t3 10q7 16 18 24.5t23.5 14.5l25 12t23.5 19q3 4 11 15.5t17.5 24t19.5 22t17 9.5zM255 746v5q28 16 55 31.5t55 28.5t57.5 21t62.5 9q13 -9 17 -22.5t4 -27.5q0 -8 -2 -18.5t-6.5 -19
t-12.5 -12.5t-20 0l-30 -60l-130 -130q-1 -2 -8.5 -5t-11.5 -5q-1 -1 -4 -1.5t-4 -0.5q0 26 -3.5 52t-7.5 52t-7.5 51.5t-3.5 51.5zM475 611l-10 -20q0 1 -0.5 2.5t-0.5 2.5t0.5 3l0.5 2q1 2 4.5 5.5t5.5 4.5zM515 701q8 0 8 -10t-8 -10t-8 10t8 10zM105 741v-10h10v10h-10z
M155 761q2 5 -5 5q-6 0 -5 -5t5 -5q3 0 5 5zM475 821v-10h10v10h-10zM515 841q9 9 19 10t21 1q2 0 10 -0.5t10 -0.5q-4 -16 -10 -23.5t-20 -7.5q-11 0 -17.5 4.5t-12.5 16.5zM395 881q8 0 8 -10t-8 -10t-8 10t8 10z" />
    <glyph glyph-name="FL0043h" unicode="C" horiz-adv-x="520" 
d="M10 110q-1 5 3 17.5t9 25.5t10.5 24t7.5 13q1 11 4.5 34t8.5 51.5t10.5 60t11 60t9.5 51t6 33.5q1 3 5.5 20.5t10.5 42.5t13.5 55.5t14.5 60.5t14 56.5t12 44.5q6 21 11.5 48t13.5 52.5t21 47t34 32.5q56 -40 91 -85.5t59 -99.5q6 -12 10.5 -17.5t7.5 -9t4.5 -8.5
t1.5 -17q-13 0 -17.5 5t-16.5 5v-36q-18 0 -22.5 12t-7.5 26q-2 7 -14.5 21.5t-26.5 31t-26 31t-13 21.5l-10 10q-2 -2 -5.5 -10t-4.5 -10q-2 -5 -5 -18t-6 -27.5t-5.5 -27l-3.5 -17.5q-1 -9 -5.5 -38.5t-10.5 -68.5t-12.5 -83.5t-13 -83.5t-11.5 -68t-7 -38
q-5 -25 -11.5 -47t-12 -43.5t-8 -43.5t1.5 -46q-15 -2 -21 -10.5t-7 -20t0.5 -24t1.5 -22.5q15 0 52 6t76 16.5t69 26t30 33.5q0 1 -0.5 2.5t-0.5 2.5q-28 -14 -64.5 -25t-67.5 -11h-16q-10 0 -12 11q36 7 68.5 19.5t64 27.5t62.5 30t65 28q1 0 4.5 0.5t5.5 0.5
q6 0 11.5 -1.5t8.5 -9.5l-30 -20h70q-6 -11 -16 -16t-21 -8.5t-22.5 -6.5t-20.5 -9q-35 -23 -75 -54.5t-83.5 -59.5t-90 -47.5t-94.5 -19.5q-18 0 -28.5 4.5t-16 12.5t-6.5 18t-1 22q0 16 -5 34q-1 2 -10 10t-10 10zM170 50h-70q-8 0 -10 -10.5t-2 -14.5q22 0 43 5.5
t39 19.5zM80 190q-5 2 -5 -5q0 -6 5 -5t5 5q0 3 -5 5zM370 200q-8 0 -8 -10t8 -10t8 10t-8 10zM90 220q-8 0 -8 -10t8 -10t8 10t-8 10zM90 270q-2 2 -3.5 -3t-1.5 -12t1.5 -12t3.5 -3q5 5 5 15t-5 15zM120 370v-20l10 10zM150 470q-5 2 -5 -5t5 -5t5 5t-5 5zM140 500l10 -10
v10h-10zM180 640q-1 -4 -4.5 -15.5t-5.5 -14.5q-1 -1 -5.5 -5t-4.5 -5q-1 -4 -3 -13.5t-3.5 -21t-2.5 -21.5t-1 -14h18q0 21 6.5 36.5t6.5 38.5q0 4 -0.5 17.5t-0.5 17.5zM180 690v-20l10 10zM190 720q-8 0 -8 -10t8 -10t8 10t-8 10zM220 830q-8 0 -8 -10t8 -10t8 10t-8 10z
M250 890q2 5 -5 5q-6 0 -5 -5t5 -5q3 0 5 5z" />
    <glyph glyph-name="FL0044h" unicode="D" horiz-adv-x="490" 
d="M110 10q2 -5 7.5 -8.5t10.5 -3.5q0 39 15 74t47 58v-60q12 6 17.5 35t11.5 61.5t15.5 58.5t30.5 26q1 0 2.5 -0.5t2.5 -0.5q-3 -5 -8.5 -16l-12 -24t-12 -24.5t-7.5 -15.5q-1 -1 -1.5 -6t-0.5 -6q7 0 17.5 12.5t20.5 28t17 29.5t7 16v6q0 1 -2 5.5t-3.5 9.5t-3 9.5
t-1.5 5.5q0 2 4 6t6 4l10 -20q3 1 10.5 15t16.5 35t19 45.5t18.5 47.5t15.5 41t10 26l30 70l40 120q1 3 4 14t6 23.5t6 24.5t4 18v5q0 27 -21.5 43.5t-51 25.5t-59.5 12.5t-47 3.5h-11q-2 0 -9.5 -2t-15.5 -3.5t-15.5 -3t-9.5 -1.5q-8 0 -28 -0.5t-42 -0.5t-42 0.5t-28 0.5
q-8 -6 -21 -10t-27 -6t-26 -3t-16 -1q0 -1 -0.5 -4.5t-0.5 -5.5q0 -11 6.5 -20.5t16.5 -16t21.5 -10.5t20.5 -4q17 0 31.5 5.5t29.5 5.5q14 0 15 -13t1 -22q0 -22 -4 -37t-4 -38h-14q0 -79 6 -157.5t6 -157.5v-23q0 -16 -0.5 -34.5t-0.5 -35.5v-22q-6 -19 -12 -41t-10 -45
t-6.5 -46t-2.5 -43q0 -4 0.5 -17.5t0.5 -17.5zM170 30q1 5 -5 5t-5 -5t5 -5t5 5zM180 240q5 -2 5 -10t-5 -10q-2 -1 -3.5 2.5t-1.5 7.5t1.5 7.5t3.5 2.5zM180 280q5 -2 5 -10t-5 -10q-2 -1 -3.5 2.5t-1.5 7.5t1.5 7.5t3.5 2.5zM198 654v20q0 13 0.5 25t1 21t0.5 10l30 40
q1 -2 4.5 -5.5t5.5 -4.5h5h5q2 1 10 5.5t10 4.5t10 -4.5t10 -5.5h5q10 0 15 2.5l10 5t11.5 4t18.5 -1.5l-20 10l10 10h96q0 -38 -8.5 -76t-17.5 -74q-3 -10 -10 -15t-15 -10t-15 -12.5t-10 -22.5q-2 -12 -7 -20t-10.5 -15.5t-11.5 -15.5t-11 -19l-80 -190l-20 -40
q-6 54 -10 100t-7 90.5t-4 89t-1 94.5zM340 490v-5v-5q-1 -3 -4 -9.5t-7 -14.5t-9 -15.5t-10 -10.5v5v5q1 3 4 9.5t7 14.5t9 15.5t10 10.5zM360 530q0 -1 0.5 -2.5t0.5 -2.5t-0.5 -3l-0.5 -2q-1 -2 -4.5 -5.5t-5.5 -4.5q0 1 -0.5 2.5t-0.5 2.5t0.5 3l0.5 2q1 2 4.5 5.5
t5.5 4.5zM380 580q5 -2 5 -5t-5 -5t-5 5t5 5zM390 610q5 -2 5 -5t-5 -5t-5 5t5 5zM390 650q-5 2 -5 -5t5 -5t5 5t-5 5zM200 770q8 0 8 -10t-8 -10t-8 10t8 10zM40 790l10 10v-20zM300 780q-1 -5 -5 -5t-5 5t5 5t5 -5zM290 840q8 0 8 -10t-8 -10t-8 10t8 10z" />
    <glyph glyph-name="FL0045h" unicode="E" horiz-adv-x="630" 
d="M84 63q1 -4 9 -12t12 -9q1 0 13 4l18 6q3 1 10.5 4.5t16.5 7.5t16.5 6.5t9.5 2.5h9h17h16h10q53 11 100 37.5t92.5 58t91 62.5t94.5 52v25q-43 0 -84 -11.5t-80 -29t-76.5 -38.5t-74.5 -40h-10v231q0 1 4 4.5t6 5.5q3 3 12 9t19 12.5t19.5 12.5t12.5 8q3 1 12.5 7
t21 12.5l23 13t17.5 9.5q9 4 23.5 8t28 9t23.5 12.5t10 18.5t-9 14t-17 3q-15 0 -24 -2.5t-25 -9.5l-126 -63h-31v220l10 11l242 10h10q5 2 17 5.5t15 5.5q-3 2 -15 5.5t-17 4.5q-9 1 -31 4t-47 5.5t-47.5 4.5t-31.5 2h178q-3 8 -13.5 20t-17.5 12h-231q-5 15 -12 21t-20 6
q-9 0 -17 -4.5t-16 -10.5t-17.5 -11.5t-22.5 -6.5q-7 -1 -26.5 -3t-41.5 -3.5t-41.5 -2.5t-27.5 -1q-6 -3 -17 -6t-21.5 -7t-18 -9.5t-7.5 -14.5q0 -1 0.5 -2.5t0.5 -2.5q28 -6 55.5 -9t55 -5.5t55 -6.5t55.5 -11v-21q0 -11 -1.5 -33t-4 -50t-6 -57.5t-8 -55t-10.5 -44
t-12 -22.5q-2 -1 -10.5 -4.5t-10.5 -6.5l-0.5 -1.5t-0.5 -3.5q0 -1 0.5 -3l0.5 -2q1 -1 5.5 -7.5t10 -13.5t10 -13.5t5.5 -7.5v-8q0 -63 -5 -127.5t-16 -127.5q-1 -2 -4.5 -5.5t-5.5 -4.5q-5 -3 -17 -9t-25.5 -12.5t-25.5 -12.5zM241 378q6 -48 9 -90.5t3 -90.5
q0 -6 -0.5 -17t-0.5 -12l-21 -21v37q0 26 0.5 47.5t1.5 43.5t3 46.5t5 56.5zM367 178q-2 -5 -5 -5t-5 5.5t5 5.5q8 0 5 -6zM336 777h42v-11z" />
    <glyph glyph-name="FL0046h" unicode="F" horiz-adv-x="790" 
d="M190 20q-2 1 -3.5 -2.5t-1.5 -7.5t1.5 -7.5t3.5 -2.5q5 2 5 10t-5 10zM150 80q9 -3 16 -9.5t13.5 -13t14 -12t16.5 -5.5q4 0 15.5 4t14.5 6q3 19 5.5 33t3.5 27t1.5 26t0.5 30v14t-1 25.5t-3.5 24t-6.5 10.5h-6q0 -8 -0.5 -28t-1 -42t-1.5 -42t-1 -28q0 -4 -4 -15.5
t-6 -14.5q0 -1 -2 -1.5t-3 -0.5q-3 0 -5 2q-11 23 -11 46v48v33t1 29.5t3.5 30t6.5 33.5q3 -3 14.5 -10.5t15.5 -9.5q1 -1 5 -1.5t5 -0.5v122q0 7 13.5 17t34 21t45.5 22.5t48.5 22.5t42 20.5t26.5 16.5q0 1 0.5 2.5t0.5 2.5q0 6 -4.5 11t-11 8.5t-13.5 5t-12 1.5
q-20 0 -42 -9.5t-44.5 -21t-45 -21t-43.5 -9.5h-5q-2 1 -5.5 4.5t-4.5 5.5q5 8 13.5 12.5t16.5 7.5q-1 2 -4.5 5.5t-5.5 4.5t-10.5 4.5t-9.5 5.5q0 1 -1.5 7t-3 14l-3 16t-2.5 13q-1 6 -4 25t-6 41.5t-6 43t-4 30.5v5q0 20 10 31.5t25 17.5t32.5 9.5l32.5 6.5l10 20
q0 -2 4 -10t6 -10q2 -4 4 -4q0 13 18.5 24.5t48 20.5t65 16t69.5 12t62.5 7.5t42.5 3.5q8 0 28 0.5t42 0.5t42 -0.5t28 -0.5l10 10q-5 10 -18.5 14t-21.5 6h-17t-25.5 0.5t-25.5 0.5h-17q-58 0 -113.5 -6t-110.5 -15t-109.5 -20t-111.5 -20q-3 -1 -11.5 -1.5t-18.5 -0.5
t-18.5 0.5t-11.5 1.5l-10 -20l-110 -30q-14 -4 -19.5 -18t-5.5 -25q13 0 33.5 1t31.5 12q12 -42 19 -88.5t11 -95t6 -96t4 -90.5l10 -20v9t0.5 13.5t0.5 13.5v9q0 42 -5.5 83t-5.5 83q0 7 1 11.5t9 7.5q8 -69 14.5 -125.5t6.5 -119.5q0 -4 -0.5 -17.5t-0.5 -17.5
q-7 3 -8.5 7t-1.5 8t-1.5 8t-8.5 7q-2 -3 -5.5 -14.5t-4.5 -15.5v-5q0 -56 13 -119t27 -116zM220 370q0 -2 0.5 -7.5t0.5 -7.5q0 -14 -1.5 -22.5t-9.5 -22.5q0 3 -0.5 12.5t-0.5 12.5q0 2 -0.5 7.5t0.5 11t3 10.5t8 6zM170 490q8 0 8 -10t-8 -10t-8 10t8 10zM170 520
q8 0 8 -10t-8 -10t-8 10t8 10zM300 520q1 5 -5 5t-5 -5t5 -5t5 5zM350 540l-20 -10q1 0 2.5 -0.5t2.5 -0.5t3 0.5l2 0.5q2 1 5.5 4.5t4.5 5.5zM170 560q8 0 8 -10t-8 -10t-8 10t8 10zM140 765v5q8 -5 12.5 -13.5t7.5 -16.5q1 -8 2.5 -28t3 -42t3 -42t1.5 -28v-10v-10l-10 20
l-2.5 18.5t-5.5 44t-6.5 52.5t-5.5 45v5zM110 670q2 -3 5.5 -14.5t4.5 -15.5q0 -2 0.5 -5t0.5 -5h-11v40zM99 750q0 2 0.5 5.5t0.5 4.5q9 -2 10 -10t1 -15q0 -2 -0.5 -7.5t-0.5 -7.5q-7 8 -9 14.5t-2 15.5z" />
    <glyph glyph-name="FL0047h" unicode="G" horiz-adv-x="827" 
d="M665 85q-1 0 -4.5 0.5t-5.5 0.5t-5 -0.5t-4 -0.5q-38 -12 -73 -24t-71 -21.5t-73 -15.5t-77 -6q-65 0 -127 15.5t-110 49.5t-77 86.5t-29 127.5q0 61 25.5 130.5t69.5 138t102 132t124 111.5t135 77t135 29q0 -11 -5 -23.5t-16 -17.5q-27 -11 -55.5 -20.5t-57 -20.5
t-55.5 -24t-50 -30q-2 -2 -6 -5.5t-4 -4.5q0 -2 0.5 -10t-0.5 -9q-2 -2 -7 -5t-11 -6t-12 -5.5t-8 -2.5v-9q12 3 25 11t26.5 16t26 14.5t22.5 6.5q1 0 2.5 -0.5t2.5 -0.5q-11 -14 -28 -27t-36 -25t-37.5 -22.5t-31.5 -20.5q-24 -18 -41 -49.5t-29.5 -67t-20.5 -70t-14 -59.5
q-2 0 -5 3.5t-4 5.5v4q0 34 12.5 65.5t15.5 63.5v9v29v9q1 2 8 10.5t15 18.5t15.5 18t9.5 10q3 4 10 15t9 14l0.5 2t0.5 3t-0.5 2.5l-0.5 1.5q-32 -23 -53.5 -51t-51.5 -53q3 -2 10 -9t9 -10l0.5 -2t0.5 -3l-13 -19t-30.5 -44.5t-33 -51.5t-19.5 -41l-19 -77h-4h-5
q-2 1 -5.5 4.5t-4.5 5.5q-2 -5 -5 -19t-4 -19v-10q0 -56 27 -102t70 -78t95 -49.5t102 -17.5h38q-11 3 -27 6t-33.5 7.5t-34.5 10.5t-28 15l-95 75v5v5l9 19v4q0 25 -4.5 47.5t-4.5 48.5q0 10 -1.5 26t-0.5 31.5t5.5 27.5t15.5 15q-3 -30 -6 -67.5t1.5 -72.5t20.5 -64.5
t51 -43.5v-4v-5q-1 -2 -4.5 -5.5t-5.5 -4.5q11 -18 35 -26.5t51.5 -11t53 -1.5t39.5 1q37 0 82.5 6t87 22t73.5 44t43 71q6 20 14 50.5t15.5 59t13 49.5t5.5 22v19l-294 -86q-1 0 -4.5 3.5l-5.5 5.5l-0.5 2t-0.5 4q0 1 0.5 2.5l0.5 1.5l57 29l256 76q8 14 27.5 17t33.5 3
q0 -17 -4 -47t-10.5 -61.5t-16 -60t-20.5 -42.5v-114q15 5 30.5 17.5t26.5 21.5q0 -1 0.5 -2.5t0.5 -2.5q0 -11 -11.5 -25.5t-26 -32t-29 -38t-20.5 -42.5q-2 -7 -2 -19q0 -11 -2.5 -22.5t-7.5 -21.5t-16 -13q-20 15 -28.5 38.5t-9.5 46.5zM66 166q0 -23 24 -44.5t57 -38
t66.5 -26.5t52.5 -10h19q-20 14 -42.5 17.5t-43.5 11.5q-40 17 -70.5 41.5t-62.5 53.5v-5zM313 47q2 5 -4 5t-5 -4.5t5 -4.5t4 4zM351 47q2 5 -4 5q-7 0 -5 -4.5t5 -4.5q4 0 4 4zM418 57q-1 2 -3.5 1.5t-4.5 -3t-2.5 -5t1.5 -3.5q5 -2 8 1.5t1 8.5zM447 76q-8 0 -8 -10
q0 -9 8 -9q7 0 7 9q0 10 -7 10zM565 105q-8 0 -12 -6.5t-4 -14.5q14 0 30 11q0 2 -3.5 5.5t-5.5 4.5h-5zM668 154q-7 0 -19 -5t-23.5 -12.5t-20 -16t-8.5 -16.5q12 0 24.5 3t23 9t17 15.5t6.5 22.5zM351 142q2 2 9.5 6t9.5 4q3 0 9.5 -1t14 -2.5t14.5 -3.5t10 -3
q-3 0 -9.5 -1.5t-14.5 -3t-14.5 -3t-9.5 -1.5h-5h-4q-2 1 -5.5 4t-4.5 5zM256 152q2 0 9.5 0.5t9.5 0.5q14 0 24 -1.5t24 -9.5h-67v10zM475 161q8 0 8 -9q0 -10 -8 -10t-8 10q0 9 8 9zM57 190q-5 2 -5 -5q0 -5 5 -4.5t5 4.5q0 3 -5 5zM56 337q9 0 13.5 -9.5t7 -22t4 -24
t4.5 -15.5q2 -4 8.5 -12t14.5 -17t15 -17t10 -11v-11q-17 0 -31 16.5t-24 39.5t-16 46t-6 37zM95 522q-8 0 -8 -9t8 -9t8 9t-8 9zM380 779q2 -5 -1.5 -8.5t-8.5 -1.5q-2 1 -1 3.5t3 5t4.5 3t3.5 -1.5zM466 798h28q-2 -2 -9.5 -5.5t-9.5 -4.5q-2 0 -4.5 -0.5t-4.5 -0.5v11z
M409 827q-8 0 -8 -10t8 -10q7 0 7 10t-7 10zM622 903h5q2 -1 9.5 -4.5t9.5 -5.5q-3 -2 -14 -5.5t-15 -3.5q-2 0 -6 -0.5t-5 -0.5q0 8 4 14t12 6z" />
    <glyph glyph-name="FL0048h" unicode="H" horiz-adv-x="480" 
d="M50 10l10 -10q12 29 18 59t9 60t5.5 60.5t7.5 60.5q5 13 10.5 10t14.5 -3v-217l15 -10q2 5 5.5 20t4.5 20q1 10 2.5 37t3 57.5t3 57.5t1.5 38q13 17 32 29t41 19.5t44.5 10.5t42.5 3q5 0 20 -0.5t20 -1.5l20 -200q10 -4 17.5 -12.5t13.5 -17t12.5 -15t16.5 -6.5
q2 0 5.5 0.5t4.5 0.5q6 15 8.5 27.5t2.5 25.5t-1 26.5t0 30.5q0 6 2 31t3.5 54t3 54t1.5 31v36q0 33 0.5 76t0.5 87v71v31v48q0 27 -0.5 56.5t-0.5 55.5v48v31q1 14 -5 17.5t-14 3.5q-32 0 -42 -21t-12 -49.5t-3 -57t-14 -43.5q-5 -72 -8.5 -153.5t-1.5 -156.5l-10 -10h-190
q-1 0 -5 11.5t-5 18.5q-8 45 -11 96.5t-4 104t-1.5 103.5t-3.5 96q-1 2 -4.5 5.5t-5.5 4.5q-5 2 -15 3l-10 1v-74l-25 10q-6 -21 -14 -45.5t-16 -44.5v-390q-16 -6 -29 -14.5t-13 -25.5t14.5 -29.5t27.5 -20.5v-210zM50 280q0 -1 0.5 -2.5t0.5 -2.5t-0.5 -3l-0.5 -2
q-1 -2 -4.5 -5.5t-5.5 -4.5l-2 -0.5t-3 -0.5t-2.5 0.5t-2.5 0.5zM120 302v-12h-20q6 12 20 12zM180 312v-12h-20q6 12 20 12zM120 360q8 0 8 -10t-8 -10t-8 10t8 10zM362 393q0 -13 -12.5 -21t-32.5 -13t-43.5 -7t-45 -3t-38.5 -0.5t-23 0.5q0 15 10.5 23t24 12t27.5 5t21 1
q6 0 22 0.5t34 1t34 1t22 0.5zM99 479q0 37 0.5 69.5t1.5 65t3 65.5t6 71q4 -75 7.5 -152.5t3.5 -154.5v-12t-0.5 -13.5t-0.5 -12.5v-5l-10 -10l-10 10v10q0 10 -0.5 22.5t-0.5 25.5v21zM100 770q8 0 8 -10t-8 -10t-8 10t8 10z" />
    <glyph glyph-name="FL0049h" unicode="I" 
d="M9 86q4 0 15 -1t23 -2.5t22.5 -3.5t13.5 -3q1 0 5.5 -1.5t10 -4t10 -4t5.5 -1.5q3 1 6 10.5t5 10.5q26 13 60.5 17.5t66.5 4.5h21t20 -1l252 53v21h-53v10l74 21v36q-31 0 -61 -5.5t-60 -11.5t-59.5 -11.5t-58.5 -5.5q0 10 -1 33.5t-1 49.5t-0.5 49.5t-0.5 33.5
q0 19 1 66.5t3 101.5t3.5 101.5t3.5 66.5q19 13 51.5 19.5t66 13t62.5 15.5t40 26q0 2 -4 6t-6 4q-3 0 -12 0.5t-20 0.5q-10 0 -19 -0.5t-12 -0.5q-2 14 -12 23t-25 9h-5q-18 -2 -52 -7t-69.5 -10t-64 -9.5t-35.5 -5.5q-17 -3 -47 -4.5t-59.5 -5t-51.5 -11t-22 -21.5
q0 -25 33 -26h-31q1 -3 4 -9.5t6.5 -14t6.5 -14t4 -9.5v-6v-5l-11 -21q0 -2 -1 -5t-1 -5h23l168 52h32q0 -60 -6 -116.5t-6 -116.5q0 -54 6.5 -106.5t6.5 -106.5v-12q0 -8 -0.5 -17t-0.5 -17v-12q-24 -15 -56.5 -27t-67.5 -21t-69 -15t-59 -10q-9 -4 -10.5 -9.5t-1.5 -11.5
q0 -3 0.5 -6.5t0.5 -4.5zM93 706q21 3 42 10t42 14.5t42 13t42 5.5q3 0 6.5 -0.5t4.5 -0.5q-5 -13 -28.5 -23t-52 -17t-56 -11t-42.5 -4v13zM356 758q-2 -5 -5 -5q-4 0 -6 5t6 5q7 0 5 -5z" />
    <glyph glyph-name="FL004Ah" unicode="J" horiz-adv-x="720" 
d="M11 222q16 -8 46 -26t61.5 -37t58.5 -33t39 -14q33 0 57.5 18t42.5 47t29.5 65.5t18.5 74.5t11 73.5t6 61.5q1 11 2.5 28t3 33t3 27.5l1.5 11.5l20 10l-20 10v117q-27 0 -64 -9t-76.5 -20.5t-77.5 -22.5t-67 -15v-30q-1 0 -8 5t-15.5 11t-15.5 11.5t-7 6.5q0 8 2.5 23.5
t6.5 31t10 28t12 13.5l370 60q28 -5 53.5 -0.5t50 11.5t49.5 13.5t52 6.5q15 0 30.5 -7.5t15.5 -24.5q0 -6 -16.5 -12t-42 -12.5t-55.5 -13.5t-57 -14.5t-46.5 -17t-23.5 -19.5q1 -3 1 -16v-24v-25q0 -12 -1 -15q-8 -60 -18.5 -119.5t-19.5 -119t-15.5 -119.5t-6.5 -122
q-17 -44 -43 -72.5t-77 -28.5q-29 0 -62.5 11.5t-57.5 29.5q-18 13 -45.5 33.5t-53 39.5t-43.5 33l-18 14v30zM421 692v-30l10 30h-10zM111 682q3 -8 8 -9.5t11 -1.5q7 0 18 2t21.5 6t18 10.5t7.5 15.5h-20q-17 0 -37.5 -5t-26.5 -18zM296 733q-1 0 -3 -0.5l-2 -0.5
q-2 -1 -5.5 -4.5t-4.5 -5.5q1 0 2.5 -0.5t2.5 -0.5t3 0.5l2 0.5q2 1 5.5 4.5t4.5 5.5q-1 0 -2.5 0.5t-2.5 0.5z" />
    <glyph glyph-name="FL004Bh" unicode="K" horiz-adv-x="490" 
d="M350 150q7 -17 19.5 -43.5t29 -52t37 -44t44.5 -18.5v18q-31 42 -60 89.5t-55.5 96.5t-50 98.5t-44.5 95.5q6 17 2 25.5t-11 16t-14 17.5t-7 31q0 3 4.5 11.5t9.5 18.5t10 19t6 11q22 51 44.5 95t45.5 95l0.5 2t0.5 3t-0.5 3l-0.5 2q-2 1 -10.5 9.5t-9.5 10.5q0 1 1 5.5
t3 9.5t4 9.5t2 5.5t0.5 5t0.5 6q0 6 -1.5 11t-9.5 8q-8 -6 -26 -36.5t-40.5 -74.5t-46 -96t-43.5 -100t-32.5 -87t-12.5 -57q0 -9 1.5 -19.5t14.5 -10.5q1 0 3 0.5l2 0.5q4 2 15.5 9.5t14.5 10.5q2 -4 10 -15.5t10 -14.5l10 -10q5 -12 13.5 -39t19.5 -60t24.5 -69t28 -65
t30 -48t29.5 -19q11 0 13.5 8.5t2.5 16.5q0 13 -5 23.5t-11 21t-11 21.5t-5 24q0 2 0.5 7.5t0.5 7.5zM60 60q3 -17 10 -30t26 -13q0 85 4 169.5t9 169t9 169.5t4 170v26t-0.5 33.5t-1 29.5t-0.5 16l-10 50q0 1 -3 2t-5 1q-6 0 -13.5 -7t-15 -16.5t-13.5 -18t-10 -11.5
l30 -30v-160q-8 15 -9 44t-4 57.5t-12.5 50t-33.5 21.5q0 -123 -5.5 -244.5t-5.5 -244.5v-14l10 -220l10 -10l10 10v490l10 30q1 -6 3 -21.5t3.5 -33t2.5 -33.5t1 -22q0 -16 0.5 -48t0.5 -73v-85v-85q0 -40 -0.5 -72t-0.5 -47zM310 245v5q8 -5 14 -14.5t9.5 -20t5.5 -21
t2 -19.5q0 -2 -0.5 -7.5t-0.5 -7.5q-5 7 -9.5 18.5t-8.5 23.5t-7.5 22t-4.5 16v5zM290 290q8 0 8 -10t-8 -10t-8 10t8 10z" />
    <glyph glyph-name="FL004Ch" unicode="L" horiz-adv-x="630" 
d="M70 10q-5 1 -5 -6q0 -6 5 -4t5 5q0 4 -5 5zM60 50q0 -3 -4 -10.5t-6 -9.5h5h5l70 20q98 22 194 45t196 35q1 2 4.5 10t5.5 10l6 9l4 6h84l-1 10t-3 15q-3 9 -11.5 13t-19 6t-21.5 2h-16q-59 0 -116.5 -8t-114.5 -17t-115 -17t-116 -8v119l50 540v10v10q0 4 -1.5 15.5
t-3 24.5t-3 24t-2.5 16q-3 2 -14.5 6t-15.5 4q-6 0 -9 -19t-5 -43t-2.5 -47t-0.5 -31h-18v80q0 2 -9.5 9.5t-15.5 10.5l-2 0.5t-3 0.5t-3 -0.5l-2 -0.5q-3 -2 -10.5 -9.5t-9.5 -10.5l10 -10v-160l10 -10l-10 -10v-290q7 -12 7 -26v-27q0 -13 1.5 -25t11.5 -22
q-2 -32 0.5 -62t7 -59.5t8.5 -59t4 -59.5zM94 110h6q3 0 11.5 -1.5t18.5 -3t18.5 -3t11.5 -2.5q-4 -2 -13.5 -6.5t-21 -9t-21.5 -9t-14 -5.5q-2 -1 -6 -1.5t-5 -0.5q0 2 0.5 6t0.5 6q2 5 5.5 16.5t4.5 13.5h4zM10 910q-5 2 -5 -5t5 -5t5 5t-5 5z" />
    <glyph glyph-name="FL004Dh" unicode="M" horiz-adv-x="630" 
d="M551 -80q-16 86 -37.5 182.5t-42.5 196t-37.5 199t-22.5 192.5l-10 10q-2 -2 -5.5 -10t-4.5 -10q-3 -10 -10 -35.5t-15 -54.5t-15 -54.5t-10 -35.5q0 -2 -1 -10t-1 -10q0 -15 7 -27.5t15 -24.5t15 -24t7 -27q-2 0 -11 1t-11 2q-2 0 -8 3t-12.5 7t-12.5 7t-7 3t-5.5 -3
t-10 -6.5t-9.5 -6.5t-5 -4l-2 -0.5t-3 -0.5t-3 0.5l-2 0.5q-9 4 -12 14t-3 20q0 11 2 21l3 15q-3 -4 -14.5 -15.5t-15.5 -14.5l-2 -0.5t-3 -0.5t-3 0.5l-2 0.5q-20 16 -33.5 37.5t-26 44t-26.5 43.5t-34 35v-11q0 -8 -0.5 -16.5t-0.5 -16.5v-11q0 -90 10.5 -180t10.5 -181
v-4q-1 -2 -4.5 -10t-5.5 -10v-130q0 -8 -8 -9.5t-13 -1.5q-9 0 -15.5 12t-10.5 27t-6 27.5t-2 14.5v580q0 1 -5 11.5t-12.5 25t-15 29.5t-12.5 24l-10 10q-1 2 -1.5 7t-0.5 6q28 0 45 -11t29 -28t22.5 -36.5t25.5 -37.5q6 -7 23 -24.5t36 -36.5t36.5 -36t24.5 -23l20 50v158
q9 0 16 -5t12 -12.5t8 -15.5t4 -15l60 140q9 21 17.5 36t32.5 15q15 0 20 -10t6.5 -23.5t3.5 -27t10 -20.5q1 -1 5.5 -2.5t9.5 -2.5t9.5 -2.5t5.5 -2.5q2 -3 5.5 -13t7 -22t6 -23.5t2.5 -16.5q0 -14 -6 -23t-6 -22q0 -5 2.5 -21t6.5 -36.5t9 -43.5t9.5 -42.5t8 -32.5
t5.5 -14q2 -12 7 -38t12 -58.5t14.5 -68.5t14.5 -69t13 -58.5t9 -37.5q4 -18 6.5 -23t3.5 -7.5t1.5 -8t0.5 -24.5q-14 0 -24 11.5t-17.5 27t-12.5 31t-8 23.5q0 -2 -0.5 -10t-0.5 -10q0 -4 0.5 -11.5t0.5 -8.5q0 -3 2.5 -16.5t6 -28.5t7 -28.5t4.5 -16.5v-6v-4l-20 -20v-4
q0 -21 3.5 -42t7.5 -41.5t7.5 -41t3.5 -41.5h-12zM540 280q0 -23 1.5 -39t9.5 -41q0 3 0.5 14.5t0.5 15.5q0 23 -1.5 39t-9.5 41q0 -3 -0.5 -14.5t-0.5 -15.5zM531 330q-5 2 -5 -5t5 -5t5 5t-5 5zM331 450q-8 0 -8 -10t8 -10t8 10t-8 10zM131 500q5 -5 5 -15t-5 -15
q-2 -2 -3.5 3t-1.5 11q0 7 1.5 12t3.5 4zM221 515v-5q1 -2 4.5 -10t5.5 -10q0 1 0.5 4.5t0.5 5.5q0 6 -1.5 11.5t-9.5 8.5v-5zM211 540q-8 0 -8 -10t8 -10t8 10t-8 10zM201 550q-5 2 -5 -5t5 -5t5 5t-5 5zM411 790q-2 1 -3.5 -4t-1.5 -11t1.5 -11.5t3.5 -3.5q5 3 5 15t-5 15
z" />
    <glyph glyph-name="FL004Eh" unicode="N" horiz-adv-x="510" 
d="M60 10q6 -12 20 -12v92q0 6 6 9.5t13 7.5t13.5 9t7.5 14q3 -10 13.5 -11.5t18.5 -1.5q0 48 -5 96t-11.5 96t-11.5 96t-5 96q0 24 0.5 45t10.5 44q28 -64 59.5 -121t67.5 -110.5t77 -104.5t86 -104q3 -13 6 -30.5t8.5 -33t15 -26.5t27.5 -11q11 0 20 4.5t3 26.5v18
q0 14 0.5 29.5t0.5 28.5v19q0 106 -6 211.5t-12.5 211t-11 211t-1.5 211.5q-1 2 -4.5 5.5t-5.5 4.5l-2 0.5t-3 0.5t-3 -0.5l-2 -0.5q-2 -1 -5.5 -4.5t-4.5 -5.5q-4 -29 -6.5 -50.5t-3.5 -42t-1 -41.5v-47q0 -109 6 -217t6 -217v-21t-0.5 -31.5t-0.5 -31.5v-21q-2 17 -5 52
t-7 79.5t-8.5 93.5t-8.5 93t-7 79.5t-4 52.5q0 7 -0.5 24t-0.5 36t0.5 36t0.5 24q-3 8 -8.5 9.5t-11.5 1.5q-17 0 -19 -10t-2 -24q0 -5 0.5 -15t0.5 -12q1 -6 4 -31t6.5 -54t6.5 -54t3 -31q8 -101 13 -199.5t17 -200.5v-15v-15q-45 59 -81.5 127.5t-68.5 132.5
q-4 8 -17 35.5t-31 64.5t-40 78t-43 75t-39.5 56.5t-30.5 22.5q0 -21 5.5 -41t5.5 -41v-10q-3 4 -5.5 14t-6.5 20.5t-8 18t-10 7.5q-4 0 -15.5 -4t-14.5 -6v-25v-25l30 -470q4 -60 7 -120t13 -120zM60 500h10q1 -8 3 -28t3.5 -42t2.5 -42t1 -28q0 -4 -1 -14t-2.5 -21.5
t-3.5 -21t-3 -13.5q-1 10 -2.5 37t-3 57.5t-3 57.5t-1.5 38v20zM209 485q0 1 0.5 2.5t0.5 2.5q2 -1 5.5 -4.5t4.5 -5.5l0.5 -2t0.5 -3t-0.5 -2.5t-0.5 -2.5q-2 1 -5.5 4.5t-4.5 5.5l-0.5 2t-0.5 3zM179 540q0 2 0.5 5.5t0.5 4.5q11 -11 16 -19t5 -21q0 -2 -0.5 -5.5
t-0.5 -4.5q-11 11 -16 19t-5 21zM60 560q5 -5 5 -20t-5 -20q-2 -2 -3.5 4.5t-1.5 15.5t1.5 15.5t3.5 4.5zM140 625v5q14 -8 22.5 -26t8.5 -34q0 -2 -0.5 -5.5t-0.5 -4.5q-8 4 -15 19.5t-11 27t-4 13.5v5z" />
    <glyph glyph-name="FL004Fh" unicode="O" horiz-adv-x="670" 
d="M9 406q0 -30 8 -67.5t22.5 -77t34.5 -79t44.5 -73.5t53 -60t58.5 -39q15 -6 32.5 -8.5t35.5 -3t35.5 0t31.5 0.5h18q14 0 29.5 0.5t28.5 0.5h19q45 12 77 48t54.5 85.5t36 107.5t21 113.5t10 104t2.5 79.5q0 106 -38.5 189.5t-122.5 152.5q-13 -2 -37 -1.5t-47 5.5
t-40.5 16t-17.5 32q-2 0 1 -0.5t1 -1.5l-20 -10q-1 -1 -5.5 -4t-9.5 -6.5t-9.5 -6.5t-5.5 -3q-75 -33 -131.5 -83t-94 -113.5t-56.5 -138.5t-19 -159zM450 140q0 -1 0.5 -2.5t0.5 -2.5q0 -14 -10.5 -27.5t-25.5 -24.5t-31.5 -18t-27.5 -7q0 7 2 10t5.5 4.5t7.5 3t9 4.5
q4 3 14 11.5t21.5 18.5t21 18.5t13.5 11.5zM530 130h12q0 -11 -6 -21t-14 -19.5t-17 -17l-15 -12.5l-2 -0.5t-3 -0.5t-2.5 0.5t-2.5 0.5q17 12 29.5 33t20.5 37zM250 100q1 2 4.5 5.5t5.5 4.5h10l110 20h5h5q-17 -26 -39 -33.5t-51 -7.5h-27q-13 0 -23 11zM140 305v5
q1 9 2.5 23t3 28.5t3 25.5t1.5 13q1 5 4.5 16.5t5.5 13.5q1 2 3.5 3.5t3.5 1.5q0 -36 1 -74t7 -74.5t19 -71.5t36 -65q-1 0 -4.5 -0.5t-5.5 -0.5q-20 0 -34.5 19t-25 45t-15.5 52t-5 40zM210 285v15l20 -40l10 20q-2 62 -1.5 126t11 126.5t33.5 120.5t67 107h5
q30 0 60 -10.5t53 -29.5t37.5 -45.5t14.5 -57.5q0 -27 -4.5 -72t-15 -97t-27.5 -105t-41.5 -96.5t-57 -70.5t-73.5 -27q-25 0 -42.5 13.5t-28 34t-15.5 44.5t-5 44zM410 160q8 0 8 -10t-8 -10t-8 10t8 10zM610 570v-15t0.5 -23t0.5 -23v-14q0 -10 -1 -30t-3 -44.5t-6 -51
t-9.5 -49.5t-13.5 -39.5t-18 -20.5v15q0 74 13.5 149t36.5 146zM89 450q0 51 13.5 105t47.5 95q7 8 18 20t22 23t19.5 19t10.5 8h10q-13 -46 -32 -91.5t-37 -91t-32.5 -92t-18.5 -95.5h-10q-1 0 -2.5 7t-3 16.5t-3 19.5t-1.5 17q0 2 -0.5 17t-0.5 23zM520 360q5 -2 5 -5
t-5 -5t-5 5t5 5zM540 450q5 -4 5 -15t-5 -15q-2 -2 -3.5 3t-1.5 12t1.5 12t3.5 3zM180 480q-1 -5 -5 -5t-5 5t5 5t5 -5zM538 740h12q5 0 11 -12t10.5 -27.5t7.5 -30.5t3 -20h-12l-4 9t-8.5 22t-9.5 26.5t-8 22.5q0 2 -1 5t-1 5zM180 750h10l-10 -10v10zM379 815q0 1 0.5 3
l0.5 2q1 2 4.5 5.5t5.5 4.5h5q13 0 29.5 -6t31 -16.5t24.5 -24t10 -28.5v-5q-9 5 -27.5 11t-37 13.5t-32.5 17.5t-14 23zM270 820q0 -1 0.5 -2.5t0.5 -2.5q0 -8 -6.5 -16.5t-16 -15t-20 -10.5t-18.5 -4q-2 0 -5.5 0.5t-4.5 0.5q14 17 32 29.5t38 20.5zM325 831q1 0 2.5 -0.5
t2.5 -0.5l-20 -20q0 1 -0.5 2.5t-0.5 2.5t0.5 3l0.5 2q1 2 4.5 5.5t5.5 4.5l2 0.5t3 0.5zM510 860q8 0 8 -10t-8 -10t-8 10t8 10zM500 860q-2 -5 -5 -5t-5 5t5 5t5 -5z" />
    <glyph glyph-name="FL0050h" unicode="P" horiz-adv-x="700" 
d="M280 210q4 -23 2 -55t-0.5 -63t11 -56.5t37.5 -35.5q-3 52 -2.5 96.5t3.5 88t8 88t11 97.5q2 17 7 34.5t3 35.5l100 100q4 4 13.5 12l19 16t17.5 14t10 8q3 2 18 9.5t32 15.5t32 15.5t18 9.5q18 11 23.5 17t6.5 12.5t-1 15t1 25.5q1 9 6 15.5t11 11.5l12 10t11 13
q0 1 0.5 4.5t0.5 5.5q0 4 -9.5 14t-21.5 23t-23.5 27t-16.5 26q-2 5 -5.5 12.5t-4.5 7.5q-4 2 -12.5 5.5t-18 6.5t-18 5.5t-11.5 2.5t-15 -3t-25.5 -6.5t-25 -7t-14.5 -3.5q-7 -1 -35 -4t-60 -6t-60 -6t-35 -4q-6 -1 -21.5 -5t-33 -9t-33.5 -9.5t-22 -6.5q-3 -1 -15 -7
t-25.5 -13t-25 -13t-14.5 -7q-15 -6 -29.5 -9.5t-26 -9.5t-18 -16t-6.5 -30q0 -11 8 -13t17 -2q10 0 18 -2t8 -13q0 -1 -0.5 -2.5t-0.5 -2.5q-23 -9 -38 -18t-15 -34q6 0 24 5.5t41 14t49 19t48.5 21t39 19t21.5 13.5q19 -49 20 -102.5t1 -104.5q0 -32 -8 -50.5t-18 -30
t-18 -17t-8 -10.5q0 -1 0.5 -3l0.5 -2q1 -2 4.5 -5.5t5.5 -4.5l-20 -40q-1 -2 3 -5.5t7 -4.5q5 -1 20 1.5t20 2.5v-334q0 -1 4 -5t6 -5l2 -0.5t3 -0.5t2.5 0.5t2.5 0.5q0 10 1 34t2.5 51t3.5 51.5t3 33.5q0 4 4 15.5t6 14.5zM320 350q5 -2 5 -5t-5 -5t-5 5t5 5zM330 420
q2 0 6 -4t4 -6q0 -11 -5 -23t-19 -12v8t1 14.5t4 14t9 8.5zM220 540v-10h10zM340 750q6 -3 9.5 -10t6 -15.5t3.5 -15.5t1 -9v-5v-5q0 -6 -1.5 -22t-3 -33.5t-3 -33t-2.5 -21.5q-5 -8 -13 -15.5t-19 -7.5q0 48 3 98t19 95zM380 710q0 1 -1.5 7t-3 13t-3.5 12.5t-2 7.5v11
q0 9 5 14.5t12.5 8.5t16 4.5t15.5 1.5q41 0 78 -12.5t73 -27.5q0 -1 0.5 -2.5t0.5 -2.5q0 -4 -13 -16.5t-33 -29t-44 -34t-44.5 -32.5t-35 -24.5t-16.5 -9.5t-7.5 0.5t-7.5 0.5q1 6 3 21.5t3.5 33t2.5 33.5t1 22zM625 691q1 0 2.5 -0.5t2.5 -0.5l-20 -20q0 1 -0.5 2.5
t-0.5 2.5t0.5 3l0.5 2q1 2 4.5 5.5t5.5 4.5l2 0.5t3 0.5zM280 740q0 6 7.5 9t12.5 3v-42q-6 4 -13 14t-7 16zM50 740h20v-12q-14 0 -20 12zM130 780q8 0 8 -10t-8 -10t-8 10t8 10zM525 801q9 0 20.5 -0.5t22 -4t17.5 -10t7 -18.5q-6 0 -17 3t-22 7.5t-19.5 10.5t-8.5 12z
M330 841q2 0 10 -0.5t10 -0.5q-23 -15 -39.5 -18t-40.5 -3q-4 0 -15.5 0.5t-14.5 0.5q19 14 43 17.5t47 3.5zM520 860q1 6 5.5 8t10.5 3t11 0.5t8 -0.5h13q9 0 17 -2t13.5 -6.5t5.5 -13.5q-21 0 -42.5 3t-41.5 8z" />
    <glyph glyph-name="FL0051h" unicode="Q" horiz-adv-x="640" 
d="M470 100q14 -11 25 -28t23 -33.5t26.5 -28.5t35.5 -12v12l-60 130q0 1 -0.5 4.5t-0.5 5.5q0 16 10 30t23.5 27l27 26t20.5 27q14 28 20.5 61t9 67.5t2 69t-0.5 64.5q0 74 -18 126t-53 90.5t-85.5 66.5t-114.5 55q-14 -3 -28 -0.5t-28.5 7.5t-29 9.5t-29.5 4.5
q-4 0 -17.5 -0.5t-17.5 -0.5q1 -3 0.5 -10t-2 -15t-4 -15t-4.5 -10q-1 -2 -8.5 -4.5t-16 -5.5t-16.5 -6t-9 -4q-38 -29 -65 -64t-43.5 -75.5t-24 -85t-7.5 -90.5q0 -74 20 -154t61 -147.5t103 -111t146 -43.5h11q9 0 19 0.5t18 0.5h12q20 10 38 26.5t32 33.5zM139 175
q0 1 0.5 2.5t0.5 2.5q4 -6 17 -19l27 -27l27 -27t19 -17q1 -1 7 -4t12.5 -6.5t12.5 -6t8 -3.5t5.5 -4.5t4.5 -5.5h-5q-16 0 -39 13.5t-44.5 32t-37 38t-15.5 31.5zM400 70q-1 -2 -4.5 -5.5t-5.5 -4.5l-2 -0.5t-3 -0.5t-2.5 0.5t-2.5 0.5zM340 170q-62 25 -90 62t-37 83.5
t-6.5 100.5t2.5 114v20t0.5 30t0.5 30v20q11 13 25.5 28.5t31 29.5t35.5 23.5t39 9.5q11 0 15.5 -6.5t6.5 -15t5 -17t12 -12.5q2 0 6 4t4 6q0 1 -1.5 7t-3 13t-3.5 12.5t-2 7.5t-0.5 8t-0.5 8q27 0 42.5 -16.5t24 -42t11.5 -56.5t4 -60.5t2.5 -54t6.5 -36.5q1 0 2.5 -0.5
t2.5 -0.5q10 0 16.5 12t8.5 19l10 -10q0 -2 0.5 -10.5t1 -19t1 -20.5t0.5 -15q0 -18 0.5 -38t-1.5 -40.5t-7 -40t-15 -36.5q-10 16 -16 37.5t-13.5 41.5t-18.5 36.5t-32 24.5q-11 -9 -27.5 -22t-32.5 -18q0 -3 -0.5 -14.5t-0.5 -15.5q0 -25 6 -46.5t16 -41.5t23 -40t26 -42
q0 -1 0.5 -2.5t0.5 -2.5q0 -9 -6.5 -14t-15.5 -7.5t-19 -3.5t-16 -1q-14 0 -21.5 7t-2.5 24zM230 170l10 -10h-10v10zM310 170q8 0 8 -10t-8 -10t-8 10t8 10zM220 190q8 0 8 -10t-8 -10t-8 10t8 10zM130 200q8 0 8 -10t-8 -10t-8 10t8 10zM39 513q0 80 25 146.5t86 120.5v-5
v-5q-13 -38 -27 -72t-26 -68t-20 -69t-8 -76q0 -46 5.5 -90.5t5.5 -89.5v-15q-15 24 -23 52t-12 56.5t-5 58t-1 56.5zM409 350q0 2 0.5 5.5t0.5 4.5q8 -3 9.5 -8.5t1.5 -11.5q0 -2 -0.5 -5.5t-0.5 -4.5q-8 3 -9.5 8.5t-1.5 11.5zM170 410v150l10 20v-190zM579 515
q0 3 0.5 12.5t0.5 12.5q2 -5 5.5 -20t4.5 -20v-10v-10q-6 1 -8 6t-3 10.5t-0.5 11t0.5 7.5zM500 530q8 0 8 -10t-8 -10t-8 10t8 10zM190 760q-23 -50 -44 -103t-36 -107v15q0 22 5.5 51t16 57t25 52t33.5 35zM450 780q8 0 8 -10t-8 -10t-8 10t8 10zM440 790q8 0 8 -10
t-8 -10t-8 10t8 10zM240 850h20l-20 -10v10z" />
    <glyph glyph-name="FL0052h" unicode="R" horiz-adv-x="1149" 
d="M207 339q0 -20 0.5 -64t3 -99t6 -113.5t10 -107t15.5 -79.5t22 -31q2 0 6 3.5t4 5.5q-2 75 -0.5 147.5t9.5 147.5q3 -8 5 -21.5t6 -26t10 -21.5t18 -9q0 54 -5 105.5t-5 106.5q0 12 6 22.5t15.5 18t21 12t22.5 4.5q31 0 66 -12t70 -28t68.5 -32t62.5 -24q6 -2 26.5 -7.5
t44.5 -12t45 -12t27 -6.5q32 -11 78.5 -30.5t96.5 -38.5t97.5 -33.5t81.5 -14.5q0 6 -8 18t-19 22.5t-23 17t-19 2.5q-45 40 -95.5 68.5t-104 53.5t-107 49.5t-102.5 56.5q-13 8 -34 17.5t-41 20t-34.5 21t-14.5 21.5q0 1 0.5 2.5t0.5 2.5q3 3 11 9.5t17 14t17.5 14.5
t11.5 10q1 1 5.5 4.5t9 6.5t8.5 5.5t5 2.5q2 1 19.5 3t43 6t54.5 10.5t53.5 15t41 19.5t16.5 25t-6 28.5t-13 25.5l76 47q1 0 1.5 3.5t0.5 5.5q0 19 -7 26t-17 8t-22 -1t-21 -2q0 15 4.5 28t4.5 28q0 22 -22 36.5t-51 23t-57.5 12t-41.5 3.5h-14q-12 0 -27.5 0.5t-32.5 0.5
h-26q-65 0 -129 -8t-127.5 -20.5t-126 -28t-125.5 -29.5v-10q0 -17 1.5 -23.5t6 -7.5t11.5 1t19 2v-19l-104 -105l-0.5 -2t-0.5 -3t0.5 -2.5l0.5 -1.5q2 -3 9 -10t10 -9h3h6q5 1 19 4t19 5q-13 -1 -16.5 1.5t-3 6.5t3.5 9t3 10q7 0 31 -2.5t49.5 -7t45.5 -11.5t20 -15v-9
q-30 0 -58 10.5t-58 10.5q0 -7 2 -13.5t10 -8.5l104 -38l0.5 -1.5t0.5 -2.5q0 -8 -2 -12t-5 -9t-5 -12t-2 -20h19q0 -7 0.5 -23t1.5 -34t1.5 -34t0.5 -23q0 -2 -1.5 -9t-3.5 -15t-3.5 -14.5t-1.5 -8.5zM644 310q2 0 7 0.5t7 0.5q21 0 36 -7.5t36 -21.5q-2 0 -9.5 -0.5
t-9.5 -0.5q-20 0 -33.5 10.5t-33.5 18.5zM483 358h9q12 0 27 -3.5t21 -15.5h-5q-12 0 -26.5 6t-25.5 13zM597 386l1.5 0.5t2.5 0.5t3 -0.5l2 -0.5q2 -1 5.5 -4t4.5 -5q-1 0 -2.5 -0.5t-2.5 -0.5t-3 0.5l-2 0.5q-2 1 -5.5 4t-3.5 5zM511 405q8 0 8 -9q0 -10 -8 -10t-8 10
q0 9 8 9zM587 405q8 0 8 -9q0 -10 -8 -10t-8 10q0 9 8 9zM502 405q-2 -5 -5 -5t-5 5t5 5t5 -5zM549 415q-2 -5 -5 -5t-4.5 4.5t4.5 4.5q7 0 5 -4zM521 434q7 0 7 -10q0 -9 -7 -9q-8 0 -8 9q0 10 8 10zM449 454q2 0 7.5 -0.5t7.5 -0.5q-2 -9 -10 -10t-14 -1q-2 0 -7 0.5
t-7 0.5q2 9 9.5 10t13.5 1zM530 501q2 0 5.5 -0.5t4.5 -0.5q-3 -5 -10 -9.5t-14.5 -8.5t-14.5 -6.5t-9 -3.5q0 1 -0.5 2t-0.5 2q0 14 14 19.5t25 5.5zM281 531q8 0 19.5 -3.5t11.5 -13.5v-4q-2 -2 -9.5 -5.5t-9.5 -4.5q-5 8 -8.5 15t-3.5 16zM312 548q25 7 41 8.5t39 1.5
q4 0 17 -0.5t17 -0.5q-6 -14 -22 -17t-33 -3h-18q-11 0 -21.5 0.5t-19.5 10.5zM274 576v124q19 0 66 1.5t100 3t100 3t66 1.5h22q6 0 18 -1t24.5 -3.5t22 -7.5t9.5 -12q0 -1 -0.5 -2t-0.5 -2q-6 -4 -22.5 -12.5t-34.5 -17.5t-34 -16.5t-23 -10.5q-3 -1 -15 -6t-26.5 -11.5
t-29.5 -12t-24 -8.5q-6 -2 -16.5 -6t-11.5 -4h-190zM801 644q8 0 16.5 -2.5t8.5 -13.5q0 -13 -18 -23t-40.5 -16.5t-43.5 -10t-28 -3.5q-2 0 -7 0.5t-7 0.5q9 11 23 23t30.5 22t34 16.5t31.5 6.5zM88 666l15 15q1 1 12 3t26 5t30.5 6t26.5 5q3 1 16 1h18q0 -14 -4 -22
t-9.5 -14.5l-11 -13t-9.5 -18.5zM179 732v-13h-38q2 8 12 10.5t18 2.5h8zM262 779q11 0 37 -0.5t55 -1t54.5 -1t36.5 -0.5q3 0 12.5 -1t21 -2.5t23.5 -3.5t19 -3q1 0 12 -1.5t24 -4.5t23.5 -8.5t10.5 -13.5h-270q-28 0 -43.5 6.5t-15.5 34.5zM207 757h19l-9 -10zM616 771h95
l-19 24q-75 5 -152.5 13t-151.5 25q12 10 39.5 14.5t59.5 6t62 0.5t45 -1q30 0 63.5 -0.5t66 -6.5t61.5 -20t49 -41q-14 -4 -26.5 -15.5t-20.5 -22.5h-143q-8 0 -17 8t-11 16zM174 776h5q-2 -2 -9.5 -5.5t-9.5 -4.5h-5h-5q2 2 9.5 5.5t9.5 4.5h5z" />
    <glyph glyph-name="FL0053h" unicode="S" horiz-adv-x="884" 
d="M165 -43q0 11 2.5 19.5t7.5 19.5q-5 0 -14.5 -1.5t-23.5 -1.5q-13 0 -24.5 2t-18.5 10l-0.5 2t-0.5 3t18 8t40.5 15.5t43 16.5t25.5 12q12 8 31 20.5t41 27.5t44.5 30.5t41.5 28.5t32.5 23t17.5 13q5 4 25 21t44.5 38.5t47.5 42t35 31.5q3 3 10.5 11t16.5 17t16.5 17
t10.5 12q2 2 5 9t3 10l0.5 2t0.5 3q0 14 -9.5 19t-20.5 5h-13q-17 0 -37 -1t-39.5 -5t-37.5 -12t-32 -21q-30 2 -51.5 -1t-40 -7t-37 -7.5t-42.5 -3.5q-6 0 -28.5 3t-52.5 7.5t-63 11t-61 14t-46.5 15t-18.5 15.5q0 13 11.5 22.5t26.5 18l30 17t23 19.5h-50q0 21 15.5 37
t36.5 29t43 24.5t36 23.5l403 228q23 7 44.5 15.5t43.5 16t44.5 12.5t47.5 5v-30q-66 -39 -135 -77.5t-136 -81t-128.5 -92t-112.5 -110.5q0 -1 -0.5 -2.5t-0.5 -2.5q0 -11 7.5 -12.5t15.5 -1.5q39 0 75.5 11t74.5 17q60 8 120.5 9.5t123.5 1.5h35q23 0 44.5 -2.5t53.5 -8.5
q17 -8 22.5 -17.5t5.5 -24.5q0 -2 -0.5 -7.5t-0.5 -7.5q-17 -34 -43 -71.5t-56 -61.5l-324 -237l-18 -19l-206 -152l-2 -0.5t-3 -0.5q-15 0 -15 19zM696 366q-7 0 -7 -9q0 -10 7 -10q8 0 8 10q0 9 -8 9zM736 396q-1 0 -2 -0.5l-1 -0.5q-2 -2 -9.5 -9t-9.5 -10l27 19
q-1 0 -2.5 0.5t-2.5 0.5zM642 461q1 -2 7 -6.5t13.5 -10t14.5 -9.5t10 -4v42q-11 0 -22.5 -3.5t-22.5 -8.5zM724 480l9 -38l35 29v9h-44zM230 509q-8 0 -8 -10q0 -9 8 -9q6 0 6 9q0 10 -6 10zM157 585q-8 -3 -14.5 -7t-11.5 -12q7 3 14 7t12 12zM805 575h9v-9h-9v9zM197 614
q-1 0 -3 -0.5l-2 -0.5q-5 -2 -7 -9q1 0 2 -0.5t2 -0.5t2 0.5l1 0.5q2 1 5.5 4t4.5 5q-1 0 -2.5 0.5t-2.5 0.5zM243 643q-1 0 -3 -0.5l-2 -0.5q-2 -1 -5 -4.5t-3 -5.5l16 10l-1 0.5t-2 0.5z" />
    <glyph glyph-name="FL0054h" unicode="T" horiz-adv-x="980" 
d="M530 110q1 -5 3.5 -18t5.5 -27.5t6 -27t5 -17.5q1 -3 4.5 -10.5t5.5 -9.5l1.5 -0.5t3.5 -0.5q1 0 3 0.5l2 0.5q2 1 5.5 4.5t4.5 5.5q0 18 1 56.5t2 86.5t2 101.5t2 102t2 86.5t1 57v23q0 40 -5.5 78.5t-5.5 78.5v11q0 9 0.5 19t0.5 18v12q3 1 11.5 4.5t18.5 6.5t18.5 5.5
t11.5 3.5q12 2 37 7t56.5 11t66.5 12.5t66.5 12.5t56.5 10.5t37 6.5q2 1 5.5 4.5t4.5 5.5l0.5 2t0.5 3q0 11 -8.5 13.5t-16.5 2.5q-27 0 -54 -4t-54 -9.5t-54 -10.5t-54 -7h-17h-28h-29h-16q-18 -2 -63.5 -7.5t-96.5 -12t-96.5 -12t-63.5 -8.5q-10 -4 -36.5 -9t-61.5 -11
t-72.5 -13.5t-68.5 -16t-51.5 -17.5t-20.5 -18q0 -2 10 -10.5t23 -19t25.5 -18.5t16.5 -8q50 0 98 12.5t96 27.5t96 27.5t98 12.5q0 -124 5.5 -244.5t12.5 -244.5q0 -8 -1.5 -30.5t1 -44.5t11 -37t29.5 -8zM530 140q5 -1 5 -5t-5 -5t-5 5t5 5zM530 280q5 -1 5 -5t-5 -5t-5 5
t5 5zM530 340q5 -4 5 -15t-5 -15q-2 -2 -3.5 3t-1.5 12t1.5 12t3.5 3zM530 420q2 -2 5.5 -10t4.5 -10v-5v-5q-1 -4 -4.5 -15.5t-5.5 -14.5v60zM520 710v-17t0.5 -25.5t0.5 -25.5v-17v-22t-0.5 -27.5t-0.5 -24.5v-11q0 -3 -1.5 -15t-4 -26.5t-6.5 -26t-8 -12.5v18
q0 14 -0.5 29.5t-0.5 28.5v19q0 36 -0.5 73t11.5 72q1 2 4.5 5.5t5.5 4.5z" />
    <glyph glyph-name="FL0055h" unicode="U" 
d="M136 106q28 8 53.5 0.5t50 -19.5t49.5 -23.5t53 -11.5q34 0 55 10t37.5 25.5t32 34.5t37.5 37v-24q0 -11 2.5 -23.5t7.5 -23.5t13 -18t19 -7q18 0 19.5 11t1.5 27v37q0 20 -1 62t-2 94.5t-2.5 111t-2.5 111t-2 94.5t-1 62q-1 9 -4.5 26.5t-10.5 35.5t-18 31t-28 13
q-8 0 -13.5 -1.5t-9.5 -9.5q3 -39 1 -89t-10.5 -105.5t-22.5 -112.5t-35 -108.5t-48.5 -94t-62.5 -68.5q-42 13 -69.5 46t-45 74t-27.5 84.5t-16 79.5q-1 6 -3.5 25.5t-5.5 45t-6.5 55t-6.5 55.5t-5.5 45t-3.5 26t-4 17.5t-6.5 20.5t-6.5 17.5t-4 7.5h-11
q-5 -12 -16.5 -33.5t-23 -45t-19 -45.5t-4.5 -34q1 -5 6 -19t11 -29.5t11.5 -28.5t8.5 -17v-336q0 -7 3 -16.5t8 -19t11.5 -17t14.5 -10.5v15q0 19 -2 32.5t-9 36.5l5.5 5.5t5.5 4.5l2 0.5t3 0.5q2 0 3.5 -0.5l1.5 -0.5q2 -1 6 -9.5t5 -11.5q2 -6 6.5 -21t9 -31.5t9 -31.5
t6.5 -21zM283 106h11h10q5 -1 17 -4.5t15 -5.5q-2 0 -8 -1t-8 -1q-12 0 -19.5 1.5t-17.5 10.5zM304 138q12 20 38 32t49 12q0 -56 -55 -56q-11 0 -16.5 2t-15.5 10zM483 421q8 0 8 -10q0 -11 -8 -11t-8 11q0 10 8 10z" />
    <glyph glyph-name="FL0056h" unicode="V" horiz-adv-x="494" 
d="M171 271l13.5 -27l20 -40l20 -40t13.5 -26q4 -10 13 -38.5t19 -59t20 -54t18 -23.5q0 6 1.5 21t3.5 21q1 2 10 9.5t9 9.5q9 18 17 39.5t15.5 44t13.5 45t11 42.5q29 115 43.5 230.5t23.5 234.5q2 29 6.5 58.5t9.5 58.5t9 58.5t4 58.5v4q-1 2 -4.5 5t-5.5 4
q-26 -32 -42.5 -68.5t-28 -75.5t-19.5 -79.5t-15 -80.5q-3 -14 -8 -44.5t-12 -67.5t-14 -76.5t-14 -71.5t-13 -53t-10 -21q-3 0 -5 2q-71 130 -114 262.5t-66 278.5l-9 10q-5 -12 -9.5 -15.5t-10.5 -3.5q-5 0 -12 1.5t-16 -1.5q-13 -5 -19.5 -12.5t-10.5 -16.5t-7.5 -18.5
t-10.5 -19.5v-5v-4zM209 347q1 0 2.5 0.5t2.5 0.5q9 0 22.5 -18.5t26 -43.5t22 -51t9.5 -40q0 -4 -1 -13.5t-2.5 -20t-3 -20t-2.5 -13.5l-57 171q-1 3 -4 9.5t-6 14t-5.5 14.5t-3.5 10zM361 204h9l-9 -9v9zM380 252q8 0 8 -10q0 -9 -8 -9t-8 9q0 10 8 10zM466 941
q0 -17 19 -17v44q-11 0 -15 -9.5t-4 -17.5z" />
    <glyph glyph-name="FL0057h" unicode="W" horiz-adv-x="667" 
d="M513 -110q2 -2 8.5 -5t8.5 -4h4q3 0 10.5 13.5t15.5 30t14 31.5t7 19t2.5 14t3 20.5t2.5 20.5t1 14h8q0 -4 1 -14t4 -20.5t8 -18.5t13 -8q2 0 5 0.5t4 0.5q2 5 4.5 17t3.5 17q1 7 2.5 25.5t3 39t2.5 38.5t1 25v28v49v60v60v48v29q0 5 1 26t2.5 46t3 46.5t1.5 26.5v5
q0 36 -2 76t-5.5 80.5t-8 80.5t-9.5 75q-7 9 -9.5 27.5t-6 37t-11 33t-25.5 14.5q-8 0 -15.5 -21.5t-14 -49.5t-12 -55t-9.5 -38v-213q6 -11 9.5 -21.5t7.5 -21.5q2 2 8 5t9 3q2 0 5 -3t4 -5q11 -28 10.5 -58.5t-0.5 -58.5v-15q0 -12 -1 -24.5t-1 -14.5l-25 -26
q1 -39 2.5 -83.5t-1 -90t-10.5 -89t-25 -79.5l-9 9q-2 1 -10 23t-18.5 52t-21.5 61.5t-18 51.5q-1 1 -2.5 8.5t-3 16.5t-2.5 16.5t-1 9.5q-2 11 -6 30t-7.5 32t-3.5 15l-9 9q0 2 0.5 12.5t0.5 21.5t-0.5 20t-0.5 14q-1 6 -5 28.5t-9 46.5t-10.5 43t-9.5 19q-22 0 -34 -17
q-7 -11 -16 -14.5t-16.5 -4t-13 -1t-5.5 -6.5q0 -2 1 -7t2.5 -10.5t3 -10.5t1.5 -6v-5v-4q-9 6 -15 19t-11.5 26.5t-13 25t-20.5 15.5q-2 1 -8 -3l-9 -6l-0.5 -1.5t-0.5 -3.5l1 -3l63 -125l-66 -130l-57 349q-5 26 -19 44t-23 41q-3 7 -6.5 27t-10 41t-16 37t-23.5 16
q-11 0 -12.5 -13.5t-1 -29t0 -27.5t-7.5 -8l-34 17q0 -3 -0.5 -11t-0.5 -11q0 -30 6.5 -61t15.5 -61.5t19.5 -61t18.5 -59.5q26 -94 39.5 -189t13.5 -191q0 -22 -5.5 -40t-5.5 -39q0 -7 1.5 -15t16.5 -5q0 -3 0.5 -11t0.5 -11q0 -4 -0.5 -12t-0.5 -9t-1.5 -4.5t-3 -7.5
t-2.5 -8t-1 -5q0 -4 8 -10t18 -11.5t18.5 -9.5t10.5 -4q1 0 2.5 0.5t2.5 0.5q7 21 20.5 38t30.5 30q-9 2 -9.5 9t-0.5 12q0 3 0.5 7.5t0.5 5.5q19 67 44.5 131.5t41.5 133.5q2 7 8 9l4 1q1 0 3 -0.5l2 -0.5q6 -2 8 -9q22 -76 43.5 -148.5t59.5 -141.5q3 -6 7 -13l8 -14
t7.5 -11.5l3.5 -4.5h21v43q28 -27 32.5 -65t-2.5 -72zM171 129q4 -4 4 -13t-4 -12q-2 -2 -3.5 2t-1.5 10t1.5 10.5t3.5 2.5zM402 206v9q12 -19 19 -43.5t7 -47.5v-12q-11 22 -18.5 46.5t-7.5 47.5zM231 240q7 0 7 -8q0 -9 -7 -9t-7 9q0 8 7 8zM188 351q2 -2 3 -9.5t1 -15.5
q0 -9 -1 -16.5t-3 -9.5q-2 -3 -3.5 6t-1.5 20t1.5 19t3.5 6zM180 369q3 -2 3 -5q0 -2 -4 -4t-4 4q0 7 5 5zM547 454q0 -3 1 -11.5t2.5 -18.5t3 -18.5t2.5 -11.5l8 9v60l-8 8q-2 -2 -5.5 -8.5t-3.5 -8.5zM358 454v14q0 10 10 12q7 -17 12 -36.5t5 -36.5v-4q-27 18 -27 51z
M538 536q0 -15 4.5 -30.5t22.5 -15.5q0 1 -0.5 7t-0.5 8l-17 52q-8 -2 -8.5 -9t-0.5 -12zM77 582q4 -1 4 -4q0 -2 -4.5 -4t-4.5 4t5 4zM59 629q0 2 0.5 6.5t0.5 6.5q8 -8 8.5 -16.5t0.5 -17.5q0 -2 -0.5 -8.5t-0.5 -8.5q-7 12 -8 19t-1 19zM547 762l9 34q12 -44 15.5 -88.5
t3.5 -90.5h-11zM51 676q7 0 7 -8q0 -9 -7 -9q-6 0 -6 9q0 8 6 8z" />
    <glyph glyph-name="FL0058h" unicode="X" horiz-adv-x="589" 
d="M51 -113q0 -8 3 -14t12 -6q1 0 2.5 0.5l1.5 0.5q2 1 5.5 4t4.5 5l76 162q2 -14 8 -26.5t20 -12.5q6 0 11.5 1t7.5 9q6 11 19.5 39.5t28 60.5t28 60.5t19.5 39.5q1 3 2.5 9.5t4.5 13t7 11.5t10 5q4 0 12 -11t19 -28.5t23.5 -39t24.5 -41.5t22.5 -37t17.5 -25
q6 -8 20.5 -22t24.5 -24t12 -11h30q0 44 -22 81t-46 71v10l38 -29v5v5q-1 2 -4 9t-5 10q-7 10 -23.5 36t-34.5 55t-34 54.5t-23 35.5v4v5q49 135 100.5 267.5t108.5 264.5q0 2 0.5 7t0.5 7q0 15 -7.5 21.5t-21.5 11.5v54q-14 0 -27 -7t-23.5 -18t-19.5 -24t-15 -24
q-7 -11 -16.5 -29.5t-18.5 -36.5t-15.5 -32t-6.5 -15v-19h9l19 57h9q0 -10 -2.5 -24t-7.5 -28.5t-11.5 -26t-15.5 -16.5q-1 2 -4.5 5t-5.5 4l-2 0.5t-3 0.5t-2.5 -0.5t-2.5 -0.5q-2 -5 -10 -23t-19.5 -42.5t-24.5 -51.5t-24.5 -49.5t-20 -37.5t-10.5 -15q-9 0 -27.5 24
t-42 60t-49.5 78t-51 78t-46.5 60t-34.5 24q-8 0 -14 -3t-6 -12v-4l57 -91l-47 24q-6 3 -8 -3t-2 -11v-5v-9q5 -9 17.5 -28.5t28.5 -44t34 -51.5t34 -51.5t29 -44l19 -28.5q7 -12 17 -26t19 -28.5t15.5 -29.5t6.5 -30q0 -19 -7 -42t-16 -46.5t-19 -45t-16 -37.5
q-29 -82 -62 -161t-62 -161v-10zM431 205q0 1 0.5 2.5t0.5 2.5q2 -2 9.5 -9t9.5 -10v-5v-5q-3 2 -10 9.5t-9 9.5l-0.5 2t-0.5 3zM403 267q8 0 8 -10q0 -9 -8 -9t-8 9q0 10 8 10zM393 277q8 0 8 -10t-8 -10q-7 0 -7 10t7 10zM365 324q8 0 8 -9q0 -10 -8 -10t-8 10q0 9 8 9z
M260 504q8 0 8 -9q0 -10 -8 -10q-7 0 -7 10q0 9 7 9zM242 533q7 0 7 -10q0 -9 -7 -9q-8 0 -8 9q0 10 8 10zM232 542q5 0 5 -4q0 -3 -5 -5t-5 5q0 6 5 4zM327 542v-9h-10zM223 561q7 0 7 -9q0 -10 -7 -10q-8 0 -8 10q0 9 8 9zM327 571q0 1 3.5 8l5.5 11q6 10 11 24.5l10 29
t11.5 26t15.5 15.5v-10q0 -14 -6 -30.5t-14 -32.5t-16 -29.5t-12 -21.5q-2 0 -5.5 4t-3.5 6zM203 590q8 0 8 -10q0 -9 -8 -9q-7 0 -7 9q0 10 7 10zM403 733v-5v-5q-1 -2 -4.5 -9.5t-5.5 -9.5v10q0 5 1 10.5t9 8.5z" />
    <glyph glyph-name="FL0059h" unicode="Y" horiz-adv-x="541" 
d="M351 -29q0 38 4.5 76.5t9.5 76.5t9.5 76t4.5 75q0 2 -3.5 9t-5.5 10q-3 4 -12.5 14.5t-21 23.5t-22.5 24.5t-17 17.5q-43 47 -79.5 93t-73.5 97q-19 26 -34.5 52t-32 51.5t-35 49.5t-42.5 46q0 1 -0.5 3.5t-0.5 4.5q0 19 14 19t29.5 -12.5t30 -29t26.5 -33t19 -24.5h8
q-11 23 -25.5 41.5t-28.5 38.5q-6 9 -13.5 21t-14 23.5t-11.5 19.5t-5 9v21q2 0 4 -1l4 -2q1 -2 7 -6t12 -8.5t11 -8t6 -4.5q2 -2 12.5 -4t16.5 -4q3 0 5 -0.5l2 -0.5q2 -1 9 -8t9 -11q3 -4 15 -21t25.5 -37t26 -37.5t15.5 -20.5q43 -56 88 -104t83 -104l4.5 -9t5.5 -9
l1 -0.5t2 -0.5t2.5 0.5t2.5 0.5q1 4 3 15.5t3.5 24.5t2.5 24.5t1 16.5v97v69v70v98l18 81q6 4 8.5 11.5t4.5 15t5.5 13.5t12.5 6q1 0 3 -0.5l2 -0.5q2 -1 4.5 -3.5t3.5 -4.5q2 -4 5.5 -13.5t8 -19.5t8 -19t5.5 -12h18l9 -36v-15q0 -14 0.5 -30.5t0.5 -33.5v-28
q0 -80 -0.5 -158.5t-9.5 -158.5q-7 -60 -16.5 -119.5t-17.5 -119t-12 -119.5t1 -121q-8 5 -11.5 12.5t-6.5 15.5q0 -5 -1.5 -22.5t-6 -37t-12.5 -34.5t-21 -15h-3q-1 2 -3 10t-3.5 17t-2.5 17.5t-1 10.5v3v5l18 226v27v27l-8 -18q-1 -1 -3 -14.5t-5 -35t-6 -48t-6 -53.5
t-5 -51.5t-3 -41.5q0 -4 -0.5 -17t-1.5 -27.5t-1.5 -27t-0.5 -16.5q-15 0 -19.5 15.5t-4.5 31.5v17zM307 438q-5 2 -5 -5q0 -6 5 -4.5t5 4.5t-5 5zM389 438q-8 0 -8 -10q0 -8 8 -8q6 0 6 8q0 10 -6 10zM261 596v-5q1 -3 5 -9.5t8.5 -13t8.5 -13t6 -9.5q7 -11 19 -27.5
t23.5 -32.5t20.5 -27.5l9 -11.5l18 -9v5v4q-1 2 -4 9t-5 9q-5 6 -18 22t-27 34.5t-27 35.5t-19 25l-18 18v-4zM487 564l9 -18v117zM243 618l10 -9v9h-10zM135 691q-7 0 -7 -10q0 -8 7 -8t7 8q0 10 -7 10zM494 907q0 -6 1.5 -15t9.5 -12v27h-11zM451 970q-7 0 -7 -9t7 -9
q8 0 8 9t-8 9z" />
    <glyph glyph-name="FL005Ah" unicode="Z" horiz-adv-x="1387" 
d="M9 -39q3 -8 8.5 -9t11.5 -1q7 0 17 4t19.5 10.5t16.5 14t7 15.5q-19 0 -28 -4t-15.5 -9.5t-14 -11t-22.5 -9.5zM133 37q3 -6 -2 -13.5t-12.5 -16.5t-15 -18.5t-8.5 -17.5q1 0 2.5 -0.5t2.5 -0.5t3 0.5l2 0.5l4.5 3t9.5 6.5t9 6.5t5 3q107 43 220.5 86.5t225.5 74.5
l305 76q12 3 26 5t28 4.5t27 7t23 12.5l304 66h9l57 19q0 1 0.5 2.5t0.5 2.5q0 8 -6 11.5t-13 3.5q-2 0 -5.5 -0.5t-4.5 -0.5l-29 -9q-19 -5 -45.5 -11t-56 -12.5t-58.5 -12.5t-52 -10.5t-38 -7.5t-16 -3h-18v9q4 1 21 3.5t36 8t34 14.5t15 24q-17 0 -34 -3t-33.5 -7t-33 -7
t-34.5 -3v8q14 2 30 6.5t27 12.5q-3 0 -12 0.5t-12 0.5q-48 0 -99.5 -16.5t-94.5 -41.5l-371 -133q-1 2 -4 5.5t-5 4.5h-5h-5l-28 -19q-2 -1 -4.5 0t-3.5 1q0 17 7 26t20 20q9 8 30 25.5t47 39t55 45.5t55.5 45.5t47 38.5t30.5 25q13 8 39.5 17t58.5 18t65.5 17t60.5 16
t44.5 15t17.5 12q0 2 -4 9.5t-6 9.5h-9h-29h-9q-29 0 -54 -4.5t-51 -4.5v9q0 1 10 12t23.5 26t28 30.5t24.5 26.5l114 114q-2 15 2 29t12 26t19 22t23 18v32q-93 0 -189.5 -10t-193 -26.5t-191.5 -37.5t-186 -44h-12q0 10 1.5 20t1.5 19t-2 18t-8 19l-1 0.5t-2 0.5
q-8 0 -12.5 -6.5t-7 -15t-3.5 -16t-2 -10.5q-10 -27 -36.5 -42.5t-54.5 -25t-49.5 -16t-21.5 -16.5q0 -1 0.5 -3l0.5 -2q0 -2 4 -5.5t5 -3.5h105q-4 -12 -12 -21t-17 -17q11 -19 14 -18.5t4.5 1.5t5 -7t14.5 -43q1 -3 4.5 -6.5t5.5 -2.5l37 28l14.5 4.5t38 12t52.5 17
t58.5 19t56.5 18.5t46 15q9 3 30 8.5t48 13t56 16.5t53.5 17.5t41 16t18.5 13.5h-9q-38 0 -82 -13.5t-88 -29.5t-86 -29.5t-76 -13.5q-2 0 -5.5 0.5t-4.5 0.5q8 14 25.5 19l31.5 9t44.5 12t69 18.5t81 22t81 21.5t69 18.5t45.5 12.5q42 29 99 29q3 0 12 -0.5t12 -0.5
q-7 -5 -23 -17l-34 -25.5l-34 -25.5t-23 -17q-6 -5 -17 -12l-11 -7q-2 0 -9.5 4t-9.5 5h-5q-8 0 -12 -5.5t-4 -13.5h21l-12.5 -10t-14.5 -13.5t-13 -16t-8 -17.5l-181 -190q-2 -2 -12.5 -5.5t-15.5 -3.5q-8 0 -27 -0.5t-40 -0.5q-20 0 -39 0.5t-27 0.5q-5 -4 -11.5 -11
t-12 -15.5t-9.5 -16.5t-5 -14q-2 -8 -3 -21l-1 -13h76l3 -5t1 -9q-2 -2 -8.5 -9.5t-10.5 -9.5l-19 -9q-46 -41 -86.5 -81.5t-84.5 -80.5q-20 -19 -39.5 -34.5t-38.5 -30.5t-37.5 -31t-36.5 -37zM85 37q-4 2 -4 -6q0 -5 4.5 -3t4.5 4q0 3 -5 5zM180 123q-7 0 -7 -10
q0 -9 7 -9q8 0 8 9q0 10 -8 10zM209 151q-8 0 -8 -9q0 -10 8 -10t8 10q0 9 -8 9zM238 170v-9l9 9h-9zM294 218q-7 0 -7 -10q0 -9 7 -9q8 0 8 9q0 10 -8 10zM361 265q-1 2 -3.5 1.5t-4.5 -3t-3 -4.5t1 -3q5 -2 8.5 1t1.5 8zM1139 356q0 -2 0.5 -3.5l0.5 -1.5q1 -2 4 -5.5
t5 -4.5h5q20 0 45 7t50.5 18t49 24.5t40.5 26.5q-2 0 -7 0.5t-7 0.5q-5 0 -20.5 -3.5t-36.5 -9.5t-43.5 -13t-41.5 -14t-31.5 -12.5t-12.5 -9.5zM1083 379q-5 2 -5 -5q0 -6 5 -4.5t5 4.5t-5 5zM1111 398q-7 0 -7 -9q0 -10 7 -10q8 0 8 10q0 9 -8 9zM1159 408q-8 0 -8 -10
q0 -9 8 -9t8 9q0 10 -8 10zM1202 418q-1 0 -3 -0.5l-2 -0.5q-2 -1 -5.5 -4t-4.5 -5q1 0 2.5 -0.5t2.5 -0.5t3 0.5l2 0.5q2 1 5.5 4t3.5 5l-1.5 0.5t-2.5 0.5zM1377 427q-7 0 -7 -10q0 -9 7 -9q8 0 8 9q0 10 -8 10zM1244 436q-7 0 -7 -9q0 -10 7 -10q8 0 8 10q0 9 -8 9z
M522 446q0 -5 -4 -5q-3 0 -5 4.5t5 4.5q6 0 4 -4zM275 474q2 5 -4 5t-5 -5t5 -5t4 5zM418 550q-8 0 -8 -9q0 -10 8 -10t8 10q0 9 -8 9zM579 560q2 4 -4 4q-7 0 -5 -4.5t5 -4.5q4 0 4 5zM504 588q-8 -2 -20.5 -6t-17.5 -13h4h5q5 2 16 5.5t13 4.5l0.5 1.5t0.5 2.5q0 2 -0.5 3
t-0.5 2zM541 588q2 5 -4 5q-7 0 -5 -5t5 -5q4 0 4 5zM612 637q-1 0 -6.5 -0.5t-7.5 -0.5q-6 -2 -15.5 -6.5t-15.5 -8t-7 -4.5v-14q7 0 16 2.5t17 7t13.5 10.5t5.5 14zM655 617q-7 0 -7 -10q0 -9 7 -9q8 0 8 9q0 10 -8 10zM693 617q-4 0 -4 -5q0 -7 4.5 -5t4.5 5t-5 5z
M712 636q-4 0 -4 -5q0 -7 4.5 -5t4.5 5t-5 5zM285 645h19l-19 -9v9zM651 655h-5q-2 -1 -5.5 -4.5t-4.5 -5.5q1 0 2.5 -0.5t2.5 -0.5t3 0.5l2 0.5q2 1 5.5 4.5t3.5 5.5h-4zM741 655v-10h9v10h-9zM779 683q-2 -1 -5.5 -4t-4.5 -5v-5v-5q2 1 5.5 4.5t4.5 5.5l0.5 1.5t0.5 2.5
t-0.5 2.5t-0.5 2.5zM456 731q-4 -9 -19 -13q-8 -2 -21.5 -4t-16.5 -2l-105 -29h-4h-5q1 2 4 5.5t5 4.5q38 16 80 24.5t82 13.5zM798 721q-8 0 -8 -9q0 -10 8 -10t8 10q0 9 -8 9zM827 769q0 4 -5 4q-7 0 -5 -4.5t5 -4.5t5 5zM846 778q-8 0 -8 -9q0 -10 8 -10q7 0 7 10
q0 9 -7 9z" />
    <glyph glyph-name="FL005Bh" unicode="[" horiz-adv-x="427" 
d="M10 110q1 -2 10 -10t10 -10q5 -20 5 -34q0 -12 1 -22t6.5 -18t16 -12.5t28.5 -4.5q70 0 135.5 8t113.5 19.5t72 24t11.5 21.5t-68 12.5t-166.5 -3.5q2 -11 12 -11h16q15 0 37.5 -6t46 -11.5t45 -7.5t35.5 5q0 -1 0.5 -2.5t0.5 -2.5q0 -12 -17 -14t-43 2t-57.5 12.5
t-61 17t-52.5 14.5t-33 6q0 10 -1.5 22.5t-0.5 24t7 20t21 10.5q-4 24 -10.5 48.5t-12 49t-7.5 49.5t3 50q2 9 6 36.5t9 65t10.5 79t10 79t8 65.5t4.5 37l3.5 17.5t5.5 27t6 27.5t5 18q1 2 4.5 10t5.5 10l20 17q1 -7 26 -8.5t55 -2.5t55 -2.5t27 -8.5q29 15 33 29t-10 26
t-42 21t-62.5 15t-71 9t-67.5 2q-21 -11 -31 -30.5t-15.5 -42.5t-8 -48t-8.5 -46q-5 -18 -12 -44.5t-14 -56.5t-14.5 -60.5t-13.5 -55.5t-10.5 -42.5t-5.5 -20.5q-3 -16 0 -57t8 -87t8.5 -87t2.5 -58q-2 -2 -7.5 -13t-11 -24t-9 -25.5t-2.5 -17.5zM170 50q-18 -14 -39 -19.5
t-43 -5.5q0 4 2 14.5t10 10.5h70zM80 190q5 -2 5 -5q0 -4 -5 -5t-5 5q0 7 5 5zM407 80q8 0 8 -10t-8 -10t-8 10t8 10zM90 220q8 0 8 -10t-8 -10t-8 10t8 10zM90 270q5 -5 5 -15t-5 -15q-2 -2 -3.5 3t-1.5 12t1.5 12t3.5 3zM120 370l10 -10l-10 -10v20zM81 469q5 -2 5 -5
t-5 -5t-5 5t5 5zM71 499h10v-10zM111 639q0 -4 0.5 -17.5t0.5 -17.5q0 -23 -6.5 -38.5t-6.5 -36.5h-18q0 4 1 14t2.5 21.5t3.5 21t3 13.5q0 1 4.5 5t5.5 5q2 3 5.5 14.5t4.5 15.5zM111 689l10 -10l-10 -10v20zM121 719q8 0 8 -10t-8 -10t-8 10t8 10zM151 829q8 0 8 -10
t-8 -10t-8 10t8 10zM181 889q-2 -5 -5 -5q-4 0 -5 5t5 5q7 0 5 -5z" />
    <glyph glyph-name="FL005Ch" unicode="\" horiz-adv-x="589" 
d="M583 -113v10q-15 41 -34 80t-37.5 78.5t-33 80t-19.5 83.5q-5 40 -23.5 64.5t-43.5 47t-52.5 50t-50 74t-36.5 120t-12 186.5q-1 0 -2.5 0.5t-2.5 0.5t-3 -0.5l-2 -0.5q-2 -1 -5.5 -4t-4.5 -5q-9 5 -15.5 16.5t-11.5 26t-7.5 28.5t-2.5 24h9l19 -57h9v19q0 1 -6.5 15
t-15.5 32t-18.5 36.5t-16.5 29.5q-6 11 -15 24t-19.5 24t-23.5 18t-27 7v-54q-14 -5 -21.5 -11.5t-7.5 -21.5q0 -2 0.5 -7t0.5 -7q59 -124 101.5 -212.5t72 -151t47.5 -102.5t28 -66.5t15 -42.5t7.5 -31t5 -32.5t8.5 -45.5q6 -11 19.5 -39.5t28 -60.5t28 -60.5t19.5 -39.5
q2 -8 7.5 -9t11.5 -1q14 0 20 12.5t8 26.5l76 -162q1 -2 4.5 -5t5.5 -4l1.5 -0.5t2.5 -0.5q9 0 12 6t3 14zM307 542l10 -9h-10v9zM307 571q0 -2 -3.5 -6t-5.5 -4q-4 8 -12 21.5t-16 29.5t-14 32.5t-6 30.5v10q9 -4 15.5 -15.5t11.5 -26l10 -29t11 -24.5l5.5 -11t3.5 -8z
M231 733q8 -3 9 -8.5t1 -10.5v-10q-2 2 -5.5 9.5t-4.5 9.5v5v5z" />
    <glyph glyph-name="FL005Dh" unicode="]" horiz-adv-x="427" 
d="M422 110q-1 -2 -10 -10t-10 -10q-5 -20 -5 -34q0 -12 -1 -22t-6.5 -18t-16 -12.5t-28.5 -4.5q-70 0 -135.5 8t-113.5 19.5t-72 24t-11.5 21.5t68 12.5t166.5 -3.5q-2 -11 -12 -11h-16q-15 0 -37.5 -6t-46 -11.5t-45 -7.5t-35.5 5q0 -1 -0.5 -2.5t-0.5 -2.5q0 -12 17 -14
t43 2t57.5 12.5t61 17t52.5 14.5t33 6q0 10 1.5 22.5t0.5 24t-7 20t-21 10.5q4 24 10.5 48.5t12 49t7.5 49.5t-3 50q-2 9 -6 36.5t-9 65t-10.5 79t-10 79t-8 65.5t-4.5 37l-3.5 17.5t-5.5 27t-6 27.5t-5 18q-1 2 -4.5 10t-5.5 10l-20 17q-1 -7 -26 -8.5t-55 -2.5t-55 -2.5
t-27 -8.5q-29 15 -33 29t10 26t42 21t62.5 15t71 9t67.5 2q21 -11 31 -30.5t15.5 -42.5t8 -48t8.5 -46q5 -18 12 -44.5t14 -56.5t14.5 -60.5t13.5 -55.5t10.5 -42.5t5.5 -20.5q2 -11 1 -33.5t-3.5 -50.5t-5.5 -59.5t-6 -60t-4.5 -51.5t-0.5 -34q2 -2 7.5 -13t11 -24t9 -25.5
t2.5 -17.5zM262 50q18 -14 39 -19.5t43 -5.5q0 4 -2 14.5t-10 10.5h-70zM352 190q-5 -2 -5 -5q0 -4 5 -5t5 5q0 7 -5 5zM25 80q-8 0 -8 -10t8 -10t8 10t-8 10zM342 220q-8 0 -8 -10t8 -10t8 10t-8 10zM342 270q-5 -5 -5 -15t5 -15q2 -2 3.5 3t1.5 12t-1.5 12t-3.5 3z
M312 370l-10 -10l10 -10v20zM351 469q-5 -2 -5 -5t5 -5t5 5t-5 5zM361 499h-10v-10zM321 639q0 -4 -0.5 -17.5t-0.5 -17.5q0 -23 6.5 -38.5t6.5 -36.5h18q0 4 -1 14t-2.5 21.5t-3.5 21t-3 13.5q0 1 -4.5 5t-5.5 5q-2 3 -5.5 14.5t-4.5 15.5zM321 689l-10 -10l10 -10v20z
M311 719q-8 0 -8 -10t8 -10t8 10t-8 10zM281 829q-8 0 -8 -10t8 -10t8 10t-8 10zM251 889q2 -5 5 -5q4 0 5 5t-5 5q-7 0 -5 -5z" />
    <glyph glyph-name="FL005Eh" unicode="^" horiz-adv-x="494" 
d="M323 659l162 -456v-4v-5q-7 -10 -10.5 -19.5t-7.5 -18.5t-10.5 -16.5t-19.5 -12.5q-9 -3 -16 -1.5t-12 1.5q-6 0 -10.5 -3.5t-9.5 -15.5l-9 10q-23 146 -66 278.5t-114 262.5q-2 2 -5 2q-4 0 -10 -21t-13 -53t-14 -71.5t-13.5 -76.5t-12 -67.5t-8.5 -44.5
q-7 -40 -15 -80.5t-19.5 -79.5t-28.5 -76t-42 -68q-2 1 -5.5 4t-4.5 5v4q0 29 4 58.5t9 58.5t9.5 58.5t6.5 58.5q9 120 23.5 235t43.5 230q10 40 24.5 87.5t32.5 83.5q0 2 9 9.5t10 9.5q2 6 3.5 21t1.5 21q7 0 17.5 -23.5t20.5 -54t19 -59t13 -38.5q4 -7 13.5 -26l20 -40
l20 -40zM285 583q-1 3 -4 9.5t-6 14t-5.5 14.5t-3.5 10l-57 171q-1 -4 -2.5 -13.5t-3 -20t-2.5 -20t-1 -13.5q0 -14 9.5 -40t22 -51t26 -43.5t22.5 -18.5q1 0 2.5 0.5t2.5 0.5zM133 726v9l-9 -9h9zM114 678q8 0 8 10q0 9 -8 9t-8 -9q0 -10 8 -10zM28 -11q0 -8 -4 -17.5
t-15 -9.5v44q19 0 19 -17z" />
    <glyph glyph-name="FL005Fh" unicode="_" horiz-adv-x="530" 
d="M194 -114l-170 -36h-24q0 2 1 3.5t1 3.5l11 14v4v4q-2 4 -10.5 16t-10.5 16h32q-34 1 -34 19q0 10 22.5 15t52.5 7t60.5 3.5t47.5 3.5q7 1 36 4t65 6.5t71 7t53 4.5h5q32 0 37 -22h32h32q2 0 6 -2.5t4 -4.5zM45 -107v-9q15 0 43 2.5t57.5 8t53 12.5t28.5 16h-11
q-21 0 -42.5 -4t-43 -9l-43 -10t-42.5 -7zM312 -70q1 3 -5 3q-8 0 -6 -3.5t6 -3.5t5 4z" />
    <glyph glyph-name="FL0060h" unicode="`" horiz-adv-x="317" 
d="M225 727q-6 22 -13 30t-15.5 11t-18.5 7t-21 19l-136 135q2 2 7 3.5t7 0.5q1 -1 2 3.5t2.5 10t4.5 9t8 0.5q8 -5 15.5 -9.5t10.5 -5.5q8 11 21 14t27 -4l4 -2q6 -4 15 -15t20 -24t22.5 -26t21.5 -20l88 -65zM262 753l-7 3l-4 -2zM254 831q6 -5 11 -8.5t10 -8.5z" />
    <glyph glyph-name="a" unicode="a" horiz-adv-x="504" 
d="M75 19h12q0 -2 -0.5 -5t-0.5 -5q0 -3 -1.5 -9t-3.5 -12.5t-3.5 -12.5t-2.5 -8v52zM117 72l-31 -21q0 7 -1.5 25t-3 38t-3.5 38t-3 25q-2 13 -7 27.5t-10.5 27.5t-10 23.5t-4.5 15.5q0 3 4 18t9 31.5t10.5 30.5t8.5 15l-5 94v-73q-11 12 -18.5 32t-12 42.5t-6 44.5
t-1.5 40q0 2 0.5 5.5l0.5 3.5q0 1 3 7l6.5 13t7 13.5t4.5 8.5v5q0 18 -3 24.5t-8 9.5t-13 4.5t-18 8.5l-0.5 2.5t-0.5 3.5q0 10 7.5 13t17 4.5t17 4.5t7.5 14h-50q0 12 15 24t34.5 22.5t39 18t29.5 9.5v-30q16 0 36 5.5t39 15t35.5 23t25.5 28.5q2 2 0.5 10.5t-0.5 10.5
q5 9 15.5 12.5t23 6t25 4.5t20.5 8l84 63q13 10 30 22t36 12q0 -91 -12.5 -175.5t-21.5 -173.5q-1 -5 -1 -19v-33v-45v-50v-54v-50v-45q0 -20 -1 -33v-18v-29q0 -17 -1.5 -34.5t-4.5 -32.5t-9 -24.5t-15 -9.5q-7 0 -22.5 3.5t-19.5 11.5q-1 4 -3 16.5t-3.5 26t-2.5 25.5
t-1 16v6v5l10 178v21v21q-4 -1 -13 -5t-19 -9.5t-19 -10t-12 -6.5q-2 -1 -5 -10.5t-5 -10.5q-21 -14 -50 -25t-55.5 -25t-45 -34.5t-18.5 -52.5q0 -11 1 -21.5t10 -20.5q-2 -23 -3 -54t-1 -63q0 -17 -1.5 -34t3.5 -30q1 -1 5.5 -5t4.5 -5q2 -2 3 -12.5t1 -12.5
q-16 0 -22 3.5t-8.5 9.5t-4 15t-8.5 20q-2 3 -5.5 7t-5.5 4zM149 555q0 -2 1.5 -8t3.5 -13.5t3.5 -13.5t1.5 -7q0 -5 1 -18.5t1 -28.5t-1 -28.5t-1 -19.5q33 13 62.5 30.5t59 36.5t59 37.5t61.5 32.5q7 16 9 29t1.5 25.5t-2 26.5t-1.5 34h14v32l-21 -21v5q0 14 9 24.5
t22 12.5q0 3 1 15t1 16q0 25 -4 34.5t-29 9.5q-38 0 -71 -16.5t-63.5 -40t-59.5 -49t-58 -43.5v-5v-5l10 -53v-5v-5q-1 -2 -5.5 -10.5t-4.5 -10.5zM264 439q-1 3 -3 2t-4.5 -3.5t-3.5 -5t1 -3.5q5 -2 9 1.5t1 8.5zM306 471l-10 -11h10v11zM390 502q-12 -6 -12 -21h12v21z
M65 555q-8 0 -8 -11q0 -10 8 -10t8 10q0 11 -8 11zM411 754q9 0 9 -10q0 -11 -9 -11q-8 0 -8 11q0 10 8 10zM180 796h21l-21 -21v21zM233 817h10v-10h-10v10zM466 915q-12 0 -19.5 -7.5t-14.5 -16.5q2 0 5.5 -0.5t5.5 -0.5q23 0 23 25z" />
    <glyph glyph-name="b" unicode="b" horiz-adv-x="680" 
d="M205 -269q-12 -6 -12 -20h12v20zM255 -139q-11 -6 -17.5 -16t-9.5 -22t-4 -24.5t-1 -22.5q9 0 12.5 5.5t5.5 13t4.5 15t9.5 11.5q4 9 15 30.5t24 45.5t24.5 45t16.5 29l20 30q7 13 21 33.5t28 40.5t24.5 34.5t10.5 15.5v20q7 9 22 34.5t31.5 53.5t31 53.5t21.5 34.5
q2 3 13.5 21t26 40.5t28.5 44.5t22 34q14 21 22.5 44.5t8.5 49.5q0 25 -8.5 41t-36.5 16q-23 0 -43.5 -8t-40 -18t-40 -18t-42.5 -8q-2 0 -5.5 0.5t-4.5 0.5q6 10 14.5 16.5t17.5 15t19 21.5t19 37q6 15 20.5 47t30.5 66t28 62.5t12 34.5q0 5 -1.5 12t-9.5 8l-180 10
q-7 0 -17 -2t-20.5 -6t-19.5 -9.5t-13 -12.5h20q-8 -11 -18 -14.5t-22 -3.5v10q-3 0 -24 -10t-44.5 -23.5t-42.5 -27.5t-19 -21l-10 10q-14 -16 -45 -38t-62.5 -46t-55 -47t-23.5 -41q2 0 13 0.5t13 1.5q1 0 5.5 1.5t9.5 3.5t9.5 3.5t5.5 1.5t5 -4.5t5 -5.5l2 -0.5t3 -0.5
t2.5 0.5t2.5 0.5q13 19 22.5 30.5t19.5 20.5t23.5 17.5t34.5 21.5q-3 -3 -10.5 -14.5t-9.5 -15.5q-2 -8 -2 -10h16q0 9 5 18.5t12.5 17.5t15.5 14.5t13 9.5l5.5 -11t6.5 -14.5t5.5 -14.5t2.5 -10v-180l-20 -40q-9 25 -9 52q0 20 1.5 40.5t1.5 40.5t-3 39.5t-11 37.5
q-7 -4 -14 -13t-13 -20t-9.5 -22t-3.5 -19v-6l30 -450q0 -9 -0.5 -19.5t1 -20.5t7 -18t17.5 -12v50h15q0 -4 3 -16.5t7 -27.5t7 -29.5t3 -21.5v-5l-70 -110v-20l20 20q5 6 18 20.5t27 30t27 29.5t18 20l35 12zM285 -19q-5 2 -5 -5q0 -6 5 -5t5 5q0 3 -5 5zM325 51q8 0 8 -10
t-8 -10t-8 10t8 10zM295 101v270l4.5 5.5t10.5 12t13 13t12 9.5q5 4 17.5 12.5t27 18t27.5 18t18 11.5q1 16 12 26.5t26.5 16t32.5 7.5t29 2q5 0 20 -0.5t20 -1.5q-17 -32 -31 -65l-28 -66t-28.5 -65.5t-32.5 -63.5q-31 -57 -71.5 -108.5t-88.5 -91.5q0 2 -0.5 7.5t-0.5 7.5
q0 7 1 15t10 10zM215 191l10 -60h-10v60zM214 216q0 1 0.5 3l0.5 2q1 2 4.5 5.5t5.5 4.5l-20 180v5v5l30 -20q1 0 2.5 -13t3 -30.5t3 -36t1.5 -30.5v-9q0 -7 0.5 -16.5t0.5 -19.5v-15v-12q0 -8 -0.5 -18t-0.5 -19v-11q-3 2 -8.5 8t-10.5 13t-8.5 13.5t-3.5 10.5zM335 381
q-5 2 -5 -5t5 -5t5 5t-5 5zM596 516q0 1 -0.5 3l-0.5 2q-3 6 -13 11.5t-20.5 9.5t-18.5 6.5l-8 2.5q24 15 48.5 19t53.5 4q0 -22 -8 -47t-21 -49t-29.5 -44t-33.5 -33q5 9 13.5 25.5t17 34.5t14.5 33.5t6 21.5zM440 622q1 0 2.5 -0.5t2.5 -0.5q-28 -33 -49.5 -70.5
t-50.5 -69.5q-5 -6 -13 -14.5t-16 -16.5t-14 -13.5t-7 -5.5h-21q0 3 1.5 10t3 15t3.5 15t3 10q7 16 18 24.5t23.5 14.5l25 12t23.5 19q3 4 11 15.5t17.5 24t19.5 22t17 9.5zM255 746v5q28 16 55 31.5t55 28.5t57.5 21t62.5 9q13 -9 17 -22.5t4 -27.5q0 -8 -2 -18.5t-6.5 -19
t-12.5 -12.5t-20 0l-30 -60l-130 -130q-1 -2 -8.5 -5t-11.5 -5q-1 -1 -4 -1.5t-4 -0.5q0 26 -3.5 52t-7.5 52t-7.5 51.5t-3.5 51.5zM475 611l-10 -20q0 1 -0.5 2.5t-0.5 2.5t0.5 3l0.5 2q1 2 4.5 5.5t5.5 4.5zM515 701q8 0 8 -10t-8 -10t-8 10t8 10zM105 741v-10h10v10h-10z
M155 761q2 5 -5 5q-6 0 -5 -5t5 -5q3 0 5 5zM475 821v-10h10v10h-10zM515 841q9 9 19 10t21 1q2 0 10 -0.5t10 -0.5q-4 -16 -10 -23.5t-20 -7.5q-11 0 -17.5 4.5t-12.5 16.5zM395 881q8 0 8 -10t-8 -10t-8 10t8 10z" />
    <glyph glyph-name="c" unicode="c" horiz-adv-x="520" 
d="M10 110q1 -2 10 -10t10 -10q5 -20 5 -34q0 -12 1 -22t6.5 -18t16 -12.5t28.5 -4.5q48 0 94.5 19.5t90 47.5t83.5 59.5t75 54.5q9 6 20.5 9t22.5 6t21 8.5t16 16.5h-70l30 20q-3 8 -8.5 9.5t-11.5 1.5q-2 0 -5.5 -0.5t-4.5 -0.5q-33 -13 -63.5 -30t-61 -34.5t-62.5 -32
t-68 -21.5q2 -11 12 -11h16q15 0 31.5 5t33 12.5t32.5 16t30 15.5q0 -1 0.5 -2.5t0.5 -2.5q0 -18 -30 -33.5t-69 -26t-76 -16.5t-52 -6q0 10 -1.5 22.5t-0.5 24t7 20t21 10.5q-4 24 -1.5 46t7.5 43.5t12 43.5t12 47q2 9 7 38t11.5 68t13 83.5t12.5 83.5t10.5 68.5t5.5 38.5
l3.5 17.5t5.5 27t6 27.5t5 18q1 2 4.5 10t5.5 10l10 -10q1 -7 17.5 -20t36 -27.5t36.5 -27.5t19 -20q3 -14 7.5 -26t22.5 -12v36q12 0 16.5 -5t17.5 -5q0 12 -1.5 17t-4.5 8.5t-7.5 9t-10.5 17.5q-12 27 -31 50.5t-42.5 44.5t-50.5 40.5t-55 39.5q-21 -11 -34 -32.5t-21 -47
t-13.5 -52.5t-11.5 -48q-5 -18 -12 -44.5t-14 -56.5t-14.5 -60.5t-13.5 -55.5t-10.5 -42.5t-5.5 -20.5q-2 -11 -6 -33.5t-9.5 -51t-11 -60t-10.5 -60t-8.5 -51.5t-4.5 -34q-2 -2 -7.5 -13t-11 -24t-9 -25.5t-2.5 -17.5zM170 50q-18 -14 -39 -19.5t-43 -5.5q0 4 2 14.5
t10 10.5h70zM80 190q5 -2 5 -5q0 -4 -5 -5t-5 5q0 7 5 5zM370 200q8 0 8 -10t-8 -10t-8 10t8 10zM90 220q8 0 8 -10t-8 -10t-8 10t8 10zM90 270q5 -5 5 -15t-5 -15q-2 -2 -3.5 3t-1.5 12t1.5 12t3.5 3zM120 370l10 -10l-10 -10v20zM150 470q5 -2 5 -5t-5 -5t-5 5t5 5z
M140 500h10v-10zM180 640q0 -4 0.5 -17.5t0.5 -17.5q0 -23 -6.5 -38.5t-6.5 -36.5h-18q0 4 1 14t2.5 21.5t3.5 21t3 13.5q0 1 4.5 5t5.5 5q2 3 5.5 14.5t4.5 15.5zM180 690l10 -10l-10 -10v20zM190 720q8 0 8 -10t-8 -10t-8 10t8 10zM220 830q8 0 8 -10t-8 -10t-8 10t8 10z
M250 890q-2 -5 -5 -5q-4 0 -5 5t5 5q7 0 5 -5z" />
    <glyph glyph-name="d" unicode="d" horiz-adv-x="587" 
d="M129 10q0 4 -0.5 17.5t-0.5 17.5q0 41 11.5 89t25.5 86v22q0 17 0.5 35.5t0.5 34.5v23q0 79 -7 157.5t-7 157.5h16q0 23 5 38t5 37q0 4 0.5 10.5t-1 11.5t-5.5 9t-13 4q-18 0 -35 -5.5t-38 -5.5q-11 0 -24.5 4t-25 10.5t-19.5 16t-8 20.5q0 2 0.5 5.5t0.5 4.5q5 0 19 1
t30.5 3t32.5 6t25 10q10 0 34 -0.5t50 -0.5t49.5 0.5t33.5 0.5q3 0 11.5 1.5t18 3.5t18 3.5t11.5 1.5h14q20 0 55.5 -3.5t70.5 -12.5t61 -25.5t26 -43.5v-5q-2 -6 -5.5 -18t-7 -24.5t-7 -23.5t-4.5 -14l-48 -120l-36 -70q-3 -8 -11 -26t-18.5 -41t-22.5 -47.5t-22.5 -45.5
t-19.5 -35t-13 -15l-12 20q-2 0 -6.5 -4t-4.5 -6q0 -1 1.5 -5.5t4 -9.5t4 -9.5t1.5 -5.5v-6q0 -2 -8.5 -16t-20 -29.5t-24 -28t-20.5 -12.5q0 1 0.5 6t1.5 6q3 4 9.5 15.5t14 24t14.5 24t10 16.5q-2 0 -3.5 0.5t-2.5 0.5q-17 0 -27 -12.5t-17 -31t-11.5 -41l-8.5 -42.5
t-10 -35t-16 -19v60q-38 -23 -55.5 -58t-17.5 -74q-15 0 -22 12zM201 30q-3 -5 -6 -5q-5 0 -6.5 5t6.5 5t6 -5zM213 240q-3 1 -4.5 -2.5t-1.5 -7.5t1.5 -7.5t4.5 -2.5q5 2 5 10t-5 10zM213 280q-3 1 -4.5 -2.5t-1.5 -7.5t1.5 -7.5t4.5 -2.5q5 2 5 10t-5 10zM234 654
q0 -50 1.5 -94.5t4.5 -89t8 -90.5t12 -100l24 40l95 190q6 11 13.5 19t14.5 15.5t12.5 15.5t7.5 20q3 15 11.5 22.5t18 12.5t18 10t11.5 15q11 36 21 74t10 76h-114l-12 -10l24 -10q-14 3 -22 2t-14 -4t-12.5 -5.5t-17.5 -2.5h-6q-2 1 -11.5 5.5t-11.5 4.5q-3 0 -12.5 -4.5
t-11.5 -5.5h-6h-6q-3 1 -7 4.5t-5 5.5l-36 -40q0 -2 -1 -19.5t-1 -36.5v-20zM403 490q-6 -3 -11.5 -10.5t-11 -15.5t-9 -15l-4.5 -9v-5v-5q6 3 12 10.5t11 15.5t8.5 15l4.5 9v5v5zM427 530q-3 -1 -7 -4.5t-5 -5.5l-0.5 -2t-0.5 -3t0.5 -2.5t0.5 -2.5q2 1 6.5 4.5t5.5 5.5
l0.5 2t0.5 3t-0.5 2.5t-0.5 2.5zM451 580q-6 1 -6 -5q0 -7 6 -5t6 5t-6 5zM462 610q-5 2 -5 -5t5.5 -5t5.5 5t-6 5zM462 650q6 -2 6 -5t-5.5 -5t-5.5 5t5 5zM236 770q-9 0 -9 -10t9 -10q10 0 10 10t-10 10zM46 790l12 -10v20zM355 780q3 5 -6 5q-7 0 -6 -5t6 -5q4 0 6 5z
M343 840q-9 0 -9 -10t9 -10q10 0 10 10t-10 10z" />
    <glyph glyph-name="e" unicode="e" horiz-adv-x="630" 
d="M84 63q1 -4 9 -12t12 -9q1 0 13 4l18 6q3 1 10.5 4.5t16.5 7.5t16.5 6.5t9.5 2.5h9h17h16h10q53 11 100 37.5t92.5 58t91 62.5t94.5 52v25q-43 0 -84 -11.5t-80 -29t-76.5 -38.5t-74.5 -40h-10v231q0 1 4 4.5t6 5.5q3 3 12 9t19 12.5t19.5 12.5t12.5 8q3 1 12.5 7
t21 12.5l23 13t17.5 9.5q9 4 23.5 8t28 9t23.5 12.5t10 18.5t-9 14t-17 3q-15 0 -24 -2.5t-25 -9.5l-126 -63h-31v220l10 11l242 10h10q5 2 17 5.5t15 5.5q-3 2 -15 5.5t-17 4.5q-9 1 -31 4t-47 5.5t-47.5 4.5t-31.5 2h178q-3 8 -13.5 20t-17.5 12h-231q-5 15 -12 21t-20 6
q-9 0 -17 -4.5t-16 -10.5t-17.5 -11.5t-22.5 -6.5q-7 -1 -26.5 -3t-41.5 -3.5t-41.5 -2.5t-27.5 -1q-6 -3 -17 -6t-21.5 -7t-18 -9.5t-7.5 -14.5q0 -1 0.5 -2.5t0.5 -2.5q28 -6 55.5 -9t55 -5.5t55 -6.5t55.5 -11v-21q0 -11 -1.5 -33t-4 -50t-6 -57.5t-8 -55t-10.5 -44
t-12 -22.5q-2 -1 -10.5 -4.5t-10.5 -6.5l-0.5 -1.5t-0.5 -3.5q0 -1 0.5 -3l0.5 -2q1 -1 5.5 -7.5t10 -13.5t10 -13.5t5.5 -7.5v-8q0 -63 -5 -127.5t-16 -127.5q-1 -2 -4.5 -5.5t-5.5 -4.5q-5 -3 -17 -9t-25.5 -12.5t-25.5 -12.5zM241 378q6 -48 9 -90.5t3 -90.5
q0 -6 -0.5 -17t-0.5 -12l-21 -21v37q0 26 0.5 47.5t1.5 43.5t3 46.5t5 56.5zM367 178q-2 -5 -5 -5t-5 5.5t5 5.5q8 0 5 -6zM336 777h42v-11z" />
    <glyph glyph-name="f" unicode="f" horiz-adv-x="790" 
d="M190 20q-2 1 -3.5 -2.5t-1.5 -7.5t1.5 -7.5t3.5 -2.5q5 2 5 10t-5 10zM150 80q9 -3 16 -9.5t13.5 -13t14 -12t16.5 -5.5q4 0 15.5 4t14.5 6q3 19 5.5 33t3.5 27t1.5 26t0.5 30v14t-1 25.5t-3.5 24t-6.5 10.5h-6q0 -8 -0.5 -28t-1 -42t-1.5 -42t-1 -28q0 -4 -4 -15.5
t-6 -14.5q0 -1 -2 -1.5t-3 -0.5q-3 0 -5 2q-11 23 -11 46v48v33t1 29.5t3.5 30t6.5 33.5q3 -3 14.5 -10.5t15.5 -9.5q1 -1 5 -1.5t5 -0.5v122q0 7 13.5 17t34 21t45.5 22.5t48.5 22.5t42 20.5t26.5 16.5q0 1 0.5 2.5t0.5 2.5q0 6 -4.5 11t-11 8.5t-13.5 5t-12 1.5
q-20 0 -42 -9.5t-44.5 -21t-45 -21t-43.5 -9.5h-5q-2 1 -5.5 4.5t-4.5 5.5q5 8 13.5 12.5t16.5 7.5q-1 2 -4.5 5.5t-5.5 4.5t-10.5 4.5t-9.5 5.5q0 1 -1.5 7t-3 14l-3 16t-2.5 13q-1 6 -4 25t-6 41.5t-6 43t-4 30.5v5q0 20 10 31.5t25 17.5t32.5 9.5l32.5 6.5l10 20
q0 -2 4 -10t6 -10q2 -4 4 -4q0 13 18.5 24.5t48 20.5t65 16t69.5 12t62.5 7.5t42.5 3.5q8 0 28 0.5t42 0.5t42 -0.5t28 -0.5l10 10q-5 10 -18.5 14t-21.5 6h-17t-25.5 0.5t-25.5 0.5h-17q-58 0 -113.5 -6t-110.5 -15t-109.5 -20t-111.5 -20q-3 -1 -11.5 -1.5t-18.5 -0.5
t-18.5 0.5t-11.5 1.5l-10 -20l-110 -30q-14 -4 -19.5 -18t-5.5 -25q13 0 33.5 1t31.5 12q12 -42 19 -88.5t11 -95t6 -96t4 -90.5l10 -20v9t0.5 13.5t0.5 13.5v9q0 42 -5.5 83t-5.5 83q0 7 1 11.5t9 7.5q8 -69 14.5 -125.5t6.5 -119.5q0 -4 -0.5 -17.5t-0.5 -17.5
q-7 3 -8.5 7t-1.5 8t-1.5 8t-8.5 7q-2 -3 -5.5 -14.5t-4.5 -15.5v-5q0 -56 13 -119t27 -116zM220 370q0 -2 0.5 -7.5t0.5 -7.5q0 -14 -1.5 -22.5t-9.5 -22.5q0 3 -0.5 12.5t-0.5 12.5q0 2 -0.5 7.5t0.5 11t3 10.5t8 6zM170 490q8 0 8 -10t-8 -10t-8 10t8 10zM170 520
q8 0 8 -10t-8 -10t-8 10t8 10zM300 520q1 5 -5 5t-5 -5t5 -5t5 5zM350 540l-20 -10q1 0 2.5 -0.5t2.5 -0.5t3 0.5l2 0.5q2 1 5.5 4.5t4.5 5.5zM170 560q8 0 8 -10t-8 -10t-8 10t8 10zM140 765v5q8 -5 12.5 -13.5t7.5 -16.5q1 -8 2.5 -28t3 -42t3 -42t1.5 -28v-10v-10l-10 20
l-2.5 18.5t-5.5 44t-6.5 52.5t-5.5 45v5zM110 670q2 -3 5.5 -14.5t4.5 -15.5q0 -2 0.5 -5t0.5 -5h-11v40zM99 750q0 2 0.5 5.5t0.5 4.5q9 -2 10 -10t1 -15q0 -2 -0.5 -7.5t-0.5 -7.5q-7 8 -9 14.5t-2 15.5z" />
    <glyph glyph-name="g" unicode="g" horiz-adv-x="827" 
d="M665 85q-1 0 -4.5 0.5t-5.5 0.5t-5 -0.5t-4 -0.5q-38 -12 -73 -24t-71 -21.5t-73 -15.5t-77 -6q-65 0 -127 15.5t-110 49.5t-77 86.5t-29 127.5q0 61 25.5 130.5t69.5 138t102 132t124 111.5t135 77t135 29q0 -11 -5 -23.5t-16 -17.5q-27 -11 -55.5 -20.5t-57 -20.5
t-55.5 -24t-50 -30q-2 -2 -6 -5.5t-4 -4.5q0 -2 0.5 -10t-0.5 -9q-2 -2 -7 -5t-11 -6t-12 -5.5t-8 -2.5v-9q12 3 25 11t26.5 16t26 14.5t22.5 6.5q1 0 2.5 -0.5t2.5 -0.5q-11 -14 -28 -27t-36 -25t-37.5 -22.5t-31.5 -20.5q-24 -18 -41 -49.5t-29.5 -67t-20.5 -70t-14 -59.5
q-2 0 -5 3.5t-4 5.5v4q0 34 12.5 65.5t15.5 63.5v9v29v9q1 2 8 10.5t15 18.5t15.5 18t9.5 10q3 4 10 15t9 14l0.5 2t0.5 3t-0.5 2.5l-0.5 1.5q-32 -23 -53.5 -51t-51.5 -53q3 -2 10 -9t9 -10l0.5 -2t0.5 -3l-13 -19t-30.5 -44.5t-33 -51.5t-19.5 -41l-19 -77h-4h-5
q-2 1 -5.5 4.5t-4.5 5.5q-2 -5 -5 -19t-4 -19v-10q0 -56 27 -102t70 -78t95 -49.5t102 -17.5h38q-11 3 -27 6t-33.5 7.5t-34.5 10.5t-28 15l-95 75v5v5l9 19v4q0 25 -4.5 47.5t-4.5 48.5q0 10 -1.5 26t-0.5 31.5t5.5 27.5t15.5 15q-3 -30 -6 -67.5t1.5 -72.5t20.5 -64.5
t51 -43.5v-4v-5q-1 -2 -4.5 -5.5t-5.5 -4.5q11 -18 35 -26.5t51.5 -11t53 -1.5t39.5 1q37 0 82.5 6t87 22t73.5 44t43 71q6 20 14 50.5t15.5 59t13 49.5t5.5 22v19l-294 -86q-1 0 -4.5 3.5l-5.5 5.5l-0.5 2t-0.5 4q0 1 0.5 2.5l0.5 1.5l57 29l256 76q8 14 27.5 17t33.5 3
q0 -17 -4 -47t-10.5 -61.5t-16 -60t-20.5 -42.5v-114q15 5 30.5 17.5t26.5 21.5q0 -1 0.5 -2.5t0.5 -2.5q0 -11 -11.5 -25.5t-26 -32t-29 -38t-20.5 -42.5q-2 -7 -2 -19q0 -11 -2.5 -22.5t-7.5 -21.5t-16 -13q-20 15 -28.5 38.5t-9.5 46.5zM66 166q0 -23 24 -44.5t57 -38
t66.5 -26.5t52.5 -10h19q-20 14 -42.5 17.5t-43.5 11.5q-40 17 -70.5 41.5t-62.5 53.5v-5zM313 47q2 5 -4 5t-5 -4.5t5 -4.5t4 4zM351 47q2 5 -4 5q-7 0 -5 -4.5t5 -4.5q4 0 4 4zM418 57q-1 2 -3.5 1.5t-4.5 -3t-2.5 -5t1.5 -3.5q5 -2 8 1.5t1 8.5zM447 76q-8 0 -8 -10
q0 -9 8 -9q7 0 7 9q0 10 -7 10zM565 105q-8 0 -12 -6.5t-4 -14.5q14 0 30 11q0 2 -3.5 5.5t-5.5 4.5h-5zM668 154q-7 0 -19 -5t-23.5 -12.5t-20 -16t-8.5 -16.5q12 0 24.5 3t23 9t17 15.5t6.5 22.5zM351 142q2 2 9.5 6t9.5 4q3 0 9.5 -1t14 -2.5t14.5 -3.5t10 -3
q-3 0 -9.5 -1.5t-14.5 -3t-14.5 -3t-9.5 -1.5h-5h-4q-2 1 -5.5 4t-4.5 5zM256 152q2 0 9.5 0.5t9.5 0.5q14 0 24 -1.5t24 -9.5h-67v10zM475 161q8 0 8 -9q0 -10 -8 -10t-8 10q0 9 8 9zM57 190q-5 2 -5 -5q0 -5 5 -4.5t5 4.5q0 3 -5 5zM56 337q9 0 13.5 -9.5t7 -22t4 -24
t4.5 -15.5q2 -4 8.5 -12t14.5 -17t15 -17t10 -11v-11q-17 0 -31 16.5t-24 39.5t-16 46t-6 37zM95 522q-8 0 -8 -9t8 -9t8 9t-8 9zM380 779q2 -5 -1.5 -8.5t-8.5 -1.5q-2 1 -1 3.5t3 5t4.5 3t3.5 -1.5zM466 798h28q-2 -2 -9.5 -5.5t-9.5 -4.5q-2 0 -4.5 -0.5t-4.5 -0.5v11z
M409 827q-8 0 -8 -10t8 -10q7 0 7 10t-7 10zM622 903h5q2 -1 9.5 -4.5t9.5 -5.5q-3 -2 -14 -5.5t-15 -3.5q-2 0 -6 -0.5t-5 -0.5q0 8 4 14t12 6z" />
    <glyph glyph-name="h" unicode="h" horiz-adv-x="480" 
d="M50 10l10 -10q12 29 18 59t9 60t5.5 60.5t7.5 60.5q5 13 10.5 10t14.5 -3v-217l15 -10q2 5 5.5 20t4.5 20q1 10 2.5 37t3 57.5t3 57.5t1.5 38q13 17 32 29t41 19.5t44.5 10.5t42.5 3q5 0 20 -0.5t20 -1.5l20 -200q10 -4 17.5 -12.5t13.5 -17t12.5 -15t16.5 -6.5
q2 0 5.5 0.5t4.5 0.5q6 15 8.5 27.5t2.5 25.5t-1 26.5t0 30.5q0 6 2 31t3.5 54t3 54t1.5 31v36q0 33 0.5 76t0.5 87v71v31v48q0 27 -0.5 56.5t-0.5 55.5v48v31q1 14 -5 17.5t-14 3.5q-32 0 -42 -21t-12 -49.5t-3 -57t-14 -43.5q-5 -72 -8.5 -153.5t-1.5 -156.5l-10 -10h-190
q-1 0 -5 11.5t-5 18.5q-8 45 -11 96.5t-4 104t-1.5 103.5t-3.5 96q-1 2 -4.5 5.5t-5.5 4.5q-5 2 -15 3l-10 1v-74l-25 10q-6 -21 -14 -45.5t-16 -44.5v-390q-16 -6 -29 -14.5t-13 -25.5t14.5 -29.5t27.5 -20.5v-210zM50 280q0 -1 0.5 -2.5t0.5 -2.5t-0.5 -3l-0.5 -2
q-1 -2 -4.5 -5.5t-5.5 -4.5l-2 -0.5t-3 -0.5t-2.5 0.5t-2.5 0.5zM120 302v-12h-20q6 12 20 12zM180 312v-12h-20q6 12 20 12zM120 360q8 0 8 -10t-8 -10t-8 10t8 10zM362 393q0 -13 -12.5 -21t-32.5 -13t-43.5 -7t-45 -3t-38.5 -0.5t-23 0.5q0 15 10.5 23t24 12t27.5 5t21 1
q6 0 22 0.5t34 1t34 1t22 0.5zM99 479q0 37 0.5 69.5t1.5 65t3 65.5t6 71q4 -75 7.5 -152.5t3.5 -154.5v-12t-0.5 -13.5t-0.5 -12.5v-5l-10 -10l-10 10v10q0 10 -0.5 22.5t-0.5 25.5v21zM100 770q8 0 8 -10t-8 -10t-8 10t8 10z" />
    <glyph glyph-name="i" unicode="i" 
d="M9 86q4 0 15 -1t23 -2.5t22.5 -3.5t13.5 -3q1 0 5.5 -1.5t10 -4t10 -4t5.5 -1.5q3 1 6 10.5t5 10.5q26 13 60.5 17.5t66.5 4.5h21t20 -1l252 53v21h-53v10l74 21v36q-31 0 -61 -5.5t-60 -11.5t-59.5 -11.5t-58.5 -5.5q0 10 -1 33.5t-1 49.5t-0.5 49.5t-0.5 33.5
q0 19 1 66.5t3 101.5t3.5 101.5t3.5 66.5q19 13 51.5 19.5t66 13t62.5 15.5t40 26q0 2 -4 6t-6 4q-3 0 -12 0.5t-20 0.5q-10 0 -19 -0.5t-12 -0.5q-2 14 -12 23t-25 9h-5q-18 -2 -52 -7t-69.5 -10t-64 -9.5t-35.5 -5.5q-17 -3 -47 -4.5t-59.5 -5t-51.5 -11t-22 -21.5
q0 -25 33 -26h-31q1 -3 4 -9.5t6.5 -14t6.5 -14t4 -9.5v-6v-5l-11 -21q0 -2 -1 -5t-1 -5h23l168 52h32q0 -60 -6 -116.5t-6 -116.5q0 -54 6.5 -106.5t6.5 -106.5v-12q0 -8 -0.5 -17t-0.5 -17v-12q-24 -15 -56.5 -27t-67.5 -21t-69 -15t-59 -10q-9 -4 -10.5 -9.5t-1.5 -11.5
q0 -3 0.5 -6.5t0.5 -4.5zM93 706q21 3 42 10t42 14.5t42 13t42 5.5q3 0 6.5 -0.5t4.5 -0.5q-5 -13 -28.5 -23t-52 -17t-56 -11t-42.5 -4v13zM356 758q-2 -5 -5 -5q-4 0 -6 5t6 5q7 0 5 -5z" />
    <glyph glyph-name="j" unicode="j" horiz-adv-x="720" 
d="M11 222q16 -8 46 -26t61.5 -37t58.5 -33t39 -14q33 0 57.5 18t42.5 47t29.5 65.5t18.5 74.5t11 73.5t6 61.5q1 11 2.5 28t3 33t3 27.5l1.5 11.5l20 10l-20 10v117q-27 0 -64 -9t-76.5 -20.5t-77.5 -22.5t-67 -15v-30q-1 0 -8 5t-15.5 11t-15.5 11.5t-7 6.5q0 8 2.5 23.5
t6.5 31t10 28t12 13.5l370 60q28 -5 53.5 -0.5t50 11.5t49.5 13.5t52 6.5q15 0 30.5 -7.5t15.5 -24.5q0 -6 -16.5 -12t-42 -12.5t-55.5 -13.5t-57 -14.5t-46.5 -17t-23.5 -19.5q1 -3 1 -16v-24v-25q0 -12 -1 -15q-8 -60 -18.5 -119.5t-19.5 -119t-15.5 -119.5t-6.5 -122
q-17 -44 -43 -72.5t-77 -28.5q-29 0 -62.5 11.5t-57.5 29.5q-18 13 -45.5 33.5t-53 39.5t-43.5 33l-18 14v30zM421 692v-30l10 30h-10zM111 682q3 -8 8 -9.5t11 -1.5q7 0 18 2t21.5 6t18 10.5t7.5 15.5h-20q-17 0 -37.5 -5t-26.5 -18zM296 733q-1 0 -3 -0.5l-2 -0.5
q-2 -1 -5.5 -4.5t-4.5 -5.5q1 0 2.5 -0.5t2.5 -0.5t3 0.5l2 0.5q2 1 5.5 4.5t4.5 5.5q-1 0 -2.5 0.5t-2.5 0.5z" />
    <glyph glyph-name="k" unicode="k" horiz-adv-x="490" 
d="M350 150q7 -17 19.5 -43.5t29 -52t37 -44t44.5 -18.5v18q-31 42 -60 89.5t-55.5 96.5t-50 98.5t-44.5 95.5q6 17 2 25.5t-11 16t-14 17.5t-7 31q0 3 4.5 11.5t9.5 18.5t10 19t6 11q22 51 44.5 95t45.5 95l0.5 2t0.5 3t-0.5 3l-0.5 2q-2 1 -10.5 9.5t-9.5 10.5q0 1 1 5.5
t3 9.5t4 9.5t2 5.5t0.5 5t0.5 6q0 6 -1.5 11t-9.5 8q-8 -6 -26 -36.5t-40.5 -74.5t-46 -96t-43.5 -100t-32.5 -87t-12.5 -57q0 -9 1.5 -19.5t14.5 -10.5q1 0 3 0.5l2 0.5q4 2 15.5 9.5t14.5 10.5q2 -4 10 -15.5t10 -14.5l10 -10q5 -12 13.5 -39t19.5 -60t24.5 -69t28 -65
t30 -48t29.5 -19q11 0 13.5 8.5t2.5 16.5q0 13 -5 23.5t-11 21t-11 21.5t-5 24q0 2 0.5 7.5t0.5 7.5zM60 60q3 -17 10 -30t26 -13q0 85 4 169.5t9 169t9 169.5t4 170v26t-0.5 33.5t-1 29.5t-0.5 16l-10 50q0 1 -3 2t-5 1q-6 0 -13.5 -7t-15 -16.5t-13.5 -18t-10 -11.5
l30 -30v-160q-8 15 -9 44t-4 57.5t-12.5 50t-33.5 21.5q0 -123 -5.5 -244.5t-5.5 -244.5v-14l10 -220l10 -10l10 10v490l10 30q1 -6 3 -21.5t3.5 -33t2.5 -33.5t1 -22q0 -16 0.5 -48t0.5 -73v-85v-85q0 -40 -0.5 -72t-0.5 -47zM310 245v5q8 -5 14 -14.5t9.5 -20t5.5 -21
t2 -19.5q0 -2 -0.5 -7.5t-0.5 -7.5q-5 7 -9.5 18.5t-8.5 23.5t-7.5 22t-4.5 16v5zM290 290q8 0 8 -10t-8 -10t-8 10t8 10z" />
    <glyph glyph-name="l" unicode="l" horiz-adv-x="630" 
d="M70 10q-5 1 -5 -6q0 -6 5 -4t5 5q0 4 -5 5zM60 50q0 -3 -4 -10.5t-6 -9.5h5h5l70 20q98 22 194 45t196 35q1 2 4.5 10t5.5 10l6 9l4 6h84l-1 10t-3 15q-3 9 -11.5 13t-19 6t-21.5 2h-16q-59 0 -116.5 -8t-114.5 -17t-115 -17t-116 -8v119l50 540v10v10q0 4 -1.5 15.5
t-3 24.5t-3 24t-2.5 16q-3 2 -14.5 6t-15.5 4q-6 0 -9 -19t-5 -43t-2.5 -47t-0.5 -31h-18v80q0 2 -9.5 9.5t-15.5 10.5l-2 0.5t-3 0.5t-3 -0.5l-2 -0.5q-3 -2 -10.5 -9.5t-9.5 -10.5l10 -10v-160l10 -10l-10 -10v-290q7 -12 7 -26v-27q0 -13 1.5 -25t11.5 -22
q-2 -32 0.5 -62t7 -59.5t8.5 -59t4 -59.5zM94 110h6q3 0 11.5 -1.5t18.5 -3t18.5 -3t11.5 -2.5q-4 -2 -13.5 -6.5t-21 -9t-21.5 -9t-14 -5.5q-2 -1 -6 -1.5t-5 -0.5q0 2 0.5 6t0.5 6q2 5 5.5 16.5t4.5 13.5h4zM10 910q-5 2 -5 -5t5 -5t5 5t-5 5z" />
    <glyph glyph-name="m" unicode="m" horiz-adv-x="630" 
d="M551 -80q-16 86 -37.5 182.5t-42.5 196t-37.5 199t-22.5 192.5l-10 10q-2 -2 -5.5 -10t-4.5 -10q-3 -10 -10 -35.5t-15 -54.5t-15 -54.5t-10 -35.5q0 -2 -1 -10t-1 -10q0 -15 7 -27.5t15 -24.5t15 -24t7 -27q-2 0 -11 1t-11 2q-2 0 -8 3t-12.5 7t-12.5 7t-7 3t-5.5 -3
t-10 -6.5t-9.5 -6.5t-5 -4l-2 -0.5t-3 -0.5t-3 0.5l-2 0.5q-9 4 -12 14t-3 20q0 11 2 21l3 15q-3 -4 -14.5 -15.5t-15.5 -14.5l-2 -0.5t-3 -0.5t-3 0.5l-2 0.5q-20 16 -33.5 37.5t-26 44t-26.5 43.5t-34 35v-11q0 -8 -0.5 -16.5t-0.5 -16.5v-11q0 -90 10.5 -180t10.5 -181
v-4q-1 -2 -4.5 -10t-5.5 -10v-130q0 -8 -8 -9.5t-13 -1.5q-9 0 -15.5 12t-10.5 27t-6 27.5t-2 14.5v580q0 1 -5 11.5t-12.5 25t-15 29.5t-12.5 24l-10 10q-1 2 -1.5 7t-0.5 6q28 0 45 -11t29 -28t22.5 -36.5t25.5 -37.5q6 -7 23 -24.5t36 -36.5t36.5 -36t24.5 -23l20 50v158
q9 0 16 -5t12 -12.5t8 -15.5t4 -15l60 140q9 21 17.5 36t32.5 15q15 0 20 -10t6.5 -23.5t3.5 -27t10 -20.5q1 -1 5.5 -2.5t9.5 -2.5t9.5 -2.5t5.5 -2.5q2 -3 5.5 -13t7 -22t6 -23.5t2.5 -16.5q0 -14 -6 -23t-6 -22q0 -5 2.5 -21t6.5 -36.5t9 -43.5t9.5 -42.5t8 -32.5
t5.5 -14q2 -12 7 -38t12 -58.5t14.5 -68.5t14.5 -69t13 -58.5t9 -37.5q4 -18 6.5 -23t3.5 -7.5t1.5 -8t0.5 -24.5q-14 0 -24 11.5t-17.5 27t-12.5 31t-8 23.5q0 -2 -0.5 -10t-0.5 -10q0 -4 0.5 -11.5t0.5 -8.5q0 -3 2.5 -16.5t6 -28.5t7 -28.5t4.5 -16.5v-6v-4l-20 -20v-4
q0 -21 3.5 -42t7.5 -41.5t7.5 -41t3.5 -41.5h-12zM540 280q0 -23 1.5 -39t9.5 -41q0 3 0.5 14.5t0.5 15.5q0 23 -1.5 39t-9.5 41q0 -3 -0.5 -14.5t-0.5 -15.5zM531 330q-5 2 -5 -5t5 -5t5 5t-5 5zM331 450q-8 0 -8 -10t8 -10t8 10t-8 10zM131 500q5 -5 5 -15t-5 -15
q-2 -2 -3.5 3t-1.5 11q0 7 1.5 12t3.5 4zM221 515v-5q1 -2 4.5 -10t5.5 -10q0 1 0.5 4.5t0.5 5.5q0 6 -1.5 11.5t-9.5 8.5v-5zM211 540q-8 0 -8 -10t8 -10t8 10t-8 10zM201 550q-5 2 -5 -5t5 -5t5 5t-5 5zM411 790q-2 1 -3.5 -4t-1.5 -11t1.5 -11.5t3.5 -3.5q5 3 5 15t-5 15
z" />
    <glyph glyph-name="n" unicode="n" horiz-adv-x="510" 
d="M60 10q6 -12 20 -12v92q0 6 6 9.5t13 7.5t13.5 9t7.5 14q3 -10 13.5 -11.5t18.5 -1.5q0 48 -5 96t-11.5 96t-11.5 96t-5 96q0 24 0.5 45t10.5 44q28 -64 59.5 -121t67.5 -110.5t77 -104.5t86 -104q3 -13 6 -30.5t8.5 -33t15 -26.5t27.5 -11q11 0 20 4.5t3 26.5v18
q0 14 0.5 29.5t0.5 28.5v19q0 106 -6 211.5t-12.5 211t-11 211t-1.5 211.5q-1 2 -4.5 5.5t-5.5 4.5l-2 0.5t-3 0.5t-3 -0.5l-2 -0.5q-2 -1 -5.5 -4.5t-4.5 -5.5q-4 -29 -6.5 -50.5t-3.5 -42t-1 -41.5v-47q0 -109 6 -217t6 -217v-21t-0.5 -31.5t-0.5 -31.5v-21q-2 17 -5 52
t-7 79.5t-8.5 93.5t-8.5 93t-7 79.5t-4 52.5q0 7 -0.5 24t-0.5 36t0.5 36t0.5 24q-3 8 -8.5 9.5t-11.5 1.5q-17 0 -19 -10t-2 -24q0 -5 0.5 -15t0.5 -12q1 -6 4 -31t6.5 -54t6.5 -54t3 -31q8 -101 13 -199.5t17 -200.5v-15v-15q-45 59 -81.5 127.5t-68.5 132.5
q-4 8 -17 35.5t-31 64.5t-40 78t-43 75t-39.5 56.5t-30.5 22.5q0 -21 5.5 -41t5.5 -41v-10q-3 4 -5.5 14t-6.5 20.5t-8 18t-10 7.5q-4 0 -15.5 -4t-14.5 -6v-25v-25l30 -470q4 -60 7 -120t13 -120zM60 500h10q1 -8 3 -28t3.5 -42t2.5 -42t1 -28q0 -4 -1 -14t-2.5 -21.5
t-3.5 -21t-3 -13.5q-1 10 -2.5 37t-3 57.5t-3 57.5t-1.5 38v20zM209 485q0 1 0.5 2.5t0.5 2.5q2 -1 5.5 -4.5t4.5 -5.5l0.5 -2t0.5 -3t-0.5 -2.5t-0.5 -2.5q-2 1 -5.5 4.5t-4.5 5.5l-0.5 2t-0.5 3zM179 540q0 2 0.5 5.5t0.5 4.5q11 -11 16 -19t5 -21q0 -2 -0.5 -5.5
t-0.5 -4.5q-11 11 -16 19t-5 21zM60 560q5 -5 5 -20t-5 -20q-2 -2 -3.5 4.5t-1.5 15.5t1.5 15.5t3.5 4.5zM140 625v5q14 -8 22.5 -26t8.5 -34q0 -2 -0.5 -5.5t-0.5 -4.5q-8 4 -15 19.5t-11 27t-4 13.5v5z" />
    <glyph glyph-name="o" unicode="o" horiz-adv-x="670" 
d="M9 406q0 -30 8 -67.5t22.5 -77t34.5 -79t44.5 -73.5t53 -60t58.5 -39q15 -6 32.5 -8.5t35.5 -3t35.5 0t31.5 0.5h18q14 0 29.5 0.5t28.5 0.5h19q45 12 77 48t54.5 85.5t36 107.5t21 113.5t10 104t2.5 79.5q0 106 -38.5 189.5t-122.5 152.5q-13 -2 -37 -1.5t-47 5.5
t-40.5 16t-17.5 32q-2 0 1 -0.5t1 -1.5l-20 -10q-1 -1 -5.5 -4t-9.5 -6.5t-9.5 -6.5t-5.5 -3q-75 -33 -131.5 -83t-94 -113.5t-56.5 -138.5t-19 -159zM450 140q0 -1 0.5 -2.5t0.5 -2.5q0 -14 -10.5 -27.5t-25.5 -24.5t-31.5 -18t-27.5 -7q0 7 2 10t5.5 4.5t7.5 3t9 4.5
q4 3 14 11.5t21.5 18.5t21 18.5t13.5 11.5zM530 130h12q0 -11 -6 -21t-14 -19.5t-17 -17l-15 -12.5l-2 -0.5t-3 -0.5t-2.5 0.5t-2.5 0.5q17 12 29.5 33t20.5 37zM250 100q1 2 4.5 5.5t5.5 4.5h10l110 20h5h5q-17 -26 -39 -33.5t-51 -7.5h-27q-13 0 -23 11zM140 305v5
q1 9 2.5 23t3 28.5t3 25.5t1.5 13q1 5 4.5 16.5t5.5 13.5q1 2 3.5 3.5t3.5 1.5q0 -36 1 -74t7 -74.5t19 -71.5t36 -65q-1 0 -4.5 -0.5t-5.5 -0.5q-20 0 -34.5 19t-25 45t-15.5 52t-5 40zM210 285v15l20 -40l10 20q-2 62 -1.5 126t11 126.5t33.5 120.5t67 107h5
q30 0 60 -10.5t53 -29.5t37.5 -45.5t14.5 -57.5q0 -27 -4.5 -72t-15 -97t-27.5 -105t-41.5 -96.5t-57 -70.5t-73.5 -27q-25 0 -42.5 13.5t-28 34t-15.5 44.5t-5 44zM410 160q8 0 8 -10t-8 -10t-8 10t8 10zM610 570v-15t0.5 -23t0.5 -23v-14q0 -10 -1 -30t-3 -44.5t-6 -51
t-9.5 -49.5t-13.5 -39.5t-18 -20.5v15q0 74 13.5 149t36.5 146zM89 450q0 51 13.5 105t47.5 95q7 8 18 20t22 23t19.5 19t10.5 8h10q-13 -46 -32 -91.5t-37 -91t-32.5 -92t-18.5 -95.5h-10q-1 0 -2.5 7t-3 16.5t-3 19.5t-1.5 17q0 2 -0.5 17t-0.5 23zM520 360q5 -2 5 -5
t-5 -5t-5 5t5 5zM540 450q5 -4 5 -15t-5 -15q-2 -2 -3.5 3t-1.5 12t1.5 12t3.5 3zM180 480q-1 -5 -5 -5t-5 5t5 5t5 -5zM538 740h12q5 0 11 -12t10.5 -27.5t7.5 -30.5t3 -20h-12l-4 9t-8.5 22t-9.5 26.5t-8 22.5q0 2 -1 5t-1 5zM180 750h10l-10 -10v10zM379 815q0 1 0.5 3
l0.5 2q1 2 4.5 5.5t5.5 4.5h5q13 0 29.5 -6t31 -16.5t24.5 -24t10 -28.5v-5q-9 5 -27.5 11t-37 13.5t-32.5 17.5t-14 23zM270 820q0 -1 0.5 -2.5t0.5 -2.5q0 -8 -6.5 -16.5t-16 -15t-20 -10.5t-18.5 -4q-2 0 -5.5 0.5t-4.5 0.5q14 17 32 29.5t38 20.5zM325 831q1 0 2.5 -0.5
t2.5 -0.5l-20 -20q0 1 -0.5 2.5t-0.5 2.5t0.5 3l0.5 2q1 2 4.5 5.5t5.5 4.5l2 0.5t3 0.5zM510 860q8 0 8 -10t-8 -10t-8 10t8 10zM500 860q-2 -5 -5 -5t-5 5t5 5t5 -5z" />
    <glyph glyph-name="p" unicode="p" horiz-adv-x="700" 
d="M280 210q4 -23 2 -55t-0.5 -63t11 -56.5t37.5 -35.5q-3 52 -2.5 96.5t3.5 88t8 88t11 97.5q2 17 7 34.5t3 35.5l100 100q4 4 13.5 12l19 16t17.5 14t10 8q3 2 18 9.5t32 15.5t32 15.5t18 9.5q18 11 23.5 17t6.5 12.5t-1 15t1 25.5q1 9 6 15.5t11 11.5l12 10t11 13
q0 1 0.5 4.5t0.5 5.5q0 4 -9.5 14t-21.5 23t-23.5 27t-16.5 26q-2 5 -5.5 12.5t-4.5 7.5q-4 2 -12.5 5.5t-18 6.5t-18 5.5t-11.5 2.5t-15 -3t-25.5 -6.5t-25 -7t-14.5 -3.5q-7 -1 -35 -4t-60 -6t-60 -6t-35 -4q-6 -1 -21.5 -5t-33 -9t-33.5 -9.5t-22 -6.5q-3 -1 -15 -7
t-25.5 -13t-25 -13t-14.5 -7q-15 -6 -29.5 -9.5t-26 -9.5t-18 -16t-6.5 -30q0 -11 8 -13t17 -2q10 0 18 -2t8 -13q0 -1 -0.5 -2.5t-0.5 -2.5q-23 -9 -38 -18t-15 -34q6 0 24 5.5t41 14t49 19t48.5 21t39 19t21.5 13.5q19 -49 20 -102.5t1 -104.5q0 -32 -8 -50.5t-18 -30
t-18 -17t-8 -10.5q0 -1 0.5 -3l0.5 -2q1 -2 4.5 -5.5t5.5 -4.5l-20 -40q-1 -2 3 -5.5t7 -4.5q5 -1 20 1.5t20 2.5v-334q0 -1 4 -5t6 -5l2 -0.5t3 -0.5t2.5 0.5t2.5 0.5q0 10 1 34t2.5 51t3.5 51.5t3 33.5q0 4 4 15.5t6 14.5zM320 350q5 -2 5 -5t-5 -5t-5 5t5 5zM330 420
q2 0 6 -4t4 -6q0 -11 -5 -23t-19 -12v8t1 14.5t4 14t9 8.5zM220 540v-10h10zM340 750q6 -3 9.5 -10t6 -15.5t3.5 -15.5t1 -9v-5v-5q0 -6 -1.5 -22t-3 -33.5t-3 -33t-2.5 -21.5q-5 -8 -13 -15.5t-19 -7.5q0 48 3 98t19 95zM380 710q0 1 -1.5 7t-3 13t-3.5 12.5t-2 7.5v11
q0 9 5 14.5t12.5 8.5t16 4.5t15.5 1.5q41 0 78 -12.5t73 -27.5q0 -1 0.5 -2.5t0.5 -2.5q0 -4 -13 -16.5t-33 -29t-44 -34t-44.5 -32.5t-35 -24.5t-16.5 -9.5t-7.5 0.5t-7.5 0.5q1 6 3 21.5t3.5 33t2.5 33.5t1 22zM625 691q1 0 2.5 -0.5t2.5 -0.5l-20 -20q0 1 -0.5 2.5
t-0.5 2.5t0.5 3l0.5 2q1 2 4.5 5.5t5.5 4.5l2 0.5t3 0.5zM280 740q0 6 7.5 9t12.5 3v-42q-6 4 -13 14t-7 16zM50 740h20v-12q-14 0 -20 12zM130 780q8 0 8 -10t-8 -10t-8 10t8 10zM525 801q9 0 20.5 -0.5t22 -4t17.5 -10t7 -18.5q-6 0 -17 3t-22 7.5t-19.5 10.5t-8.5 12z
M330 841q2 0 10 -0.5t10 -0.5q-23 -15 -39.5 -18t-40.5 -3q-4 0 -15.5 0.5t-14.5 0.5q19 14 43 17.5t47 3.5zM520 860q1 6 5.5 8t10.5 3t11 0.5t8 -0.5h13q9 0 17 -2t13.5 -6.5t5.5 -13.5q-21 0 -42.5 3t-41.5 8z" />
    <glyph glyph-name="q" unicode="q" horiz-adv-x="640" 
d="M470 100q14 -11 25 -28t23 -33.5t26.5 -28.5t35.5 -12v12l-60 130q0 1 -0.5 4.5t-0.5 5.5q0 16 10 30t23.5 27l27 26t20.5 27q14 28 20.5 61t9 67.5t2 69t-0.5 64.5q0 74 -18 126t-53 90.5t-85.5 66.5t-114.5 55q-14 -3 -28 -0.5t-28.5 7.5t-29 9.5t-29.5 4.5
q-4 0 -17.5 -0.5t-17.5 -0.5q1 -3 0.5 -10t-2 -15t-4 -15t-4.5 -10q-1 -2 -8.5 -4.5t-16 -5.5t-16.5 -6t-9 -4q-38 -29 -65 -64t-43.5 -75.5t-24 -85t-7.5 -90.5q0 -74 20 -154t61 -147.5t103 -111t146 -43.5h11q9 0 19 0.5t18 0.5h12q20 10 38 26.5t32 33.5zM139 175
q0 1 0.5 2.5t0.5 2.5q4 -6 17 -19l27 -27l27 -27t19 -17q1 -1 7 -4t12.5 -6.5t12.5 -6t8 -3.5t5.5 -4.5t4.5 -5.5h-5q-16 0 -39 13.5t-44.5 32t-37 38t-15.5 31.5zM400 70q-1 -2 -4.5 -5.5t-5.5 -4.5l-2 -0.5t-3 -0.5t-2.5 0.5t-2.5 0.5zM340 170q-62 25 -90 62t-37 83.5
t-6.5 100.5t2.5 114v20t0.5 30t0.5 30v20q11 13 25.5 28.5t31 29.5t35.5 23.5t39 9.5q11 0 15.5 -6.5t6.5 -15t5 -17t12 -12.5q2 0 6 4t4 6q0 1 -1.5 7t-3 13t-3.5 12.5t-2 7.5t-0.5 8t-0.5 8q27 0 42.5 -16.5t24 -42t11.5 -56.5t4 -60.5t2.5 -54t6.5 -36.5q1 0 2.5 -0.5
t2.5 -0.5q10 0 16.5 12t8.5 19l10 -10q0 -2 0.5 -10.5t1 -19t1 -20.5t0.5 -15q0 -18 0.5 -38t-1.5 -40.5t-7 -40t-15 -36.5q-10 16 -16 37.5t-13.5 41.5t-18.5 36.5t-32 24.5q-11 -9 -27.5 -22t-32.5 -18q0 -3 -0.5 -14.5t-0.5 -15.5q0 -25 6 -46.5t16 -41.5t23 -40t26 -42
q0 -1 0.5 -2.5t0.5 -2.5q0 -9 -6.5 -14t-15.5 -7.5t-19 -3.5t-16 -1q-14 0 -21.5 7t-2.5 24zM230 170l10 -10h-10v10zM310 170q8 0 8 -10t-8 -10t-8 10t8 10zM220 190q8 0 8 -10t-8 -10t-8 10t8 10zM130 200q8 0 8 -10t-8 -10t-8 10t8 10zM39 513q0 80 25 146.5t86 120.5v-5
v-5q-13 -38 -27 -72t-26 -68t-20 -69t-8 -76q0 -46 5.5 -90.5t5.5 -89.5v-15q-15 24 -23 52t-12 56.5t-5 58t-1 56.5zM409 350q0 2 0.5 5.5t0.5 4.5q8 -3 9.5 -8.5t1.5 -11.5q0 -2 -0.5 -5.5t-0.5 -4.5q-8 3 -9.5 8.5t-1.5 11.5zM170 410v150l10 20v-190zM579 515
q0 3 0.5 12.5t0.5 12.5q2 -5 5.5 -20t4.5 -20v-10v-10q-6 1 -8 6t-3 10.5t-0.5 11t0.5 7.5zM500 530q8 0 8 -10t-8 -10t-8 10t8 10zM190 760q-23 -50 -44 -103t-36 -107v15q0 22 5.5 51t16 57t25 52t33.5 35zM450 780q8 0 8 -10t-8 -10t-8 10t8 10zM440 790q8 0 8 -10
t-8 -10t-8 10t8 10zM240 850h20l-20 -10v10z" />
    <glyph glyph-name="r" unicode="r" horiz-adv-x="1149" 
d="M207 339q0 -20 0.5 -64t3 -99t6 -113.5t10 -107t15.5 -79.5t22 -31q2 0 6 3.5t4 5.5q-2 75 -0.5 147.5t9.5 147.5q3 -8 5 -21.5t6 -26t10 -21.5t18 -9q0 54 -5 105.5t-5 106.5q0 12 6 22.5t15.5 18t21 12t22.5 4.5q31 0 66 -12t70 -28t68.5 -32t62.5 -24q6 -2 26.5 -7.5
t44.5 -12t45 -12t27 -6.5q32 -11 78.5 -30.5t96.5 -38.5t97.5 -33.5t81.5 -14.5q0 6 -8 18t-19 22.5t-23 17t-19 2.5q-45 40 -95.5 68.5t-104 53.5t-107 49.5t-102.5 56.5q-13 8 -34 17.5t-41 20t-34.5 21t-14.5 21.5q0 1 0.5 2.5t0.5 2.5q3 3 11 9.5t17 14t17.5 14.5
t11.5 10q1 1 5.5 4.5t9 6.5t8.5 5.5t5 2.5q2 1 19.5 3t43 6t54.5 10.5t53.5 15t41 19.5t16.5 25t-6 28.5t-13 25.5l76 47q1 0 1.5 3.5t0.5 5.5q0 19 -7 26t-17 8t-22 -1t-21 -2q0 15 4.5 28t4.5 28q0 22 -22 36.5t-51 23t-57.5 12t-41.5 3.5h-14q-12 0 -27.5 0.5t-32.5 0.5
h-26q-65 0 -129 -8t-127.5 -20.5t-126 -28t-125.5 -29.5v-10q0 -17 1.5 -23.5t6 -7.5t11.5 1t19 2v-19l-104 -105l-0.5 -2t-0.5 -3t0.5 -2.5l0.5 -1.5q2 -3 9 -10t10 -9h3h6q5 1 19 4t19 5q-13 -1 -16.5 1.5t-3 6.5t3.5 9t3 10q7 0 31 -2.5t49.5 -7t45.5 -11.5t20 -15v-9
q-30 0 -58 10.5t-58 10.5q0 -7 2 -13.5t10 -8.5l104 -38l0.5 -1.5t0.5 -2.5q0 -8 -2 -12t-5 -9t-5 -12t-2 -20h19q0 -7 0.5 -23t1.5 -34t1.5 -34t0.5 -23q0 -2 -1.5 -9t-3.5 -15t-3.5 -14.5t-1.5 -8.5zM644 310q2 0 7 0.5t7 0.5q21 0 36 -7.5t36 -21.5q-2 0 -9.5 -0.5
t-9.5 -0.5q-20 0 -33.5 10.5t-33.5 18.5zM483 358h9q12 0 27 -3.5t21 -15.5h-5q-12 0 -26.5 6t-25.5 13zM597 386l1.5 0.5t2.5 0.5t3 -0.5l2 -0.5q2 -1 5.5 -4t4.5 -5q-1 0 -2.5 -0.5t-2.5 -0.5t-3 0.5l-2 0.5q-2 1 -5.5 4t-3.5 5zM511 405q8 0 8 -9q0 -10 -8 -10t-8 10
q0 9 8 9zM587 405q8 0 8 -9q0 -10 -8 -10t-8 10q0 9 8 9zM502 405q-2 -5 -5 -5t-5 5t5 5t5 -5zM549 415q-2 -5 -5 -5t-4.5 4.5t4.5 4.5q7 0 5 -4zM521 434q7 0 7 -10q0 -9 -7 -9q-8 0 -8 9q0 10 8 10zM449 454q2 0 7.5 -0.5t7.5 -0.5q-2 -9 -10 -10t-14 -1q-2 0 -7 0.5
t-7 0.5q2 9 9.5 10t13.5 1zM530 501q2 0 5.5 -0.5t4.5 -0.5q-3 -5 -10 -9.5t-14.5 -8.5t-14.5 -6.5t-9 -3.5q0 1 -0.5 2t-0.5 2q0 14 14 19.5t25 5.5zM281 531q8 0 19.5 -3.5t11.5 -13.5v-4q-2 -2 -9.5 -5.5t-9.5 -4.5q-5 8 -8.5 15t-3.5 16zM312 548q25 7 41 8.5t39 1.5
q4 0 17 -0.5t17 -0.5q-6 -14 -22 -17t-33 -3h-18q-11 0 -21.5 0.5t-19.5 10.5zM274 576v124q19 0 66 1.5t100 3t100 3t66 1.5h22q6 0 18 -1t24.5 -3.5t22 -7.5t9.5 -12q0 -1 -0.5 -2t-0.5 -2q-6 -4 -22.5 -12.5t-34.5 -17.5t-34 -16.5t-23 -10.5q-3 -1 -15 -6t-26.5 -11.5
t-29.5 -12t-24 -8.5q-6 -2 -16.5 -6t-11.5 -4h-190zM801 644q8 0 16.5 -2.5t8.5 -13.5q0 -13 -18 -23t-40.5 -16.5t-43.5 -10t-28 -3.5q-2 0 -7 0.5t-7 0.5q9 11 23 23t30.5 22t34 16.5t31.5 6.5zM88 666l15 15q1 1 12 3t26 5t30.5 6t26.5 5q3 1 16 1h18q0 -14 -4 -22
t-9.5 -14.5l-11 -13t-9.5 -18.5zM179 732v-13h-38q2 8 12 10.5t18 2.5h8zM262 779q11 0 37 -0.5t55 -1t54.5 -1t36.5 -0.5q3 0 12.5 -1t21 -2.5t23.5 -3.5t19 -3q1 0 12 -1.5t24 -4.5t23.5 -8.5t10.5 -13.5h-270q-28 0 -43.5 6.5t-15.5 34.5zM207 757h19l-9 -10zM616 771h95
l-19 24q-75 5 -152.5 13t-151.5 25q12 10 39.5 14.5t59.5 6t62 0.5t45 -1q30 0 63.5 -0.5t66 -6.5t61.5 -20t49 -41q-14 -4 -26.5 -15.5t-20.5 -22.5h-143q-8 0 -17 8t-11 16zM174 776h5q-2 -2 -9.5 -5.5t-9.5 -4.5h-5h-5q2 2 9.5 5.5t9.5 4.5h5z" />
    <glyph glyph-name="s" unicode="s" horiz-adv-x="884" 
d="M165 -43q0 11 2.5 19.5t7.5 19.5q-5 0 -14.5 -1.5t-23.5 -1.5q-13 0 -24.5 2t-18.5 10l-0.5 2t-0.5 3t18 8t40.5 15.5t43 16.5t25.5 12q12 8 31 20.5t41 27.5t44.5 30.5t41.5 28.5t32.5 23t17.5 13q5 4 25 21t44.5 38.5t47.5 42t35 31.5q3 3 10.5 11t16.5 17t16.5 17
t10.5 12q2 2 5 9t3 10l0.5 2t0.5 3q0 14 -9.5 19t-20.5 5h-13q-17 0 -37 -1t-39.5 -5t-37.5 -12t-32 -21q-30 2 -51.5 -1t-40 -7t-37 -7.5t-42.5 -3.5q-6 0 -28.5 3t-52.5 7.5t-63 11t-61 14t-46.5 15t-18.5 15.5q0 13 11.5 22.5t26.5 18l30 17t23 19.5h-50q0 21 15.5 37
t36.5 29t43 24.5t36 23.5l403 228q23 7 44.5 15.5t43.5 16t44.5 12.5t47.5 5v-30q-66 -39 -135 -77.5t-136 -81t-128.5 -92t-112.5 -110.5q0 -1 -0.5 -2.5t-0.5 -2.5q0 -11 7.5 -12.5t15.5 -1.5q39 0 75.5 11t74.5 17q60 8 120.5 9.5t123.5 1.5h35q23 0 44.5 -2.5t53.5 -8.5
q17 -8 22.5 -17.5t5.5 -24.5q0 -2 -0.5 -7.5t-0.5 -7.5q-17 -34 -43 -71.5t-56 -61.5l-324 -237l-18 -19l-206 -152l-2 -0.5t-3 -0.5q-15 0 -15 19zM696 366q-7 0 -7 -9q0 -10 7 -10q8 0 8 10q0 9 -8 9zM736 396q-1 0 -2 -0.5l-1 -0.5q-2 -2 -9.5 -9t-9.5 -10l27 19
q-1 0 -2.5 0.5t-2.5 0.5zM642 461q1 -2 7 -6.5t13.5 -10t14.5 -9.5t10 -4v42q-11 0 -22.5 -3.5t-22.5 -8.5zM724 480l9 -38l35 29v9h-44zM230 509q-8 0 -8 -10q0 -9 8 -9q6 0 6 9q0 10 -6 10zM157 585q-8 -3 -14.5 -7t-11.5 -12q7 3 14 7t12 12zM805 575h9v-9h-9v9zM197 614
q-1 0 -3 -0.5l-2 -0.5q-5 -2 -7 -9q1 0 2 -0.5t2 -0.5t2 0.5l1 0.5q2 1 5.5 4t4.5 5q-1 0 -2.5 0.5t-2.5 0.5zM243 643q-1 0 -3 -0.5l-2 -0.5q-2 -1 -5 -4.5t-3 -5.5l16 10l-1 0.5t-2 0.5z" />
    <glyph glyph-name="t" unicode="t" horiz-adv-x="980" 
d="M530 110q1 -5 3.5 -18t5.5 -27.5t6 -27t5 -17.5q1 -3 4.5 -10.5t5.5 -9.5l1.5 -0.5t3.5 -0.5q1 0 3 0.5l2 0.5q2 1 5.5 4.5t4.5 5.5q0 18 1 56.5t2 86.5t2 101.5t2 102t2 86.5t1 57v23q0 40 -5.5 78.5t-5.5 78.5v11q0 9 0.5 19t0.5 18v12q3 1 11.5 4.5t18.5 6.5t18.5 5.5
t11.5 3.5q12 2 37 7t56.5 11t66.5 12.5t66.5 12.5t56.5 10.5t37 6.5q2 1 5.5 4.5t4.5 5.5l0.5 2t0.5 3q0 11 -8.5 13.5t-16.5 2.5q-27 0 -54 -4t-54 -9.5t-54 -10.5t-54 -7h-17h-28h-29h-16q-18 -2 -63.5 -7.5t-96.5 -12t-96.5 -12t-63.5 -8.5q-10 -4 -36.5 -9t-61.5 -11
t-72.5 -13.5t-68.5 -16t-51.5 -17.5t-20.5 -18q0 -2 10 -10.5t23 -19t25.5 -18.5t16.5 -8q50 0 98 12.5t96 27.5t96 27.5t98 12.5q0 -124 5.5 -244.5t12.5 -244.5q0 -8 -1.5 -30.5t1 -44.5t11 -37t29.5 -8zM530 140q5 -1 5 -5t-5 -5t-5 5t5 5zM530 280q5 -1 5 -5t-5 -5t-5 5
t5 5zM530 340q5 -4 5 -15t-5 -15q-2 -2 -3.5 3t-1.5 12t1.5 12t3.5 3zM530 420q2 -2 5.5 -10t4.5 -10v-5v-5q-1 -4 -4.5 -15.5t-5.5 -14.5v60zM520 710v-17t0.5 -25.5t0.5 -25.5v-17v-22t-0.5 -27.5t-0.5 -24.5v-11q0 -3 -1.5 -15t-4 -26.5t-6.5 -26t-8 -12.5v18
q0 14 -0.5 29.5t-0.5 28.5v19q0 36 -0.5 73t11.5 72q1 2 4.5 5.5t5.5 4.5z" />
    <glyph glyph-name="u" unicode="u" 
d="M136 106q28 8 53.5 0.5t50 -19.5t49.5 -23.5t53 -11.5q34 0 55 10t37.5 25.5t32 34.5t37.5 37v-24q0 -11 2.5 -23.5t7.5 -23.5t13 -18t19 -7q18 0 19.5 11t1.5 27v37q0 20 -1 62t-2 94.5t-2.5 111t-2.5 111t-2 94.5t-1 62q-1 9 -4.5 26.5t-10.5 35.5t-18 31t-28 13
q-8 0 -13.5 -1.5t-9.5 -9.5q3 -39 1 -89t-10.5 -105.5t-22.5 -112.5t-35 -108.5t-48.5 -94t-62.5 -68.5q-42 13 -69.5 46t-45 74t-27.5 84.5t-16 79.5q-1 6 -3.5 25.5t-5.5 45t-6.5 55t-6.5 55.5t-5.5 45t-3.5 26t-4 17.5t-6.5 20.5t-6.5 17.5t-4 7.5h-11
q-5 -12 -16.5 -33.5t-23 -45t-19 -45.5t-4.5 -34q1 -5 6 -19t11 -29.5t11.5 -28.5t8.5 -17v-336q0 -7 3 -16.5t8 -19t11.5 -17t14.5 -10.5v15q0 19 -2 32.5t-9 36.5l5.5 5.5t5.5 4.5l2 0.5t3 0.5q2 0 3.5 -0.5l1.5 -0.5q2 -1 6 -9.5t5 -11.5q2 -6 6.5 -21t9 -31.5t9 -31.5
t6.5 -21zM283 106h11h10q5 -1 17 -4.5t15 -5.5q-2 0 -8 -1t-8 -1q-12 0 -19.5 1.5t-17.5 10.5zM304 138q12 20 38 32t49 12q0 -56 -55 -56q-11 0 -16.5 2t-15.5 10zM483 421q8 0 8 -10q0 -11 -8 -11t-8 11q0 10 8 10z" />
    <glyph glyph-name="v" unicode="v" horiz-adv-x="494" 
d="M171 271l13.5 -27l20 -40l20 -40t13.5 -26q4 -10 13 -38.5t19 -59t20 -54t18 -23.5q0 6 1.5 21t3.5 21q1 2 10 9.5t9 9.5q9 18 17 39.5t15.5 44t13.5 45t11 42.5q29 115 43.5 230.5t23.5 234.5q2 29 6.5 58.5t9.5 58.5t9 58.5t4 58.5v4q-1 2 -4.5 5t-5.5 4
q-26 -32 -42.5 -68.5t-28 -75.5t-19.5 -79.5t-15 -80.5q-3 -14 -8 -44.5t-12 -67.5t-14 -76.5t-14 -71.5t-13 -53t-10 -21q-3 0 -5 2q-71 130 -114 262.5t-66 278.5l-9 10q-5 -12 -9.5 -15.5t-10.5 -3.5q-5 0 -12 1.5t-16 -1.5q-13 -5 -19.5 -12.5t-10.5 -16.5t-7.5 -18.5
t-10.5 -19.5v-5v-4zM209 347q1 0 2.5 0.5t2.5 0.5q9 0 22.5 -18.5t26 -43.5t22 -51t9.5 -40q0 -4 -1 -13.5t-2.5 -20t-3 -20t-2.5 -13.5l-57 171q-1 3 -4 9.5t-6 14t-5.5 14.5t-3.5 10zM361 204h9l-9 -9v9zM380 252q8 0 8 -10q0 -9 -8 -9t-8 9q0 10 8 10zM466 941
q0 -17 19 -17v44q-11 0 -15 -9.5t-4 -17.5z" />
    <glyph glyph-name="w" unicode="w" horiz-adv-x="667" 
d="M513 -110q2 -2 8.5 -5t8.5 -4h4q3 0 10.5 13.5t15.5 30t14 31.5t7 19t2.5 14t3 20.5t2.5 20.5t1 14h8q0 -4 1 -14t4 -20.5t8 -18.5t13 -8q2 0 5 0.5t4 0.5q2 5 4.5 17t3.5 17q1 7 2.5 25.5t3 39t2.5 38.5t1 25v28v49v60v60v48v29q0 5 1 26t2.5 46t3 46.5t1.5 26.5v5
q0 36 -2 76t-5.5 80.5t-8 80.5t-9.5 75q-7 9 -9.5 27.5t-6 37t-11 33t-25.5 14.5q-8 0 -15.5 -21.5t-14 -49.5t-12 -55t-9.5 -38v-213q6 -11 9.5 -21.5t7.5 -21.5q2 2 8 5t9 3q2 0 5 -3t4 -5q11 -28 10.5 -58.5t-0.5 -58.5v-15q0 -12 -1 -24.5t-1 -14.5l-25 -26
q1 -39 2.5 -83.5t-1 -90t-10.5 -89t-25 -79.5l-9 9q-2 1 -10 23t-18.5 52t-21.5 61.5t-18 51.5q-1 1 -2.5 8.5t-3 16.5t-2.5 16.5t-1 9.5q-2 11 -6 30t-7.5 32t-3.5 15l-9 9q0 2 0.5 12.5t0.5 21.5t-0.5 20t-0.5 14q-1 6 -5 28.5t-9 46.5t-10.5 43t-9.5 19q-22 0 -34 -17
q-7 -11 -16 -14.5t-16.5 -4t-13 -1t-5.5 -6.5q0 -2 1 -7t2.5 -10.5t3 -10.5t1.5 -6v-5v-4q-9 6 -15 19t-11.5 26.5t-13 25t-20.5 15.5q-2 1 -8 -3l-9 -6l-0.5 -1.5t-0.5 -3.5l1 -3l63 -125l-66 -130l-57 349q-5 26 -19 44t-23 41q-3 7 -6.5 27t-10 41t-16 37t-23.5 16
q-11 0 -12.5 -13.5t-1 -29t0 -27.5t-7.5 -8l-34 17q0 -3 -0.5 -11t-0.5 -11q0 -30 6.5 -61t15.5 -61.5t19.5 -61t18.5 -59.5q26 -94 39.5 -189t13.5 -191q0 -22 -5.5 -40t-5.5 -39q0 -7 1.5 -15t16.5 -5q0 -3 0.5 -11t0.5 -11q0 -4 -0.5 -12t-0.5 -9t-1.5 -4.5t-3 -7.5
t-2.5 -8t-1 -5q0 -4 8 -10t18 -11.5t18.5 -9.5t10.5 -4q1 0 2.5 0.5t2.5 0.5q7 21 20.5 38t30.5 30q-9 2 -9.5 9t-0.5 12q0 3 0.5 7.5t0.5 5.5q19 67 44.5 131.5t41.5 133.5q2 7 8 9l4 1q1 0 3 -0.5l2 -0.5q6 -2 8 -9q22 -76 43.5 -148.5t59.5 -141.5q3 -6 7 -13l8 -14
t7.5 -11.5l3.5 -4.5h21v43q28 -27 32.5 -65t-2.5 -72zM171 129q4 -4 4 -13t-4 -12q-2 -2 -3.5 2t-1.5 10t1.5 10.5t3.5 2.5zM402 206v9q12 -19 19 -43.5t7 -47.5v-12q-11 22 -18.5 46.5t-7.5 47.5zM231 240q7 0 7 -8q0 -9 -7 -9t-7 9q0 8 7 8zM188 351q2 -2 3 -9.5t1 -15.5
q0 -9 -1 -16.5t-3 -9.5q-2 -3 -3.5 6t-1.5 20t1.5 19t3.5 6zM180 369q3 -2 3 -5q0 -2 -4 -4t-4 4q0 7 5 5zM547 454q0 -3 1 -11.5t2.5 -18.5t3 -18.5t2.5 -11.5l8 9v60l-8 8q-2 -2 -5.5 -8.5t-3.5 -8.5zM358 454v14q0 10 10 12q7 -17 12 -36.5t5 -36.5v-4q-27 18 -27 51z
M538 536q0 -15 4.5 -30.5t22.5 -15.5q0 1 -0.5 7t-0.5 8l-17 52q-8 -2 -8.5 -9t-0.5 -12zM77 582q4 -1 4 -4q0 -2 -4.5 -4t-4.5 4t5 4zM59 629q0 2 0.5 6.5t0.5 6.5q8 -8 8.5 -16.5t0.5 -17.5q0 -2 -0.5 -8.5t-0.5 -8.5q-7 12 -8 19t-1 19zM547 762l9 34q12 -44 15.5 -88.5
t3.5 -90.5h-11zM51 676q7 0 7 -8q0 -9 -7 -9q-6 0 -6 9q0 8 6 8z" />
    <glyph glyph-name="x" unicode="x" horiz-adv-x="589" 
d="M51 -113q0 -8 3 -14t12 -6q1 0 2.5 0.5l1.5 0.5q2 1 5.5 4t4.5 5l76 162q2 -14 8 -26.5t20 -12.5q6 0 11.5 1t7.5 9q6 11 19.5 39.5t28 60.5t28 60.5t19.5 39.5q1 3 2.5 9.5t4.5 13t7 11.5t10 5q4 0 12 -11t19 -28.5t23.5 -39t24.5 -41.5t22.5 -37t17.5 -25
q6 -8 20.5 -22t24.5 -24t12 -11h30q0 44 -22 81t-46 71v10l38 -29v5v5q-1 2 -4 9t-5 10q-7 10 -23.5 36t-34.5 55t-34 54.5t-23 35.5v4v5q49 135 100.5 267.5t108.5 264.5q0 2 0.5 7t0.5 7q0 15 -7.5 21.5t-21.5 11.5v54q-14 0 -27 -7t-23.5 -18t-19.5 -24t-15 -24
q-7 -11 -16.5 -29.5t-18.5 -36.5t-15.5 -32t-6.5 -15v-19h9l19 57h9q0 -10 -2.5 -24t-7.5 -28.5t-11.5 -26t-15.5 -16.5q-1 2 -4.5 5t-5.5 4l-2 0.5t-3 0.5t-2.5 -0.5t-2.5 -0.5q-2 -5 -10 -23t-19.5 -42.5t-24.5 -51.5t-24.5 -49.5t-20 -37.5t-10.5 -15q-9 0 -27.5 24
t-42 60t-49.5 78t-51 78t-46.5 60t-34.5 24q-8 0 -14 -3t-6 -12v-4l57 -91l-47 24q-6 3 -8 -3t-2 -11v-5v-9q5 -9 17.5 -28.5t28.5 -44t34 -51.5t34 -51.5t29 -44l19 -28.5q7 -12 17 -26t19 -28.5t15.5 -29.5t6.5 -30q0 -19 -7 -42t-16 -46.5t-19 -45t-16 -37.5
q-29 -82 -62 -161t-62 -161v-10zM431 205q0 1 0.5 2.5t0.5 2.5q2 -2 9.5 -9t9.5 -10v-5v-5q-3 2 -10 9.5t-9 9.5l-0.5 2t-0.5 3zM403 267q8 0 8 -10q0 -9 -8 -9t-8 9q0 10 8 10zM393 277q8 0 8 -10t-8 -10q-7 0 -7 10t7 10zM365 324q8 0 8 -9q0 -10 -8 -10t-8 10q0 9 8 9z
M260 504q8 0 8 -9q0 -10 -8 -10q-7 0 -7 10q0 9 7 9zM242 533q7 0 7 -10q0 -9 -7 -9q-8 0 -8 9q0 10 8 10zM232 542q5 0 5 -4q0 -3 -5 -5t-5 5q0 6 5 4zM327 542v-9h-10zM223 561q7 0 7 -9q0 -10 -7 -10q-8 0 -8 10q0 9 8 9zM327 571q0 1 3.5 8l5.5 11q6 10 11 24.5l10 29
t11.5 26t15.5 15.5v-10q0 -14 -6 -30.5t-14 -32.5t-16 -29.5t-12 -21.5q-2 0 -5.5 4t-3.5 6zM203 590q8 0 8 -10q0 -9 -8 -9q-7 0 -7 9q0 10 7 10zM403 733v-5v-5q-1 -2 -4.5 -9.5t-5.5 -9.5v10q0 5 1 10.5t9 8.5z" />
    <glyph glyph-name="y" unicode="y" horiz-adv-x="541" 
d="M351 -29q0 38 4.5 76.5t9.5 76.5t9.5 76t4.5 75q0 2 -3.5 9t-5.5 10q-3 4 -12.5 14.5t-21 23.5t-22.5 24.5t-17 17.5q-43 47 -79.5 93t-73.5 97q-19 26 -34.5 52t-32 51.5t-35 49.5t-42.5 46q0 1 -0.5 3.5t-0.5 4.5q0 19 14 19t29.5 -12.5t30 -29t26.5 -33t19 -24.5h8
q-11 23 -25.5 41.5t-28.5 38.5q-6 9 -13.5 21t-14 23.5t-11.5 19.5t-5 9v21q2 0 4 -1l4 -2q1 -2 7 -6t12 -8.5t11 -8t6 -4.5q2 -2 12.5 -4t16.5 -4q3 0 5 -0.5l2 -0.5q2 -1 9 -8t9 -11q3 -4 15 -21t25.5 -37t26 -37.5t15.5 -20.5q43 -56 88 -104t83 -104l4.5 -9t5.5 -9
l1 -0.5t2 -0.5t2.5 0.5t2.5 0.5q1 4 3 15.5t3.5 24.5t2.5 24.5t1 16.5v97v69v70v98l18 81q6 4 8.5 11.5t4.5 15t5.5 13.5t12.5 6q1 0 3 -0.5l2 -0.5q2 -1 4.5 -3.5t3.5 -4.5q2 -4 5.5 -13.5t8 -19.5t8 -19t5.5 -12h18l9 -36v-15q0 -14 0.5 -30.5t0.5 -33.5v-28
q0 -80 -0.5 -158.5t-9.5 -158.5q-7 -60 -16.5 -119.5t-17.5 -119t-12 -119.5t1 -121q-8 5 -11.5 12.5t-6.5 15.5q0 -5 -1.5 -22.5t-6 -37t-12.5 -34.5t-21 -15h-3q-1 2 -3 10t-3.5 17t-2.5 17.5t-1 10.5v3v5l18 226v27v27l-8 -18q-1 -1 -3 -14.5t-5 -35t-6 -48t-6 -53.5
t-5 -51.5t-3 -41.5q0 -4 -0.5 -17t-1.5 -27.5t-1.5 -27t-0.5 -16.5q-15 0 -19.5 15.5t-4.5 31.5v17zM307 438q-5 2 -5 -5q0 -6 5 -4.5t5 4.5t-5 5zM389 438q-8 0 -8 -10q0 -8 8 -8q6 0 6 8q0 10 -6 10zM261 596v-5q1 -3 5 -9.5t8.5 -13t8.5 -13t6 -9.5q7 -11 19 -27.5
t23.5 -32.5t20.5 -27.5l9 -11.5l18 -9v5v4q-1 2 -4 9t-5 9q-5 6 -18 22t-27 34.5t-27 35.5t-19 25l-18 18v-4zM487 564l9 -18v117zM243 618l10 -9v9h-10zM135 691q-7 0 -7 -10q0 -8 7 -8t7 8q0 10 -7 10zM494 907q0 -6 1.5 -15t9.5 -12v27h-11zM451 970q-7 0 -7 -9t7 -9
q8 0 8 9t-8 9z" />
    <glyph glyph-name="z" unicode="z" horiz-adv-x="1387" 
d="M9 -39q3 -8 8.5 -9t11.5 -1q7 0 17 4t19.5 10.5t16.5 14t7 15.5q-19 0 -28 -4t-15.5 -9.5t-14 -11t-22.5 -9.5zM133 37q3 -6 -2 -13.5t-12.5 -16.5t-15 -18.5t-8.5 -17.5q1 0 2.5 -0.5t2.5 -0.5t3 0.5l2 0.5l4.5 3t9.5 6.5t9 6.5t5 3q107 43 220.5 86.5t225.5 74.5
l305 76q12 3 26 5t28 4.5t27 7t23 12.5l304 66h9l57 19q0 1 0.5 2.5t0.5 2.5q0 8 -6 11.5t-13 3.5q-2 0 -5.5 -0.5t-4.5 -0.5l-29 -9q-19 -5 -45.5 -11t-56 -12.5t-58.5 -12.5t-52 -10.5t-38 -7.5t-16 -3h-18v9q4 1 21 3.5t36 8t34 14.5t15 24q-17 0 -34 -3t-33.5 -7t-33 -7
t-34.5 -3v8q14 2 30 6.5t27 12.5q-3 0 -12 0.5t-12 0.5q-48 0 -99.5 -16.5t-94.5 -41.5l-371 -133q-1 2 -4 5.5t-5 4.5h-5h-5l-28 -19q-2 -1 -4.5 0t-3.5 1q0 17 7 26t20 20q9 8 30 25.5t47 39t55 45.5t55.5 45.5t47 38.5t30.5 25q13 8 39.5 17t58.5 18t65.5 17t60.5 16
t44.5 15t17.5 12q0 2 -4 9.5t-6 9.5h-9h-29h-9q-29 0 -54 -4.5t-51 -4.5v9q0 1 10 12t23.5 26t28 30.5t24.5 26.5l114 114q-2 15 2 29t12 26t19 22t23 18v32q-93 0 -189.5 -10t-193 -26.5t-191.5 -37.5t-186 -44h-12q0 10 1.5 20t1.5 19t-2 18t-8 19l-1 0.5t-2 0.5
q-8 0 -12.5 -6.5t-7 -15t-3.5 -16t-2 -10.5q-10 -27 -36.5 -42.5t-54.5 -25t-49.5 -16t-21.5 -16.5q0 -1 0.5 -3l0.5 -2q0 -2 4 -5.5t5 -3.5h105q-4 -12 -12 -21t-17 -17q11 -19 14 -18.5t4.5 1.5t5 -7t14.5 -43q1 -3 4.5 -6.5t5.5 -2.5l37 28l14.5 4.5t38 12t52.5 17
t58.5 19t56.5 18.5t46 15q9 3 30 8.5t48 13t56 16.5t53.5 17.5t41 16t18.5 13.5h-9q-38 0 -82 -13.5t-88 -29.5t-86 -29.5t-76 -13.5q-2 0 -5.5 0.5t-4.5 0.5q8 14 25.5 19l31.5 9t44.5 12t69 18.5t81 22t81 21.5t69 18.5t45.5 12.5q42 29 99 29q3 0 12 -0.5t12 -0.5
q-7 -5 -23 -17l-34 -25.5l-34 -25.5t-23 -17q-6 -5 -17 -12l-11 -7q-2 0 -9.5 4t-9.5 5h-5q-8 0 -12 -5.5t-4 -13.5h21l-12.5 -10t-14.5 -13.5t-13 -16t-8 -17.5l-181 -190q-2 -2 -12.5 -5.5t-15.5 -3.5q-8 0 -27 -0.5t-40 -0.5q-20 0 -39 0.5t-27 0.5q-5 -4 -11.5 -11
t-12 -15.5t-9.5 -16.5t-5 -14q-2 -8 -3 -21l-1 -13h76l3 -5t1 -9q-2 -2 -8.5 -9.5t-10.5 -9.5l-19 -9q-46 -41 -86.5 -81.5t-84.5 -80.5q-20 -19 -39.5 -34.5t-38.5 -30.5t-37.5 -31t-36.5 -37zM85 37q-4 2 -4 -6q0 -5 4.5 -3t4.5 4q0 3 -5 5zM180 123q-7 0 -7 -10
q0 -9 7 -9q8 0 8 9q0 10 -8 10zM209 151q-8 0 -8 -9q0 -10 8 -10t8 10q0 9 -8 9zM238 170v-9l9 9h-9zM294 218q-7 0 -7 -10q0 -9 7 -9q8 0 8 9q0 10 -8 10zM361 265q-1 2 -3.5 1.5t-4.5 -3t-3 -4.5t1 -3q5 -2 8.5 1t1.5 8zM1139 356q0 -2 0.5 -3.5l0.5 -1.5q1 -2 4 -5.5
t5 -4.5h5q20 0 45 7t50.5 18t49 24.5t40.5 26.5q-2 0 -7 0.5t-7 0.5q-5 0 -20.5 -3.5t-36.5 -9.5t-43.5 -13t-41.5 -14t-31.5 -12.5t-12.5 -9.5zM1083 379q-5 2 -5 -5q0 -6 5 -4.5t5 4.5t-5 5zM1111 398q-7 0 -7 -9q0 -10 7 -10q8 0 8 10q0 9 -8 9zM1159 408q-8 0 -8 -10
q0 -9 8 -9t8 9q0 10 -8 10zM1202 418q-1 0 -3 -0.5l-2 -0.5q-2 -1 -5.5 -4t-4.5 -5q1 0 2.5 -0.5t2.5 -0.5t3 0.5l2 0.5q2 1 5.5 4t3.5 5l-1.5 0.5t-2.5 0.5zM1377 427q-7 0 -7 -10q0 -9 7 -9q8 0 8 9q0 10 -8 10zM1244 436q-7 0 -7 -9q0 -10 7 -10q8 0 8 10q0 9 -8 9z
M522 446q0 -5 -4 -5q-3 0 -5 4.5t5 4.5q6 0 4 -4zM275 474q2 5 -4 5t-5 -5t5 -5t4 5zM418 550q-8 0 -8 -9q0 -10 8 -10t8 10q0 9 -8 9zM579 560q2 4 -4 4q-7 0 -5 -4.5t5 -4.5q4 0 4 5zM504 588q-8 -2 -20.5 -6t-17.5 -13h4h5q5 2 16 5.5t13 4.5l0.5 1.5t0.5 2.5q0 2 -0.5 3
t-0.5 2zM541 588q2 5 -4 5q-7 0 -5 -5t5 -5q4 0 4 5zM612 637q-1 0 -6.5 -0.5t-7.5 -0.5q-6 -2 -15.5 -6.5t-15.5 -8t-7 -4.5v-14q7 0 16 2.5t17 7t13.5 10.5t5.5 14zM655 617q-7 0 -7 -10q0 -9 7 -9q8 0 8 9q0 10 -8 10zM693 617q-4 0 -4 -5q0 -7 4.5 -5t4.5 5t-5 5z
M712 636q-4 0 -4 -5q0 -7 4.5 -5t4.5 5t-5 5zM285 645h19l-19 -9v9zM651 655h-5q-2 -1 -5.5 -4.5t-4.5 -5.5q1 0 2.5 -0.5t2.5 -0.5t3 0.5l2 0.5q2 1 5.5 4.5t3.5 5.5h-4zM741 655v-10h9v10h-9zM779 683q-2 -1 -5.5 -4t-4.5 -5v-5v-5q2 1 5.5 4.5t4.5 5.5l0.5 1.5t0.5 2.5
t-0.5 2.5t-0.5 2.5zM456 731q-4 -9 -19 -13q-8 -2 -21.5 -4t-16.5 -2l-105 -29h-4h-5q1 2 4 5.5t5 4.5q38 16 80 24.5t82 13.5zM798 721q-8 0 -8 -9q0 -10 8 -10t8 10q0 9 -8 9zM827 769q0 4 -5 4q-7 0 -5 -4.5t5 -4.5t5 5zM846 778q-8 0 -8 -9q0 -10 8 -10q7 0 7 10
q0 9 -7 9z" />
    <glyph glyph-name="FL007Bh" unicode="{" horiz-adv-x="428" 
d="M259 751q-9 0 -25 1t-33 -1.5t-31.5 -10.5t-21.5 -26q2 -1 3.5 -4.5t2.5 -5.5v-5v-4q-22 -14 -32 -42.5t-13 -63.5t-1 -71.5t4 -66.5q-7 3 -9.5 15t-3 27t0.5 30.5t1 25.5q0 26 2.5 48t2.5 47v4l-5 19v5v4l59 74q14 18 38 25.5t38 13.5h-24q-31 0 -63 -17.5t-58.5 -49
t-43.5 -77t-17 -100.5v-9q1 -5 2.5 -19t3.5 -19q0 2 2 5.5t4 4.5h3h2l12 -76q2 -14 12 -39.5t20.5 -50.5t19 -44l8.5 -19q0 -1 -0.5 -3l-0.5 -2q-2 -3 -6 -10t-6 -9q19 -25 32 -52t33 -50l1 3q0 1 -0.5 3l-0.5 2q-2 3 -5.5 14t-5.5 15q-2 2 -6.5 10t-9.5 17.5t-9 18t-5 10.5
v9v29v8q-2 32 -10 63t-8 64v4q1 2 2.5 5.5t3.5 3.5q4 -24 9 -58.5t12.5 -69.5t18 -65.5t25.5 -48.5q8 -10 19.5 -20.5t23 -22t22.5 -24.5t18 -27q-1 0 -2 -0.5t-2 -0.5q-6 0 -13.5 6.5t-16 14.5l-17 16t-15.5 11v-9q4 0 13 -8t11 -11q1 -1 0.5 -9t-0.5 -10q0 -1 2 -4t4 -5
q15 -17 31.5 -30t34 -23.5t35 -20t34.5 -20.5q8 -5 10.5 -17t2.5 -23q-41 0 -84 28.5t-83.5 76t-76.5 109.5t-63 129.5t-43 136t-16 128.5q0 73 18 125.5t48 85.5t68 48.5t79 15.5zM47 690v-5q20 29 39 53t44 41q13 8 26.5 11t26.5 17h-12q-12 0 -32.5 -10t-41 -26
t-35.5 -37.5t-15 -43.5zM200 807q0 4 -2 4t-3 -4t3 -4q3 0 2 4zM224 807q0 4 -2 4t-3.5 -4t3.5 -4q3 0 2 4zM266 798q1 5 -1 8t-5 1t0.5 -8t5.5 -1zM284 779q4 0 4 10q0 9 -4 9q-5 0 -5 -9q0 -10 5 -10zM224 714q2 7 6 9h3h3q25 0 24.5 -9.5t-24.5 -9.5q-2 0 -6 4zM165 704
v10h42q-9 -8 -15 -9.5t-15 -1.5q-2 0 -6 0.5t-6 0.5zM42 667q3 1 3 5q0 3 -3 4t-3 -4q0 -7 3 -5zM41 522q0 13 3.5 36t10 45.5t15.5 39t19 16.5v-11q-2 -3 -6.5 -10.5t-9.5 -16.5t-9 -17t-5 -12q-2 -4 -3 -15.5t-2.5 -23.5t-4 -21.5t-8.5 -9.5zM65 340q5 0 5 9q0 8 -5 8
t-5 -8q0 -9 5 -9zM242 87q-2 -5 -5 1t-1 8q3 2 5.5 -1t0.5 -8zM295 68v11q2 0 3 -0.5t3 -0.5q2 -1 6 -4.5t6 -5.5h-18zM260 39q4 0 4 10t-4 10q-5 0 -5 -10t5 -10zM392 -36q-5 0 -7.5 6t-2.5 14q1 0 3 -0.5t4 -0.5t9 -3.5t9 -5.5q-2 -2 -6 -5.5t-6 -4.5h-3z" />
    <glyph glyph-name="FL007Ch" unicode="|" horiz-adv-x="183" 
d="M93 -21q-21 -7 -29.5 8t-11 37t-1 44.5t1.5 30.5q-2 41 -4.5 97.5t-4.5 121t-3.5 132t-3 132t-2 121t-0.5 97.5q5 21 11.5 42t14 36.5t16.5 23.5t19 3.5t22 -24.5t25 -60v-12q0 -8 -0.5 -18t-0.5 -19v-11q0 -20 1 -52t1.5 -67t1.5 -67t1 -52v-23q0 -19 -0.5 -67
t-0.5 -111t-1 -133t-1 -133t-0.5 -111t-0.5 -66q-1 -2 -4.5 -5.5t-5.5 -4.5l-2 -0.5t-3 -0.5q-2 0 -3.5 0.5l-1.5 0.5q-2 2 -5.5 9.5t-4.5 10.5q-2 5 -5 17.5t-6 27t-5.5 27.5t-3.5 18zM93 9q-5 2 -5 -5q0 -6 5 -5t5 5q0 3 -5 5zM87 280q-5 2 -5 -5q0 -6 5 -5t5 5q0 3 -5 5z
M87 340q-2 2 -3.5 -3t-1.5 -12t1.5 -12t3.5 -3q5 5 5 15t-5 15zM87 420v-60q2 3 5.5 14.5t4.5 15.5v5v5q-1 2 -4.5 10t-5.5 10zM83 791q-2 -1 -5.5 -4.5t-4.5 -5.5q-6 -18 -9.5 -48.5t-5 -64t-2 -64.5t-0.5 -49v-19q0 -13 0.5 -28.5t0.5 -29.5v-18q4 1 8 12.5t6.5 26t4 26.5
t1.5 15v11q0 11 0.5 24.5t0.5 27.5v22v17q0 6 1 25t1.5 41t1.5 41t1 25v17z" />
    <glyph glyph-name="FL007Dh" unicode="}" horiz-adv-x="428" 
d="M159 53q9 0 25 -1t33 1.5t31.5 10.5t21.5 26q-2 1 -3.5 4.5t-2.5 5.5v5v4q22 13 32 42t13 64t1 71.5t-4 66.5q7 -3 9.5 -15t3 -27t-0.5 -30.5t-1 -25.5q0 -26 -2.5 -48t-2.5 -47v-4l5 -19v-5v-4l-59 -74q-14 -18 -38 -25.5t-38 -13.5h24q31 0 63 17.5t58.5 49t43.5 76.5
t17 101v9q-1 5 -2.5 19t-3.5 19q0 -2 -2 -5.5t-4 -4.5h-3h-2l-12 76q-2 14 -12 39.5t-20.5 50.5t-19 44l-8.5 19q0 1 0.5 3l0.5 2q2 3 6 10t6 9q-19 25 -32 52t-33 50l-1 -3q0 -1 0.5 -3l0.5 -2q2 -3 5.5 -14t5.5 -15q1 -2 6 -10t10 -17.5t9 -18t5 -10.5v-9v-29v-8
q2 -32 10 -63t8 -64v-4q-1 -2 -2.5 -5.5t-3.5 -3.5q-4 24 -9 58.5t-12.5 69.5t-18 65.5t-25.5 48.5q-8 10 -19.5 20.5t-23 22t-22.5 24.5t-18 27q1 0 2 0.5t2 0.5q6 0 13.5 -6.5t16 -14.5t16.5 -16t16 -11v9q-4 0 -13 8t-11 11q-1 1 -0.5 9t0.5 10q0 1 -2 4t-4 5
q-15 17 -31.5 30t-34 23.5t-35.5 20t-34 20.5q-8 5 -10.5 17t-2.5 23q41 0 84 -28.5t83.5 -76t76.5 -109.5t63 -129.5t43 -136t16 -128.5q0 -74 -18 -126t-48 -85t-68.5 -48.5t-78.5 -15.5zM371 114v5q-20 -29 -39 -53t-44 -41q-13 -8 -26.5 -11t-26.5 -17h12q12 0 32.5 10
t41 26t35.5 37t15 44zM218 -3q0 -4 2 -4t3 4t-3 4q-3 0 -2 -4zM194 -3q0 -4 2 -4t3.5 4t-3.5 4q-3 0 -2 -4zM152 6q-1 -5 1 -8t5 -1t-0.5 8t-5.5 1zM134 25q-4 0 -4 -10q0 -9 4 -9q5 0 5 9q0 10 -5 10zM194 90q-2 -7 -6 -9h-3h-3q-25 0 -24.5 9.5t24.5 9.5q2 0 6 -4z
M253 100v-10h-42q9 8 15 9.5t15 1.5q2 0 6 -0.5t6 -0.5zM376 137q-3 -2 -3 -5t3 -4t3 4q0 6 -3 5zM377 282q0 -13 -3.5 -36t-10 -45.5t-15.5 -39t-19 -16.5v11q2 3 6.5 10.5t9.5 16.5t9 17t5 12q2 4 3 15.5t2.5 23.5t4 21.5t8.5 9.5zM353 464q-5 0 -5 -9q0 -8 5 -8t5 8
q0 9 -5 9zM176 717q2 5 5 -1t1 -8q-3 -2 -5.5 1t-0.5 8zM123 736v-11q-2 0 -3 0.5t-3 0.5q-2 1 -6 4.5t-6 5.5h18zM158 765q-4 0 -4 -10t4 -10q5 0 5 10t-5 10zM26 840q5 0 7.5 -6t2.5 -14q-1 0 -3 0.5t-4 0.5t-9 3.5t-9 5.5q2 2 6 5.5t6 4.5h3z" />
    <glyph glyph-name="FL007Eh" unicode="~" horiz-adv-x="687" 
d="M333 302q-32 -22 -73 -39t-83.5 -22.5t-82.5 4.5t-70 43q-3 9 -3 20l2 9q2 2 2.5 5t2.5 5l1 5l1 6q1 17 3 33t5 33q-2 -14 3 -27q-4 14 -2 27.5t5 27.5q18 -33 52 -49.5t74.5 -20t82 5t73.5 25.5q27 19 56 36.5t60 28.5t63.5 14t65.5 -7q4 -2 5 -3q14 -6 20 -20.5
t7 -28.5q7 -5 13.5 -10.5t13.5 -11.5q8 -6 13 -14t12 -16q1 -5 3 -10t3 -10q-35 37 -79 47t-89 1t-87 -33t-73 -54zM43 333l-2 -13q36 -34 83 -42.5t94 1.5t90.5 36t72.5 61l-12 -5l-1 -1q-34 -24 -75.5 -42.5t-85 -26t-86 -1t-78.5 32.5zM476 410l-6 5l-3 -9l2 -1z" />
    <glyph glyph-name="FL20ACh" unicode="&#x20ac;" horiz-adv-x="630" 
d="M120 110q1 -2 10 -10t10 -10q5 -20 5 -34q0 -12 1 -22t6.5 -18t16 -12.5t28.5 -4.5q48 0 94.5 19.5t90 47.5t83.5 59.5t75 54.5q9 6 20.5 9t22.5 6t21 8.5t16 16.5h-70l30 20q-3 8 -8.5 9.5t-11.5 1.5q-2 0 -5.5 -0.5t-4.5 -0.5q-33 -13 -64.5 -28l-63 -30t-64 -27.5
t-68.5 -19.5q2 -11 12 -11h16q31 0 67.5 11t64.5 25q0 -1 0.5 -2.5t0.5 -2.5q0 -18 -30 -33.5t-69 -26t-76 -16.5t-52 -6q0 10 -1.5 22.5t-0.5 24t7 20t21 10.5q-7 38 2 72t19 71l275 83q0 2 -4 6t-6 4q-3 0 -12 0.5t-20 0.5q-10 0 -19 -0.5t-12 -0.5q-2 14 -12 23t-25 9h-5
q-10 -1 -26 -3t-34.5 -4.5t-39 -5.5t-39.5 -6q4 24 8.5 52.5t9.5 58.5l224 68q0 2 -4 6t-6 4q-3 0 -12 0.5t-20 0.5q-10 0 -19 -0.5t-12 -0.5q-2 14 -12 23t-25 9h-5q-14 -2 -39.5 -5t-54.5 -8q6 38 9.5 66t5.5 37l3.5 17.5t5.5 27t6 27.5t5 18q1 2 4.5 10t5.5 10l10 -10
q1 -7 23.5 -21t49.5 -30t50 -30t25 -21l30 -2q16 -9 24 -7.5t8 8.5q0 8 -6 19t-16 22q-12 27 -37 51.5t-56 47t-64 43t-61 40.5q-21 -11 -34 -32.5t-21 -47t-13.5 -52.5t-11.5 -48q-8 -26 -18.5 -69.5t-21.5 -87.5q-12 -2 -20.5 -3.5t-11.5 -1.5q-17 -3 -47 -4.5t-59.5 -5
t-51.5 -11t-22 -21.5q0 -25 30 -26h-28q1 -3 4 -9.5t6.5 -14t6.5 -14t4 -9.5v-11l-11 -21q0 -2 -1 -5t-1 -5h23l151 47l-2 -8q-2 -11 -6.5 -34.5t-9.5 -52.5q-21 -2 -48 -4t-50.5 -5.5t-39.5 -10.5t-16 -19q0 -25 30 -26h-28q1 -3 4 -9.5t6.5 -14t6.5 -14t4 -9.5v-11
l-11 -21q0 -2 -1 -5t-1 -5h23l99 30q-5 -26 -8 -47t-4 -32q-2 -2 -7.5 -13t-11 -24t-9 -25.5t-2.5 -17.5zM72 504q36 5 72 20t72 21q-2 -8 -3 -14.5t-3 -13.5q-17 -6 -37 -11t-39 -8.5t-35.5 -5t-26.5 -1.5v13zM84 302q22 3 43.5 10.5t44.5 15.5q-2 -8 -3 -14.5t-2 -13.5
q-26 -5 -48.5 -8t-34.5 -3v13zM210 50h70q-18 -14 -39 -19.5t-43 -5.5q0 4 2 14.5t10 10.5zM200 220q8 0 8 -10t-8 -10t-8 10t8 10zM300 720q8 0 8 -10t-8 -10t-8 10t8 10zM480 200q8 0 8 -10t-8 -10t-8 10t8 10zM330 830q8 0 8 -10t-8 -10t-8 10t8 10zM200 270q5 -5 5 -15
t-5 -15q-2 -2 -3.5 3t-1.5 12t1.5 12t3.5 3zM291 612q-3 0 -5.5 -0.5t-5.5 -0.5q2 4 5 13.5t5 14.5v-12t1 -15zM290 670v20l10 -10zM347 354q-2 -5 -5 -5q-4 0 -6 5t6 5q7 0 5 -5zM335 556q-2 -5 -5 -5q-4 0 -6 5t6 5q7 0 5 -5zM360 890q-2 -5 -5 -5q-4 0 -5 5t5 5q7 0 5 -5
zM190 190q5 -2 5 -5q0 -4 -5 -5t-5 5q0 7 5 5zM260 470q5 -2 5 -5t-5 -5t-5 5t5 5zM260 490l-10 10h10v-10z" />
    <glyph glyph-name="FL201Ah" unicode="&#x201a;" horiz-adv-x="134" 
d="M9 46q0 9 4 19.5t11.5 19.5t17.5 14.5t22 5.5t19.5 -5.5t12 -14.5t6 -19.5t1.5 -19.5t-13.5 -30.5t-32 -44t-37 -39.5t-28.5 -17q-9 0 -9 10t4 27.5t9 36t9 34.5t4 23zM64 69q-11 0 -11 -11q0 -12 11 -12q10 0 10 12q0 11 -10 11z" />
    <glyph glyph-name="FL0192h" unicode="&#x192;" horiz-adv-x="845" 
d="M57 -114q4 -1 1 -10q-3 -8 -9 -10q-2 -1 -2.5 2.5t1.5 7.5t4.5 7.5t4.5 2.5zM41 -54q2 18 15.5 47t33 63.5t42 72.5t43.5 73t38 64.5t24 48.5l2 5q2 4 10.5 15.5t11.5 14.5q6 -3 6 -7t-2 -8q-4 -10 4 -15q2 4 7.5 17.5t7.5 17.5q13 31 23 60.5t19 59t17.5 60t18.5 65.5
q-9 -3 -12 -7.5t-5 -11.5q-17 -42 -28 -83t-28 -83l-4 -9q-2 -6 -6 -13.5t-6 -13.5l-4 -9l-1 20q15 43 32.5 90.5t32.5 96t27 95t17 88.5l94 60l18 20q8 -2 30 -2t30 2q40 6 67 10.5t47.5 8t37.5 6t37 4t46 2t65 0.5h17q12 0 25.5 -0.5t25.5 -0.5h17q7 -2 18.5 -6t13.5 -14
l-14 -10q-8 0 -28 0.5t-42 0.5t-42 -0.5t-28 -0.5q-22 -2 -48.5 -2.5t-50.5 -5t-43.5 -15t-27.5 -31.5q-3 0 -3 4q-2 2 -2.5 10t0.5 10l-18 -20q-16 -3 -35 -6t-36.5 -9.5t-32 -18t-22.5 -31.5l-2 -5q-3 -10 -8.5 -30.5t-11.5 -43t-11 -41.5t-6 -25q-1 -5 -2.5 -13l-3 -16
t-3 -14t-1.5 -7q0 -2 7 -5.5l9 -4.5t4 -4.5t2 -5.5q-10 -3 -20 -7.5t-18 -12.5q0 -2 2 -5.5t4 -4.5h5q21 0 47.5 9.5t53.5 21t53 21t46 9.5q10 0 22.5 -6.5t7.5 -19.5q0 -1 -1.5 -2.5t-1.5 -2.5q-11 -7 -33.5 -16.5t-50 -20.5t-57.5 -22.5t-55 -22.5t-42 -21t-20 -17
l-50 -122q-1 0 -4.5 0.5t-4.5 1.5q-3 2 -11.5 9.5t-10.5 10.5q-17 -27 -28 -48.5t-20 -44.5l-14 -33l-160 -182q-9 -24 -8 -46q2 -2 4 -2q1 0 3.5 0.5t2.5 1.5q1 1 13.5 13t30.5 30l38.5 38.5l38.5 38.5t29.5 30.5t12.5 13.5q3 8 12 28t18.5 42t18.5 42t12 28h6
q3 0 2.5 -6.5t-2.5 -15.5t-6 -19.5t-7 -18.5l-6 -14q-7 -17 -34.5 -51t-60.5 -72t-63 -73t-41 -54q-4 -2 -17 -6t-17 -4q-9 0 -14.5 5t-9.5 12t-8.5 13.5t-11.5 9.5zM369 370q-6 -1 -10 -5.5t-7 -10.5t-5 -11.5t-3 -7.5q-1 -3 -4 -12.5t-5 -12.5q14 14 19 22.5t10 22.5
q2 2 3 7.5t2 7.5zM368 490q-8 0 -12 -10t4 -10t12 10t-4 10zM380 520q-8 0 -12 -10t4 -10t12 10t-4 10zM510 520q-3 -5 -7 -5t-3 5t7 5t3 -5zM568 540q-2 -2 -6.5 -5.5t-7.5 -4.5l-2 -0.5t-3 -0.5t-2.5 0.5t-2.5 0.5zM396 560q-8 0 -12 -10t4 -10t12 10t-4 10zM449 765
l-2 -5l-12.5 -45t-14.5 -52.5t-12.5 -44l-5.5 -18.5l2 -20l4 10l4 10q3 8 10 28t14.5 42.5l14 42t8.5 27.5q0 8 -1 16.5t-7 13.5zM381 670l-16 -40h11q1 2 1 5t2 5q1 4 2 15.5t0 14.5zM402 750q-4 -9 -4.5 -15.5t3.5 -14.5q1 2 3.5 7.5t3.5 7.5q3 7 5 15t-6 10q0 -1 -2 -4.5
t-3 -5.5z" />
    <glyph glyph-name="FL201Eh" unicode="&#x201e;" horiz-adv-x="303" 
d="M9 46q0 9 4 19.5t11.5 19.5t17.5 14.5t22 5.5t19.5 -5.5t12 -14.5t6 -19.5t1.5 -19.5t-13.5 -30.5t-32 -44t-37 -39.5t-28.5 -17q-9 0 -9 10t4 27.5t9 36t9 34.5t4 23zM64 69q-11 0 -11 -11q0 -12 11 -12q10 0 10 12q0 11 -10 11zM171 49q0 9 4 19.5t11.5 19.5t17.5 14.5
t22 5.5t19.5 -5.5t12 -14.5t6 -19.5t1.5 -19.5t-13.5 -30.5t-32 -44t-37 -39.5t-28.5 -17q-9 0 -9 10t4 27.5t9 36t9 34.5t4 23zM226 72q-11 0 -11 -11q0 -12 11 -12q10 0 10 12q0 11 -10 11z" />
    <glyph glyph-name="FL2026h" unicode="&#x2026;" horiz-adv-x="575" 
d="M17 54q0 9 4 19.5t11.5 19.5t17.5 14.5t22 5.5t19.5 -5.5t12 -14.5t6 -19.5t1.5 -19.5t-6 -17.5t-15 -15.5t-19.5 -11t-20.5 -4q-24 0 -28.5 15.5t-4.5 32.5zM72 77q-11 0 -11 -11q0 -12 11 -12q10 0 10 12q0 11 -10 11zM421 57q0 9 4 19.5t11.5 19.5t17.5 14.5t22 5.5
t19.5 -5.5t12 -14.5t6 -19.5t1.5 -19.5t-6 -17.5t-15 -15.5t-19.5 -11t-20.5 -4q-24 0 -28.5 15.5t-4.5 32.5zM476 80q-11 0 -11 -11q0 -12 11 -12q10 0 10 12q0 11 -10 11zM221 56q0 9 4 19.5t11.5 19.5t17.5 14.5t22 5.5t19.5 -5.5t12 -14.5t6 -19.5t1.5 -19.5t-6 -17.5
t-15 -15.5t-19.5 -11t-20.5 -4q-24 0 -28.5 15.5t-4.5 32.5zM276 79q-11 0 -11 -11q0 -12 11 -12q10 0 10 12q0 11 -10 11z" />
    <glyph glyph-name="FL2020h" unicode="&#x2020;" horiz-adv-x="562" 
d="M223 540h1v-402q8 -22 16 -48.5t13 -49.5l24 10v-79l9.5 0.5t14.5 3.5q2 1 5.5 4.5t4.5 5.5q3 49 3.5 105t1.5 113t3.5 112.5t10.5 105.5q1 7 5 20t5 13q-8 31 -3 44.5t11.5 22.5t10 20t-6.5 38l186 56q0 2 -4 6t-6 4q-3 0 -12 0.5t-20 0.5q-10 0 -19 -0.5t-12 -0.5
q-2 14 -12 23t-25 9h-5q-14 -2 -39.5 -5t-54.5 -8q-1 21 -2 47t-2.5 50.5t-2.5 44.5t-1 29q-1 6 -4.5 22t-5.5 22l-14 -12v-207q-8 -2 -14 -2.5t-13 -2.5q-4 31 -6 61.5t-5 61.5t-8.5 61.5t-16.5 60.5l-10 -11v-228q-5 -4 -9.5 -7.5t-9.5 -8.5h-3q-17 -3 -47 -4.5t-59.5 -5
t-51.5 -11t-22 -21.5q0 -25 30 -26h-28q1 -3 4 -9.5t6.5 -14t6.5 -14t4 -9.5v-11l-11 -21q0 -2 -1 -5t-1 -5h23zM272 378v87l10 10l10 -10v-6q0 -7 0.5 -14t0.5 -15v-12q0 -85 -3.5 -169t-7.5 -165q-4 40 -6 76.5t-3 71.5t-1 70v76zM76 551q29 4 57 15t57 19q5 -7 12 -11.5
t15 -8.5q-17 -6 -37.5 -11t-40 -8.5t-36.5 -5.5t-27 -2v13zM272 61q-7 0 -7 12q0 11 7 11q8 0 8 -11q0 -12 -8 -12zM292 508q-8 0 -8 11t8 11q7 0 7 -11t-7 -11zM349 573v-13q-13 0 -19 12l1 1h18z" />
    <glyph glyph-name="FL2021h" unicode="&#x2021;" horiz-adv-x="562" 
d="M55 488l168 52h1v-192q-6 -1 -10 -1.5t-6 -0.5q-17 -3 -47 -4.5t-59.5 -5t-51.5 -11t-22 -21.5q0 -25 30 -26h-28q1 -3 4 -9.5t6.5 -14t6.5 -14t4 -9.5v-11l-11 -21q0 -2 -1 -5t-1 -5h23l163 50v-101q8 -22 16 -48.5t13 -49.5l24 10v-79l9.5 0.5t14.5 3.5q2 1 5.5 4.5
t4.5 5.5q4 63 4 136q0 74 2 147l227 68q0 2 -4 6t-6 4q-3 0 -12 0.5t-20 0.5q-10 0 -19 -0.5t-12 -0.5q-2 14 -12 23t-25 9h-5q-16 -2 -45 -5.5t-61 -8.5q2 14 3.5 28.5t3.5 28.5q1 7 5 20t5 13q-8 31 -3 44.5t11.5 22.5t10 20t-6.5 38l186 56q0 2 -4 6t-6 4q-3 0 -12 0.5
t-20 0.5q-10 0 -19 -0.5t-12 -0.5q-2 14 -12 23t-25 9h-5q-14 -2 -39.5 -5t-54.5 -8q-1 21 -2 47t-2.5 50.5t-2.5 44.5t-1 29q-1 6 -4.5 22t-5.5 22l-14 -12v-207q-8 -2 -14 -2.5t-13 -2.5q-4 31 -6 61.5t-5 61.5t-8.5 61.5t-16.5 60.5l-10 -11v-228q-5 -4 -9.5 -7.5
t-9.5 -8.5h-3q-17 -3 -47 -4.5t-59.5 -5t-51.5 -11t-22 -21.5q0 -25 27 -26h-25q1 -3 4 -9.5t6.5 -14t6.5 -14t4 -9.5v-11l-11 -21q0 -2 -1 -5t-1 -5h23zM82 252q35 5 70.5 20t71.5 21v-26q-17 -7 -37.5 -12t-40.5 -8.5t-37 -5.5t-27 -2v13zM76 538v13q29 4 57 15t57 19
q5 -7 12 -11.5t15 -8.5q-17 -6 -37.5 -11t-40 -8.5t-36.5 -5.5t-27 -2zM272 378v87l10 10l10 -10v-6q0 -7 0.5 -14t0.5 -15v-12v-30t-1 -29q-5 -1 -10 -1.5t-10 -1.5v22zM290 259q-2 -45 -4 -88.5t-4 -86.5q-5 47 -7 88t-3 82zM272 61q-7 0 -7 12q0 11 7 11q8 0 8 -11
q0 -12 -8 -12zM292 508q-8 0 -8 11t8 11q7 0 7 -11t-7 -11zM331 573h18v-13q-13 0 -19 12zM345 304q-2 -5 -5 -5q-4 0 -6 5t6 5q7 0 5 -5z" />
    <glyph glyph-name="FL02C6h" unicode="&#x2c6;" horiz-adv-x="545" 
d="M363 842l-39 19q3 38 -4 53t-20 16t-29 -8t-31 -19q-24 -13 -31.5 -22.5t-10 -15.5t-6.5 -7.5t-23 0.5q-15 -10 -40.5 -23.5t-48 -28t-36 -27t-4.5 -20.5q16 -14 44 -2l-25 -12q3 -2 9.5 -4.5t14.5 -5.5t15.5 -6t10.5 -4l7 -5l3 -18q2 -1 3 -3t3 -4l20 10l110 96
q10 -6 17 -10.5t9 -5.5q13 -9 31 -28.5t37 -39t36.5 -32t30.5 -6.5q21 11 4 29l18 -16q5 4 15 16t14 16l10 5l26 2q3 2 6 2.5t5 1.5l-15 13zM428 734q-34 23 -67.5 47.5t-60.5 50.5l-5 3l3 4q16 0 37 -12.5t41 -29t37 -33.5t26 -25zM122 752q26 16 47 37.5t45 39.5
q5 -4 10.5 -7.5t11.5 -6.5q-12 -11 -26.5 -21.5t-29 -20.5t-27.5 -17.5t-22 -11.5zM326 895q1 -3 -1 -5q-3 -2 -8.5 0.5t1.5 5.5q8 3 8 -1z" />
    <glyph glyph-name="FL2030h" unicode="&#x2030;" horiz-adv-x="1239" 
d="M132 -113v10q15 41 34 80t37.5 78.5t33 80t19.5 83.5q5 40 23.5 64.5t43.5 47t52.5 50t50 74t36.5 120t12 186.5q1 0 2.5 0.5t2.5 0.5t3 -0.5l2 -0.5q2 -1 5.5 -4t4.5 -5q9 5 15.5 16.5t11.5 26t7.5 28.5t2.5 24h-9l-19 -57h-9v19q0 1 6.5 15t15.5 32t18.5 36.5
t16.5 29.5q6 11 15 24t19.5 24t23.5 18t27 7v-54q14 -5 21.5 -11.5t7.5 -21.5q0 -2 -0.5 -7t-0.5 -7q-59 -124 -101.5 -212.5t-72 -151t-47.5 -102.5t-28 -66.5t-15 -42.5t-7.5 -31t-5 -32.5t-8.5 -45.5q-6 -11 -19.5 -39.5t-28 -60.5t-28 -60.5t-19.5 -39.5q-2 -8 -7.5 -9
t-11.5 -1q-14 0 -20 12.5t-8 26.5l-76 -162q-1 -2 -4.5 -5t-5.5 -4l-1.5 -0.5t-2.5 -0.5q-9 0 -12 6t-3 14zM408 542l-10 -9h10v9zM408 571q0 -2 3.5 -6t5.5 -4q4 8 12 21.5t16 29.5t14 32.5t6 30.5v10q-9 -4 -15.5 -15.5t-11.5 -26l-10 -29t-11 -24.5l-5.5 -11t-3.5 -8z
M484 733q-8 -3 -9 -8.5t-1 -10.5v-10q2 2 5.5 9.5t4.5 9.5v5v5zM31 625q0 84 38 149t113 98q1 0 7.5 4.5t7.5 5.5l10 5q1 0 -1 0.5t0 0.5q0 -10 8.5 -16t20 -8.5t23.5 -2.5t19 1q42 -35 61 -76.5t19 -94.5q0 -23 -3 -64.5t-13.5 -84t-30.5 -77t-53 -43.5h-10
q-6 0 -13.5 -0.5t-15.5 -0.5h-9h-33t-34 6q-23 10 -43 33.5t-35 52.5t-24 59t-9 53zM252 492q-2 -2 -7 -6t-10.5 -9t-10.5 -9.5t-7 -5.5q-5 -3 -8.5 -4t-3.5 -7q6 0 14 3.5t15.5 9t12.5 12t5 13.5v3zM292 487q-5 -8 -11 -18.5t-14 -16.5l2 -1q1 0 2 0.5l1 0.5q6 5 16 14.5
t10 20.5h-6zM152 472q4 -6 11 -6h14q14 0 25 3.5t20 17.5h-3h-2l-55 -10h-5q-5 -3 -5 -5zM97 574q0 -7 2.5 -20t7.5 -26t12.5 -22.5t17.5 -9.5q1 0 2.5 0.5t2.5 0.5q-23 30 -27.5 68t-4.5 74l-1.5 -0.5t-1.5 -1.5q-2 -2 -3.5 -7.5t-1.5 -7.5q0 -1 -0.5 -6.5t-1.5 -13
t-2 -14.5t-1 -11v-3zM132 564q0 -10 2.5 -22t7.5 -22t14 -17t21 -7q31 0 52 29t34 68t18.5 78t5.5 59q0 16 -7 29t-19 22.5t-27 15t-30 5.5h-2q-22 -24 -34 -53t-17 -60.5t-5 -63.5t1 -63l-5 -10l-10 20v-8zM232 502q-4 0 -4 -5t4 -5t4 5t-4 5zM332 707q-12 -36 -18.5 -73
t-6.5 -75v-7q7 3 12 19t8 35.5t4 37.5t1 25v7v23v8zM71 647q0 -5 0.5 -12t0.5 -8q0 -7 2 -18.5t3 -11.5h5q2 24 9 47.5t16 46t18.5 45.5t16.5 46h-5q-1 0 -5.5 -4t-10 -9.5t-11 -11.5t-8.5 -10q-17 -21 -24 -47.5t-7 -52.5zM287 602q-3 0 -3 -3t2.5 -2.5t2.5 2.5q0 1 -2 3z
M297 647q-3 1 -3 -8q0 -3 0.5 -6t2.5 -1t2 7q0 4 -2 8zM117 662q0 2 -3 2t-2.5 -2.5t2.5 -2.5q1 0 3 3zM296 792q0 -2 0.5 -3t0.5 -2q1 -5 3.5 -11.5l5 -13t4.5 -11l2 -4.5h6q0 3 -1.5 10t-4 15t-5 14t-5.5 6h-6zM117 797v-5l5 5h-5zM216 829q0 -6 7 -11t16.5 -9t18.5 -7
t14 -5v2q0 7 -5 14t-12.5 12.5t-15.5 8.5t-15 3h-2q-5 -3 -5 -5l-0.5 -1t-0.5 -2zM162 832q-22 -10 -35 -25l1.5 -0.5t3.5 -0.5q8 0 19 7.5t11 15.5v3zM189 837h-2q-5 -3 -5 -5l-0.5 -1t-0.5 -2l1 -2l10 10h-3zM282 852q-4 0 -4 -5t4 -5t4 5t-4 5zM277 852q0 2 -3 2
t-2.5 -2.5t2.5 -2.5q1 0 3 3zM503 233q0 84 38 149t113 98q1 0 7.5 4.5t7.5 5.5l10 5q1 0 -1 0.5t0 0.5q0 -10 8.5 -16t20 -8.5t23.5 -2.5t19 1q42 -35 61 -76.5t19 -94.5q0 -23 -3 -64.5t-13.5 -84t-30.5 -77t-53 -43.5h-10q-6 0 -13.5 -0.5t-15.5 -0.5h-9h-33t-34 6
q-23 10 -43 33.5t-35 52.5t-24 59t-9 53zM724 100q-2 -2 -7 -6t-10.5 -9t-10.5 -9.5t-7 -5.5q-5 -3 -8.5 -4t-3.5 -7q6 0 14 3.5t15.5 9t12.5 12t5 13.5v3zM764 95q-5 -8 -11 -18.5t-14 -16.5l2 -1q1 0 2 0.5l1 0.5q6 5 16 14.5t10 20.5h-6zM624 80q4 -6 11 -6h14
q14 0 25 3.5t20 17.5h-3h-2l-55 -10h-5q-5 -3 -5 -5zM569 182q0 -7 2.5 -20t7.5 -26t12.5 -22.5t17.5 -9.5q1 0 2.5 0.5t2.5 0.5q-23 30 -27.5 68t-4.5 74l-1.5 -0.5t-1.5 -1.5q-2 -2 -3.5 -7.5t-1.5 -7.5q0 -1 -0.5 -6.5t-1.5 -13t-2 -14.5t-1 -11v-3zM604 172
q0 -10 2.5 -22t7.5 -22t14 -17t21 -7q31 0 52 29t34 68t18.5 78t5.5 59q0 16 -7 29t-19 22.5t-27 15t-30 5.5h-2q-22 -24 -34 -53t-17 -60.5t-5 -63.5t1 -63l-5 -10l-10 20v-8zM704 110q-4 0 -4 -5t4 -5t4 5t-4 5zM804 315q-12 -36 -18.5 -73t-6.5 -75v-7q7 3 12 19t8 35.5
t4 37.5t1 25v7v23v8zM543 255q0 -5 0.5 -12t0.5 -8q0 -7 2 -18.5t3 -11.5h5q2 24 9 47.5t16 46t18.5 45.5t16.5 46h-5q-1 0 -5.5 -4t-10 -9.5t-11 -11.5t-8.5 -10q-17 -21 -24 -47.5t-7 -52.5zM759 210q-3 0 -3 -3t2.5 -2.5t2.5 2.5q0 1 -2 3zM769 255q-3 1 -3 -8
q0 -3 0.5 -6t2.5 -1t2 7q0 4 -2 8zM589 270q0 2 -3 2t-2.5 -2.5t2.5 -2.5q1 0 3 3zM768 400q0 -2 0.5 -3t0.5 -2q1 -5 3.5 -11.5l5 -13t4.5 -11l2 -4.5h6q0 3 -1.5 10t-4 15t-5 14t-5.5 6h-6zM589 405v-5l5 5h-5zM688 437q0 -6 7 -11t16.5 -9t18.5 -7t14 -5v2q0 7 -5 14
t-12.5 12.5t-15.5 8.5t-15 3h-2q-5 -3 -5 -5l-0.5 -1t-0.5 -2zM634 440q-22 -10 -35 -25l1.5 -0.5t3.5 -0.5q8 0 19 7.5t11 15.5v3zM661 445h-2q-5 -3 -5 -5l-0.5 -1t-0.5 -2l1 -2l10 10h-3zM754 460q-4 0 -4 -5t4 -5t4 5t-4 5zM749 460q0 2 -3 2t-2.5 -2.5t2.5 -2.5
q1 0 3 3zM887 251q0 84 38 149t113 98q1 0 7.5 4.5t7.5 5.5l10 5q1 0 -1 0.5t0 0.5q0 -10 8.5 -16t20 -8.5t23.5 -2.5t19 1q42 -35 61 -76.5t19 -94.5q0 -23 -3 -64.5t-13.5 -84t-30.5 -77t-53 -43.5h-10q-6 0 -13.5 -0.5t-15.5 -0.5h-9h-33t-34 6q-23 10 -43 33.5t-35 52.5
t-24 59t-9 53zM1108 118q-2 -2 -7 -6t-10.5 -9t-10.5 -9.5t-7 -5.5q-5 -3 -8.5 -4t-3.5 -7q6 0 14 3.5t15.5 9t12.5 12t5 13.5v3zM1148 113q-5 -8 -11 -18.5t-14 -16.5l2 -1q1 0 2 0.5l1 0.5q6 5 16 14.5t10 20.5h-6zM1008 98q4 -6 11 -6h14q14 0 25 3.5t20 17.5h-3h-2
l-55 -10h-5q-5 -3 -5 -5zM953 200q0 -7 2.5 -20t7.5 -26t12.5 -22.5t17.5 -9.5q1 0 2.5 0.5t2.5 0.5q-23 30 -27.5 68t-4.5 74l-1.5 -0.5t-1.5 -1.5q-2 -2 -3.5 -7.5t-1.5 -7.5q0 -1 -0.5 -6.5t-1.5 -13t-2 -14.5t-1 -11v-3zM988 190q0 -10 2.5 -22t7.5 -22t14 -17t21 -7
q31 0 52 29t34 68t18.5 78t5.5 59q0 16 -7 29t-19 22.5t-27 15t-30 5.5h-2q-22 -24 -34 -53t-17 -60.5t-5 -63.5t1 -63l-5 -10l-10 20v-8zM1088 128q-4 0 -4 -5t4 -5t4 5t-4 5zM1188 333q-12 -36 -18.5 -73t-6.5 -75v-7q7 3 12 19t8 35.5t4 37.5t1 25v7v23v8zM927 273
q0 -5 0.5 -12t0.5 -8q0 -7 2 -18.5t3 -11.5h5q2 24 9 47.5t16 46t18.5 45.5t16.5 46h-5q-1 0 -5.5 -4t-10 -9.5t-11 -11.5t-8.5 -10q-17 -21 -24 -47.5t-7 -52.5zM1143 228q-3 0 -3 -3t2.5 -2.5t2.5 2.5q0 1 -2 3zM1153 273q-3 1 -3 -8q0 -3 0.5 -6t2.5 -1t2 7q0 4 -2 8z
M973 288q0 2 -3 2t-2.5 -2.5t2.5 -2.5q1 0 3 3zM1152 418q0 -2 0.5 -3t0.5 -2q1 -5 3.5 -11.5l5 -13t4.5 -11l2 -4.5h6q0 3 -1.5 10t-4 15t-5 14t-5.5 6h-6zM973 423v-5l5 5h-5zM1072 455q0 -6 7 -11t16.5 -9t18.5 -7t14 -5v2q0 7 -5 14t-12.5 12.5t-15.5 8.5t-15 3h-2
q-5 -3 -5 -5l-0.5 -1t-0.5 -2zM1018 458q-22 -10 -35 -25l1.5 -0.5t3.5 -0.5q8 0 19 7.5t11 15.5v3zM1045 463h-2q-5 -3 -5 -5l-0.5 -1t-0.5 -2l1 -2l10 10h-3zM1138 478q-4 0 -4 -5t4 -5t4 5t-4 5zM1133 478q0 2 -3 2t-2.5 -2.5t2.5 -2.5q1 0 3 3z" />
    <glyph glyph-name="FL0160h" unicode="&#x160;" horiz-adv-x="884" 
d="M165 -43q0 -19 15 -19q1 0 3 0.5l2 0.5l206 152l18 19l324 237q30 24 56 61.5t43 71.5q0 2 0.5 7.5t0.5 7.5q0 15 -5.5 24.5t-22.5 17.5q-32 6 -53.5 8.5t-44.5 2.5h-35q-63 0 -123.5 -1.5t-120.5 -9.5q-38 -6 -74.5 -17t-75.5 -11q-8 0 -15.5 1.5t-7.5 12.5q0 1 0.5 2.5
t0.5 2.5q51 61 112.5 110.5t128.5 92t136 81t135 77.5v30q-25 0 -47.5 -5t-44.5 -12.5t-43.5 -16t-44.5 -15.5l-403 -228q-14 -12 -36 -23t-43 -24.5t-36.5 -29.5t-15.5 -37h50q-8 -11 -23 -19.5l-30 -17t-26.5 -18t-11.5 -22.5q0 -8 18.5 -15.5t46.5 -15t61 -14t63 -11
t52.5 -7.5t28.5 -3q24 0 42.5 3.5t37 7.5t40 7t51.5 1q14 13 32 21t37.5 12t39 5t37.5 1h13q11 0 20.5 -5t9.5 -19q0 -1 -0.5 -3l-0.5 -2q0 -3 -3 -10t-5 -9q-3 -4 -10.5 -12t-16 -17t-16.5 -17l-11 -11q-12 -11 -35 -31.5t-47.5 -41.5t-44.5 -38.5t-25 -21.5
q-6 -5 -32.5 -23t-59.5 -41t-65.5 -45t-50.5 -34q-5 -4 -25.5 -12t-43 -16.5t-40.5 -15.5t-18 -8t0.5 -3l0.5 -2q7 -8 18.5 -10t24.5 -2q14 0 23.5 1.5t14.5 1.5q-5 -11 -7.5 -19.5t-2.5 -19.5zM696 366q8 0 8 -9q0 -10 -8 -10q-7 0 -7 10q0 9 7 9zM736 396q1 0 2.5 -0.5
t2.5 -0.5l-27 -19q2 3 9.5 10t9.5 9l1 0.5t2 0.5zM642 461q11 5 22.5 8.5t22.5 3.5v-42q-3 0 -10 4t-14.5 9.5t-13.5 10t-7 6.5zM724 480h44v-9l-35 -29zM230 509q6 0 6 -10q0 -9 -6 -9q-8 0 -8 9q0 10 8 10zM157 585q-5 -8 -12 -12t-14 -7q5 8 11.5 12t14.5 7zM805 575v-9
h9v9h-9zM197 614q1 0 2.5 -0.5t2.5 -0.5q-1 -2 -4.5 -5t-5.5 -4l-1 -0.5t-2 -0.5t-2 0.5t-2 0.5q1 7 7 9l2 0.5t3 0.5zM243 643q1 0 2 -0.5l1 -0.5l-16 -10q0 2 3 5.5t5 4.5l2 0.5t3 0.5zM389 971l-40 6q-2 26 -10.5 35.5t-21 8t-27 -10t-28.5 -18.5q-23 -13 -28.5 -21
t-7.5 -12t-6 -6t-22 -3q-14 -9 -37 -23t-44 -27.5t-32.5 -24.5t-2.5 -15q20 -7 44 6l-22 -13q3 -1 9.5 -1.5t14.5 -1.5t15.5 -1.5t10.5 -1.5l9 -2l5 -12q2 0 3 -1.5t3 -2.5l18 10l97 85q10 -2 17.5 -4.5t9.5 -2.5q14 -4 34 -14.5t41 -20.5t39.5 -16t29.5 0q18 10 1 20l18 -8
q5 3 14 13.5t12 13.5l9 5l25 6q4 1 12 5l-18 7zM466 905q-35 11 -71 22.5t-66 25.5l-5 2l2 2q16 3 38 -2t43.5 -13.5t40 -17.5t27.5 -14zM165 868q23 16 41 34t39 34q5 -2 11 -3t12 -3q-10 -9 -23 -19t-26 -19t-25 -16.5t-20 -11.5zM348 1000q2 -2 -1 -3q-2 -2 -8.5 -1.5
t1.5 4.5q7 3 8 0z" />
    <glyph glyph-name="FL2039h" unicode="&#x2039;" horiz-adv-x="366" 
d="M10 410q-4 27 2 35.5t18.5 10t29.5 2t35.5 12t36.5 40t31 85.5h4h5q6 -2 9 -5q17 5 26.5 21t9.5 26h-9l-17 -28h-10v10q1 2 10.5 11.5t23 23.5t21.5 21q13 11 33.5 23.5t47.5 12.5v-26q14 -3 21 -6t7 -11q0 -2 -0.5 -3.5t-0.5 -3.5q-55 -66 -104 -131.5t-96 -133.5v-3v-2
q7 -5 22.5 -18t32.5 -27.5t33 -27.5t23 -18q2 -1 4.5 -4t3.5 -5v-3v-2l-36 14v-5q23 -17 44 -35t21 -40h-29q-2 1 -12 5.5t-23.5 11.5t-19.5 11q-11 6 -28 21t-34 30.5t-31.5 27.5t-19.5 12zM199 317l1 -3q2 -1 9 -4t9 -5v2v3q-2 2 -9 4.5t-9 4.5zM172 348q-7 0 -7 -5t7 -5
t7 5t-7 5zM163 353q-7 0 -7 -5t7 -5t7 5t-7 5zM136 376q-7 0 -7 -4q0 -5 7 -5t7 5q0 4 -7 4zM100 486l-9 -6h9v6zM100 500q0 -2 3 -4t5 -2q4 4 11.5 11t15.5 15t14 16.5t6 15.5v5q-18 -5 -26.5 -21t-20.5 -27q-2 -2 -5 -5.5zM172 581q-8 -2 -8.5 -4.5t-0.5 -5.5v-5q2 1 5 5
t4 4v3v3z" />
    <glyph glyph-name="FL0152h" unicode="&#x152;" horiz-adv-x="1013" 
d="M450 72q1 -4 9 -12t12 -9q1 0 13 4l18 6q3 1 11 4.5t16.5 7t16 6.5t9.5 3h52q52 11 99.5 37t93 57.5l91 63t94.5 52.5v25q-43 0 -84 -11.5t-80 -29t-76.5 -38.5t-74.5 -40h-10v231q0 1 4 4.5t6 5.5q3 3 12 9t19 12.5t19.5 12.5t12.5 8q3 1 12.5 6.5t21.5 12.5t23 13.5
t17 9.5q9 4 23.5 8t28 9t23.5 12.5t10 18.5t-9 14t-17 3q-15 0 -24 -2.5t-25 -9.5l-126 -63h-31v220l10 11l242 10h10q5 2 17 5.5t15 5.5q-3 2 -15 5.5t-17 4.5l-28 3.5t-42.5 5t-44.5 4.5t-35 3h171q-3 8 -13.5 20t-17.5 12h-231q-5 15 -12 21t-20 6q-9 0 -17 -4.5
t-16 -10.5t-17.5 -11.5t-22.5 -6.5q-7 -1 -24 -2.5t-37.5 -3t-39.5 -3t-30 -1.5q-13 25 -36 42t-51.5 30.5t-59.5 27t-58 33.5q-21 -11 -34 -32.5t-21 -47t-13.5 -52.5t-11.5 -48q-5 -18 -12 -44.5t-14 -56.5t-14.5 -60.5t-13.5 -55.5t-10.5 -42.5t-5.5 -20.5
q-2 -11 -6 -33.5t-9.5 -51t-11 -60t-10.5 -60t-8.5 -51.5t-4.5 -34q-2 -2 -7.5 -13t-11 -24t-9 -25.5t-2.5 -17.5q1 -2 10 -10t10 -10q5 -20 5 -34q0 -12 1 -22t6.5 -18t16 -12.5t28.5 -4.5q48 0 94.5 19.5t90 47.5t83.5 59.5t75 54.5q9 6 20.5 9t22.5 6t21 8.5t16 16.5h-70
l30 20q-3 8 -8.5 9.5t-11.5 1.5q-2 0 -5.5 -0.5t-4.5 -0.5q-33 -13 -64.5 -28l-63 -30t-64 -27.5t-68.5 -19.5q2 -11 12 -11h16q31 0 67.5 11t64.5 25q0 -1 0.5 -2.5t0.5 -2.5q0 -18 -30 -33.5t-69 -26t-76 -16.5t-52 -6q0 10 -1.5 22.5t-0.5 24t7 20t21 10.5q-4 24 -1.5 46
t7.5 43.5t12 43.5t12 47q2 9 7 38t11.5 68t13 83.5t12.5 83.5t10.5 68.5t5.5 38.5l3.5 17.5t5.5 27t6 27.5t5 18q1 2 4.5 10t5.5 10l10 -10q1 -5 12 -10t27.5 -10t35 -10.5t33.5 -10.5q-3 -3 -3 -9q0 -1 0.5 -2.5t0.5 -2.5q15 -4 32 -6q2 -14 7 -24t22 -10v30q5 -1 11 -1
t11 -1q6 -2 12 -2v1q31 -3 62.5 -7t63.5 -12v-21q0 -11 -1.5 -33t-4 -50t-6 -57.5t-8 -55t-10.5 -44t-12 -22.5q-2 -1 -10.5 -4.5t-10.5 -6.5l-0.5 -1.5t-0.5 -3.5q0 -1 0.5 -3l0.5 -2q1 -1 5.5 -7.5t10 -13.5t10 -13.5t5.5 -7.5v-8q0 -63 -5 -127.5t-16 -127.5
q-1 -2 -4.5 -5.5t-5.5 -4.5q-5 -3 -17 -9t-25.5 -12.5t-25.5 -12.5zM607 387q6 -48 9 -90.5t3 -90.5q0 -6 -0.5 -17t-0.5 -12l-21 -21v37q0 26 0.5 47.5t1.5 43.5t3 46.5t5 56.5zM181 605q0 -23 -6.5 -38.5t-6.5 -36.5h-18q0 4 1 14t2.5 21.5t3.5 21t3 13.5q0 1 4.5 5t5.5 5
q2 3 5 13.5t5 15.5q0 -5 0.5 -17.5t0.5 -16.5zM100 50h70q-18 -14 -39 -19.5t-43 -5.5q0 4 2 14.5t10 10.5zM220 830q8 0 8 -10t-8 -10t-8 10t8 10zM90 220q8 0 8 -10t-8 -10t-8 10t8 10zM370 200q8 0 8 -10t-8 -10t-8 10t8 10zM190 720q8 0 8 -10t-8 -10t-8 10t8 10z
M90 270q5 -5 5 -15t-5 -15q-2 -2 -3.5 3t-1.5 12t1.5 12t3.5 3zM702 786h42v-11zM120 350v20l10 -10zM180 670v20l10 -10zM733 187q-2 -5 -5 -5t-5 5.5t5 5.5q8 0 5 -6zM80 190q5 -2 5 -5q0 -4 -5 -5t-5 5q0 7 5 5zM250 890q-2 -5 -5 -5q-4 0 -5 5t5 5q7 0 5 -5zM150 470
q5 -2 5 -5t-5 -5t-5 5t5 5zM150 490l-10 10h10v-10z" />
    <glyph glyph-name="FL017Dh" unicode="&#x17d;" horiz-adv-x="1387" 
d="M846 778q-8 0 -8 -9q0 -10 8 -10q7 0 7 10q0 9 -7 9zM827 769q0 4 -5 4q-7 0 -5 -4.5t5 -4.5t5 5zM798 721q-8 0 -8 -9q0 -10 8 -10t8 10q0 9 -8 9zM456 731q-4 -9 -19 -13q-8 -2 -21.5 -4t-16.5 -2l-105 -29h-4h-5q1 2 4 5.5t5 4.5q38 16 80 24.5t82 13.5zM779 683
q-2 -1 -5.5 -4t-4.5 -5v-5v-5q2 1 5.5 4.5t4.5 5.5l0.5 1.5t0.5 2.5t-0.5 2.5t-0.5 2.5zM741 645h9v10h-9v-10zM646 655q-2 -1 -5.5 -4.5t-4.5 -5.5q1 0 2.5 -0.5t2.5 -0.5t3 0.5l2 0.5q2 1 5.5 4.5t3.5 5.5h-4h-5zM304 645l-19 -9v9h19zM712 636q-4 0 -4 -5q0 -7 4.5 -5
t4.5 5t-5 5zM693 617q-4 0 -4 -5q0 -7 4.5 -5t4.5 5t-5 5zM655 617q-7 0 -7 -10q0 -9 7 -9q8 0 8 9q0 10 -8 10zM612 637q-1 0 -6.5 -0.5t-7.5 -0.5q-10 -3 -23.5 -10.5t-14.5 -8.5v-14q7 0 16 2.5t17 7t13.5 10.5t5.5 14zM541 588q2 5 -4 5q-7 0 -5 -5t5 -5q4 0 4 5z
M504 588q-8 -2 -20.5 -6t-17.5 -13h4h5q5 2 16 5.5t13 4.5l0.5 1.5t0.5 2.5q0 2 -0.5 3t-0.5 2zM579 560q1 4 -4 4q-7 0 -5 -4.5t5 -4.5q4 0 4 5zM418 550q-8 0 -8 -9q0 -10 8 -10t8 10q0 9 -8 9zM275 474q2 5 -4 5t-5 -5t5 -5t4 5zM522 446q0 -5 -4 -5q-3 0 -5 4.5t5 4.5
q5 0 4 -4zM1244 436q-7 0 -7 -9q0 -10 7 -10q8 0 8 10q0 9 -8 9zM1377 427q-7 0 -7 -10q0 -9 7 -9q8 0 8 9q0 10 -8 10zM1202 418q-1 0 -3 -0.5l-2 -0.5q-2 -1 -5.5 -4t-4.5 -5q1 0 2.5 -0.5t2.5 -0.5t3 0.5l2 0.5q2 1 5.5 4t3.5 5l-1.5 0.5t-2.5 0.5zM1159 408q-8 0 -8 -10
q0 -9 8 -9t8 9q0 10 -8 10zM1111 398q-7 0 -7 -9q0 -10 7 -10q8 0 8 10q0 9 -8 9zM1083 379q-5 2 -5 -5q0 -6 5 -4.5t5 4.5t-5 5zM1139 356q0 -2 0.5 -3.5l0.5 -1.5q1 -2 4 -5.5t5 -4.5h5q20 0 45 7t50.5 18t49 24.5t40.5 26.5q-2 0 -7 0.5t-7 0.5q-5 0 -20.5 -3.5
t-36.5 -9.5t-43.5 -13t-41.5 -14t-31.5 -12.5t-12.5 -9.5zM361 265q-1 2 -3.5 1.5t-4.5 -3t-3 -4.5t1 -3q5 -2 8.5 1t1.5 8zM294 218q-7 0 -7 -10q0 -9 7 -9q8 0 8 9q0 10 -8 10zM238 161l9 9h-9v-9zM209 151q-8 0 -8 -9q0 -10 8 -10t8 10q0 9 -8 9zM180 123q-7 0 -7 -10
q0 -9 7 -9q8 0 8 9q0 10 -8 10zM85 37q-4 1 -4 -6q0 -5 4.5 -3t4.5 4q0 3 -5 5zM133 37q3 -6 -2 -14t-12.5 -16.5t-15 -17.5t-8.5 -18q1 0 2.5 -0.5t2.5 -0.5t3 0.5l2 0.5l4.5 3t9.5 6.5t9 6.5t5 3q108 43 221 86.5t225 74.5l305 76q12 3 26 5t28 4.5t27 7t23 12.5l304 66h9
l57 19q0 1 0.5 2.5t0.5 2.5q0 8 -6 11.5t-13 3.5q-2 0 -5.5 -0.5t-4.5 -0.5l-29 -9q-19 -5 -45.5 -11t-56 -12.5t-58.5 -12.5t-52 -10.5t-38 -7.5t-16 -3h-18v9q4 1 21 3.5t36 8t34 14.5t15 24q-35 0 -67.5 -10t-67.5 -10v8q14 2 30 6.5t27 12.5q-3 0 -12 0.5t-12 0.5
q-48 0 -99.5 -16.5t-94.5 -41.5l-371 -133q-1 2 -4 5.5t-5 4.5h-5h-5l-28 -19q-2 -1 -4.5 0t-3.5 1q0 17 7 26t20 20q9 8 30 25.5t47 39t55 45.5t55.5 45.5t47 38.5t30.5 25q13 8 39.5 17t58.5 17.5t65.5 17.5t60.5 16.5t44.5 14.5t17.5 12q0 2 -4 9.5t-6 9.5h-9h-29h-9
q-29 0 -54 -4.5t-51 -4.5v9q0 1 10 12t23.5 26t28 30.5t24.5 26.5l114 114q-4 31 14 55t42 40v32q-93 0 -189.5 -10t-193 -26.5t-191.5 -37.5t-186 -44h-12q0 10 1.5 20t1.5 19t-2 18t-8 19l-1 0.5t-2 0.5q-8 0 -12.5 -6.5t-7 -15t-3.5 -16t-2 -10.5q-10 -27 -36.5 -42.5
t-54.5 -25t-49.5 -16t-21.5 -16.5q0 -1 0.5 -3l0.5 -2q0 -2 4 -5.5t5 -3.5h105q-4 -12 -12 -21t-17 -17q7 -13 10.5 -16t5.5 -2.5t2.5 1.5t2.5 -2t5.5 -14t11.5 -34q1 -3 4.5 -6.5t5.5 -2.5l37 28l14.5 4.5t38 12t52.5 17t58.5 19t56.5 18.5t46 15q9 3 30 9t48 13.5t56 16
t53.5 17t41 16t18.5 13.5h-9q-38 0 -82 -13.5t-88 -29.5t-86 -29.5t-76 -13.5q-2 0 -5.5 0.5t-4.5 0.5q8 14 25.5 19l31.5 9t44.5 12t68.5 18q39 11 81.5 22.5t81 22t69 18.5t45.5 12q43 29 99 29q3 0 12 -0.5t12 -0.5q-7 -5 -23 -17l-34 -25.5l-34 -25.5t-23 -17
q-6 -5 -17 -12l-11 -7q-2 0 -9.5 4t-9.5 5h-5q-16 0 -16 -19h21q-10 -8 -27 -23.5t-21 -33.5l-181 -190q-2 -2 -12.5 -5.5t-15.5 -3.5q-8 0 -27 -0.5t-40 -0.5q-20 0 -39 0.5t-27 0.5q-5 -4 -11.5 -11t-12 -15.5t-9.5 -16.5t-5 -14q-2 -8 -3 -21l-1 -13h76l3 -5t1 -9
q-2 -2 -8.5 -9.5t-10.5 -9.5l-19 -9q-46 -42 -86 -82t-85 -80q-20 -19 -39.5 -34.5t-38.5 -30.5t-37.5 -31t-36.5 -37zM9 -39q3 -8 8.5 -9t11.5 -1q7 0 17 4t19.5 10.5t16.5 14t7 15.5q-19 0 -28 -4t-15.5 -9t-14 -11t-22.5 -10zM647 1012l-40 6q-2 26 -10.5 35.5t-21 8
t-27 -10t-28.5 -18.5q-23 -13 -28.5 -21t-7.5 -12t-6 -6t-22 -3q-14 -9 -37 -23t-44 -27.5t-32.5 -24.5t-2.5 -15q20 -7 44 6l-22 -13q3 -1 9.5 -1.5t14.5 -1.5t15.5 -1.5t10.5 -1.5l9 -2l5 -12q2 0 3 -1.5t3 -2.5l18 10l97 85q10 -2 17.5 -4.5t9.5 -2.5q14 -4 34 -14.5
t41 -20.5t39.5 -16t29.5 0q18 10 1 20l18 -8q5 3 14 13.5t12 13.5l9 5l25 6q4 1 12 5l-18 7zM724 946q-35 11 -71 22.5t-66 25.5l-5 2l2 2q16 3 38 -2t43.5 -13.5t40 -17.5t27.5 -14zM423 909q23 16 41 34t39 34q5 -2 11 -3t12 -3q-10 -9 -23 -19t-26 -19t-25 -16.5
t-20 -11.5zM606 1041q2 -2 -1 -3q-2 -2 -8.5 -1.5t1.5 4.5q7 3 8 0z" />
    <glyph glyph-name="FL2018h" unicode="&#x2018;" horiz-adv-x="203" 
d="M185 578q-17 16 -20 25.5t-2 18.5t2 19.5t-7 27.5l-55 183q-2 0 -6 -4t-4 -6t-4.5 -0.5t-9.5 3t-9.5 1t-4.5 -6.5q0 -10 0.5 -19t0.5 -12q-14 -2 -23 -12t-9 -25v-5q1 -6 6 -19.5t11.5 -29.5t12 -32.5t7.5 -28.5l16 -108zM144 558v7l5 2zM80 601q2 -16 4 -27z" />
    <glyph glyph-name="FL2019h" unicode="&#x2019;" horiz-adv-x="203" 
d="M185 578q-17 16 -20 25.5t-2 18.5t2 19.5t-7 27.5l-55 183q-2 0 -6 -4t-4 -6t-4.5 -0.5t-9.5 3t-9.5 1t-4.5 -6.5q0 -10 0.5 -19t0.5 -12q-14 -2 -23 -12t-9 -25v-5q1 -6 6 -19.5t11.5 -29.5t12 -32.5t7.5 -28.5l16 -108zM144 558v7l5 2zM80 601q2 -16 4 -27z" />
    <glyph glyph-name="FL201Ch" unicode="&#x201c;" horiz-adv-x="203" 
d="M173 578q17 16 20 25.5t2 18.5t-2 19.5t7 27.5l55 183q2 0 6 -4t4 -6t4.5 -0.5t9.5 3t9.5 1t4.5 -6.5q0 -10 -0.5 -19t-0.5 -12q14 -2 23 -12t9 -25v-5q-1 -6 -6 -19.5t-11.5 -29.5t-12 -32.5t-7.5 -28.5l-16 -108zM214 558v7l-5 2zM278 601q-2 -16 -4 -27zM38 576
q17 16 16 27t-7 21.5t-11 22.5t3 29l55 183q2 0 6 -4t4 -6t4.5 -0.5t9.5 3t9.5 1t4.5 -6.5q0 -10 -0.5 -19t-0.5 -12q7 -1 6 -9.5t-3 -18t-3 -16.5t6 -5l26 7q6 1 2 -11t-12 -30t-16.5 -37.5t-10.5 -31.5l-16 -108zM53 565v7l-5 2zM117 608q-2 -16 -4 -27z" />
    <glyph glyph-name="FL201Dh" unicode="&#x201d;" horiz-adv-x="203" 
d="M185 828q-17 -16 -20 -25.5t-2 -18.5t2 -19.5t-7 -27.5l-55 -183q-2 0 -6 4t-4 6q0 1 -4.5 0t-9.5 -2.5t-9.5 -1t-4.5 6.5q0 10 0.5 19t0.5 12q-14 2 -23 12t-9 25v5q1 6 6 19.5t11.5 29.5t12 32.5t7.5 28.5l16 108zM144 848v-7l5 -2zM80 805q2 16 4 27zM320 830
q-17 -16 -16 -27t7 -21.5t11 -22.5t-3 -29l-55 -183q-2 0 -6 4t-4 6q0 1 -4.5 0t-9.5 -2.5t-9.5 -1t-4.5 6.5q0 10 0.5 19t0.5 12q-7 1 -6 9.5t3 18t3 16.5t-6 5l-26 -7q-6 -2 -2 10.5t12 30.5t16.5 37.5t10.5 31.5l16 108zM305 841v-7l5 -2zM241 798q2 16 4 27z" />
    <glyph glyph-name="FL2022h" unicode="&#x2022;" horiz-adv-x="295" 
d="M10 338q0 21 11.5 45t32 44t48.5 33t60 13t52.5 -13t32.5 -33t17 -44t5 -45t-16 -40.5t-41 -35t-54.5 -25t-56.5 -9.5q-33 0 -51.5 9.5t-27 25.5t-10.5 35.5t-2 39.5zM162 391q-31 0 -31 -26q0 -27 31 -27q12 0 19.5 6.5t7.5 20.5t-7.5 20t-19.5 6z" />
    <glyph glyph-name="FL2013h" unicode="&#x2013;" 
d="M232 312l-168 -52h-23q0 2 1 5t1 5l11 21v5v6q-1 3 -4 9.5t-6.5 14t-6.5 14t-4 9.5h31q-33 1 -33 26q0 14 22 21.5t51.5 11t59.5 5t47 4.5q4 1 19 3t35.5 5.5t44.5 7t47 6.5t43 6t32 4h5q15 0 25 -9t12 -23q3 0 12 0.5t19 0.5q11 0 20 -0.5t12 -0.5q2 0 6 -4t4 -6z
M85 323v-13q14 0 42 4t57 11t52 17t28 23q-1 0 -4.5 0.5t-6.5 0.5q-21 0 -42 -5.5t-42 -13t-42 -14.5t-42 -10zM348 375q2 5 -5 5q-8 0 -6 -5t6 -5q3 0 5 5z" />
    <glyph glyph-name="FL2014h" unicode="&#x2014;" horiz-adv-x="673" 
d="M339 304l-275 -44h-23q0 2 1 5t1 5l11 21v5v6q-1 3 -4 9.5t-6.5 14t-6.5 14t-4 9.5h31q-33 1 -33 26q0 9 18 15t46.5 9t62.5 4t66 2t57.5 1.5t36.5 2.5q4 1 19 3t35.5 5.5t44.5 7t47 6.5t43 6t32 4h5q15 0 25 -9t12 -23q3 0 12 0.5t19 0.5q11 0 20 -0.5t12 -0.5q2 0 6 -4
t4 -6zM85 323v-13q9 0 33 1t55 3.5t64.5 6t62 9t48.5 12t23 15.5q-1 0 -4.5 0.5t-6.5 0.5q-21 0 -58.5 -4.5t-79 -10t-79 -11.5t-58.5 -9zM455 367q2 5 -5 5q-8 0 -6 -5t6 -5q3 0 5 5z" />
    <glyph glyph-name="FL02DCh" unicode="&#x2dc;" horiz-adv-x="498" 
d="M244 815q-24 -20 -54 -35t-61.5 -20t-60.5 4t-51 38q-2 10 -2 18l1 8q2 2 2 4q0 3 2 5l1 4l1 5q0 15 2 29.5t4 29.5q-1 -11 2 -24q-3 12 -1.5 24.5t3.5 24.5q13 -29 38 -44t54.5 -18t60 4.5t54.5 22.5q20 17 41.5 32.5t44 25.5t46 12.5t47.5 -6.5q3 -2 4 -3
q11 -5 15.5 -17.5t4.5 -25.5q5 -5 10 -9.5t10 -10.5q2 0 -10 1.5t-32 1.5q-19 0 -44 -2.5t-49.5 -11t-46.5 -25t-36 -42.5zM31 842l-1 -11q27 -30 61 -38t69 1t66.5 32t53.5 54l-9 -4l-1 -1q-25 -21 -55.5 -37.5t-62 -23.5t-63 -1t-58.5 29zM350 910l-5 5l-2 -8l1 -1z" />
    <glyph glyph-name="FL2122h" unicode="&#x2122;" horiz-adv-x="859" 
d="M259 754v-25v-9v-11v-26v-5q0 -2 -0.5 -8t-2 -13t-3.5 -13t-4 -6v9q0 7 -0.5 14.5t-0.5 14.5v9v36q0 19 6 37q0 2 5 5v-9zM264 618q1 -2 2.5 -5.5t2.5 -4.5v-3v-2q-1 -2 -2.5 -7.5t-2.5 -7.5v30zM264 578q2 -4 2 -8q0 -5 -2 -7t-2.5 1t-0.5 6q0 9 3 8zM264 548q2 -2 2 -3
q0 -2 -2.5 -2.5t-2.5 2.5t3 3zM264 478q2 -2 2 -3q0 -2 -2.5 -2.5t-2.5 2.5t3 3zM264 463q0 -3 1.5 -9.5t3 -13.5t3 -13.5t2.5 -8.5q0 -2 1.5 -5.5t3.5 -4.5l0.5 -0.5t1.5 -0.5t2 0.5l1 0.5q2 0 5 5q0 9 0.5 28t1 43t1 51t1 51t1 43.5t0.5 28.5v11q0 20 -3 39.5t-3 39.5v5
q0 5 0.5 9.5t0.5 9.5v6l15 5l15 5q9 1 31.5 5.5t48 9.5t48.5 9t32 6q2 0 5 5v2q0 6 -4 7t-8 1q-27 0 -54 -6.5t-54 -8.5h-9h-14h-14h-8q-9 -1 -32 -4t-48.5 -6t-48 -6t-31.5 -4q-8 -3 -33 -7.5t-52.5 -10t-49 -12t-21.5 -13.5q0 -1 5 -5.5t11.5 -9.5t13 -9t8.5 -4q25 0 49 6
t48 13.5t48 14t49 6.5q0 -62 2.5 -122t6.5 -122q0 -4 -1 -15t0.5 -22.5t5.5 -18.5t15 -4zM780 395l10 -30h6q0 21 -5.5 41t-5.5 42v2l10 10v2v3q0 1 -2 8t-3.5 14.5t-3 14t-1.5 8.5v10v10q1 -4 3.5 -12t6.5 -15.5t9 -13.5t12 -6v12q0 3 -0.5 4.5t-2 4t-3.5 11.5t-7.5 32.5
t-11 50t-10.5 50t-6 32.5q-1 0 -4.5 13.5t-7 30.5t-6 32t-2.5 19q0 6 3 10.5t3 11.5q0 3 -1.5 8.5t-3 11.5t-3.5 11t-3 7q-1 1 -7 2t-8 3q-4 3 -5 10t-1.5 13.5t-3.5 11.5t-10 5q-12 0 -16 -7t-9 -18l-30 -70l-20 -55l-10 -25q-3 3 -12 11.5t-18.5 18l-18 18t-11.5 12.5
q-7 9 -12.5 18.5t-11.5 18t-14.5 14t-22.5 5.5l0.5 -2.5t0.5 -3.5l5 -5q3 -5 6.5 -12t7.5 -14.5t6.5 -13l2.5 -5.5v-290q0 -1 1 -7.5t3 -14t5 -13.5t8 -6q2 0 6 0.5t4 5.5v65q2 1 3.5 4.5t1.5 5.5v2q0 45 -5 90t-5 90v6v16v6q10 -7 17 -17.5t13.5 -22t13 -22t16.5 -18.5
l1 -0.5t2 -0.5l2 1l7.5 7.5l7.5 7.5q0 -3 -1 -8t-1 -10t1 -10t6 -7l1 -0.5t2 -0.5l2 1q1 1 7.5 5.5t7.5 4.5q2 0 10 -5t10 -5q2 -1 6 -1.5t5 -0.5q0 7 -3.5 13.5t-7.5 12.5t-7.5 12t-3.5 14q0 1 0.5 4.5t0.5 5.5q1 5 5 18t7.5 27t7 27t5.5 18q1 1 2.5 4.5t2.5 5.5l5 -5
q3 -47 11.5 -96.5t19 -99.5t21 -98t18.5 -91zM775 575v15q5 -13 5.5 -21t0.5 -19q0 -2 -0.5 -7.5t-0.5 -7.5q-4 12 -4.5 20t-0.5 20zM770 600q3 -2 3 -3q0 -2 -2.5 -2.5t-2.5 2.5t2 3zM670 660q4 0 4 -5t-4 -5t-4 5t4 5zM570 685q-2 0 -2 -8q0 -3 0.5 -6t1.5 -1q3 1 3 7
q0 5 -3 8zM615 692v3q5 -2 5.5 -4.5t0.5 -5.5q0 -2 -0.5 -3.5l-0.5 -1.5q-1 1 -2.5 4.5t-2.5 5.5v2zM610 705q4 0 4 -5t-4 -5t-4 5t4 5zM605 710q3 -2 3 -3q0 -2 -2.5 -2.5t-2.5 2.5t2 3zM710 830q3 -2 3 -8t-3 -7q-1 -2 -1.5 1t-0.5 6q0 8 2 8z" />
    <glyph glyph-name="FL0161h" unicode="&#x161;" horiz-adv-x="884" 
d="M165 -43q0 -19 15 -19q1 0 3 0.5l2 0.5l206 152l18 19l324 237q30 24 56 61.5t43 71.5q0 2 0.5 7.5t0.5 7.5q0 15 -5.5 24.5t-22.5 17.5q-32 6 -53.5 8.5t-44.5 2.5h-35q-63 0 -123.5 -1.5t-120.5 -9.5q-38 -6 -74.5 -17t-75.5 -11q-8 0 -15.5 1.5t-7.5 12.5q0 1 0.5 2.5
t0.5 2.5q51 61 112.5 110.5t128.5 92t136 81t135 77.5v30q-25 0 -47.5 -5t-44.5 -12.5t-43.5 -16t-44.5 -15.5l-403 -228q-14 -12 -36 -23t-43 -24.5t-36.5 -29.5t-15.5 -37h50q-8 -11 -23 -19.5l-30 -17t-26.5 -18t-11.5 -22.5q0 -8 18.5 -15.5t46.5 -15t61 -14t63 -11
t52.5 -7.5t28.5 -3q24 0 42.5 3.5t37 7.5t40 7t51.5 1q14 13 32 21t37.5 12t39 5t37.5 1h13q11 0 20.5 -5t9.5 -19q0 -1 -0.5 -3l-0.5 -2q0 -3 -3 -10t-5 -9q-3 -4 -10.5 -12t-16 -17t-16.5 -17l-11 -11q-12 -11 -35 -31.5t-47.5 -41.5t-44.5 -38.5t-25 -21.5
q-6 -5 -32.5 -23t-59.5 -41t-65.5 -45t-50.5 -34q-5 -4 -25.5 -12t-43 -16.5t-40.5 -15.5t-18 -8t0.5 -3l0.5 -2q7 -8 18.5 -10t24.5 -2q14 0 23.5 1.5t14.5 1.5q-5 -11 -7.5 -19.5t-2.5 -19.5zM696 366q8 0 8 -9q0 -10 -8 -10q-7 0 -7 10q0 9 7 9zM736 396q1 0 2.5 -0.5
t2.5 -0.5l-27 -19q2 3 9.5 10t9.5 9l1 0.5t2 0.5zM642 461q11 5 22.5 8.5t22.5 3.5v-42q-3 0 -10 4t-14.5 9.5t-13.5 10t-7 6.5zM724 480h44v-9l-35 -29zM230 509q6 0 6 -10q0 -9 -6 -9q-8 0 -8 9q0 10 8 10zM157 585q-5 -8 -12 -12t-14 -7q5 8 11.5 12t14.5 7zM805 575v-9
h9v9h-9zM197 614q1 0 2.5 -0.5t2.5 -0.5q-1 -2 -4.5 -5t-5.5 -4l-1 -0.5t-2 -0.5t-2 0.5t-2 0.5q1 7 7 9l2 0.5t3 0.5zM243 643q1 0 2 -0.5l1 -0.5l-16 -10q0 2 3 5.5t5 4.5l2 0.5t3 0.5zM389 971l-40 6q-2 26 -10.5 35.5t-21 8t-27 -10t-28.5 -18.5q-23 -13 -28.5 -21
t-7.5 -12t-6 -6t-22 -3q-14 -9 -37 -23t-44 -27.5t-32.5 -24.5t-2.5 -15q20 -7 44 6l-22 -13q3 -1 9.5 -1.5t14.5 -1.5t15.5 -1.5t10.5 -1.5l9 -2l5 -12q2 0 3 -1.5t3 -2.5l18 10l97 85q10 -2 17.5 -4.5t9.5 -2.5q14 -4 34 -14.5t41 -20.5t39.5 -16t29.5 0q18 10 1 20l18 -8
q5 3 14 13.5t12 13.5l9 5l25 6q4 1 12 5l-18 7zM466 905q-35 11 -71 22.5t-66 25.5l-5 2l2 2q16 3 38 -2t43.5 -13.5t40 -17.5t27.5 -14zM165 868q23 16 41 34t39 34q5 -2 11 -3t12 -3q-10 -9 -23 -19t-26 -19t-25 -16.5t-20 -11.5zM348 1000q2 -2 -1 -3q-2 -2 -8.5 -1.5
t1.5 4.5q7 3 8 0z" />
    <glyph glyph-name="FL203Ah" unicode="&#x203a;" horiz-adv-x="366" 
d="M342 410q4 27 -2 35.5t-18.5 10t-29.5 2t-35.5 12t-36.5 40t-31 85.5h-4h-5q-6 -2 -9 -5q-17 5 -26.5 21t-9.5 26h9l17 -28h10v10q-1 2 -10.5 11.5t-23 23.5t-21.5 21q-13 11 -33.5 23.5t-47.5 12.5v-26q-14 -3 -21 -6t-7 -11q0 -2 0.5 -3.5t0.5 -3.5q55 -66 104 -131.5
t96 -133.5v-3v-2q-7 -5 -22.5 -18t-32.5 -27.5t-33 -27.5t-23 -18q-2 -1 -4.5 -4t-3.5 -5v-3v-2l36 14v-5q-23 -17 -44 -35t-21 -40h29q2 1 12 5.5t23.5 11.5t19.5 11q10 6 27 21t34.5 30.5t32 27.5t19.5 12zM153 317l-1 -3q-2 -1 -9 -4t-9 -5v2v3q2 2 9 4.5t9 4.5zM180 348
q7 0 7 -5t-7 -5t-7 5t7 5zM189 353q7 0 7 -5t-7 -5t-7 5t7 5zM216 376q7 0 7 -4q0 -5 -7 -5t-7 5q0 4 7 4zM252 486l9 -6h-9v6zM252 500q0 -2 -3 -4t-5 -2q-4 4 -11.5 11t-15.5 15t-14 16.5t-6 15.5v5q18 -5 26.5 -21t20.5 -27q2 -2 5 -5.5zM180 581q8 -2 8.5 -4.5t0.5 -5.5
v-5q-2 1 -5 5t-4 4v3v3z" />
    <glyph glyph-name="FL0153h" unicode="&#x153;" horiz-adv-x="1013" 
d="M450 72q1 -4 9 -12t12 -9q1 0 13 4l18 6q3 1 11 4.5t16.5 7t16 6.5t9.5 3h52q52 11 99.5 37t93 57.5l91 63t94.5 52.5v25q-43 0 -84 -11.5t-80 -29t-76.5 -38.5t-74.5 -40h-10v231q0 1 4 4.5t6 5.5q3 3 12 9t19 12.5t19.5 12.5t12.5 8q3 1 12.5 6.5t21.5 12.5t23 13.5
t17 9.5q9 4 23.5 8t28 9t23.5 12.5t10 18.5t-9 14t-17 3q-15 0 -24 -2.5t-25 -9.5l-126 -63h-31v220l10 11l242 10h10q5 2 17 5.5t15 5.5q-3 2 -15 5.5t-17 4.5l-28 3.5t-42.5 5t-44.5 4.5t-35 3h171q-3 8 -13.5 20t-17.5 12h-231q-5 15 -12 21t-20 6q-9 0 -17 -4.5
t-16 -10.5t-17.5 -11.5t-22.5 -6.5q-7 -1 -24 -2.5t-37.5 -3t-39.5 -3t-30 -1.5q-13 25 -36 42t-51.5 30.5t-59.5 27t-58 33.5q-21 -11 -34 -32.5t-21 -47t-13.5 -52.5t-11.5 -48q-5 -18 -12 -44.5t-14 -56.5t-14.5 -60.5t-13.5 -55.5t-10.5 -42.5t-5.5 -20.5
q-2 -11 -6 -33.5t-9.5 -51t-11 -60t-10.5 -60t-8.5 -51.5t-4.5 -34q-2 -2 -7.5 -13t-11 -24t-9 -25.5t-2.5 -17.5q1 -2 10 -10t10 -10q5 -20 5 -34q0 -12 1 -22t6.5 -18t16 -12.5t28.5 -4.5q48 0 94.5 19.5t90 47.5t83.5 59.5t75 54.5q9 6 20.5 9t22.5 6t21 8.5t16 16.5h-70
l30 20q-3 8 -8.5 9.5t-11.5 1.5q-2 0 -5.5 -0.5t-4.5 -0.5q-33 -13 -64.5 -28l-63 -30t-64 -27.5t-68.5 -19.5q2 -11 12 -11h16q31 0 67.5 11t64.5 25q0 -1 0.5 -2.5t0.5 -2.5q0 -18 -30 -33.5t-69 -26t-76 -16.5t-52 -6q0 10 -1.5 22.5t-0.5 24t7 20t21 10.5q-4 24 -1.5 46
t7.5 43.5t12 43.5t12 47q2 9 7 38t11.5 68t13 83.5t12.5 83.5t10.5 68.5t5.5 38.5l3.5 17.5t5.5 27t6 27.5t5 18q1 2 4.5 10t5.5 10l10 -10q1 -5 12 -10t27.5 -10t35 -10.5t33.5 -10.5q-3 -3 -3 -9q0 -1 0.5 -2.5t0.5 -2.5q15 -4 32 -6q2 -14 7 -24t22 -10v30q5 -1 11 -1
t11 -1q6 -2 12 -2v1q31 -3 62.5 -7t63.5 -12v-21q0 -11 -1.5 -33t-4 -50t-6 -57.5t-8 -55t-10.5 -44t-12 -22.5q-2 -1 -10.5 -4.5t-10.5 -6.5l-0.5 -1.5t-0.5 -3.5q0 -1 0.5 -3l0.5 -2q1 -1 5.5 -7.5t10 -13.5t10 -13.5t5.5 -7.5v-8q0 -63 -5 -127.5t-16 -127.5
q-1 -2 -4.5 -5.5t-5.5 -4.5q-5 -3 -17 -9t-25.5 -12.5t-25.5 -12.5zM607 387q6 -48 9 -90.5t3 -90.5q0 -6 -0.5 -17t-0.5 -12l-21 -21v37q0 26 0.5 47.5t1.5 43.5t3 46.5t5 56.5zM181 605q0 -23 -6.5 -38.5t-6.5 -36.5h-18q0 4 1 14t2.5 21.5t3.5 21t3 13.5q0 1 4.5 5t5.5 5
q2 3 5 13.5t5 15.5q0 -5 0.5 -17.5t0.5 -16.5zM100 50h70q-18 -14 -39 -19.5t-43 -5.5q0 4 2 14.5t10 10.5zM220 830q8 0 8 -10t-8 -10t-8 10t8 10zM90 220q8 0 8 -10t-8 -10t-8 10t8 10zM370 200q8 0 8 -10t-8 -10t-8 10t8 10zM190 720q8 0 8 -10t-8 -10t-8 10t8 10z
M90 270q5 -5 5 -15t-5 -15q-2 -2 -3.5 3t-1.5 12t1.5 12t3.5 3zM702 786h42v-11zM120 350v20l10 -10zM180 670v20l10 -10zM733 187q-2 -5 -5 -5t-5 5.5t5 5.5q8 0 5 -6zM80 190q5 -2 5 -5q0 -4 -5 -5t-5 5q0 7 5 5zM250 890q-2 -5 -5 -5q-4 0 -5 5t5 5q7 0 5 -5zM150 470
q5 -2 5 -5t-5 -5t-5 5t5 5zM150 490l-10 10h10v-10z" />
    <glyph glyph-name="FL017Eh" unicode="&#x17e;" horiz-adv-x="1387" 
d="M846 778q-8 0 -8 -9q0 -10 8 -10q7 0 7 10q0 9 -7 9zM827 769q0 4 -5 4q-7 0 -5 -4.5t5 -4.5t5 5zM798 721q-8 0 -8 -9q0 -10 8 -10t8 10q0 9 -8 9zM456 731q-4 -9 -19 -13q-8 -2 -21.5 -4t-16.5 -2l-105 -29h-4h-5q1 2 4 5.5t5 4.5q38 16 80 24.5t82 13.5zM779 683
q-2 -1 -5.5 -4t-4.5 -5v-5v-5q2 1 5.5 4.5t4.5 5.5l0.5 1.5t0.5 2.5t-0.5 2.5t-0.5 2.5zM741 645h9v10h-9v-10zM646 655q-2 -1 -5.5 -4.5t-4.5 -5.5q1 0 2.5 -0.5t2.5 -0.5t3 0.5l2 0.5q2 1 5.5 4.5t3.5 5.5h-4h-5zM304 645l-19 -9v9h19zM712 636q-4 0 -4 -5q0 -7 4.5 -5
t4.5 5t-5 5zM693 617q-4 0 -4 -5q0 -7 4.5 -5t4.5 5t-5 5zM655 617q-7 0 -7 -10q0 -9 7 -9q8 0 8 9q0 10 -8 10zM612 637q-1 0 -6.5 -0.5t-7.5 -0.5q-10 -3 -23.5 -10.5t-14.5 -8.5v-14q7 0 16 2.5t17 7t13.5 10.5t5.5 14zM541 588q2 5 -4 5q-7 0 -5 -5t5 -5q4 0 4 5z
M504 588q-8 -2 -20.5 -6t-17.5 -13h4h5q5 2 16 5.5t13 4.5l0.5 1.5t0.5 2.5q0 2 -0.5 3t-0.5 2zM579 560q1 4 -4 4q-7 0 -5 -4.5t5 -4.5q4 0 4 5zM418 550q-8 0 -8 -9q0 -10 8 -10t8 10q0 9 -8 9zM275 474q2 5 -4 5t-5 -5t5 -5t4 5zM522 446q0 -5 -4 -5q-3 0 -5 4.5t5 4.5
q5 0 4 -4zM1244 436q-7 0 -7 -9q0 -10 7 -10q8 0 8 10q0 9 -8 9zM1377 427q-7 0 -7 -10q0 -9 7 -9q8 0 8 9q0 10 -8 10zM1202 418q-1 0 -3 -0.5l-2 -0.5q-2 -1 -5.5 -4t-4.5 -5q1 0 2.5 -0.5t2.5 -0.5t3 0.5l2 0.5q2 1 5.5 4t3.5 5l-1.5 0.5t-2.5 0.5zM1159 408q-8 0 -8 -10
q0 -9 8 -9t8 9q0 10 -8 10zM1111 398q-7 0 -7 -9q0 -10 7 -10q8 0 8 10q0 9 -8 9zM1083 379q-5 2 -5 -5q0 -6 5 -4.5t5 4.5t-5 5zM1139 356q0 -2 0.5 -3.5l0.5 -1.5q1 -2 4 -5.5t5 -4.5h5q20 0 45 7t50.5 18t49 24.5t40.5 26.5q-2 0 -7 0.5t-7 0.5q-5 0 -20.5 -3.5
t-36.5 -9.5t-43.5 -13t-41.5 -14t-31.5 -12.5t-12.5 -9.5zM361 265q-1 2 -3.5 1.5t-4.5 -3t-3 -4.5t1 -3q5 -2 8.5 1t1.5 8zM294 218q-7 0 -7 -10q0 -9 7 -9q8 0 8 9q0 10 -8 10zM238 161l9 9h-9v-9zM209 151q-8 0 -8 -9q0 -10 8 -10t8 10q0 9 -8 9zM180 123q-7 0 -7 -10
q0 -9 7 -9q8 0 8 9q0 10 -8 10zM85 37q-4 1 -4 -6q0 -5 4.5 -3t4.5 4q0 3 -5 5zM133 37q3 -6 -2 -14t-12.5 -16.5t-15 -17.5t-8.5 -18q1 0 2.5 -0.5t2.5 -0.5t3 0.5l2 0.5l4.5 3t9.5 6.5t9 6.5t5 3q108 43 221 86.5t225 74.5l305 76q12 3 26 5t28 4.5t27 7t23 12.5l304 66h9
l57 19q0 1 0.5 2.5t0.5 2.5q0 8 -6 11.5t-13 3.5q-2 0 -5.5 -0.5t-4.5 -0.5l-29 -9q-19 -5 -45.5 -11t-56 -12.5t-58.5 -12.5t-52 -10.5t-38 -7.5t-16 -3h-18v9q4 1 21 3.5t36 8t34 14.5t15 24q-35 0 -67.5 -10t-67.5 -10v8q14 2 30 6.5t27 12.5q-3 0 -12 0.5t-12 0.5
q-48 0 -99.5 -16.5t-94.5 -41.5l-371 -133q-1 2 -4 5.5t-5 4.5h-5h-5l-28 -19q-2 -1 -4.5 0t-3.5 1q0 17 7 26t20 20q9 8 30 25.5t47 39t55 45.5t55.5 45.5t47 38.5t30.5 25q13 8 39.5 17t58.5 17.5t65.5 17.5t60.5 16.5t44.5 14.5t17.5 12q0 2 -4 9.5t-6 9.5h-9h-29h-9
q-29 0 -54 -4.5t-51 -4.5v9q0 1 10 12t23.5 26t28 30.5t24.5 26.5l114 114q-4 31 14 55t42 40v32q-93 0 -189.5 -10t-193 -26.5t-191.5 -37.5t-186 -44h-12q0 10 1.5 20t1.5 19t-2 18t-8 19l-1 0.5t-2 0.5q-8 0 -12.5 -6.5t-7 -15t-3.5 -16t-2 -10.5q-10 -27 -36.5 -42.5
t-54.5 -25t-49.5 -16t-21.5 -16.5q0 -1 0.5 -3l0.5 -2q0 -2 4 -5.5t5 -3.5h105q-4 -12 -12 -21t-17 -17q7 -13 10.5 -16t5.5 -2.5t2.5 1.5t2.5 -2t5.5 -14t11.5 -34q1 -3 4.5 -6.5t5.5 -2.5l37 28l14.5 4.5t38 12t52.5 17t58.5 19t56.5 18.5t46 15q9 3 30 9t48 13.5t56 16
t53.5 17t41 16t18.5 13.5h-9q-38 0 -82 -13.5t-88 -29.5t-86 -29.5t-76 -13.5q-2 0 -5.5 0.5t-4.5 0.5q8 14 25.5 19l31.5 9t44.5 12t68.5 18q39 11 81.5 22.5t81 22t69 18.5t45.5 12q43 29 99 29q3 0 12 -0.5t12 -0.5q-7 -5 -23 -17l-34 -25.5l-34 -25.5t-23 -17
q-6 -5 -17 -12l-11 -7q-2 0 -9.5 4t-9.5 5h-5q-16 0 -16 -19h21q-10 -8 -27 -23.5t-21 -33.5l-181 -190q-2 -2 -12.5 -5.5t-15.5 -3.5q-8 0 -27 -0.5t-40 -0.5q-20 0 -39 0.5t-27 0.5q-5 -4 -11.5 -11t-12 -15.5t-9.5 -16.5t-5 -14q-2 -8 -3 -21l-1 -13h76l3 -5t1 -9
q-2 -2 -8.5 -9.5t-10.5 -9.5l-19 -9q-46 -42 -86 -82t-85 -80q-20 -19 -39.5 -34.5t-38.5 -30.5t-37.5 -31t-36.5 -37zM9 -39q3 -8 8.5 -9t11.5 -1q7 0 17 4t19.5 10.5t16.5 14t7 15.5q-19 0 -28 -4t-15.5 -9t-14 -11t-22.5 -10zM647 1012l-40 6q-2 26 -10.5 35.5t-21 8
t-27 -10t-28.5 -18.5q-23 -13 -28.5 -21t-7.5 -12t-6 -6t-22 -3q-14 -9 -37 -23t-44 -27.5t-32.5 -24.5t-2.5 -15q20 -7 44 6l-22 -13q3 -1 9.5 -1.5t14.5 -1.5t15.5 -1.5t10.5 -1.5l9 -2l5 -12q2 0 3 -1.5t3 -2.5l18 10l97 85q10 -2 17.5 -4.5t9.5 -2.5q14 -4 34 -14.5
t41 -20.5t39.5 -16t29.5 0q18 10 1 20l18 -8q5 3 14 13.5t12 13.5l9 5l25 6q4 1 12 5l-18 7zM724 946q-35 11 -71 22.5t-66 25.5l-5 2l2 2q16 3 38 -2t43.5 -13.5t40 -17.5t27.5 -14zM423 909q23 16 41 34t39 34q5 -2 11 -3t12 -3q-10 -9 -23 -19t-26 -19t-25 -16.5
t-20 -11.5zM606 1041q2 -2 -1 -3q-2 -2 -8.5 -1.5t1.5 4.5q7 3 8 0z" />
    <glyph glyph-name="FL0178h" unicode="&#x178;" horiz-adv-x="541" 
d="M451 970q-7 0 -7 -9t7 -9q8 0 8 9t-8 9zM494 907q0 -6 1.5 -15t9.5 -12v27h-11zM135 691q-7 0 -7 -10q0 -8 7 -8t7 8q0 10 -7 10zM253 609v9h-10zM496 546v117l-9 -99zM261 591q1 -3 5 -9.5t8.5 -13t8.5 -13t6 -9.5q7 -11 19 -27.5t23.5 -32.5t20.5 -27.5l9 -11.5l18 -9
v5v4q-1 2 -4 9t-5 9q-5 6 -18 22.5t-27 34.5t-27 35t-19 25l-18 18v-4v-5zM389 438q-8 0 -8 -10q0 -8 8 -8q6 0 6 8q0 10 -6 10zM307 438q-5 2 -5 -5q0 -6 5 -4.5t5 4.5t-5 5zM351 -29q0 38 4.5 76.5t9.5 76.5t9.5 76t4.5 75q0 2 -3.5 9t-5.5 10q-3 4 -12.5 14.5t-21 23.5
t-22.5 24.5t-17 17.5q-43 48 -79.5 93.5t-73.5 96.5q-19 26 -34.5 52t-32 51.5t-35 49.5t-42.5 46q0 1 -0.5 3.5t-0.5 4.5q0 19 14 19t29.5 -12.5t30 -29t26.5 -33t19 -24.5h8q-11 23 -25.5 41.5t-28.5 38.5q-6 9 -13.5 21t-14 23.5t-11.5 19.5t-5 9v21q2 0 4 -1l4 -2
q1 -2 6.5 -6t12 -8.5t11.5 -8t6 -4.5q2 -2 12.5 -4t16.5 -4q3 0 5 -0.5l2 -0.5q2 -1 9 -8t9 -11q3 -4 14.5 -21t25.5 -37t26.5 -37.5t15.5 -20.5q43 -56 88 -104t83 -104l4.5 -9t5.5 -9l1 -0.5t2 -0.5t2.5 0.5t2.5 0.5q1 4 3 15.5t3.5 24.5t2.5 24.5t1 16.5v97v69v70v98
l18 81q6 4 8.5 11.5t4.5 15t5.5 13.5t12.5 6q1 0 3 -0.5l2 -0.5q6 -2 8 -8q2 -4 5.5 -13.5t8 -19.5t8 -19t5.5 -12h18l9 -36v-15q0 -14 0.5 -30.5t0.5 -33.5v-28q0 -81 -0.5 -158.5t-9.5 -158.5q-7 -60 -17 -119.5t-17.5 -119t-11.5 -119.5t1 -121q-8 5 -11.5 12.5
t-6.5 15.5q0 -5 -1.5 -22.5t-6 -37t-12.5 -34.5t-21 -15h-3q-1 2 -3 10t-3.5 17t-2.5 17t-1 11v3v5l18 226v27v27l-8 -18q-1 -1 -3 -14.5t-5 -35t-6 -48t-6 -53.5t-5 -51.5t-3 -41.5q0 -4 -0.5 -17t-1.5 -27.5t-1.5 -27t-0.5 -16.5q-15 0 -19.5 15.5t-4.5 31.5v17zM252 1039
q0 9 4 19.5t11.5 19.5t17.5 14.5t22 5.5t19.5 -5.5t12 -14.5t6 -19.5t1.5 -19.5t-6 -17.5t-15 -15.5t-19.5 -11t-20.5 -4q-24 0 -28.5 15.5t-4.5 32.5zM307 1062q-11 0 -11 -11q0 -12 11 -12q10 0 10 12q0 11 -10 11zM52 1038q0 9 4 19.5t11.5 19.5t17.5 14.5t22 5.5
t19.5 -5.5t12 -14.5t6 -19.5t1.5 -19.5t-6 -17.5t-15 -15.5t-19.5 -11t-20.5 -4q-24 0 -28.5 15.5t-4.5 32.5zM107 1061q-11 0 -11 -11q0 -12 11 -12q10 0 10 12q0 11 -10 11z" />
    <glyph glyph-name="FL00A0h" unicode="&#xa0;" horiz-adv-x="500" 
 />
    <glyph glyph-name="FL00A1h" unicode="&#xa1;" horiz-adv-x="206" 
d="M94 630q-8 0 -8 -9q0 -8 8 -8q7 0 7 8q0 9 -7 9zM94 391v57t-1 53.5t-3 53.5t-6 58q-4 -62 -7.5 -125t-3.5 -127v-9q0 -6 0.5 -11.5t0.5 -10.5v-4l10 -8l10 8v8v40v17zM74 293q-7 0 -7 -8t7 -8q8 0 8 8t-8 8v0zM17 244h19q-6 10 -19 10v-10zM74 236h20q-7 10 -20 10v-10z
M142 228q0 -1 -0.5 -2.5l-0.5 -1.5q0 -1 0.5 -3l0.5 -2q1 -2 4 -4.5t5 -3.5l2 -0.5t3 -0.5t2.5 0.5t2.5 0.5zM132 -2q-12 24 -17.5 48.5t-8.5 49t-5.5 49.5t-6.5 50q-5 11 -10.5 8.5t-14.5 -2.5v-178l-14 -9q-2 5 -5.5 16.5t-4.5 16.5q-1 8 -2.5 30.5t-3 47.5t-2.5 47t-1 31
q-18 25 -24 39.5t-5 23t6 13t10 11t7 16t-4 28.5q1 0 5 10t5 15q7 37 10 79t4 85t1.5 85t3.5 79q1 2 4.5 4.5t5.5 3.5q5 2 14.5 2.5l9.5 0.5v-60l24 8q5 -17 13 -37t16 -37v-320q15 -5 27.5 -12t12.5 -21t-14 -24t-26 -17v-172zM135 851q0 -9 -4 -19.5t-11.5 -19.5
t-17.5 -14.5t-22 -5.5t-19.5 5.5t-12 14.5t-6 19.5t-1.5 19.5t6 17.5t15 15.5t19.5 11t20.5 4q24 0 28.5 -15.5t4.5 -32.5zM80 828q11 0 11 11q0 12 -11 12q-10 0 -10 -12q0 -11 10 -11z" />
    <glyph glyph-name="FL00A2h" unicode="&#xa2;" horiz-adv-x="520" 
d="M244 662q2 2 -5 2q-5 0 -4.5 -2.5t4.5 -2.5q3 0 5 3zM215 630q-8 0 -8 -6q0 -5 8 -5t8 5q0 6 -8 6zM186 572q-8 0 -8 -6q0 -5 8 -5t8 5q0 6 -8 6zM176 545l10 6l-10 5v-11zM176 529l-4 -8t-5 -7q-1 -1 -5.5 -3t-4.5 -3q-2 -4 -6 -18t-4 -19h18q0 11 6 19t6 21q0 2 -0.5 9
t-0.5 9zM147 450v5h-10zM147 439q-5 2 -5 -3q0 -3 5 -2.5t5 2.5q0 1 -5 3zM117 375l10 6l-10 5v-11zM88 333q-2 2 -3.5 -1t-1.5 -6q0 -5 1.5 -7.5t3.5 -0.5q5 2 5 8q0 4 -5 7zM88 307q-8 0 -8 -5q0 -6 8 -6t8 6q0 5 -8 5zM362 296q-8 0 -8 -5t8 -5q7 0 7 5t-7 5zM78 291
q-5 2 -5 -3q0 -3 5 -2.5t5 2.5q0 1 -5 3zM98 216q-8 0 -10 -5.5t-2 -7.5q21 0 42 2.5t39 10.5h-69zM10 248q-1 3 2.5 9.5t9 13.5t11 13t7.5 7q1 9 7.5 31t14.5 46.5t15.5 46t10.5 29.5q2 3 10 21.5t18.5 42t21.5 47.5t19 38q6 11 11 25.5t13 28t20.5 24.5t32.5 17
q28 -11 57.5 -18t56.5 -14.5t49 -17t34 -24.5q6 -6 10.5 -9t7 -4.5t4 -4.5t1.5 -9q-12 0 -16.5 2.5t-16.5 2.5v-19q-18 0 -22.5 6t-7.5 14q-2 4 -21.5 8t-42.5 8t-42.5 8t-20.5 7l-10 6l-5.5 -5.5t-4.5 -5.5q-2 -3 -4.5 -9.5t-5.5 -14t-5.5 -14t-3.5 -9.5q-2 -8 -10 -37.5
t-18 -64t-18.5 -64t-11.5 -36.5q-5 -13 -12 -25t-12 -23t-7.5 -22.5t1.5 -24.5q-15 -1 -20.5 -5.5t-7 -10.5t0 -13t1.5 -12q10 0 30 1.5t45 4t51 6.5t47.5 9t35 10.5t13.5 12.5l-1 2q-26 -8 -60 -17t-64 -9h-15q-11 0 -12 6q35 4 66 11.5t61 17t59.5 18.5t62.5 16h10
q6 0 11.5 -0.5t8.5 -4.5l-30 -11h68q-6 -6 -15.5 -8.5t-20 -4.5t-21.5 -3.5t-20 -4.5q-35 -13 -74 -29.5t-81.5 -31.5t-88 -25t-92.5 -10q-35 0 -42.5 8.5t-7.5 21.5q0 5 -1.5 9t-3.5 9q-1 1 -10 5t-10 5zM249 367v12q0 8 -0.5 15t-0.5 14v6zM248 457q7 0 7 11t-7 11
q-8 0 -8 -11t8 -11v0zM305 522h-19q6 -13 19 -13v13zM248 533q-12 -6 -9.5 -9.5t9.5 -3.5v13zM253 580v236l14 12q2 -6 5.5 -22t4.5 -22q1 -11 2.5 -40.5t3 -62.5t2.5 -63t1 -41q18 -34 24 -53t5 -30t-6 -17.5t-10 -14.5t-7 -21.5t4 -37.5q-1 0 -5 -13t-5 -20
q-8 -50 -10.5 -105.5t-3.5 -112.5t-1.5 -113t-3.5 -105q-1 -2 -4.5 -5.5t-5.5 -4.5q-5 -3 -14.5 -3.5l-9.5 -0.5z" />
    <glyph glyph-name="FL00A3h" unicode="&#xa3;" horiz-adv-x="630" 
d="M84 63l16 8t25.5 12.5t25.5 12.5t17 9q2 1 5.5 4.5t4.5 5.5q11 63 16 127.5t5 127.5v8q-1 1 -5.5 7.5t-10 13.5t-10 13.5t-5.5 7.5l-0.5 2t-0.5 3q0 2 0.5 3.5l0.5 1.5q2 3 10.5 6.5t10.5 4.5q6 4 12 22.5t10.5 44t8 55t6 57.5t4 50.5t1.5 32.5v21q1 6 -3 17t-8 24
t-5.5 26.5t4 24.5t20.5 18t44 7l21 -106l-10 -11v-220h31l126 63q16 7 25 9.5t24 2.5q8 0 17 -3t9 -14t-10 -18.5t-23.5 -12.5t-28 -9t-23.5 -8q-6 -3 -17 -9.5t-23 -13.5t-21.5 -12.5t-12.5 -6.5q-3 -2 -12.5 -8t-19.5 -12.5t-19 -12.5t-12 -9q-2 -2 -6 -5.5t-4 -4.5v-231
h10q37 19 74.5 40t76.5 38.5t80 29t84 11.5v-25q-49 -21 -94.5 -52.5l-91 -63t-93 -57.5t-99.5 -37h-10h-16h-17h-9q-2 0 -9.5 -3t-16 -6.5t-16.5 -7t-11 -4.5l-18 -6t-13 -4q-4 1 -12 9t-9 12zM241 378q-3 -32 -5 -56.5t-3 -46.5t-1.5 -43.5t-0.5 -47.5v-37l21 21
q0 1 0.5 12t0.5 17q0 48 -3 90.5t-9 90.5zM367 178q3 6 -5 6q-7 0 -5 -5.5t5 -5.5t5 5z" />
    </font>
</defs>
</svg>
