<?xml version="1.0" standalone="no"?>
<!DOCTYPE svg PUBLIC "-//W3C//DTD SVG 1.1//EN" "http://www.w3.org/Graphics/SVG/1.1/DTD/svg11.dtd" >
<svg xmlns="http://www.w3.org/2000/svg" xmlns:xlink="http://www.w3.org/1999/xlink" version="1.1">
<metadata>
Created by FontForge 20190801 at Sun Nov 18 08:39:07 2012
 By Jimmy Wärting
</metadata>
<defs>
<font id="Penakut" horiz-adv-x="368" >
  <font-face 
    font-family="Penakut"
    font-weight="400"
    font-stretch="normal"
    units-per-em="1000"
    panose-1="2 0 5 6 0 0 0 2 0 4"
    ascent="800"
    descent="-200"
    x-height="860"
    cap-height="870"
    bbox="-36 -204 914 963"
    underline-thickness="50"
    underline-position="-100"
    unicode-range="U+0020-007A"
  />
<missing-glyph horiz-adv-x="300" 
 />
    <glyph glyph-name=".notdef" horiz-adv-x="300" 
 />
    <glyph glyph-name="space" unicode=" " horiz-adv-x="300" 
 />
    <glyph glyph-name="A" unicode="A" horiz-adv-x="404" 
d="M37 61q-9 -9 -12.5 -2t-3.5 23.5t2.5 39t5.5 43t5.5 35.5t2.5 18q3 20 3 29t7 15q2 17 4.5 34.5t4.5 35.5q-3 -9 -4 -7t-0.5 9t2.5 18t4 20q-14 -2 -20 -6q-4 1 -6 5.5t-3.5 10.5t-2 11.5t-0.5 8.5q0 1 -1 3t-2 2q-5 5 -6 8q9 2 21 3.5t22 2.5q2 0 3.5 0.5t3.5 0.5
q0 4 2 10q-2 2 0 2q4 20 8 38.5t8 37.5q2 5 2.5 10.5t2.5 10.5q3 12 6.5 24.5t6.5 24.5q0 6 0.5 11.5t1.5 11.5q-2 2 -4.5 1.5t-0.5 11.5q11 38 28.5 83t32.5 82q3 8 10 29t14.5 44.5t13 44.5t4.5 29q6 11 18.5 7.5t21.5 -5.5q4 0 5 1h6q0 4 2 8q7 -29 11.5 -61.5t9.5 -62.5
q2 -8 2.5 -14.5t2.5 -14.5q2 -3 3.5 -6.5t3.5 -7.5q1 4 1 8t1 8q2 7 4.5 -9.5t5 -41t4 -49t1.5 -33.5q1 -16 2 -28.5t2.5 -23.5t3.5 -23t5 -27t5 -17.5t3 -2.5t2 -2t3 -14q3 -30 2.5 -49.5t-0.5 -37.5t1.5 -40t9.5 -56q2 -8 3 -6.5t2 3.5t2 0t3 -17q4 -42 6.5 -85t4.5 -85
q2 -21 5.5 -46t4.5 -43q0 -10 -0.5 -14t-2 -6t-4.5 -3.5t-8 -7.5q-1 -1 -4 -2q-4 4 -6 15t-3 16q-1 1 -1.5 2t-2.5 2q-6 -11 -11.5 -5.5t-10.5 21.5t-9 37.5t-7 41.5t-5.5 35.5t-2.5 18.5q-4 19 -6.5 27.5t2.5 16.5l-6 34l-6 34q-1 -11 -2.5 -7t-3 14t-2.5 23t-2 21
q-2 0 -4.5 -0.5t-4.5 -0.5q-14 -2 -13 -2t-1 5q-6 -1 -11.5 -1.5t-11.5 -0.5q3 -3 1 -4t-6 -1h-8.5h-5.5q-10 1 -24 5.5t-24 6.5t-17 2q-2 -2 -6 -4q0 -2 0.5 -5t-3.5 -3h-3.5t-5.5 1q-1 -15 -3 -38q0 -8 1.5 -6.5l3 3t1.5 -1t-3 -17.5q-8 -42 -18.5 -85t-21.5 -85
q-5 -20 -9 -45t-9 -42q-3 -10 -4.5 -13.5t-3.5 -5t-5 -2t-10 -4.5q-1 -1 -4 -1q-3 5 -2 16t2 16q-1 1 -1 2t-1 3zM137 430q4 0 13 3q5 1 6 2.5t1 3v2.5t5 1q11 0 17 -3t11.5 -6t13 -4t21.5 4q3 1 2.5 2t-1 2.5t0.5 2t6 0.5q8 -1 16.5 -3t17.5 -4q-1 23 -1 45t-1 45
q-1 11 -1.5 23.5t-2.5 24.5q-2 5 -3 9.5t-3 9.5q-3 1 -5 -0.5t-4 8.5q-4 29 -4 64.5t-2 65.5q-2 12 -4 30.5t-5 38.5q-5 -16 -12.5 -36.5t-14.5 -40t-13 -36t-9 -24.5q-12 -35 -19.5 -59t-12.5 -59q-2 -13 -1 -16t2.5 -3t2.5 -1.5t0 -11.5q0 -4 -1 -6q-3 -24 -7 -41t-9 -33z
M229 812l-1 5v-6z" />
    <glyph glyph-name="a" unicode="a" horiz-adv-x="404" 
d="M40 61q-9 -9 -12.5 -2t-3.5 23.5t2.5 39t5.5 43t5.5 35.5t2.5 18q3 20 3 29t7 15q2 17 4.5 34.5t4.5 35.5q-3 -9 -4 -7t-0.5 9t2.5 18t4 20q-14 -2 -20 -6q-4 1 -6 5.5t-3.5 10.5t-2 11.5t-0.5 8.5q0 1 -1 3t-2 2q-5 5 -6 8q9 2 21 3.5t22 2.5q2 0 3.5 0.5t3.5 0.5
q0 4 2 10q-2 2 0 2q4 20 8 38.5t8 37.5q2 5 2.5 10.5t2.5 10.5q3 12 6.5 24.5t6.5 24.5q0 6 0.5 11.5t1.5 11.5q-2 2 -4.5 1.5t-0.5 11.5q11 38 28.5 83t32.5 82q3 8 10 29t14.5 44.5t13 44.5t4.5 29q6 11 18.5 7.5t21.5 -5.5q4 0 5 1h6q0 4 2 8q7 -29 11.5 -61.5t9.5 -62.5
q2 -8 2.5 -14.5t2.5 -14.5q2 -3 3.5 -6.5t3.5 -7.5q1 4 1 8t1 8q2 7 4.5 -9.5t5 -41t4 -49t1.5 -33.5q1 -16 2 -28.5t2.5 -23.5t3.5 -23t5 -27t5 -17.5t3 -2.5t2 -2t3 -14q3 -30 2.5 -49.5t-0.5 -37.5t1.5 -40t9.5 -56q2 -8 3 -6.5t2 3.5t2 0t3 -17q4 -42 6.5 -85t4.5 -85
q2 -21 5.5 -46t4.5 -43q0 -10 -0.5 -14t-2 -6t-4.5 -3.5t-8 -7.5q-1 -1 -4 -2q-4 4 -6 15t-3 16q-1 1 -1.5 2t-2.5 2q-6 -11 -11.5 -5.5t-10.5 21.5t-9 37.5t-7 41.5t-5.5 35.5t-2.5 18.5q-4 19 -6.5 27.5t2.5 16.5l-6 34l-6 34q-1 -11 -2.5 -7t-3 14t-2.5 23t-2 21
q-2 0 -4.5 -0.5t-4.5 -0.5q-14 -2 -13 -2t-1 5q-6 -1 -11.5 -1.5t-11.5 -0.5q3 -3 1 -4t-6 -1h-8.5h-5.5q-10 1 -24 5.5t-24 6.5t-17 2q-2 -2 -6 -4q0 -2 0.5 -5t-3.5 -3h-3.5t-5.5 1q-1 -15 -3 -38q0 -8 1.5 -6.5l3 3t1.5 -1t-3 -17.5q-8 -42 -18.5 -85t-21.5 -85
q-5 -20 -9 -45t-9 -42q-3 -10 -4.5 -13.5t-3.5 -5t-5 -2t-10 -4.5q-1 -1 -4 -1q-3 5 -2 16t2 16q-1 1 -1 2t-1 3zM140 430q4 0 13 3q5 1 6 2.5t1 3v2.5t5 1q11 0 17 -3t11.5 -6t13 -4t21.5 4q3 1 2.5 2t-1 2.5t0.5 2t6 0.5q8 -1 16.5 -3t17.5 -4q-1 23 -1 45t-1 45
q-1 11 -1.5 23.5t-2.5 24.5q-2 5 -3 9.5t-3 9.5q-3 1 -5 -0.5t-4 8.5q-4 29 -4 64.5t-2 65.5q-2 12 -4 30.5t-5 38.5q-5 -16 -12.5 -36.5t-14.5 -40t-13 -36t-9 -24.5q-12 -35 -19.5 -59t-12.5 -59q-2 -13 -1 -16t2.5 -3t2.5 -1.5t0 -11.5q0 -4 -1 -6q-3 -24 -7 -41t-9 -33z
M232 812l-1 5v-6z" />
    <glyph glyph-name="B" unicode="B" horiz-adv-x="392" 
d="M128 514q0 -16 -3 -32q-11 -29 -10 -53t5 -56q1 -9 2.5 -7.5t2.5 3.5t1.5 -0.5t0.5 -19.5q0 -26 -1 -51t-2 -51q-2 -23 -3.5 -46.5t-3.5 -46.5q-1 -11 -2 -21.5t-2 -21.5v-15t-1 -16q10 0 19.5 0.5t19.5 1.5q6 1 11.5 1t11.5 1q6 4 11 7l-12 3q-5 1 -1.5 2t9.5 2
q7 1 17 1q12 2 23.5 3.5t22.5 5.5q13 4 22 13l1 1q6 6 9 13t6 15q3 12 3 23.5v24.5v6q-1 9 -2.5 10t-2.5 1t-2 1.5t-1 11.5q1 27 3.5 44.5t4.5 34t3 37t-1 52.5q0 6 -3 14q-2 5 -3 4t-1.5 -2.5t-1.5 -0.5t-4 10q-4 12 -13 24q-11 14 -23.5 23.5t-28.5 18.5q-10 5 -20 9
t-21 8q-14 5 -23 6.5t-17 3.5zM65 77q-2 9 -2.5 21.5t-0.5 16.5q-2 28 -2.5 56t-2.5 56v20q-1 14 -1.5 20t-0.5 7.5t1 1.5t3 3l-3 84q-3 -13 -4 -7t-1 19.5v28.5v20q0 14 1.5 29.5t3.5 29.5q4 37 6 76q1 12 2 25t0 25q-2 5 -2.5 9t-2.5 9q-4 1 -5.5 0t-2.5 8
q-2 26 -0.5 56.5t0.5 57.5q-2 13 -4 32t-5 38.5t-6.5 37.5t-7.5 30q-1 13 2.5 20.5t11.5 12.5q2 2 3 4q1 1 2 1t2 1h2l-9 -6q1 1 1.5 2t1.5 2t2 1q1 1 2 1q1 1 1.5 1t1.5 1q2 1 8 3q1 2 2 5t1 5q1 5 2.5 11t2.5 11q2 -7 2.5 -13.5t2.5 -13.5l15 3q30 6 59 3q7 -1 13 -1.5
t13 -2.5h4q2 0 4 1q2 0 3 0.5t2 0.5q-2 2 -3.5 2.5t-3.5 2.5q-1 0 -2 1t-2 1q-5 3 -0.5 2.5t5.5 -0.5q30 -7 52 -26.5t39 -44.5q0 -2 1 -3t2 -3q6 -13 14 -31t13 -32q5 -12 7 -13.5t3.5 -1t2.5 -1t3 -12.5q2 -13 3 -22.5t0 -18.5t-2.5 -19t-3.5 -22l-4 -28l-4 -28
q-2 -8 -3.5 -15.5t-5.5 -15.5q-3 -6 -1 -6t4 0.5t1 -1.5t-9 -12q-1 0 -1 -0.5t-1 -0.5q-14 -14 -32 -24.5t-37 -20.5q5 -2 8 -2.5t5 -1.5q7 -2 13 -4.5t12 -6.5q17 -9 27.5 -14.5t12.5 -16.5q2 -1 7.5 -6t5.5 -6q13 -14 20.5 -27t12.5 -31q-1 13 0 11t3 -11t4 -20t2 -15v-39
q0 -35 -3 -71t-8 -71q0 -5 -2 -13q-1 -9 -1.5 -17.5t-1.5 -17.5v-10t1 -10q2 -2 4.5 -1t0.5 -9v-2q-4 -16 -10.5 -28.5t-16.5 -24.5q-11 -12 -22.5 -19t-26.5 -12q-11 -4 -21 -5.5t-21 -3.5l-10 -2l-10 -2q-26 -3 -60.5 -4.5t-57.5 -7.5q-20 1 -27 10t-12 26q-2 1 -6 2.5
t-6 2.5q-5 2 -11 3.5t-11 3.5q13 1 25 1.5t25 1.5zM78 905l6 -38t5 -38q2 -7 2.5 -13.5t2.5 -12.5l3.5 -7t3.5 -6q1 4 1 7.5t1 6.5q3 8 5 -7t3.5 -37.5t2 -45t0.5 -29.5q1 -30 1.5 -50t3.5 -50q1 -3 1 -6t1 -5h2q8 2 19.5 4t18.5 7q8 5 15 10t15 10q9 6 13 10t6.5 5.5t4 1.5
t4.5 -1q3 2 10.5 9t8.5 10l2 3q-6 -3 -3 3t6 14q0 2 0.5 3.5t0.5 3.5t1 6.5t2 10t1.5 10t0.5 5.5q2 20 2.5 40t-1.5 40q-1 8 -2 15.5t-4 14.5q-2 2 -3.5 4.5t-3.5 4.5q-3 0 -5 -2t-4 3q-2 3 -4.5 10.5t-3.5 8.5q-7 13 -14 22.5t-18 19.5q-4 2 -13 6t-13 4q-13 3 -31 4.5
t-30 -6.5q-2 0 -3.5 0.5t-2.5 0.5q-6 2 -10 6.5t-7 9.5z" />
    <glyph glyph-name="b" unicode="b" 
d="M124 514q0 -16 -3 -32q-11 -29 -10 -53t5 -56q1 -9 2.5 -7.5t2.5 3.5t1.5 -0.5t0.5 -19.5q0 -26 -1 -51t-2 -51q-2 -23 -3.5 -46.5t-3.5 -46.5q-1 -11 -2 -21.5t-2 -21.5v-15t-1 -16q10 0 19.5 0.5t19.5 1.5q6 1 11.5 1t11.5 1q6 4 11 7l-12 3q-5 1 -1.5 2t9.5 2
q7 1 17 1q12 2 23.5 3.5t22.5 5.5q13 4 22 13l1 1q6 6 9 13t6 15q3 12 3 23.5v24.5v6q-1 9 -2.5 10t-2.5 1t-2 1.5t-1 11.5q1 27 3.5 44.5t4.5 34t3 37t-1 52.5q0 6 -3 14q-2 5 -3 4t-1.5 -2.5t-1.5 -0.5t-4 10q-4 12 -13 24q-11 14 -23.5 23.5t-28.5 18.5q-10 5 -20 9
t-21 8q-14 5 -23 6.5t-17 3.5zM61 77q-2 9 -2.5 21.5t-0.5 16.5q-2 28 -2.5 56t-2.5 56v20q-1 14 -1.5 20t-0.5 7.5t1 1.5t3 3l-3 84q-3 -13 -4 -7t-1 19.5v28.5v20q0 14 1.5 29.5t3.5 29.5q4 37 6 76q1 12 2 25t0 25q-2 5 -2.5 9t-2.5 9q-4 1 -5.5 0t-2.5 8
q-2 26 -0.5 56.5t0.5 57.5q-2 13 -4 32t-5 38.5t-6.5 37.5t-7.5 30q-1 13 2.5 20.5t11.5 12.5q2 2 3 4q1 1 2 1t2 1h2l-9 -6q1 1 1.5 2t1.5 2t2 1q1 1 2 1q1 1 1.5 1t1.5 1q2 1 8 3q1 2 2 5t1 5q1 5 2.5 11t2.5 11q2 -7 2.5 -13.5t2.5 -13.5l15 3q30 6 59 3q7 -1 13 -1.5
t13 -2.5h4q2 0 4 1q2 0 3 0.5t2 0.5q-2 2 -3.5 2.5t-3.5 2.5q-1 0 -2 1t-2 1q-5 3 -0.5 2.5t5.5 -0.5q30 -7 52 -26.5t39 -44.5q0 -2 1 -3t2 -3q6 -13 14 -31t13 -32q5 -12 7 -13.5t3.5 -1t2.5 -1t3 -12.5q2 -13 3 -22.5t0 -18.5t-2.5 -19t-3.5 -22l-4 -28l-4 -28
q-2 -8 -3.5 -15.5t-5.5 -15.5q-3 -6 -1 -6t4 0.5t1 -1.5t-9 -12q-1 0 -1 -0.5t-1 -0.5q-14 -14 -32 -24.5t-37 -20.5q5 -2 8 -2.5t5 -1.5q7 -2 13 -4.5t12 -6.5q17 -9 27.5 -14.5t12.5 -16.5q2 -1 7.5 -6t5.5 -6q13 -14 20.5 -27t12.5 -31q-1 13 0 11t3 -11t4 -20t2 -15v-39
q0 -35 -3 -71t-8 -71q0 -5 -2 -13q-1 -9 -1.5 -17.5t-1.5 -17.5v-10t1 -10q2 -2 4.5 -1t0.5 -9v-2q-4 -16 -10.5 -28.5t-16.5 -24.5q-11 -12 -22.5 -19t-26.5 -12q-11 -4 -21 -5.5t-21 -3.5l-10 -2l-10 -2q-26 -3 -60.5 -4.5t-57.5 -7.5q-20 1 -27 10t-12 26q-2 1 -6 2.5
t-6 2.5q-5 2 -11 3.5t-11 3.5q13 1 25 1.5t25 1.5zM74 905l6 -38t5 -38q2 -7 2.5 -13.5t2.5 -12.5l3.5 -7t3.5 -6q1 4 1 7.5t1 6.5q3 8 5 -7t3.5 -37.5t2 -45t0.5 -29.5q1 -30 1.5 -50t3.5 -50q1 -3 1 -6t1 -5h2q8 2 19.5 4t18.5 7q8 5 15 10t15 10q9 6 13 10t6.5 5.5t4 1.5
t4.5 -1q3 2 10.5 9t8.5 10l2 3q-6 -3 -3 3t6 14q0 2 0.5 3.5t0.5 3.5t1 6.5t2 10t1.5 10t0.5 5.5q2 20 2.5 40t-1.5 40q-1 8 -2 15.5t-4 14.5q-2 2 -3.5 4.5t-3.5 4.5q-3 0 -5 -2t-4 3q-2 3 -4.5 10.5t-3.5 8.5q-7 13 -14 22.5t-18 19.5q-4 2 -13 6t-13 4q-13 3 -31 4.5
t-30 -6.5q-2 0 -3.5 0.5t-2.5 0.5q-6 2 -10 6.5t-7 9.5z" />
    <glyph glyph-name="C" unicode="C" horiz-adv-x="339" 
d="M332 12q16 -11 7.5 -13.5t-29.5 2t-50 15.5t-53 28q-17 13 -29.5 25.5t-26.5 28.5q-13 17 -22.5 29t-9.5 23q-13 22 -23 41q-5 11 -10 22.5t-10 23.5q2 -12 1 -12t-4 8t-7.5 21t-8.5 25.5t-7 22.5t-3 12q-11 45 -14.5 95.5t-2.5 97.5q1 10 1 19.5t1 19.5v15q-1 6 -1 11.5
t-1 11.5q-2 2 -5 1t-1 11q5 42 21.5 88.5t34.5 83.5q1 2 3 7t4.5 11t5 10.5t3.5 5.5q17 33 36 57.5t49 47.5q17 11 38 21q7 2 12.5 2.5t12.5 -1.5q13 -4 18 -12.5t7 -20.5q2 -2 5 -4t5 -3q5 -2 10 -6.5t9 -7.5q-14 5 -25 6.5t-25 -0.5q-12 -2 -21 -5.5t-20 -10.5
q-9 -6 -15.5 -12.5l-14.5 -14.5l-10 -14l-10 -14q-2 -5 -2.5 -9.5t-2.5 -9.5q3 4 6 7.5t7 6.5t2.5 -1t-5.5 -10.5l-8 -13l-4 -6.5q-17 -32 -28.5 -62.5t-21.5 -65.5q-8 -28 -12 -50t-2 -51q0 -7 1 -10q1 -15 2.5 -18.5t3 -4t2.5 -3t2 -15.5q3 -39 2.5 -64t1.5 -48t8.5 -48.5
t23.5 -64.5q4 -9 4.5 -7t0.5 4.5t2 0t8 -19.5q3 -7 5.5 -13.5t5.5 -13.5q17 -40 35 -70t50 -61q2 -3 5 -5l6 -4q17 -13 27 -19t18.5 -9t18 -5.5t26.5 -6.5q13 -3 17.5 -4.5t6 -3t2.5 -4t9 -9.5q1 -1 1 -4q-6 -5 -20 -4t-22 2q-3 0 -7 -2v1z" />
    <glyph glyph-name="c" unicode="c" horiz-adv-x="339" 
d="M332 12q16 -11 7.5 -13.5t-29.5 2t-50 15.5t-53 28q-17 13 -29.5 25.5t-26.5 28.5q-13 17 -22.5 29t-9.5 23q-13 22 -23 41q-5 11 -10 22.5t-10 23.5q2 -12 1 -12t-4 8t-7.5 21t-8.5 25.5t-7 22.5t-3 12q-11 45 -14.5 95.5t-2.5 97.5q1 10 1 19.5t1 19.5v15q-1 6 -1 11.5
t-1 11.5q-2 2 -5 1t-1 11q5 42 21.5 88.5t34.5 83.5q1 2 3 7t4.5 11t5 10.5t3.5 5.5q17 33 36 57.5t49 47.5q17 11 38 21q7 2 12.5 2.5t12.5 -1.5q13 -4 18 -12.5t7 -20.5q2 -2 5 -4t5 -3q5 -2 10 -6.5t9 -7.5q-14 5 -25 6.5t-25 -0.5q-12 -2 -21 -5.5t-20 -10.5
q-9 -6 -15.5 -12.5l-14.5 -14.5l-10 -14l-10 -14q-2 -5 -2.5 -9.5t-2.5 -9.5q3 4 6 7.5t7 6.5t2.5 -1t-5.5 -10.5l-8 -13l-4 -6.5q-17 -32 -28.5 -62.5t-21.5 -65.5q-8 -28 -12 -50t-2 -51q0 -7 1 -10q1 -15 2.5 -18.5t3 -4t2.5 -3t2 -15.5q3 -39 2.5 -64t1.5 -48t8.5 -48.5
t23.5 -64.5q4 -9 4.5 -7t0.5 4.5t2 0t8 -19.5q3 -7 5.5 -13.5t5.5 -13.5q17 -40 35 -70t50 -61q2 -3 5 -5l6 -4q17 -13 27 -19t18.5 -9t18 -5.5t26.5 -6.5q13 -3 17.5 -4.5t6 -3t2.5 -4t9 -9.5q1 -1 1 -4q-6 -5 -20 -4t-22 2q-3 0 -7 -2v1z" />
    <glyph glyph-name="D" unicode="D" horiz-adv-x="462" 
d="M102 62q-2 -1 -4 -1t-4 -1q-3 -1 -5 -1q-11 -2 -15.5 -1.5t-6.5 2.5t-3.5 5t-6.5 8q-2 1 -2 4q2 1 7.5 2t10.5 3q-6 8 -10 25t-7 34t-4.5 31t-1.5 17q-2 20 -3.5 26t3.5 12q-1 17 -2 32.5t-2 31.5q-3 -11 -4 -5.5t-1 18v26v18.5q1 37 5 75t7 75q3 24 3 50q-1 5 -1.5 10
t-2.5 10q-2 2 -4.5 0.5t-2.5 9.5q0 30 3.5 65t5.5 65q0 10 -0.5 28.5t-2 39t-4.5 38.5t-7 27q1 14 10 19.5t21 9.5q-3 1 -6.5 2t-5.5 2q-12 3 -28 8q13 1 25 1h24q1 3 2 5.5t2 4.5q2 -6 3 -10q29 0 57.5 -2.5t58.5 -7.5q1 -1 2 -1h3q2 -1 5 -1q8 -2 15 -4t15 -4
q6 -1 11.5 -1.5t11.5 -1.5q-5 3 -10.5 6t-10.5 5q-6 4 2 2.5t23 -9t34.5 -20t36.5 -29.5q14 -17 24 -33.5t19 -37.5q5 -15 9.5 -29.5t8.5 -30.5q4 -19 8.5 -37.5t8.5 -37.5q3 -15 5 -19.5t4 -7.5t3.5 -7t3.5 -17q3 -32 3 -62q-1 -18 -3.5 -39t-6.5 -43t-8 -42.5t-8 -38.5
q-2 -9 -4.5 -18t-5.5 -18q-3 -10 -1 -9t4 3t1 -1.5t-11 -22.5t-21 -33.5t-25 -30.5q-29 -31 -59 -51.5t-68 -40.5q-10 -5 -24.5 -11.5t-30.5 -13t-31.5 -13t-27.5 -9.5q-1 -1 -4 -3q-1 1 -2 1zM116 120q14 9 34 20.5t41 23.5t39.5 24t30.5 22q15 15 21 23.5t15 10.5q2 0 2 2
q13 17 22 32t17 35q-6 -9 -6 -5.5t3.5 12t7.5 18.5t6 14q2 7 3 13t3 13q7 31 10 56t4 57q-1 20 -1 40t-2 40q-1 14 -2 30t-4 30l-4 10l-4 10q-3 2 -5 -0.5t-5 8.5q-1 2 -1.5 5t-0.5 4q-8 30 -16.5 54t-27.5 50q-7 9 -16 16q-20 14 -38 22t-41 13q-20 5 -41.5 7.5t-41.5 -0.5
q-8 1 -13.5 3t-10.5 4q2 -13 2.5 -25.5t2.5 -23.5q0 -7 0.5 -14t1.5 -14q2 -3 3 -6.5t3 -6.5q1 3 1.5 7t1.5 7q3 8 4 -8.5t0.5 -41.5t-1.5 -49.5t-2 -32.5q-1 -17 -1.5 -29.5t-0.5 -24.5t0.5 -24.5t1.5 -28.5q1 -15 2.5 -18.5t3 -3.5t2.5 -2t1 -15q-1 -30 -4 -50t-6 -38
t-3.5 -40t3.5 -56q1 -7 2.5 -5.5t2.5 3t2 -0.5t1 -16q-1 -35 -2.5 -70t-0.5 -71q0 -5 0.5 -9.5t0.5 -9.5z" />
    <glyph glyph-name="d" unicode="d" horiz-adv-x="455" 
d="M94 16q-2 -1 -4 -1t-4 -1q-3 -1 -5 -1q-11 -2 -15.5 -1.5t-6.5 2.5t-3.5 5t-6.5 8q-2 1 -2 4q2 1 7.5 2t10.5 3q-6 8 -10 25t-7 34t-4.5 31t-1.5 17q-2 20 -3.5 26t3.5 12q-1 17 -2 32.5t-2 31.5q-3 -11 -4 -5.5t-1 18v26v18.5q1 37 5 75t7 75q3 24 3 50q-1 5 -1.5 10
t-2.5 10q-2 2 -4.5 0.5t-2.5 9.5q0 30 3.5 65t5.5 65q0 10 -0.5 28.5t-2 39t-4.5 38.5t-7 27q1 14 10 19.5t21 9.5q-3 1 -6.5 2t-5.5 2q-12 3 -28 8q13 1 25 1h24q1 3 2 5.5t2 4.5q2 -6 3 -10q29 0 57.5 -2.5t58.5 -7.5q1 -1 2 -1h3q2 -1 5 -1q8 -2 15 -4t15 -4
q6 -1 11.5 -1.5t11.5 -1.5q-5 3 -10.5 6t-10.5 5q-6 4 2 2.5t23 -9t34.5 -20t36.5 -29.5q14 -17 24 -33.5t19 -37.5q5 -15 9.5 -29.5t8.5 -30.5q4 -19 8.5 -37.5t8.5 -37.5q3 -15 5 -19.5t4 -7.5t3.5 -7t3.5 -17q3 -32 3 -62q-1 -18 -3.5 -39t-6.5 -43t-8 -42.5t-8 -38.5
q-2 -9 -4.5 -18t-5.5 -18q-3 -10 -1 -9t4 3t1 -1.5t-11 -22.5t-21 -33.5t-25 -30.5q-29 -31 -59 -51.5t-68 -40.5q-10 -5 -24.5 -11.5t-30.5 -13t-31.5 -13t-27.5 -9.5q-1 -1 -4 -3q-1 1 -2 1zM108 74q14 9 34 20.5t41 23.5t39.5 24t30.5 22q15 15 21 23.5t15 10.5q2 0 2 2
q13 17 22 32t17 35q-6 -9 -6 -5.5t3.5 12t7.5 18.5t6 14q2 7 3 13t3 13q7 31 10 56t4 57q-1 20 -1 40t-2 40q-1 14 -2 30t-4 30l-4 10l-4 10q-3 2 -5 -0.5t-5 8.5q-1 2 -1.5 5t-0.5 4q-8 30 -16.5 54t-27.5 50q-7 9 -16 16q-20 14 -38 22t-41 13q-20 5 -41.5 7.5t-41.5 -0.5
q-8 1 -13.5 3t-10.5 4q2 -13 2.5 -25.5t2.5 -23.5q0 -7 0.5 -14t1.5 -14q2 -3 3 -6.5t3 -6.5q1 3 1.5 7t1.5 7q3 8 4 -8.5t0.5 -41.5t-1.5 -49.5t-2 -32.5q-1 -17 -1.5 -29.5t-0.5 -24.5t0.5 -24.5t1.5 -28.5q1 -15 2.5 -18.5t3 -3.5t2.5 -2t1 -15q-1 -30 -4 -50t-6 -38
t-3.5 -40t3.5 -56q1 -7 2.5 -5.5t2.5 3t2 -0.5t1 -16q-1 -35 -2.5 -70t-0.5 -71q0 -5 0.5 -9.5t0.5 -9.5z" />
    <glyph glyph-name="E" unicode="E" horiz-adv-x="360" 
d="M293 94q16 -6 11 -11.5t-23 -9.5t-44 -7.5t-50 -6t-42.5 -3.5t-21.5 -1q-7 0 -14 3q-6 2 -10.5 4.5t-9.5 7.5q-8 6 -12 12t-9 15q-6 12 -8 15.5t-1.5 3.5t2.5 -1t3 2q-9 25 -13 49q-2 9 -3 17.5t-2 16.5q-2 -15 -3.5 -7t-2.5 24t-2 32.5t-1 18.5q0 21 1.5 42.5t3.5 42.5
q2 31 5.5 61t7.5 61q2 17 3.5 33.5t3.5 33.5q-1 6 -1.5 12t-0.5 11q-2 2 -5 1.5t-2 10.5q1 14 5 36t9 34q1 8 1.5 16.5t0.5 16.5q0 13 -0.5 34t-1 43.5t-2 45t-4.5 40.5q-5 5 -8.5 16.5t-5.5 15.5q0 1 -1.5 2.5l-2.5 2.5q-2 1 -3.5 2.5t-3.5 2.5q8 5 20 8.5t20 5.5q4 0 10 2
q1 2 2 3t2 3q-4 2 -5 3q-4 3 3.5 3.5t17.5 -0.5l3 3v-1q0 -1 -0.5 -1t-0.5 -1q7 -1 12.5 -1.5t6.5 -1.5q13 -2 16 -2.5t15 1.5q4 1 5.5 2.5t1.5 3t0.5 2t4.5 0.5q9 -1 13.5 -5t8.5 -7.5t10.5 -6t19.5 0.5q4 1 1 5t5 2q11 -3 24 -8.5t24 -10.5q7 -3 15 -4t10 -2l1 -1
q-2 1 -5 1q6 -2 6.5 -7t1.5 -11q1 -2 1 -4q-2 -3 -4 -3.5t-4 -1.5h-1h-1q0 -1 -0.5 -1.5t-0.5 -1.5v-5l3 -3v-2q0 -2 -2 -2h-1q-8 -8 -24.5 -8h-26.5q-13 1 -12 0t-1 4q-5 1 -9.5 0.5t-9.5 0.5q3 -3 1 -3.5t-5.5 -0.5t-7 1t-4.5 1q-8 2 -18.5 8t-18.5 10l-12 3q-2 -1 -3 -2
t-3 -2v-4.5t-2 -3.5q-2 1 -11.5 4t-17.5 5q2 -24 3.5 -44.5t0.5 -23.5q1 -9 1.5 -18.5t1.5 -18.5q2 -5 3.5 -10t3.5 -10q0 5 0.5 10t1.5 10q3 10 4 -3t1 -33.5t-1 -41.5t-2 -27q-1 -5 -2 -11.5t-3 -13.5q-2 -14 -3.5 -25t-2.5 -21q3 -1 7 -2l8 -2t9 -2q6 -2 9 -2.5t5.5 -0.5
t5.5 0.5t8 1.5q4 1 5 2.5t1 3t0.5 2t3.5 0.5q2 1 6.5 0t6.5 -3q10 -7 14 -10t18 3q3 2 0.5 5t4.5 3q2 -1 12 -3t10 -3l8 -2q4 -1 8 -1q2 0 7.5 1t6.5 1q2 -2 4.5 -8t4.5 -8q1 -2 1.5 -2t1.5 -2q0 -4 -3 -7v-3q6 -9 3.5 -14.5t-9 -9.5t-15 -6t-14.5 -3q-2 0 -2 -1
q-11 -2 -10 -2.5t-1 4.5q-4 -1 -7.5 -1.5t-8.5 -1.5q5 -5 -3.5 -4.5t-11.5 0.5q-5 -1 -11 1.5t-10 4.5t-8.5 3t-9.5 3q-6 3 -13 3q-2 -2 -3 -2t-3 -1v-5t-3 -3q-4 -1 -16 4.5t-17 7.5q-1 -1 -3 -1v-5q0 -16 1 -21t2 -8t2 -7t1 -18q-2 -23 -4 -49.5t-6 -49.5q-8 -37 -8.5 -68
t7.5 -69q1 -8 2.5 -6.5t2.5 3.5t1.5 0t1.5 -16q1 -5 1 -9.5t2 -9.5q2 -27 10 -51l3 -7h-4q19 -2 36 -3.5t35 -0.5q31 2 51.5 6t43.5 6q12 1 17 1t7 -1.5t4.5 -4.5t9.5 -8q1 -1 2 -4q0 -2 -5 -3.5t-11.5 -3t-12.5 -2.5t-7 -1q-1 -2 -6 -5z" />
    <glyph glyph-name="e" unicode="e" horiz-adv-x="382" 
d="M354 117q17 -5 12 -10.5t-22.5 -11.5t-43 -12t-49.5 -10.5t-42 -7t-21 -2.5q-10 0 -15 2q-11 3 -21 10q-13 9 -23 25q-7 12 -9 15.5t-1.5 3.5t2 -1t2.5 2q-5 12 -9 23.5t-8 24.5q-2 8 -4 16.5t-4 16.5q0 -15 -2.5 -7t-4.5 23.5t-4.5 32t-2.5 18.5q-2 21 -2.5 42.5
t-0.5 42.5q0 61 3 123q0 17 0.5 33.5t0.5 33.5l-2 12t-2 11q-2 2 -4.5 1t-3.5 10q0 14 2 36.5t6 34.5q1 8 0.5 16.5t-0.5 16.5q-1 13 -3 34t-5 43.5t-6.5 45t-7.5 39.5q-6 5 -10.5 16t-6.5 15q0 4 -4 4q-2 1 -4 2.5t-4 2.5q8 5 19.5 9.5t19.5 7.5q4 1 10 3l3 6q-4 2 -5 3
q-4 3 3.5 4t17.5 1q0 1 0.5 1t0.5 1l1 1v-3q7 0 12.5 -0.5t6.5 -0.5q13 -2 16 -2t15 3q4 1 5 2.5t1 3t0.5 2.5t4.5 1q9 0 14 -3.5t9.5 -7t10.5 -5t19 2.5q4 1 1 4.5t5 2.5q11 -2 24.5 -6.5t24.5 -8.5q8 -2 16 -2.5t10 -1.5h1h-5q6 -2 6.5 -6.5t2.5 -10.5q1 -2 1 -4
q-1 -4 -7 -6h-1h-1q0 -1 -0.5 -1.5t-0.5 -1.5t0.5 -2.5t0.5 -2.5l3 -3v-2q0 -2 -2 -2h-1q-7 -9 -23.5 -10t-26.5 -2q-13 -1 -12 -1.5t-1 4.5q-5 0 -9.5 -0.5t-9.5 -0.5q3 -3 1 -3.5t-5.5 -0.5t-7 0.5t-4.5 0.5q-8 1 -19 6t-19 8q-8 2 -13 2q-2 -1 -2.5 -2t-2.5 -2v-4.5
t-2 -3.5q-2 0 -11.5 2t-17.5 4q4 -23 7 -43.5t3 -23.5q2 -9 3 -18.5t3 -18.5q2 -5 4 -9.5t4 -9.5v10t1 10q2 10 4 -2.5t3.5 -33t2.5 -41.5t1 -27q-1 -6 -1.5 -12.5t-1.5 -13.5q-1 -14 -1.5 -25t-0.5 -21q3 -1 7 -1t8 -1t9 -2q11 -2 14 -2t14 3q4 1 4.5 2.5t0.5 3t0.5 2.5
t3.5 1q7 2 14 -2q5 -3 8 -5.5t6 -3.5t7 0t11 5q3 2 0 5t4 3q2 0 12.5 -1.5t10.5 -2.5q4 -1 8 -1h8q2 0 7.5 1.5t6.5 1.5q2 -2 5 -7.5t5 -7.5q1 -2 1.5 -2t1.5 -2q1 -4 -2 -7v-3q7 -9 5 -15t-8 -10t-14.5 -6.5t-14.5 -4.5q-2 0 -2 -1q-10 -3 -9.5 -3.5t-1.5 4.5
q-4 -2 -7.5 -2.5t-8.5 -2.5q6 -5 -2.5 -5h-11.5q-5 -1 -11 0.5t-11 3.5q-4 2 -8.5 2.5t-9.5 2.5q-8 2 -13 2q-2 -2 -6 -4q0 -2 0.5 -5t-2.5 -3q-4 -1 -16.5 3t-17.5 6q-1 -1 -3 -1v-5q1 -16 2.5 -21t3 -7.5t3 -6.5t2.5 -18v-50t-2 -50q-5 -38 -2.5 -69t13.5 -68q2 -8 3 -6
l2 4t2 0t3 -16q1 -5 1.5 -9.5t2.5 -8.5q2 -13 5.5 -25.5t8.5 -24.5l4 -7h-4q19 -1 36 -0.5t35 2.5q31 4 51 10t43 10q12 1 17 1.5t7 -0.5t4.5 -4t10.5 -7q1 -1 2 -4q0 -2 -5 -4t-11 -4t-12 -3.5t-7 -1.5q-1 -2 -2 -2.5t-3 -2.5z" />
    <glyph glyph-name="F" unicode="F" horiz-adv-x="333" 
d="M67 91q-8 -10 -12.5 -4.5t-7 20t-3.5 34.5t-1.5 38.5t0 32.5t0.5 17q-1 20 -2.5 26t4.5 11q0 4 -0.5 8t-0.5 8q0 11 -0.5 22.5t-1.5 22.5q-3 -11 -4 -5.5t-1 17v24v16.5q0 32 2.5 65.5t4.5 65.5q1 11 1.5 21t-0.5 21q-1 5 -2 9l-2 8q-4 2 -5.5 1t-2.5 7q-2 25 0.5 57
t4.5 58q-1 11 -1.5 29t-1.5 37.5t-2.5 37t-4.5 27.5q1 14 7 19.5t17 8.5q2 3 6 4.5t8 3.5q2 2 2 4l4 8l4 8q0 -5 0.5 -8.5t1.5 -8.5q1 0 2 0.5t3 0.5l3 6q-1 1 -2 1.5t-2 1.5q-3 3 3 4t14 0.5t15 -1.5t8 -1q7 -1 11 -2t7 -1t6.5 0.5t10.5 2.5q6 1 7 2.5t1 3t0.5 3t5.5 1.5
q12 0 18 -3.5t12 -6.5t14 -4t23 4q3 1 2.5 2t-1.5 2.5t0 2t6 0.5q13 -1 27 -4t27 -6q1 -1 4.5 -1h7.5t9 -1q5 -2 4.5 -7t1.5 -11v-4q0 -3 -2 -3.5t-4 -1.5q-1 -1 -1 -3q4 -9 0 -14.5t-11.5 -8t-16 -3.5t-14.5 -2q-7 -1 -9.5 -2t-3 -1t-0.5 0.5t-1 3.5q-6 -1 -11.5 -1
t-11.5 -1q4 -3 1.5 -4t-7 -1h-9.5h-6q-11 1 -26.5 5.5t-26.5 6.5q-4 1 -8.5 2t-8.5 0q-4 -2 -6 -4q-1 -2 -0.5 -4.5t-2.5 -2.5q-2 0 -7.5 0.5t-12 2t-12 3t-8.5 1.5h-9t-10 -2q1 -12 1 -24t1 -23q1 -6 1 -12.5t1 -13.5q4 -8 6 -13q2 10 3 14q3 8 3.5 -7.5t0.5 -38.5
t-0.5 -45t-0.5 -27q-1 -25 -0.5 -40t2.5 -35l5 1q6 0 9 1q2 2 4 6q-1 1 -2 1.5t-2 1.5q-4 3 2 3.5t14 -0.5q10 -1 23 -2q6 -1 9.5 -1.5t6.5 -0.5t6 1t8 3q4 1 5 3t1 3.5v2.5t4 1q9 1 14.5 -2t10 -6t10.5 -3.5t18 5.5q4 2 1 5t5 3q11 0 25 -2.5t26 -4.5q6 -1 16 -1h11
q7 -2 7 -6t2 -12v-4q-1 -5 -9 -5l-2 -4q4 -9 0 -14.5t-11.5 -8.5t-17 -4.5t-15.5 -2.5q-12 -2 -11.5 -3t-0.5 4q-12 -2 -20 -4q3 -2 1.5 -3t-5 -1.5t-7.5 -0.5h-5q-8 -1 -21 2.5t-21 5.5q-10 2 -15 2q-3 -3 -5 -4v-4.5t-3 -3.5q-2 0 -7 0.5t-11.5 2t-12 3t-8.5 1.5
q-4 0 -9 -0.5t-11 -0.5v-1q0 -27 -2 -44t-4 -33t-2.5 -35.5t3.5 -52.5q1 -7 2.5 -5.5t2.5 3t2 -1t1 -15.5q-1 -8 -1 -17t-1 -17q-2 -29 -5 -58l-6 -58q-2 -21 -2 -42.5t-2 -38.5q-1 -9 -2 -13t-2.5 -5.5t-4.5 -3t-9 -5.5q-1 -2 -4 -2q-4 4 -4.5 14.5t-0.5 15.5q-1 1 -3 5z
" />
    <glyph glyph-name="f" unicode="f" horiz-adv-x="364" 
d="M74 91q-8 -10 -12.5 -4.5t-7 20t-3.5 34.5t-1.5 38.5t0 32.5t0.5 17q-1 20 -2.5 26t4.5 11q0 4 -0.5 8t-0.5 8q0 11 -0.5 22.5t-1.5 22.5q-3 -11 -4 -5.5t-1 17v24v16.5q0 32 2.5 65.5t4.5 65.5q1 11 1.5 21t-0.5 21q-1 5 -2 9l-2 8q-4 2 -5.5 1t-2.5 7q-2 25 0.5 57
t4.5 58q-1 11 -1.5 29t-1.5 37.5t-2.5 37t-4.5 27.5q1 14 7 19.5t17 8.5q2 3 6 4.5t8 3.5q2 2 2 4l4 8l4 8q0 -5 0.5 -8.5t1.5 -8.5q1 0 2 0.5t3 0.5l3 6q-1 1 -2 1.5t-2 1.5q-3 3 3 4t14 0.5t15 -1.5t8 -1q7 -1 11 -2t7 -1t6.5 0.5t10.5 2.5q6 1 7 2.5t1 3t0.5 3t5.5 1.5
q12 0 18 -3.5t12 -6.5t14 -4t23 4q3 1 2.5 2t-1.5 2.5t0 2t6 0.5q13 -1 27 -4t27 -6q1 -1 4.5 -1h7.5t9 -1q5 -2 4.5 -7t1.5 -11v-4q0 -3 -2 -3.5t-4 -1.5q-1 -1 -1 -3q4 -9 0 -14.5t-11.5 -8t-16 -3.5t-14.5 -2q-7 -1 -9.5 -2t-3 -1t-0.5 0.5t-1 3.5q-6 -1 -11.5 -1
t-11.5 -1q4 -3 1.5 -4t-7 -1h-9.5h-6q-11 1 -26.5 5.5t-26.5 6.5q-4 1 -8.5 2t-8.5 0q-4 -2 -6 -4q-1 -2 -0.5 -4.5t-2.5 -2.5q-2 0 -7.5 0.5t-12 2t-12 3t-8.5 1.5h-9t-10 -2q1 -12 1 -24t1 -23q1 -6 1 -12.5t1 -13.5q4 -8 6 -13q2 10 3 14q3 8 3.5 -7.5t0.5 -38.5
t-0.5 -45t-0.5 -27q-1 -25 -0.5 -40t2.5 -35l5 1q6 0 9 1q2 2 4 6q-1 1 -2 1.5t-2 1.5q-4 3 2 3.5t14 -0.5q10 -1 23 -2q6 -1 9.5 -1.5t6.5 -0.5t6 1t8 3q4 1 5 3t1 3.5v2.5t4 1q9 1 14.5 -2t10 -6t10.5 -3.5t18 5.5q4 2 1 5t5 3q11 0 25 -2.5t26 -4.5q6 -1 16 -1h11
q7 -2 7 -6t2 -12v-4q-1 -5 -9 -5l-2 -4q4 -9 0 -14.5t-11.5 -8.5t-17 -4.5t-15.5 -2.5q-12 -2 -11.5 -3t-0.5 4q-12 -2 -20 -4q3 -2 1.5 -3t-5 -1.5t-7.5 -0.5h-5q-8 -1 -21 2.5t-21 5.5q-10 2 -15 2q-3 -3 -5 -4v-4.5t-3 -3.5q-2 0 -7 0.5t-11.5 2t-12 3t-8.5 1.5
q-4 0 -9 -0.5t-11 -0.5v-1q0 -27 -2 -44t-4 -33t-2.5 -35.5t3.5 -52.5q1 -7 2.5 -5.5t2.5 3t2 -1t1 -15.5q-1 -8 -1 -17t-1 -17q-2 -29 -5 -58l-6 -58q-2 -21 -2 -42.5t-2 -38.5q-1 -9 -2 -13t-2.5 -5.5t-4.5 -3t-9 -5.5q-1 -2 -4 -2q-4 4 -4.5 14.5t-0.5 15.5q-1 1 -3 5z
" />
    <glyph glyph-name="G" unicode="G" horiz-adv-x="377" 
d="M44 340q-2 14 -2.5 28t-1.5 28q-1 8 -1 14.5t-1 14.5q-2 4 -3 7t-3 7l-3 -15q-3 -7 -4 0t-0.5 21t2.5 33.5t3.5 38t3.5 33t3 20.5t2 12.5t2 12.5q2 13 3 23.5t1 20t-0.5 19.5t-1.5 23q-1 15 -2.5 19t-3 5.5t-2 4.5t-0.5 16q2 20 4.5 36.5t9.5 34.5q10 24 26 46
q15 22 37 37q14 9 26 13t29 6q2 0 3.5 0.5t3.5 0.5q9 1 7 3t-4 3t1.5 1t21.5 -2q22 -3 39 -10q21 -7 36.5 -16t31.5 -25q12 -14 18.5 -27.5t11.5 -32.5q4 -20 4 -43q-1 -20 -3 -41.5t-2 -40.5q2 -12 -3 -21q-3 -8 -5.5 -11t-4 -5t-3.5 -4t-5 -8q-2 -2 -2 -2.5t-3 -0.5
q-3 8 -4 18.5t0 18.5l-2 4q-11 -9 -13.5 -2t-3.5 16q-2 27 -1.5 54t-7.5 53q-4 12 -11 21q-1 1 -3.5 4t-3.5 3q-11 8 -14 9.5t-3 1t1 -1t0 4.5q-6 3 -11.5 5t-12.5 4q-11 2 -20 3.5t-20 2.5q6 -3 5.5 -3.5t-3.5 -0.5h-7.5t-5.5 -1q-11 0 -23 -6q-1 -1 -2 -1q-3 -2 -7.5 -6
t-6.5 -7q-8 -13 -14 -30q-6 -19 -9.5 -36.5t-5.5 -37.5q-3 -27 -3 -55q1 -5 1.5 -11t1.5 -11q2 -2 4.5 -0.5t2.5 -9.5q0 -8 -1 -16t-3 -16q-5 -28 -9 -55.5t-8 -56.5v-32.5t1 -40.5t3 -40t6 -32q0 -18 -8 -26q3 -15 6 -35t5 -39.5t4 -35t4 -21.5q6 -16 14 -31q2 -2 7 -9.5
t7 -9.5q3 -3 1 -1.5t-3 -2.5q12 -12 25 -17q1 0 2.5 -0.5t2.5 -0.5q-5 5 1.5 3.5t17.5 0.5q4 0 6 1q5 2 12.5 4t9.5 4q11 5 18.5 11t15.5 14q5 5 9 9.5t9 10.5q5 7 9 14.5t6 15.5q1 5 1 15q-3 2 -5.5 1.5t-1.5 6.5q1 5 2.5 9.5t1.5 9.5q4 22 7.5 43.5t6.5 43.5q1 4 1 8v9
q-1 6 -1 12t-1 12l-2 6q0 -1 1 -2t2 -1q-2 -1 -4 -1q-1 -1 -3 -1h-2q-2 0 -4 -1.5t-4 -2.5q-14 0 -20 10.5t-11 21.5q-2 1 -4.5 2t-4.5 2q-9 2 -18 5q15 3 30.5 7t31.5 6q15 1 26 -1q13 -4 23 -15q2 -2 2.5 -3.5t1.5 -3.5q2 -4 4 -9.5t3 -9.5q1 -3 1 -5.5t1 -5.5q4 -8 6 -13
l3 15q1 4 2 2t1.5 -7t0.5 -11v-9q-1 -22 -3.5 -43t-5.5 -43q0 -2 -1 -11.5t-2 -10.5q-2 -17 -7 -37.5t-11 -37.5q-4 -13 -3.5 -16.5t1 -4.5t0.5 -3t-6 -11l-7 -10.5t-7 -9.5q-14 -14 -24.5 -21t-27.5 -15q-14 -6 -27 -11t-28 -9q-19 -4 -38 -3q-8 0 -7 -2t2.5 -3.5t-1 -1
t-17.5 6.5h-2q-17 8 -28 19t-22 26q-11 18 -17.5 36t-11.5 39q-2 5 -2.5 9.5t-1.5 9.5t-1.5 27.5t-1.5 48t-1 47.5v28v9q1 1 1 3z" />
    <glyph glyph-name="g" unicode="g" horiz-adv-x="373" 
d="M44 340q-2 14 -2.5 28t-1.5 28q-1 8 -1 14.5t-1 14.5q-2 4 -3 7t-3 7l-3 -15q-3 -7 -4 0t-0.5 21t2.5 33.5t3.5 38t3.5 33t3 20.5t2 12.5t2 12.5q2 13 3 23.5t1 20t-0.5 19.5t-1.5 23q-1 15 -2.5 19t-3 5.5t-2 4.5t-0.5 16q2 20 4.5 36.5t9.5 34.5q10 24 26 46
q15 22 37 37q14 9 26 13t29 6q2 0 3.5 0.5t3.5 0.5q9 1 7 3t-4 3t1.5 1t21.5 -2q22 -3 39 -10q21 -7 36.5 -16t31.5 -25q12 -14 18.5 -27.5t11.5 -32.5q4 -20 4 -43q-1 -20 -3 -41.5t-2 -40.5q2 -12 -3 -21q-3 -8 -5.5 -11t-4 -5t-3.5 -4t-5 -8q-2 -2 -2 -2.5t-3 -0.5
q-3 8 -4 18.5t0 18.5l-2 4q-11 -9 -13.5 -2t-3.5 16q-2 27 -1.5 54t-7.5 53q-4 12 -11 21q-1 1 -3.5 4t-3.5 3q-11 8 -14 9.5t-3 1t1 -1t0 4.5q-6 3 -11.5 5t-12.5 4q-11 2 -20 3.5t-20 2.5q6 -3 5.5 -3.5t-3.5 -0.5h-7.5t-5.5 -1q-11 0 -23 -6q-1 -1 -2 -1q-3 -2 -7.5 -6
t-6.5 -7q-8 -13 -14 -30q-6 -19 -9.5 -36.5t-5.5 -37.5q-3 -27 -3 -55q1 -5 1.5 -11t1.5 -11q2 -2 4.5 -0.5t2.5 -9.5q0 -8 -1 -16t-3 -16q-5 -28 -9 -55.5t-8 -56.5v-32.5t1 -40.5t3 -40t6 -32q0 -18 -8 -26q3 -15 6 -35t5 -39.5t4 -35t4 -21.5q6 -16 14 -31q2 -2 7 -9.5
t7 -9.5q3 -3 1 -1.5t-3 -2.5q12 -12 25 -17q1 0 2.5 -0.5t2.5 -0.5q-5 5 1.5 3.5t17.5 0.5q4 0 6 1q5 2 12.5 4t9.5 4q11 5 18.5 11t15.5 14q5 5 9 9.5t9 10.5q5 7 9 14.5t6 15.5q1 5 1 15q-3 2 -5.5 1.5t-1.5 6.5q1 5 2.5 9.5t1.5 9.5q4 22 7.5 43.5t6.5 43.5q1 4 1 8v9
q-1 6 -1 12t-1 12l-2 6q0 -1 1 -2t2 -1q-2 -1 -4 -1q-1 -1 -3 -1h-2q-2 0 -4 -1.5t-4 -2.5q-14 0 -20 10.5t-11 21.5q-2 1 -4.5 2t-4.5 2q-9 2 -18 5q15 3 30.5 7t31.5 6q15 1 26 -1q13 -4 23 -15q2 -2 2.5 -3.5t1.5 -3.5q2 -4 4 -9.5t3 -9.5q1 -3 1 -5.5t1 -5.5q4 -8 6 -13
l3 15q1 4 2 2t1.5 -7t0.5 -11v-9q-1 -22 -3.5 -43t-5.5 -43q0 -2 -1 -11.5t-2 -10.5q-2 -17 -7 -37.5t-11 -37.5q-4 -13 -3.5 -16.5t1 -4.5t0.5 -3t-6 -11l-7 -10.5t-7 -9.5q-14 -14 -24.5 -21t-27.5 -15q-14 -6 -27 -11t-28 -9q-19 -4 -38 -3q-8 0 -7 -2t2.5 -3.5t-1 -1
t-17.5 6.5h-2q-17 8 -28 19t-22 26q-11 18 -17.5 36t-11.5 39q-2 5 -2.5 9.5t-1.5 9.5t-1.5 27.5t-1.5 48t-1 47.5v28v9q1 1 1 3z" />
    <glyph glyph-name="H" unicode="H" horiz-adv-x="373" 
d="M77 68q-12 -10 -17.5 5t-8 38.5t-3 46.5t-0.5 28q-1 20 -2.5 28t4.5 15l-3 72q-3 -12 -4 -5.5t-1 21t0.5 29.5t0.5 20q1 41 4.5 82t5.5 82l2 26t0 27l-2 10l-2 10q-3 2 -5 0.5t-3 9.5q-1 27 1.5 59.5t4.5 60.5q0 6 -0.5 19.5t-2 28t-4 27t-6.5 17.5q1 8 14 12t20 6
q1 0 2 1l2 2q1 2 2.5 4t3.5 4q6 -9 8.5 -28.5t4.5 -29.5q1 -5 1.5 -10t1.5 -10q4 -6 6 -10q2 8 3 11q3 6 4 -8.5t1 -36t-0.5 -42.5t-0.5 -27q-2 -32 -1.5 -53.5t2.5 -53.5q1 -15 3 -18.5t3.5 -4t2.5 -3t1 -15.5v-10t-1 -10h3l3 6q-2 2 -3 4q-2 3 2.5 3t11.5 -1t13 -2.5
l6 -1.5q11 -2 14.5 -2t14.5 2q5 1 6 2.5t1 3t0.5 2.5t4.5 1q9 0 17 -5q10 -7 14.5 -8.5t17.5 4.5q3 2 0 5t4 2q2 0 4 -0.5t4 -0.5l1 3q1 12 2 24.5t2 24.5q-1 5 -1.5 9.5t-1.5 9.5q-3 2 -5.5 1t-1.5 9q1 26 7 60t10 61l2.5 30t2.5 37.5t0.5 37.5t-3.5 29q2 17 12 22t25 8
q1 2 2.5 4.5t2.5 4.5q2 4 3.5 8t3.5 9q3 -29 3 -59.5t-1 -58.5v-27q1 -4 2 -7t2 -7q2 4 2.5 7t2.5 7q3 6 2.5 -9.5t-3 -38t-5.5 -45.5t-4 -30q-2 -16 -3.5 -27.5t-2 -22t-0.5 -22t1 -27.5q1 -15 2 -17.5t2.5 -2.5t2.5 -2t1 -15v-15q-2 -27 -5 -43t-5 -30.5t-2.5 -33
t3.5 -51.5q1 -7 2 -6l2.5 2.5t2 -0.5t0.5 -15l-4 -80l-4 -80q-1 -22 1 -44.5t1 -39.5q-1 -10 -1.5 -14t-2 -5.5t-4.5 -3t-9 -6.5q-1 -2 -4 -2q-4 4 -5 14.5t-1 15.5q-3 3 -4 5q-6 -13 -11 -7.5t-8.5 21.5t-6 38.5t-4.5 42.5t-2.5 34.5t-0.5 15.5q-2 20 -3 27.5t4 14.5
q-1 16 -1.5 32t-1.5 32q-3 -11 -4 -5.5t-1 17.5t0.5 25.5t0.5 17.5q0 17 1 34t3 34l-3 -1q5 -5 -3.5 -4.5t-11.5 0.5q-2 0 -9.5 1.5t-9.5 3.5q-5 2 -11 3.5t-11 3.5q-8 2 -15 2q-4 -2 -6 -4v-4.5t-2 -2.5q-5 -1 -17.5 3.5t-17.5 6.5q-4 -1 -8.5 -0.5t-9.5 -0.5l-6 -58t2 -78
q1 -8 2.5 -6.5l3 3t2 -0.5t0.5 -18q-2 -41 -4.5 -81.5t-5.5 -80.5q0 -5 -0.5 -14t-0.5 -19v-18t-1 -11q-2 -11 -5 -11t-13 -4q-1 -1 -4 -1t-4 7.5t-1 9.5z" />
    <glyph glyph-name="h" unicode="h" horiz-adv-x="366" 
d="M77 68q-12 -10 -17.5 5t-8 38.5t-3 46.5t-0.5 28q-1 20 -2.5 28t4.5 15l-3 72q-3 -12 -4 -5.5t-1 21t0.5 29.5t0.5 20q1 41 4.5 82t5.5 82l2 26t0 27l-2 10l-2 10q-3 2 -5 0.5t-3 9.5q-1 27 1.5 59.5t4.5 60.5q0 6 -0.5 19.5t-2 28t-4 27t-6.5 17.5q1 8 14 12t20 6
q1 0 2 1l2 2q1 2 2.5 4t3.5 4q6 -9 8.5 -28.5t4.5 -29.5q1 -5 1.5 -10t1.5 -10q4 -6 6 -10q2 8 3 11q3 6 4 -8.5t1 -36t-0.5 -42.5t-0.5 -27q-2 -32 -1.5 -53.5t2.5 -53.5q1 -15 3 -18.5t3.5 -4t2.5 -3t1 -15.5v-10t-1 -10h3l3 6q-2 2 -3 4q-2 3 2.5 3t11.5 -1t13 -2.5
l6 -1.5q11 -2 14.5 -2t14.5 2q5 1 6 2.5t1 3t0.5 2.5t4.5 1q9 0 17 -5q10 -7 14.5 -8.5t17.5 4.5q3 2 0 5t4 2q2 0 4 -0.5t4 -0.5l1 3q1 12 2 24.5t2 24.5q-1 5 -1.5 9.5t-1.5 9.5q-3 2 -5.5 1t-1.5 9q1 26 7 60t10 61l2.5 30t2.5 37.5t0.5 37.5t-3.5 29q2 17 12 22t25 8
q1 2 2.5 4.5t2.5 4.5q2 4 3.5 8t3.5 9q3 -29 3 -59.5t-1 -58.5v-27q1 -4 2 -7t2 -7q2 4 2.5 7t2.5 7q3 6 2.5 -9.5t-3 -38t-5.5 -45.5t-4 -30q-2 -16 -3.5 -27.5t-2 -22t-0.5 -22t1 -27.5q1 -15 2 -17.5t2.5 -2.5t2.5 -2t1 -15v-15q-2 -27 -5 -43t-5 -30.5t-2.5 -33
t3.5 -51.5q1 -7 2 -6l2.5 2.5t2 -0.5t0.5 -15l-4 -80l-4 -80q-1 -22 1 -44.5t1 -39.5q-1 -10 -1.5 -14t-2 -5.5t-4.5 -3t-9 -6.5q-1 -2 -4 -2q-4 4 -5 14.5t-1 15.5q-3 3 -4 5q-6 -13 -11 -7.5t-8.5 21.5t-6 38.5t-4.5 42.5t-2.5 34.5t-0.5 15.5q-2 20 -3 27.5t4 14.5
q-1 16 -1.5 32t-1.5 32q-3 -11 -4 -5.5t-1 17.5t0.5 25.5t0.5 17.5q0 17 1 34t3 34l-3 -1q5 -5 -3.5 -4.5t-11.5 0.5q-2 0 -9.5 1.5t-9.5 3.5q-5 2 -11 3.5t-11 3.5q-8 2 -15 2q-4 -2 -6 -4v-4.5t-2 -2.5q-5 -1 -17.5 3.5t-17.5 6.5q-4 -1 -8.5 -0.5t-9.5 -0.5l-6 -58t2 -78
q1 -8 2.5 -6.5l3 3t2 -0.5t0.5 -18q-2 -41 -4.5 -81.5t-5.5 -80.5q0 -5 -0.5 -14t-0.5 -19v-18t-1 -11q-2 -11 -5 -11t-13 -4q-1 -1 -4 -1t-4 7.5t-1 9.5z" />
    <glyph glyph-name="I" unicode="I" horiz-adv-x="215" 
d="M109 109q-7 -9 -12 -3t-9 20.5t-7 34.5t-5.5 38.5t-3.5 32.5t-1 17q-2 20 -4 26.5t4 11.5q-1 5 -1 10.5v10.5t-0.5 8.5t-0.5 8.5q-3 -5 -4 -2t-1 10v15.5v13.5q2 32 5.5 67.5t6.5 68.5q1 13 1.5 26t0.5 26q-1 5 -1.5 11t-1.5 11q-3 2 -5.5 0.5t-2.5 9.5q0 8 0.5 16.5
t1.5 16.5q2 23 4.5 47t4.5 47q1 21 1.5 42.5t1.5 43.5v21t-2 21q2 9 6 13t14 6q10 3 21 3l6 6q3 3 4 3q2 2 4 2t1.5 -1t-1.5 -1l2 1v-4q-3 -8 -3 -15q-2 -15 -2.5 -30t-1.5 -29v-16v-23q2 -3 2.5 -6t2.5 -6q2 8 4 12q3 7 3 -9t-1.5 -38.5t-3.5 -44.5t-2 -27t-0.5 -9t-0.5 -9
q-3 -24 -2.5 -46.5t2.5 -45.5q1 -15 2.5 -18.5t3 -4t2.5 -2.5t1 -15q0 -24 -3 -42t-5.5 -35t-3.5 -35t3 -42q1 -4 2 -3.5t2.5 1.5t2 -0.5t0.5 -8.5q0 -4 -0.5 -7t-0.5 -6q-4 -29 -4 -58.5t1 -58.5q0 -7 1 -18.5t2 -23.5t1.5 -23t-0.5 -17q0 -8 -1 -11.5t-2.5 -5t-5 -2.5
t-8.5 -5q-1 -1 -4 -1t-4.5 11t-1.5 13q-1 1 -1.5 2t-2.5 2z" />
    <glyph glyph-name="i" unicode="i" horiz-adv-x="205" 
d="M99 109q-7 -9 -12 -3t-9 20.5t-7 34.5t-5.5 38.5t-3.5 32.5t-1 17q-2 20 -4 26.5t4 11.5q-1 5 -1 10.5v10.5t-0.5 8.5t-0.5 8.5q-3 -5 -4 -2t-1 10v15.5v13.5q2 32 5.5 67.5t6.5 68.5q1 13 1.5 26t0.5 26q-1 5 -1.5 11t-1.5 11q-3 2 -5.5 0.5t-2.5 9.5q0 8 0.5 16.5
t1.5 16.5q2 23 4.5 47t4.5 47q1 21 1.5 42.5t1.5 43.5v21t-2 21q2 9 6 13t14 6q10 3 21 3l6 6q3 3 4 3q2 2 4 2t1.5 -1t-1.5 -1l2 1v-4q-3 -8 -3 -15q-2 -15 -2.5 -30t-1.5 -29v-16v-23q2 -3 2.5 -6t2.5 -6q2 8 4 12q3 7 3 -9t-1.5 -38.5t-3.5 -44.5t-2 -27t-0.5 -9t-0.5 -9
q-3 -24 -2.5 -46.5t2.5 -45.5q1 -15 2.5 -18.5t3 -4t2.5 -2.5t1 -15q0 -24 -3 -42t-5.5 -35t-3.5 -35t3 -42q1 -4 2 -3.5t2.5 1.5t2 -0.5t0.5 -8.5q0 -4 -0.5 -7t-0.5 -6q-4 -29 -4 -58.5t1 -58.5q0 -7 1 -18.5t2 -23.5t1.5 -23t-0.5 -17q0 -8 -1 -11.5t-2.5 -5t-5 -2.5
t-8.5 -5q-1 -1 -4 -1t-4.5 11t-1.5 13q-1 1 -1.5 2t-2.5 2z" />
    <glyph glyph-name="J" unicode="J" horiz-adv-x="298" 
d="M43 138q-5 8 -3.5 11t6.5 3t11.5 -1.5t12.5 -2.5q16 -3 30 1q13 5 26 18q11 11 20 23q1 1 7 9l6 8q1 6 2 8t1.5 1.5t1 -1.5t2.5 0q2 5 3.5 12.5l2.5 12.5q1 10 2 19t2 19q-4 -9 -4.5 -6t0 11t2 18.5t1.5 16.5q0 4 0.5 8.5t0.5 9.5q4 36 8.5 72.5t8.5 73.5q1 13 1.5 25.5
t0.5 25.5v2l-2 12l-2 12q-3 2 -5 0.5t-3 11.5q-1 38 1.5 79.5t4.5 79.5q0 10 -0.5 30t-2 41.5t-3.5 40.5t-5 28q2 14 12.5 17.5t23.5 5.5l2.5 2.5t1.5 2.5q0 2 4 6q2 2 4 3q4 -17 5.5 -44l2.5 -45q1 -7 1 -14t1 -14l6 -15q1 4 1.5 7.5t1.5 8.5q2 5 3 -2.5t1.5 -22.5t0.5 -35
v-39t-0.5 -34.5t-0.5 -22.5q-1 -26 -2 -51t1 -51q1 -7 1 -13t1 -13q1 -15 2.5 -18.5t3 -4t2.5 -3t1 -15.5q-1 -23 -4 -41l-6 -36t-5.5 -36.5t-2.5 -40.5v-34q0 -8 1.5 -6.5l3 3t1.5 -0.5t-2 -18q-1 -4 -3 -15.5t-3 -14.5q-5 -17 -10.5 -31.5t-16.5 -28.5q-11 -13 -22 -24
t-25 -22q-9 -7 -17.5 -11.5t-19.5 -9.5q-2 0 -8 -2t-8 -2q-17 -3 -30 -1.5t-29 6.5q-11 4 -16 5.5t-15 8.5q-9 7 -12.5 10t-4.5 6t-1 7t-1 12q0 2 2 4q1 1 5.5 -1t10 -5t10 -6t6.5 -3h6z" />
    <glyph glyph-name="j" unicode="j" horiz-adv-x="281" 
d="M33 138q-5 8 -3.5 11t6.5 3t11.5 -1.5t12.5 -2.5q16 -3 30 1q13 5 26 18q11 11 20 23q1 1 7 9l6 8q1 6 2 8t1.5 1.5t1 -1.5t2.5 0q2 5 3.5 12.5l2.5 12.5q1 10 2 19t2 19q-4 -9 -4.5 -6t0 11t2 18.5t1.5 16.5q0 4 0.5 8.5t0.5 9.5q4 36 8.5 72.5t8.5 73.5q1 13 1.5 25.5
t0.5 25.5v2l-2 12l-2 12q-3 2 -5 0.5t-3 11.5q-1 38 1.5 79.5t4.5 79.5q0 10 -0.5 30t-2 41.5t-3.5 40.5t-5 28q2 14 12.5 17.5t23.5 5.5l2.5 2.5t1.5 2.5q0 2 4 6q2 2 4 3q4 -17 5.5 -44l2.5 -45q1 -7 1 -14t1 -14l6 -15q1 4 1.5 7.5t1.5 8.5q2 5 3 -2.5t1.5 -22.5t0.5 -35
v-39t-0.5 -34.5t-0.5 -22.5q-1 -26 -2 -51t1 -51q1 -7 1 -13t1 -13q1 -15 2.5 -18.5t3 -4t2.5 -3t1 -15.5q-1 -23 -4 -41l-6 -36t-5.5 -36.5t-2.5 -40.5v-34q0 -8 1.5 -6.5l3 3t1.5 -0.5t-2 -18q-1 -4 -3 -15.5t-3 -14.5q-5 -17 -10.5 -31.5t-16.5 -28.5q-11 -13 -22 -24
t-25 -22q-9 -7 -17.5 -11.5t-19.5 -9.5q-2 0 -8 -2t-8 -2q-17 -3 -30 -1.5t-29 6.5q-11 4 -16 5.5t-15 8.5q-9 7 -12.5 10t-4.5 6t-1 7t-1 12q0 2 2 4q1 1 5.5 -1t10 -5t10 -6t6.5 -3h6z" />
    <glyph glyph-name="K" unicode="K" horiz-adv-x="382" 
d="M112 73q-4 -15 -16 -3q-8 10 -13 26.5t-8 34.5t-4.5 35.5t-2.5 29.5q-2 20 -3.5 29.5t4.5 17.5q-2 19 -2 37.5t-1 37.5q-3 -12 -4 -5.5t-1 20t0.5 28.5t0.5 19q1 31 5 61.5t6 61.5v3v22t-2 21q-1 5 -2 9.5t-3 9.5q-2 2 -4.5 0t-3.5 8q-1 26 2 59t5 59v30t-1 36.5t-2.5 36
t-5.5 28.5q1 17 11 22.5t24 9.5q1 2 2.5 4.5t2.5 4.5q1 5 2.5 9t3.5 8q5 -28 6.5 -57.5t3.5 -57.5q0 -7 0.5 -13.5t0.5 -12.5q2 -5 6 -13q1 3 1.5 6.5t2.5 6.5q2 8 2.5 -7.5t0 -38.5t-1.5 -45.5t-1 -26.5v-17l8 10t7 10q4 4 7 9l1 1q7 8 11 13t7.5 9.5t6.5 10t8 14.5
q4 7 3.5 9.5t-2 3t-1.5 2t4 7.5q10 12 17 16t13.5 7.5t13.5 8.5t16 18l1 2q2 3 1 3.5t-2.5 1t-1 2t5.5 4.5q15 11 30 20.5t30 22.5q10 8 15.5 16.5t9.5 11.5q8 5 10.5 3.5t11.5 -4.5q2 0 2 -0.5t2 -1.5q2 -4 0 -7.5t-4 -6.5q0 -3 1 -4q14 1 12 -9.5t-10 -23.5t-18 -25
t-12 -15q-8 -9 -10.5 -12t-3.5 -3.5t-1 0.5t-2 2l-24 -24q8 2 4 -1.5t-7 -5.5q0 -1 -2 -2.5t-3 -2.5q-12 -11 -23 -18.5t-23 -18.5l-9.5 -9.5t-7.5 -9.5q-1 -3 -1.5 -5.5t-1.5 -5.5q2 -2 4 -3t-1 -6q-2 -4 -7 -9.5t-9 -9.5q-7 -8 -13.5 -14.5t-12.5 -14.5q-1 -1 -6 -10.5
t-10 -17.5q2 -19 5 -34.5t10 -35.5q1 -4 5 -12q2 -1 4 -1.5t4 -1.5q0 5 1 7q1 3 5 -4.5t8.5 -17.5t8.5 -19.5t5 -10.5q7 -18 13 -31.5t14 -30.5q6 -12 8 -13.5t3.5 -1t3 -1t4.5 -12.5l1 -5q3 -19 2 -27t0 -15t5 -18t18 -35q3 -5 4 -3.5t1.5 3t2 0t5.5 -11.5q10 -27 18.5 -54
t19.5 -54q0 -2 1.5 -6t3.5 -6q2 -4 7 -11.5t6 -12.5l1 -2q1 -2 2 -6t-1 -6q-1 -3 -3.5 -5.5l-4.5 -4.5t-2 -4l-2 -2h-3l-3 3q-1 2 -1.5 2t-1.5 2q-2 2 -2.5 5t-2.5 5h-2q-1 0 -1 1l-2 1v-2q-2 -5 -5 -7t-8 2q-2 1 -4.5 5t-4.5 6t-2.5 2t3.5 -6q-14 9 -23.5 26t-17.5 31
q-5 9 -8 13.5t-4.5 7t-1.5 4.5t2 6q-13 25 -23 49q1 -9 -2 -5.5t-6.5 12t-7.5 19t-5 14.5q-5 16 -8.5 33.5t-4.5 34.5q0 5 -2 15q-4 19 -9 33q-2 2 -4 4.5t-4 4.5q-3 -1 -5 -2.5t-4 3.5q-5 11 -11 29t-11 30l-9 18q-3 -21 -5.5 -45.5t1.5 -66.5q1 -8 2 -6.5t2.5 3t2 -0.5
t-0.5 -18q-1 -42 -3.5 -84t-1.5 -84l1.5 -19.5t1.5 -10.5t2.5 -8t3.5 -13q1 -3 1.5 -5.5t1.5 -5.5q0 -11 -0.5 -15.5t-2.5 -6.5t-5.5 -3.5t-8.5 -5.5q-2 -1 -5 -1q-3 3 -3.5 12.5t-1.5 14.5q-3 3 -5 4z" />
    <glyph glyph-name="k" unicode="k" horiz-adv-x="370" 
d="M98 46q-4 -15 -16 -3q-8 10 -13 26.5t-8 34.5t-4.5 35.5t-2.5 29.5q-2 20 -3.5 29.5t4.5 17.5q-2 19 -2 37.5t-1 37.5q-3 -12 -4 -5.5t-1 20t0.5 28.5t0.5 19q1 31 5 61.5t6 61.5v3v22t-2 21q-1 5 -2 9.5t-3 9.5q-2 2 -4.5 0t-3.5 8q-1 26 2 59t5 59v30t-1 36.5t-2.5 36
t-5.5 28.5q1 17 11 22.5t24 9.5q1 2 2.5 4.5t2.5 4.5q1 5 2.5 9t3.5 8q5 -28 6.5 -57.5t3.5 -57.5q0 -7 0.5 -13.5t0.5 -12.5q2 -5 6 -13q1 3 1.5 6.5t2.5 6.5q2 8 2.5 -7.5t0 -38.5t-1.5 -45.5t-1 -26.5v-17l8 10t7 10q4 4 7 9l1 1q7 8 11 13t7.5 9.5t6.5 10t8 14.5
q4 7 3.5 9.5t-2 3t-1.5 2t4 7.5q10 12 17 16t13.5 7.5t13.5 8.5t16 18l1 2q2 3 1 3.5t-2.5 1t-1 2t5.5 4.5q15 11 30 20.5t30 22.5q10 8 15.5 16.5t9.5 11.5q8 5 10.5 3.5t11.5 -4.5q2 0 2 -0.5t2 -1.5q2 -4 0 -7.5t-4 -6.5q0 -3 1 -4q14 1 12 -9.5t-10 -23.5t-18 -25
t-12 -15q-8 -9 -10.5 -12t-3.5 -3.5t-1 0.5t-2 2l-24 -24q8 2 4 -1.5t-7 -5.5q0 -1 -2 -2.5t-3 -2.5q-12 -11 -23 -18.5t-23 -18.5l-9.5 -9.5t-7.5 -9.5q-1 -3 -1.5 -5.5t-1.5 -5.5q2 -2 4 -3t-1 -6q-2 -4 -7 -9.5t-9 -9.5q-7 -8 -13.5 -14.5t-12.5 -14.5q-1 -1 -6 -10.5
t-10 -17.5q2 -19 5 -34.5t10 -35.5q1 -4 5 -12q2 -1 4 -1.5t4 -1.5q0 5 1 7q1 3 5 -4.5t8.5 -17.5t8.5 -19.5t5 -10.5q7 -18 13 -31.5t14 -30.5q6 -12 8 -13.5t3.5 -1t3 -1t4.5 -12.5l1 -5q3 -19 2 -27t0 -15t5 -18t18 -35q3 -5 4 -3.5t1.5 3t2 0t5.5 -11.5q10 -27 18.5 -54
t19.5 -54q0 -2 1.5 -6t3.5 -6q2 -4 7 -11.5t6 -12.5l1 -2q1 -2 2 -6t-1 -6q-1 -3 -3.5 -5.5l-4.5 -4.5t-2 -4l-2 -2h-3l-3 3q-1 2 -1.5 2t-1.5 2q-2 2 -2.5 5t-2.5 5h-2q-1 0 -1 1l-2 1v-2q-2 -5 -5 -7t-8 2q-2 1 -4.5 5t-4.5 6t-2.5 2t3.5 -6q-14 9 -23.5 26t-17.5 31
q-5 9 -8 13.5t-4.5 7t-1.5 4.5t2 6q-13 25 -23 49q1 -9 -2 -5.5t-6.5 12t-7.5 19t-5 14.5q-5 16 -8.5 33.5t-4.5 34.5q0 5 -2 15q-4 19 -9 33q-2 2 -4 4.5t-4 4.5q-3 -1 -5 -2.5t-4 3.5q-5 11 -11 29t-11 30l-9 18q-3 -21 -5.5 -45.5t1.5 -66.5q1 -8 2 -6.5t2.5 3t2 -0.5
t-0.5 -18q-1 -42 -3.5 -84t-1.5 -84l1.5 -19.5t1.5 -10.5t2.5 -8t3.5 -13q1 -3 1.5 -5.5t1.5 -5.5q0 -11 -0.5 -15.5t-2.5 -6.5t-5.5 -3.5t-8.5 -5.5q-2 -1 -5 -1q-3 3 -3.5 12.5t-1.5 14.5q-3 3 -5 4z" />
    <glyph glyph-name="L" unicode="L" horiz-adv-x="388" 
d="M348 65q13 -4 13.5 -7t-5 -5t-13.5 -3.5t-12 -1.5q-5 -3 -21.5 -6t-36.5 -5.5t-38 -4t-25 -2.5q-15 -2 -30.5 -3.5t-30.5 -3.5q-7 0 -10 -1q-6 -1 -12.5 -1.5t-11.5 -0.5q-2 -1 -4 -1h-4h-5q-2 1 -7 1q-2 1 -3.5 1.5t-3.5 1.5q-2 2 -4 3t-3 2q-5 4 -9 12q-3 9 -4 11.5
t-0.5 2.5t2 -1t2.5 1q-3 14 -4 30.5t-1 30.5q0 8 -0.5 16.5t-0.5 17.5q-2 -10 -3 -9t-1.5 9t-0.5 20v24t0.5 21t0.5 11v5q2 47 5.5 93t5.5 93v7l-3 36q-4 10 -6 22q-3 1 -5.5 -0.5t-3.5 10.5q-2 19 -2 41.5t0.5 45t1.5 45t1 41.5v44t-0.5 56t-2 55t-5.5 42q2 20 10.5 27
t26.5 12l2.5 5l2.5 5q1 4 3 8.5t4 9.5q4 -36 4.5 -75t1.5 -75q0 -10 0.5 -19.5t0.5 -20.5q2 -5 3 -10t3 -10l3 21q3 9 4 -13t1 -55t-0.5 -66.5t-0.5 -47.5v-32t1 -27t3 -27t6 -31q2 -4 2 -7q3 -8 5 -9t3 -1t1.5 -2t1.5 -12q1 -23 -0.5 -45.5t-4.5 -44.5t-5.5 -44.5
t-2.5 -45.5q0 -35 3 -71q1 -9 2 -7.5t2.5 3.5t2 -0.5t0.5 -19.5v-18v-12v-18t-0.5 -15t-1.5 -3q-3 7 -8 11q-4 4 -6 5t-4 1.5t-4 1.5q-1 0 -2 0.5t-2 0.5h-2h5h22q18 0 36 0.5t36 0.5q8 0 17.5 1t17.5 1q23 1 45.5 1.5t44.5 3.5h24q-2 -4 5 -6t18 -5q3 0 3 -0.5t1 -2.5
q-4 -3 -12.5 -8t-13.5 -6q-2 -1 -8 -3z" />
    <glyph glyph-name="l" unicode="l" horiz-adv-x="357" 
d="M338 65q13 -4 13.5 -7t-5 -5t-13.5 -3.5t-12 -1.5q-5 -3 -21.5 -6t-36.5 -5.5t-38 -4t-25 -2.5q-15 -2 -30.5 -3.5t-30.5 -3.5q-7 0 -10 -1q-6 -1 -12.5 -1.5t-11.5 -0.5q-2 -1 -4 -1h-4h-5q-2 1 -7 1q-2 1 -3.5 1.5t-3.5 1.5q-2 2 -4 3t-3 2q-5 4 -9 12q-3 9 -4 11.5
t-0.5 2.5t2 -1t2.5 1q-3 14 -4 30.5t-1 30.5q0 8 -0.5 16.5t-0.5 17.5q-2 -10 -3 -9t-1.5 9t-0.5 20v24t0.5 21t0.5 11v5q2 47 5.5 93t5.5 93v7l-3 36q-4 10 -6 22q-3 1 -5.5 -0.5t-3.5 10.5q-2 19 -2 41.5t0.5 45t1.5 45t1 41.5v44t-0.5 56t-2 55t-5.5 42q2 20 10.5 27
t26.5 12l2.5 5l2.5 5q1 4 3 8.5t4 9.5q4 -36 4.5 -75t1.5 -75q0 -10 0.5 -19.5t0.5 -20.5q2 -5 3 -10t3 -10l3 21q3 9 4 -13t1 -55t-0.5 -66.5t-0.5 -47.5v-32t1 -27t3 -27t6 -31q2 -4 2 -7q3 -8 5 -9t3 -1t1.5 -2t1.5 -12q1 -23 -0.5 -45.5t-4.5 -44.5t-5.5 -44.5
t-2.5 -45.5q0 -35 3 -71q1 -9 2 -7.5t2.5 3.5t2 -0.5t0.5 -19.5v-18v-12v-18t-0.5 -15t-1.5 -3q-3 7 -8 11q-4 4 -6 5t-4 1.5t-4 1.5q-1 0 -2 0.5t-2 0.5h-2h5h22q18 0 36 0.5t36 0.5q8 0 17.5 1t17.5 1q23 1 45.5 1.5t44.5 3.5h24q-2 -4 5 -6t18 -5q3 0 3 -0.5t1 -2.5
q-4 -3 -12.5 -8t-13.5 -6q-2 -1 -8 -3z" />
    <glyph glyph-name="M" unicode="M" horiz-adv-x="448" 
d="M81 121q-7 -8 -11.5 -3t-7.5 18.5t-4.5 31.5t-2 35t-1 30.5t-0.5 17.5q-2 23 -3 27t4 9q-1 11 -1.5 20.5t-2.5 20.5q0 2 -0.5 5.5t-0.5 5.5q-2 -9 -3 -4.5t-2 14t-1.5 21t-0.5 16.5q-2 29 0.5 61t4.5 61q0 11 0.5 21t-0.5 20q-1 4 -1.5 8t-2.5 8q-3 1 -5 0.5t-3 7.5
q-1 22 2.5 54t5.5 55q0 10 0.5 27.5t0.5 36t-1 35t-3 25.5q2 17 14 20t25 5q3 3 5 7q2 3 4.5 6.5t4.5 6.5v-33q5 -8 10 -16.5t10 -15.5q2 -3 3.5 -5.5t3.5 -5.5q6 -2 8 -3v8q0 5 5 -3t10 -19q6 -13 15 -32q4 -9 6 -14.5t4.5 -9.5t6 -9t9.5 -12q4 -6 6 -6.5t3.5 0.5t3 0.5
t4.5 -6.5q6 -12 8 -20.5t3 -16.5t3.5 -16.5t9.5 -20.5l3.5 -3.5l3.5 -3.5t3 -1t1.5 2t1.5 0.5t3 -5.5q2 -3 2.5 -6t2.5 -6q1 2 1.5 4.5t1.5 4.5l2 4q7 17 18 33.5t20 32.5q7 13 10 22v10q-2 2 -4.5 2t-1.5 5q4 10 13.5 26.5t14.5 27.5q1 4 3 12.5t3.5 17.5t1 17t-3.5 12
q3 7 17 8t21 1q1 1 2.5 2t2.5 2q1 2 3 3.5t4 3.5q2 -5 2 -11v-12q1 1 1.5 2t1.5 2q2 4 3.5 8t3.5 8q3 -26 4 -54.5t2 -55.5v-12t1 -12t5 -13q1 3 1.5 6.5t2.5 6.5q3 6 3 -8t-1 -35t-2.5 -41.5t-2.5 -27.5q-1 -14 -2 -24t-1 -19v-18.5t1 -22.5t2.5 -15.5t3 -2.5t2.5 -1t1 -12
q-2 -26 -5.5 -41t-6.5 -29t-4.5 -31.5t1.5 -48.5q1 -6 2.5 -5t2.5 2.5t1.5 -0.5t-0.5 -14q-2 -35 -6.5 -71.5t-9.5 -71.5q-2 -11 -3 -23t-2 -23q0 -2 2 -7.5t3 -10.5q1 -9 1 -13.5t-1.5 -7t-4.5 -4.5t-8 -8q-1 -1 -4 -1q-1 0 -2.5 4t-3 8.5l-3 9t-1.5 5.5q-1 1 -2 1.5
t-2 1.5q-4 -11 -8 -10t-7.5 7t-6 14.5t-2.5 13.5q-2 27 -2 53v52q-1 20 -2 26t5 11v57q-3 -9 -4 -4.5t-1 14.5t1 21.5t1 16.5q2 29 6.5 59.5t9.5 59.5l2 20t1 19q-1 5 -1.5 8.5t-1.5 7.5q-4 2 -5.5 1t-2.5 7q0 15 2.5 33t4.5 36q-6 -9 -10.5 -14t-9 -11t-8 -15t-6.5 -27
q0 -4 1.5 -3.5l3 1t2 -1t-2.5 -7.5q-6 -14 -12.5 -27l-13.5 -27l7 -13q0 -3 -5 -7.5t-7 -6.5q-1 -1 -1.5 -2t-1.5 -2t-4 -1q-2 -5 -2.5 -9.5t-1.5 -6.5q-3 -7 -7 -6t-12 -1q-2 -1 -4 0q-4 2 -4 5.5v6.5l-3 3q-7 -4 -10.5 -2t-5 8t-1.5 14t1 17q-6 9 -10 16.5t-6 9.5t-2.5 5
t-2.5 5q-6 10 -9 14t-3.5 5.5t0 2t2.5 3.5q-5 7 -8.5 14t-8.5 15q-1 -8 -4 -1t-5 10l-3 6q-7 16 -12 34t-11 35q-2 5 -4 11t-5 11q-6 4 -8 7q-3 -1 -5 -3t-4 3q-5 6 -9 18q-1 -23 -2 -46.5t-1 -27.5q-1 -15 -1.5 -24.5t-0.5 -18.5t1 -18.5t3 -23.5q2 -13 3.5 -15t3 -2
t2.5 -1t2 -12q1 -27 -1.5 -42t-4.5 -28.5t-1.5 -31t6.5 -49.5q1 -6 2.5 -5t2.5 2.5t2 0t1 -13.5v-1q1 -35 -2 -71t-6 -71q0 -8 -0.5 -18.5t-0.5 -21v-20t-1 -15.5q-1 -8 -2 -11.5t-3 -4.5t-5 -2t-8 -5q-1 -1 -4 -1q-4 3 -4.5 11.5t-0.5 13.5z" />
    <glyph glyph-name="m" unicode="m" horiz-adv-x="445" 
d="M83 69q-7 -8 -11.5 -3t-7.5 18.5t-4.5 31.5t-2 35t-1 30.5t-0.5 17.5q-2 23 -3 27t4 9q-1 11 -1.5 20.5t-2.5 20.5q0 2 -0.5 5.5t-0.5 5.5q-2 -9 -3 -4.5t-2 14t-1.5 21t-0.5 16.5q-2 29 0.5 61t4.5 61q0 11 0.5 21t-0.5 20q-1 4 -1.5 8t-2.5 8q-3 1 -5 0.5t-3 7.5
q-1 22 2.5 54t5.5 55q0 10 0.5 27.5t0.5 36t-1 35t-3 25.5q2 17 14 20t25 5q3 3 5 7q2 3 4.5 6.5t4.5 6.5v-33q5 -8 10 -16.5t10 -15.5q2 -3 3.5 -5.5t3.5 -5.5q6 -2 8 -3v8q0 5 5 -3t10 -19q6 -13 15 -32q4 -9 6 -14.5t4.5 -9.5t6 -9t9.5 -12q4 -6 6 -6.5t3.5 0.5t3 0.5
t4.5 -6.5q6 -12 8 -20.5t3 -16.5t3.5 -16.5t9.5 -20.5l3.5 -3.5l3.5 -3.5t3 -1t1.5 2t1.5 0.5t3 -5.5q2 -3 2.5 -6t2.5 -6q1 2 1.5 4.5t1.5 4.5l2 4q7 17 18 33.5t20 32.5q7 13 10 22v10q-2 2 -4.5 2t-1.5 5q4 10 13.5 26.5t14.5 27.5q1 4 3 12.5t3.5 17.5t1 17t-3.5 12
q3 7 17 8t21 1q1 1 2.5 2t2.5 2q1 2 3 3.5t4 3.5q2 -5 2 -11v-12q1 1 1.5 2t1.5 2q2 4 3.5 8t3.5 8q3 -26 4 -54.5t2 -55.5v-12t1 -12t5 -13q1 3 1.5 6.5t2.5 6.5q3 6 3 -8t-1 -35t-2.5 -41.5t-2.5 -27.5q-1 -14 -2 -24t-1 -19v-18.5t1 -22.5t2.5 -15.5t3 -2.5t2.5 -1t1 -12
q-2 -26 -5.5 -41t-6.5 -29t-4.5 -31.5t1.5 -48.5q1 -6 2.5 -5t2.5 2.5t1.5 -0.5t-0.5 -14q-2 -35 -6.5 -71.5t-9.5 -71.5q-2 -11 -3 -23t-2 -23q0 -2 2 -7.5t3 -10.5q1 -9 1 -13.5t-1.5 -7t-4.5 -4.5t-8 -8q-1 -1 -4 -1q-1 0 -2.5 4t-3 8.5l-3 9t-1.5 5.5q-1 1 -2 1.5
t-2 1.5q-4 -11 -8 -10t-7.5 7t-6 14.5t-2.5 13.5q-2 27 -2 53v52q-1 20 -2 26t5 11v57q-3 -9 -4 -4.5t-1 14.5t1 21.5t1 16.5q2 29 6.5 59.5t9.5 59.5l2 20t1 19q-1 5 -1.5 8.5t-1.5 7.5q-4 2 -5.5 1t-2.5 7q0 15 2.5 33t4.5 36q-6 -9 -10.5 -14t-9 -11t-8 -15t-6.5 -27
q0 -4 1.5 -3.5l3 1t2 -1t-2.5 -7.5q-6 -14 -12.5 -27l-13.5 -27l7 -13q0 -3 -5 -7.5t-7 -6.5q-1 -1 -1.5 -2t-1.5 -2t-4 -1q-2 -5 -2.5 -9.5t-1.5 -6.5q-3 -7 -7 -6t-12 -1q-2 -1 -4 0q-4 2 -4 5.5v6.5l-3 3q-7 -4 -10.5 -2t-5 8t-1.5 14t1 17q-6 9 -10 16.5t-6 9.5t-2.5 5
t-2.5 5q-6 10 -9 14t-3.5 5.5t0 2t2.5 3.5q-5 7 -8.5 14t-8.5 15q-1 -8 -4 -1t-5 10l-3 6q-7 16 -12 34t-11 35q-2 5 -4 11t-5 11q-6 4 -8 7q-3 -1 -5 -3t-4 3q-5 6 -9 18q-1 -23 -2 -46.5t-1 -27.5q-1 -15 -1.5 -24.5t-0.5 -18.5t1 -18.5t3 -23.5q2 -13 3.5 -15t3 -2
t2.5 -1t2 -12q1 -27 -1.5 -42t-4.5 -28.5t-1.5 -31t6.5 -49.5q1 -6 2.5 -5t2.5 2.5t2 0t1 -13.5v-1q1 -35 -2 -71t-6 -71q0 -8 -0.5 -18.5t-0.5 -21v-20t-1 -15.5q-1 -8 -2 -11.5t-3 -4.5t-5 -2t-8 -5q-1 -1 -4 -1q-4 3 -4.5 11.5t-0.5 13.5z" />
    <glyph glyph-name="N" unicode="N" horiz-adv-x="423" 
d="M322 825q7 9 11.5 4t8 -19.5t5.5 -33.5t3.5 -37.5t2 -33t0.5 -17.5q2 -20 3.5 -26.5t-3.5 -13.5q2 -15 2.5 -30.5t2.5 -31.5q2 11 3 5.5t1.5 -16.5t1 -24t0.5 -17q0 -27 -3 -56t-5 -55q-1 -6 -1 -12.5t-1 -12.5q-2 -23 0 -46l6 -18q2 -2 4 0t4 -8q3 -28 3.5 -61.5
t1.5 -62.5q1 -11 3.5 -29t4.5 -38t5 -37.5t6 -26.5q-1 -16 -12 -20.5t-25 -6.5q-3 -3 -5 -7l-8 -12q-1 14 -1.5 26t-1.5 25q-8 19 -15.5 38t-15.5 39q-2 5 -4.5 10.5t-4.5 11.5q-2 2 -5 4t-5 4q2 -8 2 -12q0 -6 -6 6.5t-13.5 31.5t-14 37.5t-9.5 25.5q-5 13 -8.5 22.5
t-7.5 18.5t-8.5 17.5t-11.5 20.5q-7 11 -9 13t-3 1t-2.5 0t-6.5 11q-10 23 -14.5 38.5t-8.5 30.5t-11 32.5t-22 43.5q-3 5 -3.5 3.5l-1 -3t-2 0t-5.5 12.5q-10 26 -18 56q-1 2 -1 3t-1 3l1 -24q3 10 3.5 4.5t0.5 -16.5t-0.5 -23t-0.5 -16q0 -15 -1.5 -30.5t-3.5 -31.5
t-3 -32t-3 -32q-1 -11 -1.5 -21t0.5 -21q2 -10 4 -17q3 -1 4.5 0t3.5 -8q1 -24 -1.5 -55t-4.5 -57q0 -11 0.5 -28t1.5 -35.5t3 -35.5t5 -27q-1 -16 -11.5 -20.5t-24.5 -8.5q-1 -1 -2.5 -3.5t-2.5 -3.5q-2 -4 -3.5 -8t-3.5 -7q-3 26 -4.5 52.5t-3.5 52.5q0 7 -0.5 13t-1.5 12
q-4 8 -6 13q0 -7 -3 -14q-2 -8 -3 7.5t-1 38t0.5 44t0.5 26.5q1 14 1 24.5v20.5t-1 20.5t-2 24.5q-2 13 -3.5 15.5t-3 2t-2.5 1t-1 13.5q0 13 1 26.5t4 26.5q4 17 6 29t2.5 23.5t-0.5 24t-3 30.5q-1 7 -2 5.5t-2.5 -3t-2 0.5t-0.5 15q2 37 6 74t7 74q2 18 1 39.5t1 35.5
q1 9 2.5 12t3 4.5t4.5 2.5t8 5q2 1 5 0q4 -3 4.5 -11.5t0.5 -13.5q1 -1 1.5 -2t1.5 -2q6 8 10.5 4.5t7.5 -14.5t4.5 -26.5t2.5 -31.5q9 -13 18 -31t16.5 -34t13 -27.5l5.5 -11.5q2 -5 4.5 -9.5t4.5 -9.5q3 -7 4 -9t0.5 -1.5t-1.5 1t-2 -2.5q5 -12 11 -24.5t11 -24.5
q-1 9 1.5 5t7 -13t8.5 -19.5t6 -14.5q11 -28 20.5 -57.5t20.5 -58.5q4 -10 7.5 -19.5t8.5 -18.5q4 -6 10 -14q3 0 4 2t6 -6q5 -11 9 -23t9 -25q-2 23 -3.5 41.5t-4.5 43.5q-2 15 -4 18t-3 3t-2 2t-2 14v13q1 27 4 42.5t5.5 29.5t2 32t-4.5 50q-1 7 -2.5 5.5t-2.5 -3t-2 0.5
t-1 15q0 38 1.5 77t3.5 77q1 17 -0.5 42t0.5 39q1 9 2 13t2.5 5.5t4.5 2.5t9 6q1 2 4 1q4 -3 4.5 -13t0.5 -15q1 -2 2 -2.5t2 -2.5z" />
    <glyph glyph-name="n" unicode="n" horiz-adv-x="427" 
d="M324 845q7 9 11.5 4t8 -19.5t5.5 -33.5t3.5 -37.5t2 -33t0.5 -17.5q2 -20 3.5 -26.5t-3.5 -13.5q2 -15 2.5 -30.5t2.5 -31.5q2 11 3 5.5t1.5 -16.5t1 -24t0.5 -17q0 -27 -3 -56t-5 -55q-1 -6 -1 -12.5t-1 -12.5q-2 -23 0 -46l6 -18q2 -2 4 0t4 -8q3 -28 3.5 -61.5
t1.5 -62.5q1 -11 3.5 -29t4.5 -38t5 -37.5t6 -26.5q-1 -16 -12 -20.5t-25 -6.5q-3 -3 -5 -7l-8 -12q-1 14 -1.5 26t-1.5 25q-8 19 -15.5 38t-15.5 39q-2 5 -4.5 10.5t-4.5 11.5q-2 2 -5 4t-5 4q2 -8 2 -12q0 -6 -6 6.5t-13.5 31.5t-14 37.5t-9.5 25.5q-5 13 -8.5 22.5
t-7.5 18.5t-8.5 17.5t-11.5 20.5q-7 11 -9 13t-3 1t-2.5 0t-6.5 11q-10 23 -14.5 38.5t-8.5 30.5t-11 32.5t-22 43.5q-3 5 -3.5 3.5l-1 -3t-2 0t-5.5 12.5q-10 26 -18 56q-1 2 -1 3t-1 3l1 -24q3 10 3.5 4.5t0.5 -16.5t-0.5 -23t-0.5 -16q0 -15 -1.5 -30.5t-3.5 -31.5
t-3 -32t-3 -32q-1 -11 -1.5 -21t0.5 -21q2 -10 4 -17q3 -1 4.5 0t3.5 -8q1 -24 -1.5 -55t-4.5 -57q0 -11 0.5 -28t1.5 -35.5t3 -35.5t5 -27q-1 -16 -11.5 -20.5t-24.5 -8.5q-1 -1 -2.5 -3.5t-2.5 -3.5q-2 -4 -3.5 -8t-3.5 -7q-3 26 -4.5 52.5t-3.5 52.5q0 7 -0.5 13t-1.5 12
q-4 8 -6 13q0 -7 -3 -14q-2 -8 -3 7.5t-1 38t0.5 44t0.5 26.5q1 14 1 24.5v20.5t-1 20.5t-2 24.5q-2 13 -3.5 15.5t-3 2t-2.5 1t-1 13.5q0 13 1 26.5t4 26.5q4 17 6 29t2.5 23.5t-0.5 24t-3 30.5q-1 7 -2 5.5t-2.5 -3t-2 0.5t-0.5 15q2 37 6 74t7 74q2 18 1 39.5t1 35.5
q1 9 2.5 12t3 4.5t4.5 2.5t8 5q2 1 5 0q4 -3 4.5 -11.5t0.5 -13.5q1 -1 1.5 -2t1.5 -2q6 8 10.5 4.5t7.5 -14.5t4.5 -26.5t2.5 -31.5q9 -13 18 -31t16.5 -34t13 -27.5l5.5 -11.5q2 -5 4.5 -9.5t4.5 -9.5q3 -7 4 -9t0.5 -1.5t-1.5 1t-2 -2.5q5 -12 11 -24.5t11 -24.5
q-1 9 1.5 5t7 -13t8.5 -19.5t6 -14.5q11 -28 20.5 -57.5t20.5 -58.5q4 -10 7.5 -19.5t8.5 -18.5q4 -6 10 -14q3 0 4 2t6 -6q5 -11 9 -23t9 -25q-2 23 -3.5 41.5t-4.5 43.5q-2 15 -4 18t-3 3t-2 2t-2 14v13q1 27 4 42.5t5.5 29.5t2 32t-4.5 50q-1 7 -2.5 5.5t-2.5 -3t-2 0.5
t-1 15q0 38 1.5 77t3.5 77q1 17 -0.5 42t0.5 39q1 9 2 13t2.5 5.5t4.5 2.5t9 6q1 2 4 1q4 -3 4.5 -13t0.5 -15q1 -2 2 -2.5t2 -2.5z" />
    <glyph glyph-name="O" unicode="O" horiz-adv-x="459" 
d="M90 307q2 -38 4 -72.5t15 -76.5q0 -1 1.5 -4.5t1.5 -4.5q6 -13 13 -22l15 -9q-2 4 -4 7.5t-4 7.5q-1 4 1.5 2t7.5 -6.5t10.5 -10t10.5 -8.5q22 -12 44.5 -15t47.5 -4q8 0 13 2l2 1q2 2 6 4.5t6 4.5q11 12 17.5 25t11.5 27q4 12 6.5 23.5t4.5 23.5q2 16 1.5 20.5t-1.5 7
t-1.5 6.5t1.5 18q4 23 7 45.5t8 45.5q6 31 9 56t4 49t0 49.5t-3 58.5q0 1 -4 5.5t-4 25.5q0 28 0.5 56.5t2.5 56.5q0 17 -4 31.5t-12 29.5q-2 5 -4.5 9t-5.5 9q-14 22 -34 41q-9 8 -14 12t-10 6.5l-10 5t-14 6.5h-2q-2 1 -5.5 2t-5.5 2q-10 -3 -16 -7q-7 -5 -13 -9t-12 -9
q-4 -3 -7.5 -6t-6.5 -7q-1 -3 -1.5 -5.5t-1.5 -5.5q3 2 9 4t0 -4t-6 -7q-13 -13 -22.5 -24.5t-19.5 -27.5l-1 -2q-10 -16 -13 -28t-1 -29v-1q1 -11 2.5 -12.5t3 -1.5t2.5 -1t1 -11q-1 -23 -4 -35.5t-6 -24t-4 -26.5t2 -43q1 -5 2.5 -3.5t2.5 3.5t2 0t0 -14q0 -12 -3 -40
t-6.5 -60t-7 -63t-5.5 -49zM225 880q10 0 15 -2q1 0 3.5 0.5t3.5 0.5q-2 3 -5 5q-6 5 -6 7.5t9 2.5q19 0 38 -11t33 -22q19 -16 33 -32t27 -37q13 -22 20 -42.5t9 -46.5v-1q2 -20 3.5 -25t-3.5 -13q2 -23 3 -46.5t2 -46.5q2 14 3 12t1.5 -12.5t0.5 -27t-0.5 -32t-0.5 -26.5
v-12q-1 -34 -3.5 -67t-6.5 -67q-7 -56 -21 -116q-4 -17 -8.5 -34t-9.5 -34l-3 -18q-1 -2 -1 -5t-1 -5q0 -2 1.5 -2t2.5 -1t0.5 -4.5t-4.5 -11.5q-12 -26 -31 -47q-16 -16 -33 -24q-11 -5 -20 -7t-21 -2q-27 1 -50 4t-49 14q-2 1 -12 5t-11 5q-25 15 -40 32t-26 43
q-12 31 -15.5 54.5t-10.5 53.5q0 6 0.5 10.5t1.5 9.5q-3 19 -4 50t-0.5 61t1.5 53.5t1 26.5q-1 11 -2 16.5t-1 8t1 3.5t4 3q-1 12 -1 24t-1 24q-3 -8 -4 -4t-1 12.5t0.5 18t0.5 14.5q2 25 6 51t7 52q0 1 1 7.5t1 7.5q0 6 1 10q0 4 0.5 7t0.5 5q0 4 -0.5 7.5t-0.5 8.5
q-2 2 -5 1.5t-1 7.5q3 11 8.5 21.5t10.5 19.5q8 14 17 25t20 22q5 6 9 11t9 10q17 17 30 26.5t31 23.5q3 2 5.5 3.5t5.5 3.5q17 6 26 -9q4 -6 6 -12z" />
    <glyph glyph-name="o" unicode="o" horiz-adv-x="431" 
d="M83 302q2 -38 4 -72.5t15 -76.5q0 -1 1.5 -4.5t1.5 -4.5q6 -13 13 -22l15 -9q-2 4 -4 7.5t-4 7.5q-1 4 1.5 2t7.5 -6.5t10.5 -10t10.5 -8.5q22 -12 44.5 -15t47.5 -4q8 0 13 2l2 1q2 2 6 4.5t6 4.5q11 12 17.5 25t11.5 27q4 12 6.5 23.5t4.5 23.5q2 16 1.5 20.5t-1.5 7
t-1.5 6.5t1.5 18q4 23 7 45.5t8 45.5q6 31 9 56t4 49t0 49.5t-3 58.5q0 1 -4 5.5t-4 25.5q0 28 0.5 56.5t2.5 56.5q0 17 -4 31.5t-12 29.5q-2 5 -4.5 9t-5.5 9q-14 22 -34 41q-9 8 -14 12t-10 6.5l-10 5t-14 6.5h-2q-2 1 -5.5 2t-5.5 2q-10 -3 -16 -7q-7 -5 -13 -9t-12 -9
q-4 -3 -7.5 -6t-6.5 -7q-1 -3 -1.5 -5.5t-1.5 -5.5q3 2 9 4t0 -4t-6 -7q-13 -13 -22.5 -24.5t-19.5 -27.5l-1 -2q-10 -16 -13 -28t-1 -29v-1q1 -11 2.5 -12.5t3 -1.5t2.5 -1t1 -11q-1 -23 -4 -35.5t-6 -24t-4 -26.5t2 -43q1 -5 2.5 -3.5t2.5 3.5t2 0t0 -14q0 -12 -3 -40
t-6.5 -60t-7 -63t-5.5 -49zM218 875q10 0 15 -2q1 0 3.5 0.5t3.5 0.5q-2 3 -5 5q-6 5 -6 7.5t9 2.5q19 0 38 -11t33 -22q19 -16 33 -32t27 -37q13 -22 20 -42.5t9 -46.5v-1q2 -20 3.5 -25t-3.5 -13q2 -23 3 -46.5t2 -46.5q2 14 3 12t1.5 -12.5t0.5 -27t-0.5 -32t-0.5 -26.5
v-12q-1 -34 -3.5 -67t-6.5 -67q-7 -56 -21 -116q-4 -17 -8.5 -34t-9.5 -34l-3 -18q-1 -2 -1 -5t-1 -5q0 -2 1.5 -2t2.5 -1t0.5 -4.5t-4.5 -11.5q-12 -26 -31 -47q-16 -16 -33 -24q-11 -5 -20 -7t-21 -2q-27 1 -50 4t-49 14q-2 1 -12 5t-11 5q-25 15 -40 32t-26 43
q-12 31 -15.5 54.5t-10.5 53.5q0 6 0.5 10.5t1.5 9.5q-3 19 -4 50t-0.5 61t1.5 53.5t1 26.5q-1 11 -2 16.5t-1 8t1 3.5t4 3q-1 12 -1 24t-1 24q-3 -8 -4 -4t-1 12.5t0.5 18t0.5 14.5q2 25 6 51t7 52q0 1 1 7.5t1 7.5q0 6 1 10q0 4 0.5 7t0.5 5q0 4 -0.5 7.5t-0.5 8.5
q-2 2 -5 1.5t-1 7.5q3 11 8.5 21.5t10.5 19.5q8 14 17 25t20 22q5 6 9 11t9 10q17 17 30 26.5t31 23.5q3 2 5.5 3.5t5.5 3.5q17 6 26 -9q4 -6 6 -12z" />
    <glyph glyph-name="P" unicode="P" horiz-adv-x="384" 
d="M90 43q-7 -9 -12 -3t-8 20.5t-4 34t-2 38t-1 33v17.5q-1 20 -2.5 27.5t3.5 14.5q-1 17 -1.5 33.5t-1.5 33.5q-3 -11 -4 -5.5t-1.5 17.5t-0.5 25.5v18.5q0 35 3 71t5 71q1 11 1.5 23t0.5 23q-2 5 -2.5 9.5t-2.5 9.5q-2 1 -4.5 -0.5t-3.5 8.5q0 24 2.5 55t4.5 55q1 2 1 5
q-1 12 -4 34.5t-7.5 47.5t-9.5 47t-10 32q-2 12 3.5 17.5t14.5 9.5q-2 2 -2.5 5t-2.5 6q-6 4 -12 4q-6 2 -12.5 3.5t-12.5 3.5l138 15q4 0 7.5 0.5t7.5 0.5t7 0.5t7 0.5q4 2 8 3t9 3l-18 3q-6 1 -3 2t10.5 1.5t16 0t13.5 -0.5q12 -2 22.5 -4.5t21.5 -8.5q11 -7 18 -14.5
t14 -18.5q6 -11 10 -21.5t8 -22.5q0 -1 0.5 -2t0.5 -2q7 -30 12.5 -52t15.5 -51q4 -14 6.5 -19t4 -6t2.5 -0.5t2 -1.5q2 -2 2.5 -5.5t1.5 -5.5q1 -14 0 -38t-3.5 -51t-4.5 -53.5t-3 -44.5v-27q0 -9 1.5 -7.5l3 3t2 -1t-2.5 -19.5q-3 -18 -7 -34.5t-11 -33.5
q-5 -13 -10 -24.5t-13 -22.5q-8 -12 -16 -20t-22 -13q-9 -3 -18.5 -4t-18.5 -2q-32 0 -63 3q-8 1 -16 1.5t-16 1.5v-14q0 -41 -3 -82t-6 -81q-1 -17 -1 -42t-2 -39q0 -2 -1 -9t-3 -8q0 -5 -3 -9t-7 -7q-3 -2 -8 -2q-6 0 -8 1q-1 1 -5 7q-1 0 -1 4q1 2 2.5 2t3.5 1h2l1 1v2
q1 0 1 1q-1 5 -1 8.5v8.5q-1 2 -1.5 2.5t-1.5 2.5zM129 296q-2 0 -3 1q1 -5 3 -1zM122 327l1 -1q2 2 5 2q-1 2 -3 4.5t-2 4.5t1 3q2 2 8 2.5t13 0.5h13.5h9.5t14.5 0.5t24 1.5t23 2.5t10.5 3.5l4.5 4.5t3.5 6.5q1 1 1 2q2 5 5.5 15t4.5 16q1 5 1.5 6t0.5 0t0.5 -2t2.5 1
q4 17 6 33t4 33q-4 -10 -4.5 -6.5t0 12.5t2 18t1.5 11l3 36q2 34 3.5 69.5t3.5 69.5q-2 14 -5.5 30t-7.5 30q-2 5 -4.5 10t-4.5 10q-3 1 -5 -1t-5 8t-5 21.5t-4 22.5q0 1 -1.5 5.5t-3 9.5t-3.5 9.5t-3 5.5q-3 7 -9 13q-2 2 -4 2q-3 2 -8 2.5t-8 0.5q-21 1 -42 0
q-16 -1 -38 -3.5t-37 -7.5h-3q5 -21 8.5 -43.5t4.5 -27.5q2 -9 3.5 -18t3.5 -19q5 -8 8 -16q0 5 0.5 9t0.5 9q1 9 3 0.5t3.5 -23t2.5 -28l1 -13.5q-1 -16 -1.5 -32t-1.5 -32q-1 -15 -1 -26.5v-22t0.5 -21.5t2.5 -26q1 -14 3 -17t3.5 -3t2.5 -2t1 -14q0 -26 -1.5 -43
t-4 -32.5t-3.5 -33t1 -42.5z" />
    <glyph glyph-name="p" unicode="p" horiz-adv-x="373" 
d="M89 43q-7 -9 -12 -3t-8 20.5t-4 34t-2 38t-1 33v17.5q-1 20 -2.5 27.5t3.5 14.5q-1 17 -1.5 33.5t-1.5 33.5q-3 -11 -4 -5.5t-1.5 17.5t-0.5 25.5v18.5q0 35 3 71t5 71q1 11 1.5 23t0.5 23q-2 5 -2.5 9.5t-2.5 9.5q-2 1 -4.5 -0.5t-3.5 8.5q0 24 2.5 55t4.5 55q1 2 1 5
q-1 12 -4 34.5t-7.5 47.5t-9.5 47t-10 32q-2 12 3.5 17.5t14.5 9.5q-2 2 -2.5 5t-2.5 6q-6 4 -12 4q-6 2 -12.5 3.5t-12.5 3.5l138 15q4 0 7.5 0.5t7.5 0.5t7 0.5t7 0.5q4 2 8 3t9 3l-18 3q-6 1 -3 2t10.5 1.5t16 0t13.5 -0.5q12 -2 22.5 -4.5t21.5 -8.5q11 -7 18 -14.5
t14 -18.5q6 -11 10 -21.5t8 -22.5q0 -1 0.5 -2t0.5 -2q7 -30 12.5 -52t15.5 -51q4 -14 6.5 -19t4 -6t2.5 -0.5t2 -1.5q2 -2 2.5 -5.5t1.5 -5.5q1 -14 0 -38t-3.5 -51t-4.5 -53.5t-3 -44.5v-27q0 -9 1.5 -7.5l3 3t2 -1t-2.5 -19.5q-3 -18 -7 -34.5t-11 -33.5
q-5 -13 -10 -24.5t-13 -22.5q-8 -12 -16 -20t-22 -13q-9 -3 -18.5 -4t-18.5 -2q-32 0 -63 3q-8 1 -16 1.5t-16 1.5v-14q0 -41 -3 -82t-6 -81q-1 -17 -1 -42t-2 -39q0 -2 -1 -9t-3 -8q0 -5 -3 -9t-7 -7q-3 -2 -8 -2q-6 0 -8 1q-1 1 -5 7q-1 0 -1 4q1 2 2.5 2t3.5 1h2l1 1v2
q1 0 1 1q-1 5 -1 8.5v8.5q-1 2 -1.5 2.5t-1.5 2.5zM128 296q-2 0 -3 1q1 -5 3 -1zM121 327l1 -1q2 2 5 2q-1 2 -3 4.5t-2 4.5t1 3q2 2 8 2.5t13 0.5h13.5h9.5t14.5 0.5t24 1.5t23 2.5t10.5 3.5l4.5 4.5t3.5 6.5q1 1 1 2q2 5 5.5 15t4.5 16q1 5 1.5 6t0.5 0t0.5 -2t2.5 1
q4 17 6 33t4 33q-4 -10 -4.5 -6.5t0 12.5t2 18t1.5 11l3 36q2 34 3.5 69.5t3.5 69.5q-2 14 -5.5 30t-7.5 30q-2 5 -4.5 10t-4.5 10q-3 1 -5 -1t-5 8t-5 21.5t-4 22.5q0 1 -1.5 5.5t-3 9.5t-3.5 9.5t-3 5.5q-3 7 -9 13q-2 2 -4 2q-3 2 -8 2.5t-8 0.5q-21 1 -42 0
q-16 -1 -38 -3.5t-37 -7.5h-3q5 -21 8.5 -43.5t4.5 -27.5q2 -9 3.5 -18t3.5 -19q5 -8 8 -16q0 5 0.5 9t0.5 9q1 9 3 0.5t3.5 -23t2.5 -28l1 -13.5q-1 -16 -1.5 -32t-1.5 -32q-1 -15 -1 -26.5v-22t0.5 -21.5t2.5 -26q1 -14 3 -17t3.5 -3t2.5 -2t1 -14q0 -26 -1.5 -43
t-4 -32.5t-3.5 -33t1 -42.5z" />
    <glyph glyph-name="Q" unicode="Q" horiz-adv-x="414" 
d="M342 -140q-4 -10 -10 -11t-13 2.5t-13 9t-10 9.5q-8 8 -8.5 6t3.5 2q-4 3 -12 11q-2 -8 -6.5 -0.5t-5.5 9.5q-4 6 -5.5 17.5t-3.5 18.5q0 1 -1.5 3.5t-2.5 3.5q-2 0 -3 -0.5t-2 -0.5l-4 -4t-4 0t-4 13.5t-3 14.5q-1 -1 -3 2q-1 1 -3 2l-6 8q-6 8 -12 5q0 1 5 8.5t9 14.5
h-12h-9.5t-8.5 1q-11 0 -19.5 1.5t-18.5 3.5q-5 0 -10.5 1t-10.5 2q-2 -2 -1.5 -3.5t-4.5 -0.5q-4 0 -8 3q-12 6 -21.5 15.5t-17.5 20.5q-14 20 -20.5 39.5t-11.5 43.5l-6 24q-3 15 -2.5 47.5t1 68t1 67t-0.5 46.5q0 2 -0.5 7.5t-0.5 8.5q2 12 5 16v63v56q-2 7 -2.5 14
t-2.5 14q-1 -7 -1.5 -14t-2.5 -15q-3 -10 -3.5 0t0 31.5t2.5 51t3.5 58.5t3.5 53t4 36q1 7 4.5 24t6.5 23q7 14 13 30t14 30q2 4 5 7.5t5 7.5q8 9 13.5 13.5t14.5 11.5q3 3 3 4.5t1.5 3.5t7.5 3.5t21 4.5q5 1 11 1.5t11 0.5q18 0 35 -1.5t35 -3.5q16 -1 32 -10q13 -8 24 -20
q10 -13 16 -25.5t12 -27.5q8 -21 12.5 -42t9.5 -44q1 0 5 -4.5t6 -26.5q0 -5 0.5 -10.5t0.5 -10.5q2 -60 -2.5 -119t-9.5 -119q-1 -4 -1 -8t-1 -8q-1 -23 0.5 -49.5t-0.5 -49.5q-1 -13 -1.5 -18.5t-1.5 -7.5q1 -16 1 -31v-28v-21.5v-11.5q2 -20 3.5 -28.5t-4.5 -14.5
q0 -3 1 -14.5t-1 -13.5q-1 -7 -2 -13t-2 -13q5 13 5 7t-3 -19.5t-6 -28t-4 -18.5q-6 -22 -20 -41q-10 -13 -24 -20q-15 -7 -29 -10h-3q2 -3 6 -7q2 -1 5 -1h2l1 2v4q0 3 1.5 1.5l2.5 -2.5q5 -6 8 -14t5 -15q3 -11 4 -14t9 -11q0 -3 3 -6q4 -2 5.5 -0.5t4.5 -4.5
q4 -8 3 -13.5t-1.5 -11t1.5 -11t11 -12.5q4 -3 5 0.5t4 -3.5q4 -10 7 -20.5t6 -20.5q5 -10 7.5 -12t3.5 -5q1 -6 -2.5 -10.5t-6.5 -9.5q-2 -4 -4 -6q-2 -4 -8 -2q-1 -2 -3 -4v64zM307 424q-1 6 -1 10.5v8.5t-1 8q-2 26 -1.5 53t0.5 53q0 24 -1 42t4 29q0 36 -3 74l-2 18
l-2 18q-1 -15 -3.5 -8t-5 23t-5 34t-4.5 24q0 2 -1 5t-2 5q-4 16 -13 29q-1 1 -2.5 3t-2.5 2q-2 2 -3 2t-3 1q-17 1 -33 2t-33 2h-14.5t-14.5 -2h-2l-1 -1q-10 -4 -18 -15q-2 -4 -4 -7.5t-4 -7.5q-2 -7 -4 -13t-4 -13q1 -2 2.5 -2t2 -0.5t0 -3t-2.5 -9.5l1 1q-3 -4 -6.5 -26
t-6.5 -47.5t-5 -48.5t-2 -29q0 -16 -1 -39t-2 -50t-1 -55v-53q4 2 5 2q-2 -7 -2.5 -13t-1.5 -11q1 -14 1.5 -25t2.5 -19q0 -17 -8 -25q-1 -17 -2.5 -39t-2 -41.5t-1 -34.5t-0.5 -18q0 -8 0.5 -13.5t2.5 -12.5q4 -8 7 -12q0 6 2 14q1 5 1.5 1t2.5 -9q1 -7 3 -16
q4 -21 9 -39.5t16 -36.5q0 -1 2 -3q5 -8 10.5 -13t13.5 -10q14 -5 31 -4h6q11 2 12.5 3.5t1 2.5t1.5 2t14 2q2 0 13.5 1t13.5 1q6 0 10 -1q3 0 5 1q6 1 9 10t4.5 20t2.5 21t1 14q0 9 -1.5 8t-3 -3t-1.5 1.5t4 21.5v2q0 2 1 3q1 2 2 5q0 -4 1 12l2.5 40t3 49.5t2.5 40.5
q0 7 -0.5 20t-0.5 27v26.5t1 18.5q2 8 3.5 9.5t5.5 2.5z" />
    <glyph glyph-name="q" unicode="q" horiz-adv-x="409" 
d="M342 -140q-4 -10 -10 -11t-13 2.5t-13 9t-10 9.5q-8 8 -8.5 6t3.5 2q-4 3 -12 11q-2 -8 -6.5 -0.5t-5.5 9.5q-4 6 -5.5 17.5t-3.5 18.5q0 1 -1.5 3.5t-2.5 3.5q-2 0 -3 -0.5t-2 -0.5l-4 -4t-4 0t-4 13.5t-3 14.5q-1 -1 -3 2q-1 1 -3 2l-6 8q-6 8 -12 5q0 1 5 8.5t9 14.5
h-12h-9.5t-8.5 1q-11 0 -19.5 1.5t-18.5 3.5q-5 0 -10.5 1t-10.5 2q-2 -2 -1.5 -3.5t-4.5 -0.5q-4 0 -8 3q-12 6 -21.5 15.5t-17.5 20.5q-14 20 -20.5 39.5t-11.5 43.5l-6 24q-3 15 -2.5 47.5t1 68t1 67t-0.5 46.5q0 2 -0.5 7.5t-0.5 8.5q2 12 5 16v63v56q-2 7 -2.5 14
t-2.5 14q-1 -7 -1.5 -14t-2.5 -15q-3 -10 -3.5 0t0 31.5t2.5 51t3.5 58.5t3.5 53t4 36q1 7 4.5 24t6.5 23q7 14 13 30t14 30q2 4 5 7.5t5 7.5q8 9 13.5 13.5t14.5 11.5q3 3 3 4.5t1.5 3.5t7.5 3.5t21 4.5q5 1 11 1.5t11 0.5q18 0 35 -1.5t35 -3.5q16 -1 32 -10q13 -8 24 -20
q10 -13 16 -25.5t12 -27.5q8 -21 12.5 -42t9.5 -44q1 0 5 -4.5t6 -26.5q0 -5 0.5 -10.5t0.5 -10.5q2 -60 -2.5 -119t-9.5 -119q-1 -4 -1 -8t-1 -8q-1 -23 0.5 -49.5t-0.5 -49.5q-1 -13 -1.5 -18.5t-1.5 -7.5q1 -16 1 -31v-28v-21.5v-11.5q2 -20 3.5 -28.5t-4.5 -14.5
q0 -3 1 -14.5t-1 -13.5q-1 -7 -2 -13t-2 -13q5 13 5 7t-3 -19.5t-6 -28t-4 -18.5q-6 -22 -20 -41q-10 -13 -24 -20q-15 -7 -29 -10h-3q2 -3 6 -7q2 -1 5 -1h2l1 2v4q0 3 1.5 1.5l2.5 -2.5q5 -6 8 -14t5 -15q3 -11 4 -14t9 -11q0 -3 3 -6q4 -2 5.5 -0.5t4.5 -4.5
q4 -8 3 -13.5t-1.5 -11t1.5 -11t11 -12.5q4 -3 5 0.5t4 -3.5q4 -10 7 -20.5t6 -20.5q5 -10 7.5 -12t3.5 -5q1 -6 -2.5 -10.5t-6.5 -9.5q-2 -4 -4 -6q-2 -4 -8 -2q-1 -2 -3 -4v64zM307 424q-1 6 -1 10.5v8.5t-1 8q-2 26 -1.5 53t0.5 53q0 24 -1 42t4 29q0 36 -3 74l-2 18
l-2 18q-1 -15 -3.5 -8t-5 23t-5 34t-4.5 24q0 2 -1 5t-2 5q-4 16 -13 29q-1 1 -2.5 3t-2.5 2q-2 2 -3 2t-3 1q-17 1 -33 2t-33 2h-14.5t-14.5 -2h-2l-1 -1q-10 -4 -18 -15q-2 -4 -4 -7.5t-4 -7.5q-2 -7 -4 -13t-4 -13q1 -2 2.5 -2t2 -0.5t0 -3t-2.5 -9.5l1 1q-3 -4 -6.5 -26
t-6.5 -47.5t-5 -48.5t-2 -29q0 -16 -1 -39t-2 -50t-1 -55v-53q4 2 5 2q-2 -7 -2.5 -13t-1.5 -11q1 -14 1.5 -25t2.5 -19q0 -17 -8 -25q-1 -17 -2.5 -39t-2 -41.5t-1 -34.5t-0.5 -18q0 -8 0.5 -13.5t2.5 -12.5q4 -8 7 -12q0 6 2 14q1 5 1.5 1t2.5 -9q1 -7 3 -16
q4 -21 9 -39.5t16 -36.5q0 -1 2 -3q5 -8 10.5 -13t13.5 -10q14 -5 31 -4h6q11 2 12.5 3.5t1 2.5t1.5 2t14 2q2 0 13.5 1t13.5 1q6 0 10 -1q3 0 5 1q6 1 9 10t4.5 20t2.5 21t1 14q0 9 -1.5 8t-3 -3t-1.5 1.5t4 21.5v2q0 2 1 3q1 2 2 5q0 -4 1 12l2.5 40t3 49.5t2.5 40.5
q0 7 -0.5 20t-0.5 27v26.5t1 18.5q2 8 3.5 9.5t5.5 2.5z" />
    <glyph glyph-name="R" unicode="R" horiz-adv-x="326" 
d="M71 33q-12 -6 -16 12t-4 44t2 51.5t2 34.5q0 20 -1 31.5t4 19.5q0 20 -0.5 40t-1.5 40q-3 -13 -4 -7t-1 19.5v28.5v20v17t0.5 20.5t1.5 20t2 16.5q0 5 0.5 8.5t0.5 8.5q0 9 0.5 18t-0.5 17q-1 5 -1.5 9t-2.5 8q-3 2 -5 1t-3 8q0 31 3.5 70.5t5.5 71.5v8v24t-1 40t-3 39
t-5 21v2q0 15 6.5 21t17.5 10v1h-6q-1 -1 -2 -1t-2 -1t-3 -2t-3 -3q-6 -6 -7 -12q-1 6 2 14q2 7 8 13q10 9 26 12l1 1v3q0 5 -3 7l-2.5 2.5t-2.5 1.5q-6 2 -8 2h4.5t3.5 -1q3 -1 6 -4q4 -4 5 -7l2 -4q15 2 29.5 0.5t29.5 -5.5q6 -2 8 -3q15 -5 25 -10q5 0 15 -2q-3 2 -6 5
l-5 5q-5 6 -0.5 3.5t13 -7.5t16 -11t8.5 -6q8 -8 14 -15.5t12 -17.5q6 -11 8.5 -20.5t4.5 -21.5v-5q0 -22 1.5 -34t6.5 -33q3 -14 5 -16t3 -1.5t2 -1.5t3 -14q1 -16 1 -27.5t-1 -22t-2 -22t-2 -26.5q-2 -20 -0.5 -39t4.5 -39q1 -6 2.5 -5t2.5 2.5t2 -0.5t0 -14
q-1 -7 -1.5 -13.5t-2.5 -14.5q-2 -13 -4.5 -24.5t-7.5 -23.5q-4 -10 -10 -21q-5 -6 -9 -10t-11 -8q-17 -9 -28 -11q2 -4 2.5 -7t1.5 -4q2 -6 4 -10q2 -2 3.5 -2.5t3.5 -1.5q0 2 2 6q2 5 4.5 -3.5t5.5 -20.5q4 -14 7 -34q2 -10 3 -16t2.5 -11.5t4 -10.5t6.5 -14q3 -8 5 -9
t3.5 -0.5t3 0t3.5 -7.5q4 -17 3.5 -26.5t-1 -18t1 -19t9.5 -29.5q1 -3 2.5 -2.5t2.5 1.5t2 0t1 -8v-3v-35.5t2 -34.5q2 -11 5 -22.5t4 -13.5q0 -5 -1 -7q-1 -4 -5 -7.5t-7 -7.5q-1 -2 -1.5 -2.5l-2.5 -2.5q-1 -2 -3 -1t-3 2q-1 0 -1.5 0.5t-1.5 0.5q-2 0 -4 -2
q-8 -12 -15.5 -5.5t-13.5 20.5t-10 28.5t-5 18.5q-3 11 -4.5 15t-1.5 5t1 0t3 1q-2 5 -2.5 9.5t-2.5 9.5q0 2 -0.5 3.5t-0.5 3.5q-2 -4 -3.5 -1.5t-2.5 7t-2 9.5t-1 7q-3 17 -4 36t-3 36q-1 6 -2 13t-3 13q-3 2 -7 8q-3 0 -5 -1t-4 4q-3 11 -5.5 31.5t-4.5 32.5q-2 4 -4 11
t-4.5 14.5t-5.5 14.5t-6 11q-7 0 -16 -0.5t-17 0.5v-20q-2 -48 -6 -98t-11 -98q0 -2 -1.5 -13t-3 -23.5t-3.5 -23t-3 -13.5q-4 -11 -7.5 -10.5t-13.5 -0.5q-2 0 -2.5 0.5t-2.5 1.5t-1.5 7t1.5 8q-1 1 -1.5 2t-1.5 2v23zM125 289h-4q1 -5 2 -3.5t2 3.5zM119 317l4 3
q-4 2 -5 4q0 -2 0.5 -3.5t0.5 -3.5zM118 333q7 5 23 6.5t20 2.5q14 3 25 6.5t24 11.5q-1 0 -2.5 -1.5t-1.5 -0.5l1 1q0 2 0.5 3t0.5 3q2 12 2.5 15.5l0.5 3.5l0.5 -1.5t2.5 0.5q2 10 2 17q-1 8 -0.5 16.5t-0.5 16.5q-3 -8 -4 -4t-1 13.5t0.5 20.5t0.5 16q-1 9 -0.5 17.5
t0.5 16.5q1 27 1.5 54t-0.5 54v20t-2 21q-4 7 -5 13q-3 1 -5 -0.5t-4 5.5q-1 5 -1 15t1 15q1 3 0 10t-3 9q-2 4 -4 7t-5 7q-1 1 -2.5 3t-2.5 2q-21 17 -48 26q-8 2 -17.5 3.5t-17.5 -2.5v-2q2 -13 2.5 -26t1.5 -27q1 -7 1 -13.5t1 -13.5l6 -15l3 15q2 5 3 0t1 -14t-0.5 -19
t-0.5 -14q0 -25 -1 -49.5t-2 -49.5q-1 -14 -1.5 -25.5t-0.5 -22t0.5 -21.5t2.5 -24q1 -9 2.5 -11t3 -2h3t2.5 -6v-4q1 -14 0 -24.5t-2 -21.5t-2 -23t-1 -29z" />
    <glyph glyph-name="r" unicode="r" horiz-adv-x="327" 
d="M72 33q-12 -6 -16 12t-4 44t2 51.5t2 34.5q0 20 -1 31.5t4 19.5q0 20 -0.5 40t-1.5 40q-3 -13 -4 -7t-1 19.5v28.5v20v17t0.5 20.5t1.5 20t2 16.5q0 5 0.5 8.5t0.5 8.5q0 9 0.5 18t-0.5 17q-1 5 -1.5 9t-2.5 8q-3 2 -5 1t-3 8q0 31 3.5 70.5t5.5 71.5v8v24t-1 40t-3 39
t-5 21v2q0 15 6.5 21t17.5 10v1h-6q-1 -1 -2 -1t-2 -1t-3 -2t-3 -3q-6 -6 -7 -12q-1 6 2 14q2 7 8 13q10 9 26 12l1 1v3q0 5 -3 7l-2.5 2.5t-2.5 1.5q-6 2 -8 2h4.5t3.5 -1q3 -1 6 -4q4 -4 5 -7l2 -4q15 2 29.5 0.5t29.5 -5.5q6 -2 8 -3q15 -5 25 -10q5 0 15 -2q-3 2 -6 5
l-5 5q-5 6 -0.5 3.5t13 -7.5t16 -11t8.5 -6q8 -8 14 -15.5t12 -17.5q6 -11 8.5 -20.5t4.5 -21.5v-5q0 -22 1.5 -34t6.5 -33q3 -14 5 -16t3 -1.5t2 -1.5t3 -14q1 -16 1 -27.5t-1 -22t-2 -22t-2 -26.5q-2 -20 -0.5 -39t4.5 -39q1 -6 2.5 -5t2.5 2.5t2 -0.5t0 -14
q-1 -7 -1.5 -13.5t-2.5 -14.5q-2 -13 -4.5 -24.5t-7.5 -23.5q-4 -10 -10 -21q-5 -6 -9 -10t-11 -8q-17 -9 -28 -11q2 -4 2.5 -7t1.5 -4q2 -6 4 -10q2 -2 3.5 -2.5t3.5 -1.5q0 2 2 6q2 5 4.5 -3.5t5.5 -20.5q4 -14 7 -34q2 -10 3 -16t2.5 -11.5t4 -10.5t6.5 -14q3 -8 5 -9
t3.5 -0.5t3 0t3.5 -7.5q4 -17 3.5 -26.5t-1 -18t1 -19t9.5 -29.5q1 -3 2.5 -2.5t2.5 1.5t2 0t1 -8v-3v-35.5t2 -34.5q2 -11 5 -22.5t4 -13.5q0 -5 -1 -7q-1 -4 -5 -7.5t-7 -7.5q-1 -2 -1.5 -2.5l-2.5 -2.5q-1 -2 -3 -1t-3 2q-1 0 -1.5 0.5t-1.5 0.5q-2 0 -4 -2
q-8 -12 -15.5 -5.5t-13.5 20.5t-10 28.5t-5 18.5q-3 11 -4.5 15t-1.5 5t1 0t3 1q-2 5 -2.5 9.5t-2.5 9.5q0 2 -0.5 3.5t-0.5 3.5q-2 -4 -3.5 -1.5t-2.5 7t-2 9.5t-1 7q-3 17 -4 36t-3 36q-1 6 -2 13t-3 13q-3 2 -7 8q-3 0 -5 -1t-4 4q-3 11 -5.5 31.5t-4.5 32.5q-2 4 -4 11
t-4.5 14.5t-5.5 14.5t-6 11q-7 0 -16 -0.5t-17 0.5v-20q-2 -48 -6 -98t-11 -98q0 -2 -1.5 -13t-3 -23.5t-3.5 -23t-3 -13.5q-4 -11 -7.5 -10.5t-13.5 -0.5q-2 0 -2.5 0.5t-2.5 1.5t-1.5 7t1.5 8q-1 1 -1.5 2t-1.5 2v23zM126 289h-4q1 -5 2 -3.5t2 3.5zM120 317l4 3
q-4 2 -5 4q0 -2 0.5 -3.5t0.5 -3.5zM119 333q7 5 23 6.5t20 2.5q14 3 25 6.5t24 11.5q-1 0 -2.5 -1.5t-1.5 -0.5l1 1q0 2 0.5 3t0.5 3q2 12 2.5 15.5l0.5 3.5l0.5 -1.5t2.5 0.5q2 10 2 17q-1 8 -0.5 16.5t-0.5 16.5q-3 -8 -4 -4t-1 13.5t0.5 20.5t0.5 16q-1 9 -0.5 17.5
t0.5 16.5q1 27 1.5 54t-0.5 54v20t-2 21q-4 7 -5 13q-3 1 -5 -0.5t-4 5.5q-1 5 -1 15t1 15q1 3 0 10t-3 9q-2 4 -4 7t-5 7q-1 1 -2.5 3t-2.5 2q-21 17 -48 26q-8 2 -17.5 3.5t-17.5 -2.5v-2q2 -13 2.5 -26t1.5 -27q1 -7 1 -13.5t1 -13.5l6 -15l3 15q2 5 3 0t1 -14t-0.5 -19
t-0.5 -14q0 -25 -1 -49.5t-2 -49.5q-1 -14 -1.5 -25.5t-0.5 -22t0.5 -21.5t2.5 -24q1 -9 2.5 -11t3 -2h3t2.5 -6v-4q1 -14 0 -24.5t-2 -21.5t-2 -23t-1 -29z" />
    <glyph glyph-name="S" unicode="S" horiz-adv-x="323" 
d="M50 187q4 10 7.5 9.5t6.5 -6.5t5 -14t2 -12q1 -11 2.5 -20.5t5.5 -19.5q3 -8 6 -13.5t8 -10.5q4 -5 8 -7.5t9 -5.5q1 0 1.5 -0.5t1.5 -0.5q2 -1 9 -3t9 -1q8 -1 10 -1h2l-1.5 -1t0.5 -3q11 0 20 2t20 5q3 2 6 2.5t6 2.5q-7 -1 -6.5 0.5t5.5 4.5t12 6.5t13 8.5
q-1 -1 -2.5 -3t-0.5 0t2 4.5t2 4.5q3 10 5.5 19.5t4.5 19.5q4 18 6.5 36t4.5 37q1 11 1.5 21t-0.5 21v7q-2 5 -2.5 9.5t-2.5 9.5q-3 2 -5 0t-3 9q-2 19 -3 37t-3 38q-3 14 -9 32q0 4 -3 4q1 0 1.5 -0.5t1.5 -0.5q-17 2 -33.5 4.5t-33.5 7.5q-13 5 -22 10q-9 6 -17 16
q-4 5 -7 9t-7 8q-8 5 -13.5 11t-10.5 14q-8 14 -14 33q-2 6 -3.5 15.5t-2.5 20t-2 20.5t-2 16q-2 8 -3 16l-2 16q-1 5 -1 6t0.5 0.5l1 -1t2.5 1.5q-2 16 -3 32t-2 33q-3 -11 -3.5 -6t-0.5 15.5t1 22.5t1 17q1 5 3 14t4 14q7 20 12.5 40.5t12.5 40.5q0 1 2 6.5t4.5 11.5
t4.5 11t3 5v2q2 5 3.5 9.5t3.5 9.5q-2 2 -4 3t6 10q6 7 13.5 11.5t15.5 8.5q21 8 40.5 9t41.5 -1q5 -1 8 -1t8 -2q3 -1 10 -3t9 -4q8 -5 13.5 -9.5t12.5 -10.5q11 -14 18 -26.5t14 -28.5l6 -16l6 -16q1 -17 -13 -24q-9 -5 -23 -5l-6 -4l-1 -1q-3 0 -4 1q0 3 1 4q-2 0 -3 -1
h-1q0 2 0.5 4.5t-0.5 4.5q0 10 -2.5 19t-6.5 19q-3 10 -9 19q-2 4 -5 8t-6 7l-4 1q-2 1 -6 1q2 -2 2 -4q1 -1 1 -4q1 -4 -1.5 -2t-2.5 3q-2 2 -4.5 3.5t-5.5 3.5q-1 0 -2 1q-1 0 -1 0.5t-1 0.5h-1q-12 1 -23 0.5t-23 -2.5q-2 -1 -4 -1q-1 0 -1.5 -0.5t-1.5 -0.5h-1
q-8 -3 -12 -6.5t-6 -11.5q-1 -3 -1.5 -5.5t-0.5 -5.5q-1 -9 0 -10.5t2 -1.5t1.5 -1.5t-0.5 -10.5q-4 -22 -10 -38t-15 -36q-3 -4 -4.5 -11.5t-1.5 -15.5t1 -15.5t2 -12.5q1 -6 2 -5t2 2.5t2 -0.5t1 -14q-1 -14 -1.5 -27.5t0.5 -27.5v-22v-26v-25.5t2 -21.5q0 -2 0.5 -3.5
t0.5 -3.5v-1q8 -9 12.5 -16.5t9.5 -15.5q2 -2 4.5 -4t4.5 -6q6 -6 4 -11v-1q3 -3 5 -4t4.5 -2t5.5 -2q2 0 2.5 -0.5t2.5 -0.5q5 -2 11 -2.5t12 -1.5q4 1 8 1.5t8 1.5q-4 2 -8 3t-7 3q-4 2 -1.5 2.5t8.5 0t12.5 -1.5t10.5 -2q9 -2 15.5 -4.5t12.5 -8.5q10 -8 17 -20
q6 -12 9.5 -23t6.5 -25q2 -8 3 -16.5t3 -17.5q2 -23 3 -44t4 -44q1 -5 1 -10t1 -10q1 -15 3 -18.5t3 -4t2 -2.5t1 -14q0 -19 -2 -34t-8 -32l-15 -48q-3 -11 -7 -20q-5 -11 -11 -17q-8 -9 -16.5 -15.5t-19.5 -13.5q-8 -5 -5.5 -5.5l5 -1t0 -2t-20.5 -7.5q-1 0 -1 -0.5
t-1 -0.5h-2q-23 -5 -42 -5.5t-42 4.5q-11 3 -20.5 6.5t-19.5 10.5q-19 12 -33 32q-10 14 -15 30l-5 15q-3 16 -3.5 28.5t-0.5 28.5q0 5 -1 9t-1 9q-1 10 -1 14t1.5 6t4.5 4.5t8 8.5q2 2 5 2l1.5 -4t3 -9.5t3 -10t1.5 -5.5q2 -2 4 -3z" />
    <glyph glyph-name="s" unicode="s" horiz-adv-x="323" 
d="M50 187q4 10 7.5 9.5t6.5 -6.5t5 -14t2 -12q1 -11 2.5 -20.5t5.5 -19.5q3 -8 6 -13.5t8 -10.5q4 -5 8 -7.5t9 -5.5q1 0 1.5 -0.5t1.5 -0.5q2 -1 9 -3t9 -1q8 -1 10 -1h2l-1.5 -1t0.5 -3q11 0 20 2t20 5q3 2 6 2.5t6 2.5q-7 -1 -6.5 0.5t5.5 4.5t12 6.5t13 8.5
q-1 -1 -2.5 -3t-0.5 0t2 4.5t2 4.5q3 10 5.5 19.5t4.5 19.5q4 18 6.5 36t4.5 37q1 11 1.5 21t-0.5 21v7q-2 5 -2.5 9.5t-2.5 9.5q-3 2 -5 0t-3 9q-2 19 -3 37t-3 38q-3 14 -9 32q0 4 -3 4q1 0 1.5 -0.5t1.5 -0.5q-17 2 -33.5 4.5t-33.5 7.5q-13 5 -22 10q-9 6 -17 16
q-4 5 -7 9t-7 8q-8 5 -13.5 11t-10.5 14q-8 14 -14 33q-2 6 -3.5 15.5t-2.5 20t-2 20.5t-2 16q-2 8 -3 16l-2 16q-1 5 -1 6t0.5 0.5l1 -1t2.5 1.5q-2 16 -3 32t-2 33q-3 -11 -3.5 -6t-0.5 15.5t1 22.5t1 17q1 5 3 14t4 14q7 20 12.5 40.5t12.5 40.5q0 1 2 6.5t4.5 11.5
t4.5 11t3 5v2q2 5 3.5 9.5t3.5 9.5q-2 2 -4 3t6 10q6 7 13.5 11.5t15.5 8.5q21 8 40.5 9t41.5 -1q5 -1 8 -1t8 -2q3 -1 10 -3t9 -4q8 -5 13.5 -9.5t12.5 -10.5q11 -14 18 -26.5t14 -28.5l6 -16l6 -16q1 -17 -13 -24q-9 -5 -23 -5l-6 -4l-1 -1q-3 0 -4 1q0 3 1 4q-2 0 -3 -1
h-1q0 2 0.5 4.5t-0.5 4.5q0 10 -2.5 19t-6.5 19q-3 10 -9 19q-2 4 -5 8t-6 7l-4 1q-2 1 -6 1q2 -2 2 -4q1 -1 1 -4q1 -4 -1.5 -2t-2.5 3q-2 2 -4.5 3.5t-5.5 3.5q-1 0 -2 1q-1 0 -1 0.5t-1 0.5h-1q-12 1 -23 0.5t-23 -2.5q-2 -1 -4 -1q-1 0 -1.5 -0.5t-1.5 -0.5h-1
q-8 -3 -12 -6.5t-6 -11.5q-1 -3 -1.5 -5.5t-0.5 -5.5q-1 -9 0 -10.5t2 -1.5t1.5 -1.5t-0.5 -10.5q-4 -22 -10 -38t-15 -36q-3 -4 -4.5 -11.5t-1.5 -15.5t1 -15.5t2 -12.5q1 -6 2 -5t2 2.5t2 -0.5t1 -14q-1 -14 -1.5 -27.5t0.5 -27.5v-22v-26v-25.5t2 -21.5q0 -2 0.5 -3.5
t0.5 -3.5v-1q8 -9 12.5 -16.5t9.5 -15.5q2 -2 4.5 -4t4.5 -6q6 -6 4 -11v-1q3 -3 5 -4t4.5 -2t5.5 -2q2 0 2.5 -0.5t2.5 -0.5q5 -2 11 -2.5t12 -1.5q4 1 8 1.5t8 1.5q-4 2 -8 3t-7 3q-4 2 -1.5 2.5t8.5 0t12.5 -1.5t10.5 -2q9 -2 15.5 -4.5t12.5 -8.5q10 -8 17 -20
q6 -12 9.5 -23t6.5 -25q2 -8 3 -16.5t3 -17.5q2 -23 3 -44t4 -44q1 -5 1 -10t1 -10q1 -15 3 -18.5t3 -4t2 -2.5t1 -14q0 -19 -2 -34t-8 -32l-15 -48q-3 -11 -7 -20q-5 -11 -11 -17q-8 -9 -16.5 -15.5t-19.5 -13.5q-8 -5 -5.5 -5.5l5 -1t0 -2t-20.5 -7.5q-1 0 -1 -0.5
t-1 -0.5h-2q-23 -5 -42 -5.5t-42 4.5q-11 3 -20.5 6.5t-19.5 10.5q-19 12 -33 32q-10 14 -15 30l-5 15q-3 16 -3.5 28.5t-0.5 28.5q0 5 -1 9t-1 9q-1 10 -1 14t1.5 6t4.5 4.5t8 8.5q2 2 5 2l1.5 -4t3 -9.5t3 -10t1.5 -5.5q2 -2 4 -3z" />
    <glyph glyph-name="T" unicode="T" horiz-adv-x="468" 
d="M436 850q5 -5 5 -9t-3.5 -7t-8.5 -5t-9 -3q-14 -4 -29 -5t-29 -3q-3 0 -4 -1q-12 -1 -16.5 -1.5t-5.5 -0.5t0 1t0 3q-10 0 -20 -0.5t-20 -1.5q6 -3 3 -4t-9 -1t-12.5 0.5t-7.5 0.5q-4 1 -7.5 1.5t-6.5 2.5q-7 2 -13 4t-13 4q1 -10 1 -19v-18q1 -7 1 -14v-15l6 -15
q1 4 1.5 8t2.5 8q3 7 3.5 -10.5t-1 -43.5t-3 -52.5t-2.5 -35.5q-2 -30 -3.5 -51.5t-1.5 -50.5q0 -14 1 -17t2.5 -3t2.5 -1.5t0 -12.5q-3 -22 -11 -41q-7 -2 -9 -13.5t-2 -25.5t1.5 -27t1.5 -16q1 -8 2 -7t2.5 3t2 -0.5t0.5 -17.5q-2 -51 -4.5 -100.5t-4.5 -99.5v-17v-23v-23
v-15q-2 -12 -5 -12t-13 -4q-2 -1 -5 -1t-3.5 7.5t-1.5 9.5l-3 3q-8 -8 -13.5 -0.5t-8.5 23.5t-4.5 37.5t-2.5 41.5t-1 35v18q-1 20 -2.5 33t3.5 21q-1 20 -1.5 40t-1.5 40q-3 -12 -4 -6.5t-1 18t1 26t1 18.5q1 12 2.5 24t6.5 24q8 21 13 46q4 21 6 42l-3 18q-3 2 -5 0.5
t-2 9.5q2 31 6 66t7 67v23.5v31t-1 33.5t-2 31q-14 2 -35 8.5t-35 9.5h-3q-5 0 -14 1t-19.5 2t-19.5 0t-12 -5l-1 1q-5 2 -6 6.5t-3 9.5t-3 9.5t-3 9.5q-1 0 -2.5 1t-2.5 1q-1 -1 -3 -1l-2 -2q-2 -2 -2 -4v-4q0 -1 2 -7q0 -2 2 -6q-2 1 -5 4q-4 4 -5 7q0 2 -0.5 3.5
t-0.5 2.5q0 3 2 7q2 5 7 8q5 4 12 5q3 0 6 1t6 1q8 1 15.5 1h15.5h15l4 2t4 3q-2 1 -4 1.5t-4 2.5q-3 2 1 2.5t10 -0.5q7 -1 17 -2q12 -2 24.5 -4.5t23.5 -5.5q10 -2 16 -3.5t11.5 -2t11.5 -0.5h15h2l6 9q0 -5 1 -8q2 2 1 4.5t7 1.5t12.5 -2.5t9.5 -7.5q8 -7 18.5 -5t19.5 4
q4 1 3 2t-2 2.5t0 2t9 0.5l54 -6q9 -2 19 -2.5t19 -1.5q5 -1 10 -1.5t10 0.5q5 0 9.5 1.5t7.5 0.5h2q2 0 5 -3q0 -2 2 -6l3 -6q2 -2 3 -4q2 -2 -2 -4q-3 -3 -7 -3q-1 -1 -2 -1q0 -1 -0.5 -1.5t-0.5 -1.5z" />
    <glyph glyph-name="t" unicode="t" horiz-adv-x="446" 
d="M436 821q5 -5 5 -9t-3.5 -7t-8.5 -5t-9 -3q-14 -4 -29 -5t-29 -3q-3 0 -4 -1q-12 -1 -16.5 -1.5t-5.5 -0.5t0 1t0 3q-10 0 -20 -0.5t-20 -1.5q6 -3 3 -4t-9 -1t-12.5 0.5t-7.5 0.5q-4 1 -7.5 1.5t-6.5 2.5q-7 2 -13 4t-13 4q1 -10 1 -19v-18q1 -7 1 -14v-15l6 -15
q1 4 1.5 8t2.5 8q3 7 3.5 -10.5t-1 -43.5t-3 -52.5t-2.5 -35.5q-2 -30 -3.5 -51.5t-1.5 -50.5q0 -14 1 -17t2.5 -3t2.5 -1.5t0 -12.5q-3 -22 -11 -41q-7 -2 -9 -13.5t-2 -25.5t1.5 -27t1.5 -16q1 -8 2 -7t2.5 3t2 -0.5t0.5 -17.5q-2 -51 -4.5 -100.5t-4.5 -99.5v-17v-23v-23
v-15q-2 -12 -5 -12t-13 -4q-2 -1 -5 -1t-3.5 7.5t-1.5 9.5l-3 3q-8 -8 -13.5 -0.5t-8.5 23.5t-4.5 37.5t-2.5 41.5t-1 34.5v18.5q-1 20 -2.5 33t3.5 21q-1 20 -1.5 40t-1.5 40q-3 -12 -4 -6.5t-1 18t1 26t1 18.5q1 12 2.5 24t6.5 24q8 21 13 46q4 21 6 42l-3 18q-3 2 -5 0.5
t-2 9.5q2 31 6 66t7 67v23.5v31t-1 33.5t-2 31q-14 2 -35 8.5t-35 9.5h-3q-5 0 -14 1t-19.5 2t-19.5 0t-12 -5l-1 1q-5 2 -6 6.5t-3 9.5t-3 9.5t-3 9.5q-1 0 -2.5 1t-2.5 1q-1 -1 -3 -1l-2 -2q-2 -2 -2 -4v-4q0 -1 2 -7q0 -2 2 -6q-2 1 -5 4q-4 4 -5 7q0 2 -0.5 3.5
t-0.5 2.5q0 3 2 7q2 5 7 8q5 4 12 5q3 0 6 1t6 1q8 1 15.5 1h15.5h15l4 2t4 3q-2 1 -4 1.5t-4 2.5q-3 2 1 2.5t10 -0.5q7 -1 17 -2q12 -2 24.5 -4.5t23.5 -5.5q10 -2 16 -3.5t11.5 -2t11.5 -0.5h15h2l6 9q0 -5 1 -8q2 2 1 4.5t7 1.5t12.5 -2.5t9.5 -7.5q8 -7 18.5 -5t19.5 4
q4 1 3 2t-2 2.5t0 2t9 0.5l54 -6q9 -2 19 -2.5t19 -1.5q5 -1 10 -1.5t10 0.5q5 0 9.5 1.5t7.5 0.5h2q2 0 5 -3q0 -2 2 -6l3 -6q2 -2 3 -4q2 -2 -2 -4q-3 -3 -7 -3q-1 -1 -2 -1q0 -1 -0.5 -1.5t-0.5 -1.5z" />
    <glyph glyph-name="U" unicode="U" horiz-adv-x="392" 
d="M321 836q0 4 2 6q6 11 11 1q3 -9 4 -20.5t2 -21.5q3 -11 4.5 -25t3 -29t2 -29.5t1.5 -26.5q2 -21 4 -34.5t-3 -23.5l2 -50t2 -51q3 19 4 8.5t1 -32t-0.5 -43.5t-0.5 -25q-1 -11 -1 -20.5t-1 -20.5q-4 -42 -10 -80.5t-14 -79.5l-6 -28l-6 -28v-6.5t-1 -6.5q0 -3 -0.5 -6
t-0.5 -5q1 -2 2.5 -2t2 -0.5t0.5 -3.5t-2 -10q-8 -30 -29 -58q-11 -17 -29 -28q-10 -7 -19 -9.5t-20 -3.5q-28 0 -53 7q-4 2 -7 2q-19 7 -36 18q-20 14 -31.5 30t-21.5 39q-8 23 -12.5 43t-11.5 42q-2 18 4 26q-1 8 -0.5 16.5t0.5 10.5v14l-6 9q-2 -6 -3 -8q-3 -5 -3 7.5
t1.5 30t4 33t2.5 17.5q2 14 3 24t1.5 19t0 18.5t-0.5 23.5q-1 14 -2.5 16.5t-3 2.5t-2 1.5t-0.5 13.5q1 28 4.5 44.5t6.5 32.5t4.5 35t-1.5 51q-1 7 -2.5 6t-2.5 -2.5t-2 0.5t0 14q2 31 5 62.5t7 63.5q0 2 0.5 9t1 14.5t0.5 14v6.5q2 8 6 8t12 2q1 1 4 1q3 -1 4 -5t1 -6
l3 -3q12 7 17.5 -4t7.5 -27.5t2.5 -34t0.5 -23.5q1 -20 2 -24t-5 -9q1 -14 1.5 -28.5t0.5 -28.5q3 10 4 4.5t1 -16.5t-1 -23.5t-1 -16.5q-2 -32 -6.5 -66t-8.5 -66q-2 -11 -3 -21.5t-1 -20.5q1 -5 1.5 -9t1.5 -8q3 -2 5 -1t2 -7q-1 -21 -5.5 -48.5t-8.5 -48.5q0 -5 -0.5 -16
t-1 -22.5t0 -22t3.5 -14.5q-1 -2 -6 -4q2 -20 6.5 -40t13.5 -44v-1q6 -15 16 -28q4 -2 14 -6q-2 2 -3.5 5.5t-3.5 6.5q-1 3 1 2t5.5 -4t7 -6.5l5.5 -5.5q12 -8 23 -10q15 -5 34 -4q2 -1 7 1q4 3 11 10l1 2q11 14 17 30t10 33q2 9 3 18.5t2 19.5q1 16 0.5 19.5t-2 4t-2 3
t1.5 16.5q4 36 11.5 70t10.5 67q3 30 2 59.5t-3 58.5q0 1 -4 5.5t-4 25.5q1 53 1.5 106t2.5 106q1 10 1.5 20t0.5 19q0 11 -0.5 20t-0.5 20v2v2q0 1 0.5 2.5t0.5 3.5v7q1 5 4.5 6.5t5.5 8.5q2 3 3 4q5 0 7 -5t4 -8q2 -5 2 -10.5t1 -10.5q0 -1 1 -1q0 -2 1 -3t2 -3z" />
    <glyph glyph-name="u" unicode="u" 
d="M297 836q0 4 2 6q6 11 11 1q3 -9 4 -20.5t2 -21.5q3 -11 4.5 -25t3 -29t2 -29.5t1.5 -26.5q2 -21 4 -34.5t-3 -23.5l2 -50t2 -51q3 19 4 8.5t1 -32t-0.5 -43.5t-0.5 -25q-1 -11 -1 -20.5t-1 -20.5q-4 -42 -10 -80.5t-14 -79.5l-6 -28l-6 -28v-6.5t-1 -6.5q0 -3 -0.5 -6
t-0.5 -5q1 -2 2.5 -2t2 -0.5t0.5 -3.5t-2 -10q-8 -30 -29 -58q-11 -17 -29 -28q-10 -7 -19 -9.5t-20 -3.5q-28 0 -53 7q-4 2 -7 2q-19 7 -36 18q-20 14 -31.5 30t-21.5 39q-8 23 -12.5 43t-11.5 42q-2 18 4 26q-1 8 -0.5 16.5t0.5 10.5v14l-6 9q-2 -6 -3 -8q-3 -5 -3 7.5
t1.5 30t4 33t2.5 17.5q2 14 3 24t1.5 19t0 18.5t-0.5 23.5q-1 14 -2.5 16.5t-3 2.5t-2 1.5t-0.5 13.5q1 28 4.5 44.5t6.5 32.5t4.5 35t-1.5 51q-1 7 -2.5 6t-2.5 -2.5t-2 0.5t0 14q2 31 5 62.5t7 63.5q0 2 0.5 9t1 14.5t0.5 14v6.5q2 8 6 8t12 2q1 1 4 1q3 -1 4 -5t1 -6
l3 -3q12 7 17.5 -4t7.5 -27.5t2.5 -34t0.5 -23.5q1 -20 2 -24t-5 -9q1 -14 1.5 -28.5t0.5 -28.5q3 10 4 4.5t1 -16.5t-1 -23.5t-1 -16.5q-2 -32 -6.5 -66t-8.5 -66q-2 -11 -3 -21.5t-1 -20.5q1 -5 1.5 -9t1.5 -8q3 -2 5 -1t2 -7q-1 -21 -5.5 -48.5t-8.5 -48.5q0 -5 -0.5 -16
t-1 -22.5t0 -22t3.5 -14.5q-1 -2 -6 -4q2 -20 6.5 -40t13.5 -44v-1q6 -15 16 -28q4 -2 14 -6q-2 2 -3.5 5.5t-3.5 6.5q-1 3 1 2t5.5 -4t7 -6.5l5.5 -5.5q12 -8 23 -10q15 -5 34 -4q2 -1 7 1q4 3 11 10l1 2q11 14 17 30t10 33q2 9 3 18.5t2 19.5q1 16 0.5 19.5t-2 4t-2 3
t1.5 16.5q4 36 11.5 70t10.5 67q3 30 2 59.5t-3 58.5q0 1 -4 5.5t-4 25.5q1 53 1.5 106t2.5 106q1 10 1.5 20t0.5 19q0 11 -0.5 20t-0.5 20v2v2q0 1 0.5 2.5t0.5 3.5v7q1 5 4.5 6.5t5.5 8.5q2 3 3 4q5 0 7 -5t4 -8q2 -5 2 -10.5t1 -10.5q0 -1 1 -1q0 -2 1 -3t2 -3z" />
    <glyph glyph-name="V" unicode="V" horiz-adv-x="380" 
d="M175 58h-1q0 -1 -2 -2t-2 -2l-4 -4l-4 -4q-1 5 -1.5 9.5t-0.5 9.5q-2 1 -3.5 2t-3.5 4q-7 10 -12.5 28.5t-8.5 29.5q-5 19 -8.5 37.5t-8.5 37.5q-3 11 -4.5 16t-2 7t0 2.5t3.5 2.5q-1 1 -1 2v1q-2 12 -3.5 24t-4.5 24q-1 -9 -2.5 -5t-3 13.5t-3 20.5t-2.5 16q-5 29 -7 60
t-7 60q-2 21 -6 40q-2 4 -4 7.5t-4 7.5q-3 1 -5 -0.5t-4 6.5q-5 22 -8.5 52.5t-5.5 53.5q-2 10 -4.5 26.5t-5.5 34t-6.5 33t-6.5 23.5q0 15 11 20t24 8q1 1 2.5 3t1.5 4q2 2 4 6t4 7q3 -24 5.5 -46.5t6.5 -45.5q2 -6 2.5 -11.5t2.5 -11.5q2 -2 4 -4.5t4 -5.5v6.5t1 5.5
q2 5 5 -8t6 -32t5.5 -38t3.5 -26q2 -14 3.5 -23.5t3.5 -18.5t5 -18.5t7 -22.5q4 -12 6 -14t3.5 -1.5t2.5 -1t4 -11.5q5 -24 5.5 -40t1.5 -31.5t3 -34.5t10 -47q2 -6 3.5 -5t2.5 2.5t2 0t2 -13.5q0 -2 0.5 -9t0.5 -15q4 16 7.5 28.5t6 24.5t5 24.5t4.5 28.5q2 15 1.5 18.5
t-2 4t-2 3t2.5 15.5q7 29 14.5 48.5t15 38.5t14 41t11.5 56q1 7 -1 6t-3.5 -2t-1.5 1t4 15q9 31 20.5 63t25.5 61l4 10l5 10q2 2 2.5 13.5t2.5 15.5q1 2 1 3.5t1 3.5t3 6.5t4 6.5q4 7 9 7.5t13 1.5q2 0 4 -2q1 -1 -1 -7t-3 -8q0 -4 -2 -12q0 -2 2 -6q12 14 15 -4
q1 -18 -2 -37q-2 -15 -6.5 -31.5t-7.5 -31.5q-2 -10 -2.5 -15.5t-1.5 -8.5t-2 -4.5t-5 -3.5q-3 -15 -6.5 -30t-6.5 -30q5 10 4.5 4t-3.5 -18t-6.5 -25t-4.5 -18q-11 -37 -23.5 -74t-24.5 -74q-4 -12 -7.5 -24.5t-5.5 -25.5q0 -5 -0.5 -10t-0.5 -10q2 -2 4.5 -1.5t1.5 -9.5
q-6 -29 -16 -60.5t-18 -60.5l-3.5 -21t-4.5 -31t-2 -30.5t3 -20.5q-2 -5 -5.5 -7t-8.5 -4l-1 -1q-2 -2 -5 -4t-5 -4t-2 -3l-2 -2h-3l-2 4q-2 2 -2 5z" />
    <glyph glyph-name="v" unicode="v" horiz-adv-x="372" 
d="M169 137h-1q0 -1 -2 -2t-2 -2l-4 -4l-4 -4q-1 5 -1.5 9.5t-0.5 9.5q-2 1 -3.5 2t-3.5 4q-7 10 -12.5 28.5t-8.5 29.5q-5 19 -8.5 37.5t-8.5 37.5q-3 11 -4.5 16t-2 7t0 2.5t3.5 2.5q-1 1 -1 2v1q-2 12 -3.5 24t-4.5 24q-1 -9 -2.5 -5t-3 13.5t-3 20.5t-2.5 16
q-5 29 -7 60t-7 60q-2 21 -6 40q-2 4 -4 7.5t-4 7.5q-3 1 -5 -0.5t-4 6.5q-5 22 -8.5 52.5t-5.5 53.5q-2 10 -4.5 26.5t-5.5 34t-6.5 33t-6.5 23.5q0 15 11 20t24 8q1 1 2.5 3t1.5 4q2 2 4 6t4 7q3 -24 5.5 -46.5t6.5 -45.5q2 -6 2.5 -11.5t2.5 -11.5q2 -2 4 -4.5t4 -5.5
v6.5t1 5.5q2 5 5 -8t6 -32t5.5 -38t3.5 -26q2 -14 3.5 -23.5t3.5 -18.5t5 -18.5t7 -22.5q4 -12 6 -14t3.5 -1.5t2.5 -1t4 -11.5q5 -24 5.5 -40t1.5 -31.5t3 -34.5t10 -47q2 -6 3.5 -5t2.5 2.5t2 0t2 -13.5q0 -2 0.5 -9t0.5 -15q4 16 7.5 28.5t6 24.5t5 24.5t4.5 28.5
q2 15 1.5 18.5t-2 4t-2 3t2.5 15.5q7 29 14.5 48.5t15 38.5t14 41t11.5 56q1 7 -1 6t-3.5 -2t-1.5 1t4 15q9 31 20.5 63t25.5 61l4 10l5 10q2 2 2.5 13.5t2.5 15.5q1 2 1 3.5t1 3.5t3 6.5t4 6.5q4 7 9 7.5t13 1.5q2 0 4 -2q1 -1 -1 -7t-3 -8q0 -4 -2 -12q0 -2 2 -6
q12 14 15 -4q1 -18 -2 -37q-2 -15 -6.5 -31.5t-7.5 -31.5q-2 -10 -2.5 -15.5t-1.5 -8.5t-2 -4.5t-5 -3.5q-3 -15 -6.5 -30t-6.5 -30q5 10 4.5 4t-3.5 -18t-6.5 -25t-4.5 -18q-11 -37 -23.5 -74t-24.5 -74q-4 -12 -7.5 -24.5t-5.5 -25.5q0 -5 -0.5 -10t-0.5 -10
q2 -2 4.5 -1.5t1.5 -9.5q-6 -29 -16 -60.5t-18 -60.5l-3.5 -21t-4.5 -31t-2 -30.5t3 -20.5q-2 -5 -5.5 -7t-8.5 -4l-1 -1q-2 -2 -5 -4t-5 -4t-2 -3l-2 -2h-3l-2 4q-2 2 -2 5z" />
    <glyph glyph-name="W" unicode="W" horiz-adv-x="561" 
d="M113 82l-4 -2t-2 -2q-1 0 -1.5 -0.5t-1.5 -0.5t-2.5 -1t-2.5 1v1q2 2 5 2h-5l-2 -1l1 2q2 5 3.5 9t3.5 9v2l-1 -1q-5 -3 -7 0q-2 0 -4 5t-3 5q-1 2 -1.5 2t0.5 -2q-7 9 -8 22q-2 7 -3 13t-2 14q-3 18 -4.5 36t-2.5 37q-1 3 -1 10q-2 13 -2.5 18t0 6t1 0t2.5 1
q-1 14 -1.5 27.5t-1.5 27.5q-3 -10 -4 -5t-1 15.5v22.5v17q0 26 3 54t5 54q1 7 1.5 13t0.5 12q2 11 2.5 21.5t-0.5 21.5q-1 5 -1.5 9t-2.5 9q-2 1 -4.5 0t-2.5 8q-1 23 2 53.5t5 54.5q-1 10 -1.5 19.5t-0.5 19.5q-1 7 -1.5 18t-1.5 22.5t-3 22t-6 16.5v5q2 13 12 17.5
t21 9.5q0 1 1 3t1 3q1 1 1 3q0 5 1 9.5t-1 9.5q4 -4 5.5 -9.5t3.5 -10.5q5 -16 6 -29q3 -15 4.5 -29.5t2.5 -29.5q1 -7 1.5 -14t1.5 -14q2 -3 3 -5.5t3 -5.5q1 2 1.5 5.5t1.5 5.5v1q1 6 3 -1q1 -9 1.5 -23.5t0 -29.5t-1 -29t-1.5 -24q-1 -15 -1 -25.5v-20.5t0.5 -21t1.5 -25
t3 -16t3.5 -2t2.5 -1.5t1 -13.5v-12q-1 -26 -4 -41.5t-5.5 -29.5t-2.5 -32t4 -49q1 -6 2.5 -5t2.5 2.5t2 -0.5t1 -14q-1 -13 -1.5 -25t-1.5 -25q6 18 10 26v2q6 13 9.5 23t6.5 18.5t5 18t5 23.5q2 12 1.5 15t-2 3t-2.5 1.5t2 11.5q7 23 13.5 35t11.5 22.5t9 25.5t7 44
q1 6 -0.5 5l-3 -2t-2 1t2.5 13q6 22 12.5 43.5t13.5 43.5q3 11 8.5 25t10.5 25q6 13 8 20.5t3.5 13t2.5 11t4 14.5q2 8 3.5 10.5t3 3.5t4.5 2t8 5q2 1 5 0q4 -3 3.5 -11.5t-0.5 -13.5l1 -2q1 2 1.5 5t0.5 5q1 5 2 9.5t2 9.5q2 -7 4 -13.5t4 -14.5q3 -3 3 -12q10 -36 18 -74
q2 -6 2.5 -11.5t2.5 -11.5q2 -2 4 -5t4 -5q0 3 0.5 6t0.5 6q2 7 4.5 -4.5t4.5 -29.5t3.5 -35.5t1.5 -22.5v-19.5t0.5 -14t2 -13.5t3.5 -18q2 -10 3.5 -11.5t3 -1t2.5 -0.5t2 -10q1 -23 -1.5 -35.5t-4.5 -24t-2 -28t6 -47.5q1 -7 2.5 -5.5t2.5 3t2 -0.5t1 -15v-40
q-1 -8 0.5 -22.5t4 -30.5t5 -30.5t4.5 -22.5q0 2 0.5 3t0.5 3t1 3q2 6 2.5 11.5t1.5 11.5l-3 12l-2.5 -5t-3.5 -6q-3 -4 -1 10.5t6.5 34.5t9.5 39.5t7 26.5q3 15 5.5 26t4 20.5t2 20.5t1.5 26q0 14 -1 17t-2.5 3t-2 2t0.5 14q4 28 9 45.5t9.5 33.5t7 35.5t2.5 53.5
q0 7 -1.5 6t-3 -2.5t-2.5 0.5t1 15q5 35 11.5 71t13.5 71q1 2 1.5 6.5t1.5 8.5t2 9q3 14 3 26.5t2 26.5q3 13 5.5 16t14.5 2q2 0 1.5 -0.5t3.5 -0.5q2 1 3 -1.5t1 -6.5t-1 -7.5t-1 -4.5q1 -1 3 -7q8 12 12 7.5t5 -15.5t1 -24.5v-17.5q-1 -20 -2 -39.5t-2 -39.5t0 -26t-5 -11
q-2 -16 -2.5 -31t-1.5 -30q4 10 4.5 4.5t-0.5 -17t-3 -24.5t-2 -17q-4 -34 -11.5 -68.5t-14.5 -67.5q-2 -11 -4.5 -23t-3.5 -23v-9t1 -9q2 -2 4.5 -1t1.5 -9q-3 -25 -12 -56.5t-16 -56.5q-2 -9 -5.5 -25.5t-7 -34t-6 -33.5t-2.5 -24q-4 -10 -11 -12.5t-16 -1.5v-1
q0 -7 -4 -7.5t-11 -4.5q-2 -1 -1.5 -1t-3.5 0q-2 2 -3 0.5t-3 5.5l-2 1q-2 -1 -2.5 -1.5t-2.5 -1.5q1 0 1 2q-10 -8 -19.5 9t-17.5 41.5t-13.5 49t-7.5 30.5q-5 19 -7.5 25t2.5 11q0 3 -0.5 5.5t-0.5 5.5q-2 13 -2.5 25.5t-2.5 24.5q-2 -10 -3.5 -5.5t-2 15t-1 22.5t-0.5 17
q-1 24 1.5 50t4.5 51q0 8 0.5 15.5t-0.5 14.5q-4 8 -5 11q-3 1 -5 0t-3 5q-2 17 -1.5 40.5t0.5 41.5q-1 5 -2 10.5t-2 12.5q-2 -16 -2.5 -21t-6.5 -10q-2 -13 -4.5 -26t-5.5 -27q4 8 4.5 3.5t-1.5 -13.5t-4.5 -19.5t-3.5 -14.5q-6 -25 -17.5 -52t-21.5 -52q-4 -8 -7.5 -17.5
t-5.5 -18.5v-8.5t-1 -8.5q3 -2 5 -2t0 -8q-3 -10 -7.5 -21.5t-9.5 -21.5q-6 -11 -10.5 -23.5t-8.5 -23.5q-5 -18 -9.5 -37t-9.5 -37q-2 -10 -6 -26.5t-4 -27.5q-1 -3 -4 -6.5t-7 -4.5q-8 -5 -17 -3q-2 -1 -4 -1.5t-4 -2.5q-2 -1 -5 -1q-1 0 -3 7z" />
    <glyph glyph-name="w" unicode="w" horiz-adv-x="537" 
d="M89 82l-4 -2t-2 -2q-1 0 -1.5 -0.5t-1.5 -0.5t-2.5 -1t-2.5 1v1q2 2 5 2h-5l-2 -1l1 2q2 5 3.5 9t3.5 9v2l-1 -1q-5 -3 -7 0q-2 0 -4 5t-3 5q-1 2 -1.5 2t0.5 -2q-7 9 -8 22q-2 7 -3 13t-2 14q-3 18 -4.5 36t-2.5 37q-1 3 -1 10q-2 13 -2.5 18t0 6t1 0t2.5 1
q-1 14 -1.5 27.5t-1.5 27.5q-3 -10 -4 -5t-1 15.5v22.5v17q0 26 3 54t5 54q1 7 1.5 13t0.5 12q2 11 2.5 21.5t-0.5 21.5q-1 5 -1.5 9t-2.5 9q-2 1 -4.5 0t-2.5 8q-1 23 2 53.5t5 54.5q-1 10 -1.5 19.5t-0.5 19.5q-1 7 -1.5 18t-1.5 22.5t-3 22t-6 16.5v5q2 13 12 17.5
t21 9.5q0 1 1 3t1 3q1 1 1 3q0 5 1 9.5t-1 9.5q4 -4 5.5 -9.5t3.5 -10.5q5 -16 6 -29q3 -15 4.5 -29.5t2.5 -29.5q1 -7 1.5 -14t1.5 -14q2 -3 3 -5.5t3 -5.5q1 2 1.5 5.5t1.5 5.5v1q1 6 3 -1q1 -9 1.5 -23.5t0 -29.5t-1 -29t-1.5 -24q-1 -15 -1 -25.5v-20.5t0.5 -21t1.5 -25
t3 -16t3.5 -2t2.5 -1.5t1 -13.5v-12q-1 -26 -4 -41.5t-5.5 -29.5t-2.5 -32t4 -49q1 -6 2.5 -5t2.5 2.5t2 -0.5t1 -14q-1 -13 -1.5 -25t-1.5 -25q6 18 10 26v2q6 13 9.5 23t6.5 18.5t5 18t5 23.5q2 12 1.5 15t-2 3t-2.5 1.5t2 11.5q7 23 13.5 35t11.5 22.5t9 25.5t7 44
q1 6 -0.5 5l-3 -2t-2 1t2.5 13q6 22 12.5 43.5t13.5 43.5q3 11 8.5 25t10.5 25q6 13 8 20.5t3.5 13t2.5 11t4 14.5q2 8 3.5 10.5t3 3.5t4.5 2t8 5q2 1 5 0q4 -3 3.5 -11.5t-0.5 -13.5l1 -2q1 2 1.5 5t0.5 5q1 5 2 9.5t2 9.5q2 -7 4 -13.5t4 -14.5q3 -3 3 -12q10 -36 18 -74
q2 -6 2.5 -11.5t2.5 -11.5q2 -2 4 -5t4 -5q0 3 0.5 6t0.5 6q2 7 4.5 -4.5t4.5 -29.5t3.5 -35.5t1.5 -22.5v-19.5t0.5 -14t2 -13.5t3.5 -18q2 -10 3.5 -11.5t3 -1t2.5 -0.5t2 -10q1 -23 -1.5 -35.5t-4.5 -24t-2 -28t6 -47.5q1 -7 2.5 -5.5t2.5 3t2 -0.5t1 -15v-40
q-1 -8 0.5 -22.5t4 -30.5t5 -30.5t4.5 -22.5q0 2 0.5 3t0.5 3t1 3q2 6 2.5 11.5t1.5 11.5l-3 12l-2.5 -5t-3.5 -6q-3 -4 -1 10.5t6.5 34.5t9.5 39.5t7 26.5q3 15 5.5 26t4 20.5t2 20.5t1.5 26q0 14 -1 17t-2.5 3t-2 2t0.5 14q4 28 9 45.5t9.5 33.5t7 35.5t2.5 53.5
q0 7 -1.5 6t-3 -2.5t-2.5 0.5t1 15q5 35 11.5 71t13.5 71q1 2 1.5 6.5t1.5 8.5t2 9q3 14 3 26.5t2 26.5q3 13 5.5 16t14.5 2q2 0 1.5 -0.5t3.5 -0.5q2 1 3 -1.5t1 -6.5t-1 -7.5t-1 -4.5q1 -1 3 -7q8 12 12 7.5t5 -15.5t1 -24.5v-17.5q-1 -20 -2 -39.5t-2 -39.5t0 -26t-5 -11
q-2 -16 -2.5 -31t-1.5 -30q4 10 4.5 4.5t-0.5 -17t-3 -24.5t-2 -17q-4 -34 -11.5 -68.5t-14.5 -67.5q-2 -11 -4.5 -23t-3.5 -23v-9t1 -9q2 -2 4.5 -1t1.5 -9q-3 -25 -12 -56.5t-16 -56.5q-2 -9 -5.5 -25.5t-7 -34t-6 -33.5t-2.5 -24q-4 -10 -11 -12.5t-16 -1.5v-1
q0 -7 -4 -7.5t-11 -4.5q-2 -1 -1.5 -1t-3.5 0q-2 2 -3 0.5t-3 5.5l-2 1q-2 -1 -2.5 -1.5t-2.5 -1.5q1 0 1 2q-10 -8 -19.5 9t-17.5 41.5t-13.5 49t-7.5 30.5q-5 19 -7.5 25t2.5 11q0 3 -0.5 5.5t-0.5 5.5q-2 13 -2.5 25.5t-2.5 24.5q-2 -10 -3.5 -5.5t-2 15t-1 22.5t-0.5 17
q-1 24 1.5 50t4.5 51q0 8 0.5 15.5t-0.5 14.5q-4 8 -5 11q-3 1 -5 0t-3 5q-2 17 -1.5 40.5t0.5 41.5q-1 5 -2 10.5t-2 12.5q-2 -16 -2.5 -21t-6.5 -10q-2 -13 -4.5 -26t-5.5 -27q4 8 4.5 3.5t-1.5 -13.5t-4.5 -19.5t-3.5 -14.5q-6 -25 -17.5 -52t-21.5 -52q-4 -8 -7.5 -17.5
t-5.5 -18.5v-8.5t-1 -8.5q3 -2 5 -2t0 -8q-3 -10 -7.5 -21.5t-9.5 -21.5q-6 -11 -10.5 -23.5t-8.5 -23.5q-5 -18 -9.5 -37t-9.5 -37q-2 -10 -6 -26.5t-4 -27.5q-1 -3 -4 -6.5t-7 -4.5q-8 -5 -17 -3q-2 -1 -4 -1.5t-4 -2.5q-2 -1 -5 -1q-1 0 -3 7z" />
    <glyph glyph-name="X" unicode="X" horiz-adv-x="415" 
d="M376 943q11 3 13 -6.5t-1.5 -25.5t-10.5 -36t-14.5 -38t-13.5 -31.5t-7 -17.5q-8 -20 -12.5 -34.5t-13.5 -21.5q-9 -23 -17.5 -45t-16.5 -45q8 13 6.5 6t-7 -22t-12 -31.5t-8.5 -20.5q-5 -13 -10 -25.5t-10 -24.5l10 -36t10 -35t10 -33t11 -32q3 -6 6 -11.5t6 -11.5
q1 -1 2.5 0t2.5 1t2.5 -2.5t4.5 -8.5q12 -35 22.5 -77t19.5 -79q3 -8 8.5 -26t11.5 -37.5t12.5 -36.5t10.5 -23q1 -13 -10.5 -17t-22.5 -7l-4 -4q-1 -1 -5 -3q-2 -1 -3 -2l-4 12t-6 19.5t-6 20.5t-4 13q-2 6 -4 12.5t-4 12.5q-2 3 -5 6l-5 5q1 -3 1 -7v-7q-1 -6 -7 11.5
t-13.5 43.5t-14.5 51.5t-10 35.5q-6 19 -10.5 35.5t-10 31.5t-11.5 30.5t-13 33.5q-5 10 -8 15t-4.5 7t-3 3t-3.5 4q-2 -3 -3 -6.5t-3 -6.5q-2 -5 -2.5 -11t-2.5 -11q2 -2 4.5 -2t-2.5 -11q-15 -34 -37.5 -72.5t-40.5 -71.5q-6 -12 -16 -33.5t-20.5 -44.5t-18.5 -44.5
t-9 -34.5q-8 -15 -18.5 -16t-24.5 1l-5 -2.5l-5 -2.5q-3 -2 -7 -5t-7 -5q3 25 15 58t20 56q4 8 7 16.5t7 16.5q1 5 1.5 9.5t0.5 9.5q-5 -9 -11 -16q-4 -5 -1.5 3t9.5 22.5t17 34t19.5 38.5t17.5 34.5t11 22.5q9 16 15.5 28t12 24t10.5 25t11 30q4 13 4 16t-1.5 3.5t-2 2
t2.5 12.5q3 7 5.5 14t6.5 14q-5 18 -9 34.5t-9.5 34.5t-13 38t-19.5 44q-4 8 -4.5 6l-1 -4t-2 0t-7.5 18q-11 32 -21.5 66t-19.5 67q0 1 -0.5 2t-0.5 3q-9 30 -24 59q-5 9 -8.5 14.5t-7.5 14.5q-3 3 -3 7q-2 5 -3 7t0 6q2 2 2.5 4t1.5 3q0 1 0.5 1t0.5 1q2 2 1.5 2t0.5 2
q0 3 2 1q1 0 5 -2q2 -2 4.5 -5.5t4.5 -6.5q1 -1 5 -7l6 -3q-1 13 3.5 13t10 -6t10.5 -13.5l7 -10.5q10 -17 18 -32.5t17 -32.5q5 -9 8.5 -18.5t8.5 -18.5q8 -18 11.5 -23.5t0.5 -14.5q8 -17 14.5 -33.5t14.5 -33.5q-2 14 1.5 7t9 -22t11 -31t7.5 -20q2 -5 3 -8.5t3 -8.5
l4 14t4 15q3 9 1 8t-3.5 -2.5t-1.5 1.5t8 21q23 53 48 105t51 103q1 2 5 11.5t9 21t9 21t4 10.5q4 5 8 3.5t11 -3.5h5q4 -1 3.5 -4.5t-1.5 -5.5q2 -2 2 -3h12z" />
    <glyph glyph-name="x" unicode="x" horiz-adv-x="397" 
d="M358 943q11 3 13 -6.5t-1.5 -25.5t-10.5 -36t-14.5 -38t-13.5 -31.5t-7 -17.5q-8 -20 -12.5 -34.5t-13.5 -21.5q-9 -23 -17.5 -45t-16.5 -45q8 13 6.5 6t-7 -22t-12 -31.5t-8.5 -20.5q-5 -13 -10 -25.5t-10 -24.5l10 -36t10 -35t10 -33t11 -32q3 -6 6 -11.5t6 -11.5
q1 -1 2.5 0t2.5 1t2.5 -2.5t4.5 -8.5q12 -35 22.5 -77t19.5 -79q3 -8 8.5 -26t11.5 -37.5t12.5 -36.5t10.5 -23q1 -13 -10.5 -17t-22.5 -7l-4 -4q-1 -1 -5 -3q-2 -1 -3 -2l-4 12t-6 19.5t-6 20.5t-4 13q-2 6 -4 12.5t-4 12.5q-2 3 -5 6l-5 5q1 -3 1 -7v-7q-1 -6 -7 11.5
t-13.5 43.5t-14.5 51.5t-10 35.5q-6 19 -10.5 35.5t-10 31.5t-11.5 30.5t-13 33.5q-5 10 -8 15t-4.5 7t-3 3t-3.5 4q-2 -3 -3 -6.5t-3 -6.5q-2 -5 -2.5 -11t-2.5 -11q2 -2 4.5 -2t-2.5 -11q-15 -34 -37.5 -72.5t-40.5 -71.5q-6 -12 -16 -33.5t-20.5 -44.5t-18.5 -44.5
t-9 -34.5q-8 -15 -18.5 -16t-24.5 1l-5 -2.5l-5 -2.5q-3 -2 -7 -5t-7 -5q3 25 15 58t20 56q4 8 7 16.5t7 16.5q1 5 1.5 9.5t0.5 9.5q-5 -9 -11 -16q-4 -5 -1.5 3t9.5 22.5t17 34t19.5 38.5t17.5 34.5t11 22.5q9 16 15.5 28t12 24t10.5 25t11 30q4 13 4 16t-1.5 3.5t-2 2
t2.5 12.5q3 7 5.5 14t6.5 14q-5 18 -9 34.5t-9.5 34.5t-13 38t-19.5 44q-4 8 -4.5 6l-1 -4t-2 0t-7.5 18q-11 32 -21.5 66t-19.5 67q0 1 -0.5 2t-0.5 3q-9 30 -24 59q-5 9 -8.5 14.5t-7.5 14.5q-3 3 -3 7q-2 5 -3 7t0 6q2 2 2.5 4t1.5 3q0 1 0.5 1t0.5 1q2 2 1.5 2t0.5 2
q0 3 2 1q1 0 5 -2q2 -2 4.5 -5.5t4.5 -6.5q1 -1 5 -7l6 -3q-1 13 3.5 13t10 -6t10.5 -13.5l7 -10.5q10 -17 18 -32.5t17 -32.5q5 -9 8.5 -18.5t8.5 -18.5q8 -18 11.5 -23.5t0.5 -14.5q8 -17 14.5 -33.5t14.5 -33.5q-2 14 1.5 7t9 -22t11 -31t7.5 -20q2 -5 3 -8.5t3 -8.5
l4 14t4 15q3 9 1 8t-3.5 -2.5t-1.5 1.5t8 21q23 53 48 105t51 103q1 2 5 11.5t9 21t9 21t4 10.5q4 5 8 3.5t11 -3.5h5q4 -1 3.5 -4.5t-1.5 -5.5q2 -2 2 -3h12z" />
    <glyph glyph-name="Y" unicode="Y" horiz-adv-x="467" 
d="M238 452l3 -27q0 -1 0.5 -2t0.5 -2q0 -4 0.5 -7.5t0.5 -7.5l3.5 -3.5l3.5 -3.5q0 3 3 8q3 4 3.5 -7t-0.5 -26t-2 -28t-1 -14q-1 -7 -1.5 -13.5t-0.5 -13.5q-1 -11 0 -19.5t2 -19.5q2 -10 3.5 -11.5t3 -1.5t2.5 -1t1 -10q0 -19 -3 -30.5t-5 -22t-2 -22.5t6 -31
q1 -3 2.5 -2.5t2.5 1.5t2 0t1 -7q1 -8 1 -15v-15q2 -10 0.5 -21t-2.5 -20q0 -5 -0.5 -14.5t-0.5 -19v-17.5v-11q-2 -10 -5.5 -10t-12.5 -3h-5q-3 0 -3.5 5.5t-1.5 7.5l-3 3q-11 -9 -16.5 4.5t-7.5 32.5t-2.5 34.5t-1.5 10.5v-4q-4 9 -5.5 12.5t-1.5 4.5t1.5 0.5t2.5 0.5
l-4 16l-4 16q-2 -6 -3 -3.5t-2 8.5t-1.5 13.5t-0.5 12.5q-1 21 2.5 46t5.5 47q3 18 2 33l-3 12q-3 2 -5.5 1t-2.5 6v3q1 17 3.5 36t4.5 36q0 11 -0.5 23t-1.5 23q-1 7 -2 15.5t-6 13.5q0 6 6 9q2 2 4 3q-8 8 -13.5 18t-8.5 15q-7 10 -9.5 14t-3 5t0.5 0.5t3 1.5
q-5 8 -10 16.5t-10 16.5q0 -7 -2 -5t-5 8t-6.5 13.5t-5.5 11.5q-8 17 -14.5 37.5t-11.5 38.5q0 1 -1.5 5.5t-2.5 5.5q-2 8 -5 16t-7 15q-3 4 -9 10q-3 0 -4.5 -1.5t-4.5 4.5q-7 14 -13 37t-10 38q-2 4 -5.5 12.5t-7.5 17.5t-8 16.5t-7 10.5q0 4 3.5 7t9 5.5t10.5 4t8 1.5
q1 1 2.5 1.5t1.5 1.5q1 0 1.5 0.5t2.5 0.5q1 0 3 1q1 0 3.5 -4t5 -8.5t4.5 -9t2 -5.5q1 -3 5 -11q2 -1 4 -1.5t4 -1.5q0 5 1 7q1 5 5 -4t9 -22.5t9 -26l4 -12.5q4 -11 6.5 -18.5t5 -13.5t6 -12.5t9.5 -16.5q6 -9 8 -10t3.5 -0.5t2.5 0t6 -8.5v-2q8 -18 9.5 -28.5t3.5 -20.5
t7 -21.5t19 -30.5q3 -3 4 -2t1.5 2.5t2 0.5t4.5 -8q4 -8 7 -16l6 -16q3 12 7.5 24t8.5 21l5.5 16.5t2.5 5.5t1.5 0t2.5 -1q4 9 7.5 18t8.5 17q-5 -4 -5 -1t3 9t7.5 13t6.5 11q10 16 25 33t27 32q4 5 8 10.5t7 11.5q1 2 1 5t1 5q-2 2 -4 2.5t0 5.5q5 10 18 25.5t21 25.5
l5.5 11t7 15t5 15.5t-0.5 11.5q2 3 7.5 3t11.5 -1t11 -2.5t8 -2.5q1 0 3 0.5t2 1.5q2 1 4.5 1.5t4.5 1.5q1 -10 -3 -23t-8 -22l-2 -6l-2 -6q1 -2 1 -4t1 -4q2 1 3 2t3 2q5 2 1 -6.5t-11 -19.5t-14 -20.5l-7 -9.5q-6 -8 -9.5 -13t-6 -9.5t-5 -10t-6.5 -14.5q-3 -8 -2.5 -10
t1.5 -2.5t1.5 -2t-3.5 -7.5q-10 -16 -17.5 -23t-14.5 -13t-13.5 -16t-13.5 -32q-1 -4 0.5 -4h3t1.5 -1t-4 -8q-11 -19 -23.5 -36.5t-24.5 -37.5q-4 -8 -6 -11.5t-3 -6t-1.5 -5.5t-2.5 -9q-1 -3 -3 -7q-9 -13 -14 -12q1 -2 2 -3.5t2 -3.5t1 -3q1 -6 -3 -8t-9 -7
q-1 -1 -1 -1.5t-2 -1.5h-1h1z" />
    <glyph glyph-name="y" unicode="y" horiz-adv-x="467" 
d="M223 500l3 -27q0 -1 0.5 -2t0.5 -2q0 -4 0.5 -7.5t0.5 -7.5l3.5 -3.5l3.5 -3.5q0 3 3 8q3 4 3.5 -7t-0.5 -26t-2 -28t-1 -14q-1 -7 -1.5 -13.5t-0.5 -13.5q-1 -11 0 -19.5t2 -19.5q2 -10 3.5 -11.5t3 -1.5t2.5 -1t1 -10q0 -19 -3 -30.5t-5 -22t-2 -22.5t6 -31
q1 -3 2.5 -2.5t2.5 1.5t2 0t1 -7q1 -8 1 -15v-15q2 -10 0.5 -21t-2.5 -20q0 -5 -0.5 -14.5t-0.5 -19v-17.5v-11q-2 -10 -5.5 -10t-12.5 -3h-5q-3 0 -3.5 5.5t-1.5 7.5l-3 3q-11 -9 -16.5 4.5t-7.5 32.5t-2.5 34.5t-1.5 10.5v-4q-4 9 -5.5 12.5t-1.5 4.5t1.5 0.5t2.5 0.5
l-4 16l-4 16q-2 -6 -3 -3.5t-2 8.5t-1.5 13.5t-0.5 12.5q-1 21 2.5 46t5.5 47q3 18 2 33l-3 12q-3 2 -5.5 1t-2.5 6v3q1 17 3.5 36t4.5 36q0 11 -0.5 23t-1.5 23q-1 7 -2 15.5t-6 13.5q0 6 6 9q2 2 4 3q-8 8 -13.5 18t-8.5 15q-7 10 -9.5 14t-3 5t0.5 0.5t3 1.5
q-5 8 -10 16.5t-10 16.5q0 -7 -2 -5t-5 8t-6.5 13.5t-5.5 11.5q-8 17 -14.5 37.5t-11.5 38.5q0 1 -1.5 5.5t-2.5 5.5q-2 8 -5 16t-7 15q-3 4 -9 10q-3 0 -4.5 -1.5t-4.5 4.5q-7 14 -13 37t-10 38q-2 4 -5.5 12.5t-7.5 17.5t-8 16.5t-7 10.5q0 4 3.5 7t9 5.5t10.5 4t8 1.5
q1 1 2.5 1.5t1.5 1.5q1 0 1.5 0.5t2.5 0.5q1 0 3 1q1 0 3.5 -4t5 -8.5t4.5 -9t2 -5.5q1 -3 5 -11q2 -1 4 -1.5t4 -1.5q0 5 1 7q1 5 5 -4t9 -22.5t9 -26l4 -12.5q4 -11 6.5 -18.5t5 -13.5t6 -12.5t9.5 -16.5q6 -9 8 -10t3.5 -0.5t2.5 0t6 -8.5v-2q8 -18 9.5 -28.5t3.5 -20.5
t7 -21.5t19 -30.5q3 -3 4 -2t1.5 2.5t2 0.5t4.5 -8q4 -8 7 -16l6 -16q3 12 7.5 24t8.5 21l5.5 16.5t2.5 5.5t1.5 0t2.5 -1q4 9 7.5 18t8.5 17q-5 -4 -5 -1t3 9t7.5 13t6.5 11q10 16 25 33t27 32q4 5 8 10.5t7 11.5q1 2 1 5t1 5q-2 2 -4 2.5t0 5.5q5 10 18 25.5t21 25.5
l5.5 11t7 15t5 15.5t-0.5 11.5q2 3 7.5 3t11.5 -1t11 -2.5t8 -2.5q1 0 3 0.5t2 1.5q2 1 4.5 1.5t4.5 1.5q1 -10 -3 -23t-8 -22l-2 -6l-2 -6q1 -2 1 -4t1 -4q2 1 3 2t3 2q5 2 1 -6.5t-11 -19.5t-14 -20.5l-7 -9.5q-6 -8 -9.5 -13t-6 -9.5t-5 -10t-6.5 -14.5q-3 -8 -2.5 -10
t1.5 -2.5t1.5 -2t-3.5 -7.5q-10 -16 -17.5 -23t-14.5 -13t-13.5 -16t-13.5 -32q-1 -4 0.5 -4h3t1.5 -1t-4 -8q-11 -19 -23.5 -36.5t-24.5 -37.5q-4 -8 -6 -11.5t-3 -6t-1.5 -5.5t-2.5 -9q-1 -3 -3 -7q-9 -13 -14 -12q1 -2 2 -3.5t2 -3.5t1 -3q1 -6 -3 -8t-9 -7
q-1 -1 -1 -1.5t-2 -1.5h-1h1z" />
    <glyph glyph-name="Z" unicode="Z" 
d="M7 79h-1q-1 0 -2.5 0.5t-2.5 0.5q-3 -1 -5.5 -1t-6.5 -2q2 5 3 8t3 6q2 2 3 2q-9 -4 -10 6t2.5 26.5t9.5 36.5t12.5 38.5t11.5 31t6 14.5q6 20 8 29.5t10 14.5q5 17 10 33t9 33q-5 -8 -5 -3.5t2 13.5t5 19t3 13q1 3 1 7q6 33 24 71.5t33 68.5q6 13 12.5 25t11.5 25
q2 5 3 10.5t3 11.5q-2 2 -4.5 2t2.5 11q14 29 34 63t37 63q3 6 9 19t12.5 28.5t12 31t8.5 27.5q-2 -1 -9 -0.5l-14 1t-13 1.5l-6 1q-13 3 -16 3t-15 -3q-5 -1 -6 -2.5t-1 -3t-0.5 -2.5t-4.5 -1q-10 0 -15 3l-10 6t-12 4t-20 -4q-2 -1 -1.5 -2t1 -2.5t-0.5 -2t-5 -0.5
q-12 1 -26 4t-27 5q-7 2 -16.5 1.5t-10.5 0.5q-7 2 -7 6t-2 12q-1 1 -1 4q2 3 4.5 3.5t5.5 1.5l2 4q-5 9 -0.5 14t12.5 8t18 4t17 2q13 2 12.5 2.5t1.5 -3.5q5 0 10.5 1t10.5 1q-3 3 -1 4t5.5 1h8h5.5q9 0 22.5 -4.5t22.5 -6.5q7 -3 16 -3q3 3 5 4q1 2 0.5 4.5t2.5 3.5
q2 0 7.5 -1.5t12 -3t12.5 -3t8 -2.5q9 1 24 1t22 6q3 -1 5 -5.5t3 -10.5t1.5 -11.5t0.5 -8.5q3 -3 3 -5q1 1 3 2.5t3 2.5l4.5 4.5l4.5 4.5q1 -20 -7.5 -46.5t-15.5 -45.5q-5 -14 -10 -26v-15l9 12q6 6 -1 -10.5t-19 -40.5t-25 -47t-17 -31q-9 -16 -15.5 -28t-12 -23.5
t-10.5 -24.5t-11 -29q-5 -15 -5 -18.5t1 -4.5t1 -3.5t-4 -14.5q-12 -29 -28.5 -58.5t-20.5 -58.5q-2 -11 -2.5 -21t-2.5 -21q-1 -8 0.5 -7t3 2.5t1.5 -1t-4 -17.5q-14 -42 -35 -85t-41 -84q-3 -7 -5.5 -13t-4.5 -12q10 2 22.5 3t23.5 0q16 -1 21.5 -0.5t20.5 4.5q6 1 7.5 3
t1.5 3.5t0.5 2.5t5.5 1h3q15 0 22.5 -3t14.5 -5.5t17 -3t29 3.5q3 1 2.5 2.5l-1 3t0.5 2t7 0.5q17 -2 34 -5.5t33 -7.5q2 -1 13.5 -3t12.5 -2q5 -3 4.5 -7t-0.5 -12v-4q-1 -4 -8 -4q0 -1 -0.5 -1.5t-0.5 -1.5q2 -10 -3 -15t-13 -7t-17.5 -2h-15.5q-9 -1 -12.5 -1.5t-4 -0.5
t0.5 1t0 3q-8 0 -15 -0.5t-14 -1.5q5 -3 2 -4t-9 -1t-12 0.5t-7 0.5q-14 0 -28.5 3t-28.5 5q-3 1 -9 1q-5 1 -10 1.5t-10 -0.5q-2 -1 -3.5 -2t-3.5 -2q0 -3 0.5 -5t-3.5 -3q-8 -1 -23 0.5l-25 2.5q-3 -1 -6.5 -1.5t-6.5 -1.5l-17.5 -5t-14.5 -11v-1q-5 -1 -9 4.5t-8 11.5
q-2 -1 -2.5 -0.5t-2.5 0.5q-3 3 -1 11h6zM273 874h-2q-2 -2 -2.5 -3t-2.5 -3q4 -2 5 -4h1q0 3 0.5 5.5t0.5 4.5zM42 116h2q1 1 2 2.5t2 2.5l1 2q-1 0 -1 0.5t-1 0.5h-2q-2 -6 -3 -8z" />
    <glyph glyph-name="z" unicode="z" 
d="M7 79h-1q-1 0 -2.5 0.5t-2.5 0.5q-3 -1 -5.5 -1t-6.5 -2q2 5 3 8t3 6q2 2 3 2q-9 -4 -10 6t2.5 26.5t9.5 36.5t12.5 38.5t11.5 31t6 14.5q6 20 8 29.5t10 14.5q5 17 10 33t9 33q-5 -8 -5 -3.5t2 13.5t5 19t3 13q1 3 1 7q6 33 24 71.5t33 68.5q6 13 12.5 25t11.5 25
q2 5 3 10.5t3 11.5q-2 2 -4.5 2t2.5 11q14 29 34 63t37 63q3 6 9 19t12.5 28.5t12 31t8.5 27.5q-2 -1 -9 -0.5l-14 1t-13 1.5l-6 1q-13 3 -16 3t-15 -3q-5 -1 -6 -2.5t-1 -3t-0.5 -2.5t-4.5 -1q-10 0 -15 3l-10 6t-12 4t-20 -4q-2 -1 -1.5 -2t1 -2.5t-0.5 -2t-5 -0.5
q-12 1 -26 4t-27 5q-7 2 -16.5 1.5t-10.5 0.5q-7 2 -7 6t-2 12q-1 1 -1 4q2 3 4.5 3.5t5.5 1.5l2 4q-5 9 -0.5 14t12.5 8t18 4t17 2q13 2 12.5 2.5t1.5 -3.5q5 0 10.5 1t10.5 1q-3 3 -1 4t5.5 1h8h5.5q9 0 22.5 -4.5t22.5 -6.5q7 -3 16 -3q3 3 5 4q1 2 0.5 4.5t2.5 3.5
q2 0 7.5 -1.5t12 -3t12.5 -3t8 -2.5q9 1 24 1t22 6q3 -1 5 -5.5t3 -10.5t1.5 -11.5t0.5 -8.5q3 -3 3 -5q1 1 3 2.5t3 2.5l4.5 4.5l4.5 4.5q1 -20 -7.5 -46.5t-15.5 -45.5q-5 -14 -10 -26v-15l9 12q6 6 -1 -10.5t-19 -40.5t-25 -47t-17 -31q-9 -16 -15.5 -28t-12 -23.5
t-10.5 -24.5t-11 -29q-5 -15 -5 -18.5t1 -4.5t1 -3.5t-4 -14.5q-12 -29 -28.5 -58.5t-20.5 -58.5q-2 -11 -2.5 -21t-2.5 -21q-1 -8 0.5 -7t3 2.5t1.5 -1t-4 -17.5q-14 -42 -35 -85t-41 -84q-3 -7 -5.5 -13t-4.5 -12q10 2 22.5 3t23.5 0q16 -1 21.5 -0.5t20.5 4.5q6 1 7.5 3
t1.5 3.5t0.5 2.5t5.5 1h3q15 0 22.5 -3t14.5 -5.5t17 -3t29 3.5q3 1 2.5 2.5l-1 3t0.5 2t7 0.5q17 -2 34 -5.5t33 -7.5q2 -1 13.5 -3t12.5 -2q5 -3 4.5 -7t-0.5 -12v-4q-1 -4 -8 -4q0 -1 -0.5 -1.5t-0.5 -1.5q2 -10 -3 -15t-13 -7t-17.5 -2h-15.5q-9 -1 -12.5 -1.5t-4 -0.5
t0.5 1t0 3q-8 0 -15 -0.5t-14 -1.5q5 -3 2 -4t-9 -1t-12 0.5t-7 0.5q-14 0 -28.5 3t-28.5 5q-3 1 -9 1q-5 1 -10 1.5t-10 -0.5q-2 -1 -3.5 -2t-3.5 -2q0 -3 0.5 -5t-3.5 -3q-8 -1 -23 0.5l-25 2.5q-3 -1 -6.5 -1.5t-6.5 -1.5l-17.5 -5t-14.5 -11v-1q-5 -1 -9 4.5t-8 11.5
q-2 -1 -2.5 -0.5t-2.5 0.5q-3 3 -1 11h6zM273 874h-2q-2 -2 -2.5 -3t-2.5 -3q4 -2 5 -4h1q0 3 0.5 5.5t0.5 4.5zM42 116h2q1 1 2 2.5t2 2.5l1 2q-1 0 -1 0.5t-1 0.5h-2q-2 -6 -3 -8z" />
    <glyph glyph-name="question" unicode="?" horiz-adv-x="383" 
d="M235 495q-14 3 -11.5 8.5t12.5 11.5t22 11t16 8q-3 -2 -3 -1q1 2 2 4.5t2 4.5q3 10 4.5 20t3.5 20q0 4 0.5 8t0.5 7q1 11 0.5 17.5t-0.5 11t1.5 7.5t4.5 6q1 17 1 33t-2 33v5q0 -1 -0.5 -2.5t-0.5 -2.5q-2 -7 -3 0q-2 16 -2.5 32t-2.5 32q-2 14 -3 26.5t-3 25.5
q-3 19 -10 32q0 1 -1.5 3t-1.5 3l1 1q-3 1 -5.5 1t-4.5 1q-11 1 -24 2t-24 -1q-8 -2 -15 -6q-1 -3 0.5 -4.5t-3.5 -3.5l-3 -1q-11 -2 -20 -4t-20 -7q-13 -7 -23 -19q-6 -8 -11 -20q-2 -8 -2 -12q-2 -11 -2.5 -29t1 -37.5t4 -37.5t5.5 -29q-1 -20 -12 -26.5t-28 -8.5
q-1 -2 -3 -4.5t-3 -3.5q-2 -4 -6.5 -9.5t-3.5 -4.5q3 30 0 62t-6 62q0 8 -0.5 16t-0.5 16q-2 5 -3 8.5t-3 8.5q-1 -5 -1.5 -9t-2.5 -8q-2 -6 -2.5 -2t-0.5 13t1 19.5t2 15.5q3 15 7.5 27.5t12.5 26.5q10 14 20 24t25 18q1 1 2.5 1.5t2.5 1.5q17 8 31 12t31 7q14 2 26 3.5
t26 3.5q13 1 18 2.5t7 3t4 2.5t11 1q4 -1 7 -1t6 -1q4 -1 11.5 -4t9.5 -5q8 -5 13 -10t10 -13q10 -14 13.5 -27t5.5 -30q1 -29 6 -60t9 -60q1 -8 2.5 -7t2.5 3t2 1.5t1 -12.5v-8q-1 -34 -4.5 -64.5t-11.5 -63.5q-4 -14 -7.5 -26t-9.5 -25q-1 -2 -1.5 -3.5t-1.5 -3.5
q-2 -2 -5 -7t-4 -6q-9 -12 -20 -17q-3 -2 -10.5 -4.5l-16.5 -5.5t-17 -5.5t-13 -3.5q-7 -2 -11 -3t-6 -1q0 -4 0.5 -7.5t0.5 -6.5v-9q2 -2 3 -2.5t3 -2.5l4 4q4 2 4 -4t-1.5 -14t-3.5 -15.5t-2 -8.5l-3 -10.5t-1.5 -6.5t0 -6.5t1.5 -9.5q1 -5 2.5 -6t3 -1t2.5 -1t1 -5
q0 -10 -4 -15t-7.5 -10t-5 -12t3.5 -20q1 -3 2.5 -2.5t2.5 1t2 -0.5t0 -6q-2 -12 -6 -26.5t-8 -26.5q-2 -8 -2 -17.5t-1 -11.5q-3 -7 -7 -6.5t-12 -1.5h-5q-4 2 -4 4.5t-1 5.5q-2 2 -3 2q-10 -4 -15.5 1t-8 13.5t-3 19t-1.5 17.5t-1.5 10t-0.5 3.5t1 0t4 0.5q-1 5 -1 11
t-1 11q-3 -3 -4 -1t-1 6t1 8.5t1 5.5q1 10 6.5 23.5t8.5 22.5l2 8t1 8l-3 6q-2 1 -5 0.5t-3 3.5q0 2 1.5 7.5t3.5 12t4 12.5t3 8q1 10 1.5 25t-5.5 23q1 3 6.5 5t12 2.5t12.5 0.5h9q1 0 2 1t1.5 1t1.5 1l4 2t4 3v-1q6 4 9 5q2 4 3 5zM186 45q-12 -11 -19 -9t-16 14
q-1 1 -1 2q-3 3 -2.5 2.5t4.5 0.5q-2 2 -2.5 3.5t-2.5 3.5q-4 -2 -4.5 0t-0.5 6q-1 2 1.5 5t3.5 5l6 6q3 3 2 5q-1 1 -2 1t-2 1h-4.5t-3.5 1q-1 1 4 5.5t6 6.5l-1.5 7.5t-6.5 3.5q1 1 7 1.5t12.5 0.5h12.5h7q4 0 5 1q2 0 5.5 0.5t2.5 0.5q2 -2 3.5 -4.5t3.5 -4.5q0 -2 1 -3
q2 0 3 -0.5t3 -0.5q1 0 1.5 0.5t2.5 0.5q6 1 3 -4.5t-4 -6.5q-4 -4 0 -8q2 -2 5.5 -1t4.5 -1q0 -1 -3 -4q-4 -2 -9.5 -4t3.5 -5q2 0 5 1t3 -1q-1 -1 -2 -2.5t-2 -1.5l-2 -2q-1 -1 -1 -2t-1 -1q-3 -3 -1 -1.5t0 0.5q-8 -5 -15 -12q-2 -1 -4 -3t-6 -2q-1 0 -1.5 -0.5
t-1.5 -0.5z" />
    <glyph glyph-name="exclam" unicode="!" horiz-adv-x="300" 
d="M172 208q-9 -12 -13 -5q-3 3 -3 8q-3 1 -4.5 12t-2.5 27t-1.5 34.5t-0.5 35v28.5v15q-2 20 -4.5 28.5t3.5 16.5q-2 19 -4 37.5t-4 36.5q-2 -12 -3.5 -6t-2 19t-1.5 27t-1 19q0 4 -0.5 17t0.5 28t2 27t4 14l1 -2l-3 30q-2 4 -3 7t-3 7q-3 1 -4.5 0t-3.5 7q-1 10 -0.5 23
t1.5 26.5t2 26.5t2 23v25.5v32t-1.5 31.5t-4.5 23q2 14 13.5 18t23.5 7l3 3t2 3q2 3 4 7t4 6q2 -22 3 -46.5t1 -47.5q0 -5 0.5 -11t0.5 -11q2 -3 6 -11q2 8 3 11q3 7 3.5 -6.5t0 -33t-1.5 -37.5t-1 -21q0 -13 -0.5 -21.5t0.5 -16t2.5 -15.5t4.5 -20l3 -9q2 -5 4.5 -2.5
t3.5 -2.5q0 -22 -2 -32.5t-3.5 -21t-1 -28t6.5 -53.5q1 -8 2 -5.5l2 5t2 0t2 -20.5t0 -48.5t-2.5 -63.5t-3 -64.5t-1.5 -51.5q-1 -9 0 -20t1 -16q-1 -2 -0.5 0t-0.5 -6q-2 -9 -4.5 -11.5t-13.5 -10.5q-2 -1 -5 -1q-3 3 -3.5 11t-1.5 12q-1 2 -3 4zM167 62q-11 -2 -16.5 -1
t-12.5 9q-3 3 -3 2.5t4 0.5q-1 1 -1.5 2t-1.5 2q-5 -1 -5 3q0 2 4.5 5t6.5 5t2 3q-1 0 -1.5 0.5t-2.5 0.5h-7q-1 1 3.5 4.5t5.5 4.5q-2 4 -2.5 6t-5.5 3q1 1 6 1.5t11.5 1t12 1t6.5 0.5h5q2 1 5 1.5t2 0.5q2 -1 4 -3.5t3 -4.5l1 -1q2 0 3 -0.5t3 -0.5q1 1 0.5 0.5t2.5 0.5
t2.5 -2.5t-2.5 -5.5q-4 -4 0 -6q2 -2 5.5 -1t3.5 -1t-3 -3.5t-5.5 -2.5t-3.5 -2.5t4 -3.5q2 -1 5 0t2 -1q0 -2 -3 -5l-6 -6q-2 -3 -0.5 -3.5t-0.5 -2.5t-8 -2h-9q-2 -1 -5 -1t-5 2h-3z" />
    <glyph glyph-name="period" unicode="." horiz-adv-x="270" 
d="M157 73q-2 -14 -7.5 -17.5t-17.5 -2.5q-7 0 -6 0t2 3l-3 1q-2 1 -3.5 1t-3.5 1q0 -6 -4 -2l-6 6q-3 3 -4 7.5t-1 9.5q1 2 1 4t1 4q0 1 0.5 3t-0.5 3q-2 0 -2.5 0.5t-1.5 0.5q-2 0 -4.5 -1t-3.5 0q-1 2 2 8t5 8q-2 5 -2.5 9.5t-5.5 6.5q1 1 6 2t11 1.5t11.5 0.5h7.5
q1 0 2.5 0.5t2.5 0.5q1 1 4.5 1.5t2.5 0.5q4 -4 6 -12l2 -2q4 0 6 -1q1 1 1.5 1t1.5 1q5 1 3.5 -2t-3.5 -5l-2.5 -2.5t2.5 0.5h2q2 0 3 1l4 2h-2q-6 -2 -8.5 -5.5t2.5 1.5q1 1 3 3.5t1 2.5v-1q-1 -5 1 -10t3 -3t2 0q1 -3 -1 -9l-3 -9q0 -3 -1 -4q-1 -4 -4 -4q-1 -1 -1 -1.5
t-1 -1.5z" />
    <glyph glyph-name="comma" unicode="," horiz-adv-x="270" 
d="M104 -6q-4 11 -1 15t2 10q0 1 -1 2q-2 4 -1 3.5t3 -2.5v1q0 2 -1 4q-5 0 -3 6q2 2 6.5 7t6.5 10h1q2 4 1 7q-2 2 -4 3q-1 0 -4 -0.5t-3 1.5q-1 1 2 9t3 10l-2 6q-2 4 -3.5 4.5t-4.5 -2.5q7 1 14 11.5t9 15.5v1v4q-3 5 -8 8q5 2 14 0q4 -2 6 -3.5t5 -3.5l5.5 -5.5
t4.5 -7.5q1 -1 2 -2.5t2 -2.5v-1h7q0 2 2 4q3 3 4 -1t1.5 -9.5t0.5 -10.5v-6q-2 -11 -1.5 -12.5l3.5 -10.5q2 -4 5 -4q2 -1 3.5 -0.5t1.5 -3.5q-1 -9 -4 -12l-6 -6t-5 -7.5t-1 -16.5q1 -5 5 -3t0 -4q-1 -1 -3.5 -5.5t-3.5 -5.5q-12 -16 -31 -25q0 -1 -1 -1.5t-2 -2.5
q-2 -1 -12.5 -4t-12.5 -3q-6 1 -6 4.5t-2 9.5v2q1 2 7 2v24z" />
    <glyph glyph-name="one" unicode="1" horiz-adv-x="232" 
d="M103 131q-8 -9 -12.5 -3t-7.5 19.5t-4.5 32t-2 36t-0.5 31v16.5q-1 20 -2.5 27t4.5 14q0 17 -0.5 33t-1.5 33q-3 -11 -4 -5.5t-1 18t0.5 26t0.5 18.5q1 35 4.5 71.5t5.5 71.5q1 11 1.5 23.5t-0.5 23.5q-1 5 -2 9t-3 9q-2 2 -4.5 0.5t-3.5 8.5q-2 27 -0.5 57.5t0.5 59.5
q-1 9 -3.5 25.5t-5.5 33.5t-7.5 32.5t-10.5 22.5q-1 14 8.5 20.5t21.5 12.5q0 1 1 3.5t1 4.5q1 3 2 7t2 7q10 -21 16.5 -45.5t11.5 -47.5q2 -6 3 -12l2 -12l4 -6l4 -6q0 3 0.5 6.5t0.5 7.5q3 8 5 -7.5t4 -38t3 -45.5t1 -30q0 -30 1 -50t4 -49q2 -15 3.5 -17.5t3 -2.5t2.5 -2
t1 -15q0 -29 -2.5 -48t-4.5 -37.5t-3 -40t2 -55.5q1 -7 2 -5.5t2.5 3t2 -1t0.5 -16.5q-2 -39 -5.5 -78.5t-6.5 -78.5q-2 -17 -1 -39t-1 -35q-1 -8 -2 -11t-3 -4t-5 -2t-8 -5q-2 -1 -5 -1q-4 3 -4 11t-1 13q-1 1 -1.5 2t-1.5 2z" />
    <glyph glyph-name="two" unicode="2" horiz-adv-x="362" 
d="M102 300l4 -20t3 -13q2 -5 2.5 -8.5t1.5 -7.5q3 -2 7 -8q1 2 1 5t1 5q3 5 2.5 -10t-2 -36t-2.5 -41t-1 -24q0 -15 -0.5 -25t1.5 -25v2l1 2q1 4 3.5 4.5t1.5 2.5q4 -4 7 -6q14 -16 23.5 -18.5t32.5 -0.5h2q3 1 2.5 2.5t-1.5 2.5t0.5 2t8.5 0q16 -2 30.5 -3.5t31.5 -2.5h10
t10 1q19 2 22.5 4t7.5 3q6 3 12 3h2l7 -1q6 -2 6.5 -6.5t2.5 -10.5v-4q0 -3 -3.5 -3.5t-5.5 -0.5q-1 0 -1.5 -0.5t-1.5 -0.5h-2h-2v-3v-1q0 -1 2 -5q1 -2 1 -6q-2 -4 4 -2q-4 -7 -12 -11.5t-17.5 -7.5t-19 -5.5t-16.5 -3.5q-5 -1 -8.5 -1.5t-8.5 -1.5q-12 -2 -17 -2.5
t-6 -0.5t-0.5 1t-0.5 3q-10 -1 -19 -1.5t-19 -0.5q8 -4 3 -4h-10q-7 1 -14 1.5t-15 2.5q-13 2 -25 7t-23 12q-9 5 -16 11t-13 14q-3 3 -4 5t-3 6.5t-3 6.5q-3 9 -1 21v4q-2 4 -4 7q-2 1 -4.5 0.5t-3.5 3.5q-1 14 0.5 33.5t0.5 36.5q-1 6 -0.5 22t0.5 33.5t-0.5 33t-4.5 20.5
q0 2 1 3v6q2 17 10 29t19 24q29 30 57.5 45.5t64.5 33.5q7 3 14 7q1 0 5.5 2.5t9 5.5t8.5 5.5t4 3.5l7.5 7.5t1.5 1v-1.5t3 -1q2 2 4 5.5t2 6.5q2 9 2.5 18t1.5 18q-4 -11 -4.5 -3t0.5 23t3 31.5t2 22.5q1 32 2 63.5t0 63.5q0 42 -6 86q-2 11 -3.5 21.5t-4.5 21.5
q-2 3 -2.5 6t-2.5 6l-6 8t-7 8q-3 -2 -3.5 -3.5t-5.5 2.5l-1 1l-3 3v1q-26 2 -53 1.5t-53 -10.5q-2 -2 -4.5 -2.5t-4.5 -2.5l-7 -7t-6 -7q-5 -7 -8 -13.5t-5 -14.5q-5 -26 -4.5 -54.5t8.5 -54.5q0 -22 -7 -32.5t-27 -18.5q-1 -3 -2.5 -7t-1.5 -7q-2 -6 -3.5 -13t-3.5 -13
q-3 45 -7.5 87t-3.5 88q0 9 1 18t3 18v2q0 3 0.5 10.5t1.5 11.5q-3 -5 -5 -10l-4 -10q-2 0 -2 -3q-3 -5 -3 -1.5t1 5.5q3 14 8.5 25t13.5 23q9 12 18.5 20t23.5 16q24 12 47 16t49 5h8.5h13.5t13 -0.5t7 -0.5q18 -1 29 -9q7 -4 12 -8.5t10 -9.5q9 -13 15.5 -25t12.5 -26
q5 -11 7 -19q4 -13 7 -17.5l5 -7.5t4 -6.5t4 -15.5q4 -20 5.5 -37.5t0.5 -37.5q-1 -53 -3.5 -101.5t-3.5 -102.5q0 -9 2 -8t3 3t1.5 -0.5t-2.5 -19.5q0 -2 -1 -7t-2.5 -11t-2.5 -10.5t-2 -5.5q-7 -18 -16.5 -30t-25.5 -23q-14 -9 -27.5 -15t-28.5 -12q-17 -7 -33 -13.5
t-33 -14.5q-14 -7 -24.5 -13.5t-21.5 -17.5q-12 -12 -14 -15z" />
    <glyph glyph-name="three" unicode="3" horiz-adv-x="315" 
d="M85 458q-5 2 -7 7l-1 1q-2 2 -5.5 5t-6.5 6q9 -3 19 -3q7 5 18.5 9.5t18.5 8.5q26 13 45 32l3 3q8 10 10.5 14t2.5 4.5t0 -1t3 -1.5q5 7 7.5 13t4.5 14q1 2 1 4t1 4q-3 -4 -4 -2t-0.5 7.5t1 12.5t-0.5 13q0 7 -1 11q-5 23 -3 51t4 52q1 9 1.5 18.5t-0.5 18.5q-4 10 -5 14
q-3 2 -5 0.5t-4 5.5q-1 8 -1 17t-1 18q0 1 -1 5.5t-2 9.5t-2.5 9.5t-2.5 5.5q-4 6 -5 7q-2 2 -7.5 6t-7.5 4q-5 2 -14.5 3.5t-20 2.5t-20 1h-14.5q-7 -1 -12.5 -2t-10.5 -5q-14 -1 -20 10t-11 22q-2 0 -4.5 1t-4.5 1q-4 1 -8.5 1.5t-8.5 1.5q19 8 39 12.5t40 6.5h10
t15.5 -0.5t16 -1t10.5 -0.5q6 -1 12.5 -1.5t12.5 -2.5q4 0 7 0.5t7 0.5l-6 4t-5 4q-4 2 -2.5 2t5.5 -0.5t7.5 -2t4.5 -1.5q15 -7 25 -15.5t20 -22.5q8 -13 12 -24.5t7 -25.5q1 -2 1 -5q3 -20 5 -41l4 -42q2 -12 3.5 -14.5t3 -2t2.5 -1t1 -11.5q1 -20 -3 -42t-2 -36
q4 -17 5.5 -32t1.5 -33q0 -7 1.5 -6t3 2.5t1.5 -1t-4 -15.5l-1 -3q-8 -22 -20 -37.5t-30 -30.5l-2 -2q9 -5 15.5 -10.5t14.5 -13.5q8 -11 12.5 -21.5t8.5 -24.5q2 -6 2.5 -11.5t1.5 -10.5q2 -21 3.5 -42t3.5 -42q1 -15 3 -18t3 -3.5t2 -3t1 -15.5v-8q-2 -35 -4 -62.5
t-3 -64.5q-1 -5 -1 -9t-2 -9q-1 -7 1 -6.5l4 1t1 -2t-8 -16.5q-10 -17 -26 -30q-22 -17 -45.5 -24.5t-50.5 -12.5q-5 -1 -10 -1h-10t-17.5 0.5t-26 0.5t-25.5 0.5t-18 1.5q-13 3 -13.5 6.5t-2.5 14.5q-1 1 1 4q1 3 8.5 2.5t9.5 -0.5q2 1 2.5 1.5t2.5 1.5q-10 10 -1 14
t25.5 6t34.5 3t27 4q9 2 17 5t16 7q11 6 15 9t5 3.5t1 -0.5t3 -2l7 7q7 8 11 19q-6 -5 -4.5 1t3.5 12q0 5 0.5 8.5t0.5 8.5q1 26 1 51t3 51q0 5 0.5 10.5t1.5 11.5l2 22t0 22q-2 4 -2.5 7.5t-2.5 7.5q-3 1 -5 -0.5t-3 6.5q-2 11 -1.5 22.5t-1.5 22.5q0 5 -2.5 12.5
t-4.5 12.5l-1 1q-6 5 -13 8q-13 5 -35 3.5t-35 -6.5q-11 1 -18 8q-8 -2 -10 -2q-8 0 -11.5 1t-5.5 2.5t-3 5t-5 8.5q-1 0 -1 4q0 3 10.5 4.5t12.5 2.5z" />
    <glyph glyph-name="four" unicode="4" horiz-adv-x="331" 
d="M59 470q-11 -5 -15 5.5t-4.5 26t1 32t1.5 22.5v17t0.5 6.5t1 1t2.5 0.5l3 33q-3 -4 -4 -2t-0.5 5.5t1.5 7.5t1 5q1 3 1.5 5.5t0.5 5.5q5 17 10 33t8 35q1 5 1.5 11t0.5 11q-2 2 -2.5 4t-2.5 4q-2 1 -4.5 0t-3.5 4q0 4 0.5 12t1.5 17t2 17.5t1 13.5q-1 7 -1 18t-1 22
t-2 21.5t-3 15.5q3 12 16 13t23 1q1 1 3 2t2 2q2 2 5 4.5t5 4.5q-1 -17 -1.5 -32t0.5 -32q0 -3 0.5 -6.5t0.5 -6.5q2 -2 3 -3.5t3 -3.5q1 3 3 7q3 4 4 -4.5t1 -20.5t-0.5 -23.5l-0.5 -11.5q0 -9 -0.5 -14.5t0 -10t1 -10t2.5 -14.5q1 -8 3 -9t3.5 -1t2.5 -1t1 -8
q-1 -13 -3.5 -22.5t-6.5 -18.5t-7.5 -20t-5.5 -26q0 -2 0.5 -4.5t0.5 -4.5q0 -3 1.5 -3t3 0.5t2 -0.5t-0.5 -6q-5 -22 -10.5 -43t-10.5 -44q3 -1 5.5 -1t4.5 -1q3 -1 5 -1q12 -4 15.5 -4t14.5 2q5 1 6 2.5t1 3t0.5 2t4.5 0.5q9 0 16 -4q10 -8 14 -10.5t18 3.5q3 2 0.5 5
t4.5 2q5 -2 11 -3.5t11 -3.5v1v22.5t-1 22.5v2q-2 3 -2.5 6.5t-1.5 6.5q-4 1 -5.5 0t-2.5 7q0 13 1.5 30t3.5 35t4.5 35.5t4.5 30.5q0 12 1.5 34.5t3 47t2 46t-0.5 32.5q3 16 14.5 18.5t25.5 2.5q1 1 3 2.5t2 2.5q1 1 2.5 1.5t3.5 2.5q2 1 4 3l-1.5 -16t-3 -35t-2.5 -35
t-1 -17q0 -8 -0.5 -16t-0.5 -16q1 -5 2 -8.5t3 -8.5q1 5 1.5 9t2.5 8q3 7 3 -11t-2.5 -44.5t-5 -53.5t-3.5 -38q-1 -14 -2.5 -31t0.5 -31q1 -5 1.5 -11t1.5 -11q2 -12 3.5 -14t3 -1.5t2.5 -0.5t3 -11q4 -30 -1 -59t-7 -58q-2 -14 -0.5 -32t3.5 -32q1 -7 2.5 -6t2.5 2.5
t2 -0.5t1 -15q0 -39 -1.5 -79t-4.5 -78q-1 -7 -1.5 -19t-1.5 -25.5t-2.5 -25.5t-2.5 -19q-3 -10 -4.5 -14t-3.5 -6t-5.5 -3t-9.5 -5q-2 -1 -5 0q-1 0 -1 4.5v10.5t0.5 11t0.5 6q0 2 -2 6q-7 -8 -11 -2t-6.5 19.5t-3.5 32.5t-1 37.5t-0.5 33.5t-0.5 21q-2 20 -4 26.5t4 13.5
q-2 16 -3 32l-2 32q-3 -12 -4 -6t-1 18.5v26.5v18q1 5 1 9.5t1 9.5l3 51h-1q-9 -2 -8.5 -2.5t-1.5 4.5q-4 -1 -7.5 -1.5t-8.5 -1.5q5 -5 -3 -4.5t-11 1.5q-5 0 -10 2t-9 4q-1 0 -10 3.5t-11 3.5q-3 2 -7 3t-8 0l-6 -3v-4.5t-3 -3.5q-4 0 -16.5 5t-16.5 7q-7 0 -15.5 0.5
t-11.5 -6.5q-2 1 -2 8.5v15.5z" />
    <glyph glyph-name="five" unicode="5" horiz-adv-x="337" 
d="M101 870l1 -2q2 -2 3 -2.5t3 -2.5q0 1 0.5 1.5t0.5 1.5l-4 2zM88 64q-11 9 -8 12t10 3t13 -1t3 1q24 2 53 5.5t50 16.5q1 0 2 1l2 2l5.5 5.5t4.5 6.5q2 4 2.5 5.5t0.5 1t0.5 -1.5t2.5 -1q4 10 5 15q1 8 1 14.5v14.5q-3 -8 -4 -3.5t-1 14.5t0.5 21t0.5 17q1 65 17 133
q4 15 6 30q3 23 0 47q-2 5 -3 8.5t-3 8.5q-3 1 -5 -0.5t-4 7.5q-5 25 -9 56t-5 56v6q-1 2 -3 9.5t-4 9.5q-5 7 -12 12q-10 6 -19.5 7.5t-20.5 -0.5q-5 -1 -9.5 -2t-9.5 -4q-13 -1 -21 7v-2q-2 -8 -5.5 -8.5t-11.5 -3.5q-2 -1 -2.5 -0.5t-2.5 -0.5q-3 2 -4 5l-2 6
q-1 1 -1.5 1t-1.5 1q-10 -6 -17 2v-2q0 1 -1 2q-7 8 -10 25t-5 26q-2 8 -3 11t-1 3.5t1 0.5t4 1q-2 6 -2.5 12.5t-2.5 12.5q-2 -4 -3.5 -1.5t-2 7t-0.5 9.5v6q-1 11 2.5 26.5t5.5 27.5q0 4 0.5 8.5t0.5 8.5q-4 6 -5 7q-2 1 -4.5 0t-3.5 3q0 3 0.5 9.5t1.5 14t2.5 14t1.5 9.5
q0 4 -0.5 12t-2 16t-3.5 15t-5 10q2 7 11 9.5t17 4.5q-2 8 1.5 12t9.5 6.5t13 3t13 1.5q10 1 9.5 1.5t0.5 -4.5h7.5t8.5 1q-2 3 -1 3.5t4 0.5t6 -1t5 -1q6 -2 15.5 -8t15.5 -9q6 -4 10 -4q2 1 2.5 1.5t2.5 1.5q1 2 1 4.5t2 2.5q1 0 5 -2t8.5 -4t8.5 -4l6 -3q7 -1 17.5 -1.5
t15.5 5.5q5 -2 6 -17t1 -20l2 -4l4 -8q-6 -2 -15 -3t-16 -2h-8q-2 -4 -4 -6q1 0 4 -3q1 -3 -3.5 -3t-11 1.5t-12 3.5t-6.5 2q-10 5 -12.5 5.5t-12.5 -0.5q-4 -1 -5 -2.5t-1 -3t-0.5 -2t-3.5 -0.5q-7 1 -10.5 5t-6.5 7.5t-7.5 5t-14.5 -1.5q-3 -2 -1 -5.5t-4 -1.5q-2 1 -3 1
t-2 1v-12v-14t-0.5 -12t-0.5 -6l-1.5 -12t-0.5 -7t1 -7t3 -11q1 -5 3 -6t3.5 -1t2.5 -0.5t1 -5.5q1 -11 -1.5 -17.5t-5 -12.5t-3 -14t5.5 -22q1 -3 2.5 -2.5t2.5 1t2 0t1 -5.5q0 -12 -1.5 -25.5t-2.5 -26.5q16 5 39 7q13 1 24 0t23 -5q3 -1 11 -4.5t10 -5.5q3 -2 5.5 -3.5
t4.5 -3.5q5 -2 9 -5t9 -6q-3 5 -6 9t-6 9t-1 4t6.5 -5.5t9.5 -10.5t8 -11q7 -12 9.5 -23.5t4.5 -25.5q1 -15 3.5 -29.5t4.5 -29.5q4 -25 9 -52t8 -52q1 -14 3 -18.5t3.5 -7t2 -5.5t-0.5 -15q0 -5 -0.5 -10.5t-2.5 -10.5q-6 -30 -10.5 -47.5t-6.5 -33.5t-2 -35t3 -52
q1 -6 2.5 -5t2.5 2.5t1.5 -0.5t-0.5 -15q-1 -4 -2.5 -15.5t-3.5 -13.5q-4 -13 -8.5 -23t-12.5 -21q-9 -11 -18.5 -18t-22.5 -14q-15 -6 -28.5 -8.5t-29.5 -4.5q-20 -2 -37.5 -2h-37.5q-11 1 -17 2t-17 6l-13.5 6t-6.5 4.5t-2.5 6.5t-0.5 12q0 2 2 4q1 1 5 0t9.5 -2.5t10 -3
t6.5 -1.5t3.5 0.5t3.5 0.5z" />
    <glyph glyph-name="six" unicode="6" horiz-adv-x="404" 
d="M121 345q2 -27 1.5 -54t-0.5 -47q0 -10 0.5 -19.5t1.5 -19.5q2 -5 3.5 -9.5t3.5 -9.5q0 5 0.5 10t1.5 10q1 6 2 3.5t1.5 -8l1 -11l0.5 -5.5q2 -23 6.5 -43t16.5 -40q8 -14 23 -25h1q11 -8 21 -11t22 -5q16 -2 27 1q4 2 7 3t6 4q1 1 2 1.5t2 2.5q3 3 3 6q2 6 1.5 7.5
t-1.5 2t-2 1.5t1 7q1 2 1 4t1 4q7 29 11 51t18 49q8 10 11 26t3 33.5t-2 34t-3 27.5q-1 1 -1.5 4t-0.5 4q-2 4 -2 -1q-2 -3 -2.5 -4t-1.5 4t-1.5 9.5t-0.5 9.5l-4 28l-4 28q-3 11 -6.5 23t-9.5 22q-5 8 -11 16.5t-12 16.5q0 1 -1 2l-2 2q-2 2 -5.5 2h-6.5q-17 1 -35 0t-36 0
q-11 0 -21.5 -0.5t-21.5 -0.5q-1 -16 -2 -31.5t-1 -31.5v-16.5v-21v-20.5t-1 -14q0 -10 -3 -11zM131 540q11 2 20 2t20 2q6 -1 20.5 0.5t30.5 3t29.5 2t17.5 -1.5q20 -5 34 -21q6 -7 11.5 -13t10.5 -13q2 -1 4 -3.5t3 -3.5q14 -20 20 -31.5t4 -23.5q1 -3 2.5 -7t2.5 -8
q10 -39 16 -80q1 15 1.5 11t2.5 -15q2 -23 3 -44t-1 -43q-1 -18 -4.5 -36t-11.5 -35q-11 -24 -15.5 -51.5t-13.5 -53.5q-2 -6 -4 -8q-1 -3 -5 -11t-6 -10q-10 -14 -24 -24q-7 -4 -12.5 -7t-13.5 -5q-1 0 -3.5 -1t-4.5 -2q-5 -2 -10.5 -3t-11.5 -2q-1 -2 -0.5 -3t0 -1.5
t-4 -1.5t-11.5 -1q-1 -1 -3 -1q-1 0 -2 -1q-20 1 -35.5 6t-32.5 15q-15 10 -25 20t-20 25q-9 15 -14 28.5t-9 30.5q-4 15 -6 28t-4 27q-1 16 -1 36.5t-0.5 41.5t-1.5 41t-4 34q1 18 10 27q-6 9 -9 29t-4.5 41.5t-2 39.5t-0.5 22q-2 20 -3.5 27t4.5 14q0 14 -0.5 27.5
t-1.5 27.5q-3 -8 -3.5 -4t-0.5 12q0 9 2 23q1 2 1 7q5 32 9.5 62t8.5 62q1 10 2 19.5t1 18.5q-1 4 -1.5 7t-1.5 7q-3 2 -5.5 1t-2.5 7q1 11 4.5 24t8.5 24q9 26 25 45l6 6q8 10 16.5 16t20.5 12q24 10 41 12t38 9q18 -2 23.5 -12.5t7.5 -25.5q2 -1 4.5 -3t4.5 -2q5 -2 9 -5
t9 -5q-27 2 -50 1.5t-50 -7.5q-3 -2 -6.5 -3t-6.5 -3q-1 0 -1.5 -2t-0.5 -3t-1 -2l-2 -1h4h4q4 -1 1.5 -2.5t-3.5 -2.5q-6 -3 -10 -6t-9 -8q-8 -10 -13 -24q-2 -4 -4 -10q-6 -19 -6.5 -31.5t1.5 -32.5q1 -12 2.5 -14t3 -2t2.5 -1.5t1 -11.5q-1 -36 -9 -64t-11 -64
q0 -5 0.5 -10.5t1.5 -10.5t2 -4t2.5 2t2 -0.5t0.5 -10.5l-3 -37v5z" />
    <glyph glyph-name="seven" unicode="7" horiz-adv-x="348" 
d="M80 98q-10 -16 -13.5 -13t-4 17.5t2 35.5t5.5 40.5t5.5 34l2.5 14.5q2 10 2.5 16t0.5 10t1.5 7t4.5 6q1 5 1 9t1 9q1 15 3 30.5t4 30.5q-6 -13 -5 -6t4.5 21t8 29.5t5.5 19.5q11 34 27 67.5t30 67.5q4 9 7.5 18.5t5.5 19.5q-1 5 -1 15q-3 2 -5.5 1t-1.5 6q1 2 1.5 5.5
t0.5 4.5q6 29 17 56t24 53q8 18 15.5 36t15.5 36q4 8 9 19.5t9 22.5q-3 -1 -9 -1q-7 -2 -9.5 -3t-3 -1t-0.5 1t-1 4q-5 -1 -11 -2t-11 -2q4 -2 2 -3t-6 -1.5t-8.5 -0.5h-5.5q-10 0 -24 4t-24 6l-8 2t-8 0q-2 -1 -3 -2t-3 -2q-1 -2 -0.5 -4.5t-2.5 -3.5q-2 0 -8 1t-13 2.5
t-13 3t-9 2.5q-9 -1 -24.5 -1.5t-23.5 -6.5q-3 1 -5 5.5t-3.5 10.5t-2 11.5t-0.5 8.5q0 2 -3 5t-5 7q8 3 19.5 4.5t20.5 2.5q6 0 9 1q2 2 2.5 3t2.5 3q-4 2 -5 3q-4 3 2.5 3.5t15.5 -0.5q11 -1 25 -3l10.5 -1.5t6.5 -0.5t7 0.5t10 2.5q5 1 5.5 2.5t0.5 3t0.5 3t4.5 1.5
q10 0 16 -3t11.5 -6t12.5 -3.5t20 4.5q2 1 1.5 2.5t-1 2.5t0 2t5.5 1q13 -1 27.5 -3.5t26.5 -4.5q6 -2 16 -1.5t12 -0.5q6 -2 6.5 -6t2.5 -11l4 -1l3.5 3.5l3.5 3.5q1 2 3.5 5t2.5 5q3 7 2 12q2 -4 2 -12v-6.5t-2 -6.5q-3 -16 -9 -29q-6 -18 -13.5 -36t-15.5 -35q0 -1 -1 -3
l-2 -4l-4 -10l-4 -10q-1 -5 -1 -8.5v-7.5l9 12q4 4 -1.5 -10.5t-14 -35t-17.5 -42t-13 -31.5q-2 -5 -3.5 -11.5t-2.5 -12.5q-3 -15 -5.5 -30t-5.5 -30q-2 -14 -1.5 -16.5t2 -3t1.5 -2.5t-3 -14q-11 -30 -20 -46.5t-17 -32t-15 -36t-12 -57.5q0 -8 1.5 -6.5l3 3t1.5 -0.5
t-3 -17q-2 -11 -4 -20.5t-4 -20.5q-3 -18 -6 -31.5t-6.5 -26.5t-8.5 -26t-12 -29q-5 -15 -7 -24t-3 -16t-1 -15t-2 -20q-2 -15 -3 -20.5t-2.5 -7.5t-4.5 -4t-9 -11q-1 -3 -4 -2q-4 7 -4.5 23t0.5 24q-1 2 -1.5 3.5t-1.5 3.5z" />
    <glyph glyph-name="eight" unicode="8" horiz-adv-x="402" 
d="M264 537h-3t-3 1q-6 3 -3 8q0 2 1 3.5t1 3.5q2 5 2.5 8.5t2.5 8.5q2 18 1.5 35t-2.5 35q-2 14 -4 28.5t-4 29.5q-4 20 -8 31.5t1 19.5q-2 9 -3.5 19t-3.5 19q-1 7 -2 13l-2 12q-1 -9 -2.5 -8t-3 7t-3 14t-2.5 12q-3 10 -8 18q-1 1 -1.5 2.5t-1.5 2.5t-2.5 3.5t-3.5 2.5
q-3 3 -8 3q-8 0 -15.5 -2.5t-15.5 -6.5q-4 -2 -12 -8l-2 -1q2 4 4 9q-1 -4 -5 -14q-4 -12 -15.5 -24t-15.5 -25q0 -5 -0.5 -10.5t-1.5 -11.5q2 -2 4.5 -1.5t0.5 -10.5q-5 -17 -2.5 -34.5t-2.5 -35.5q-4 -16 -0.5 -30.5t3.5 -31.5q0 -1 0.5 -6.5t1.5 -6.5q4 -16 3.5 -27.5
t12.5 -22.5q11 -7 24 -11t25 -3q2 -1 4.5 -1.5t3.5 -1.5q12 -5 15.5 -15t7.5 -22q2 0 3.5 -1t3.5 -1h3q-4 6 -2 8q-1 1 -1 4q2 2 8.5 3t10.5 1q7 0 13 3h1zM278 509q8 -3 8 -2q8 -2 16.5 -3.5t16.5 -3.5q4 0 8 -2q2 -1 3.5 -1.5t2.5 -1.5l5 -5q2 -2 8.5 -13.5t11.5 -36.5
q5 -15 7.5 -30t5.5 -31q0 -2 0.5 -4.5t0.5 -5.5q4 -21 6.5 -35t-2.5 -24q2 -25 2.5 -50t-1.5 -50q4 14 4.5 11.5t-1.5 -14.5q-3 -42 -17 -83q-1 -1 -1 -2q-1 -1 -1 -2v-1q-9 -22 -21 -38.5t-31 -31.5q-22 -14 -42.5 -20t-46.5 -4q-27 3 -50 11q-29 10 -58 25q-10 6 -17 14
h-1q-2 2 -6.5 7.5t-5.5 8.5q-5 6 -7 11q-2 1 -3 0t-2.5 -1t-3 2.5t-3.5 10.5q-4 8 -4 16q-5 26 -6.5 52.5t-1.5 52.5q0 16 0.5 31.5t1.5 32.5v34q1 14 1.5 31t5.5 29q8 22 8.5 45t1.5 46q0 5 2 15q1 2 2.5 6.5t2.5 6.5q11 16 25 21h5l-1 1q-5 4 -6.5 13t-6.5 17q-4 3 -7 6.5
t-6 7.5q1 -8 5 -19q2 -7 -0.5 -3.5t-6.5 12t-8 19.5t-6 20q-4 26 -2 48.5t8 48.5q1 5 1.5 9.5t2.5 9.5q4 16 5 27.5t0 23t-1 23.5t3 28q2 14 3.5 19t2 7.5t1.5 6t3 14.5v1q3 11 9 20l4 4l4 4q5 5 10 8.5t11 7.5q16 9 30.5 13.5t32.5 4.5q21 0 38 -8q19 -10 33 -26
q15 -20 24 -44q6 -12 9 -25q3 -9 4.5 -7t2 4.5t1.5 -0.5t4 -22q0 -3 0.5 -6.5t0.5 -7.5q0 -34 5 -73t7 -77v-14.5t-1 -14.5q-1 -16 -2.5 -30t-6.5 -29q-4 -10 -8.5 -20t-12.5 -18q-4 -4 -12 -8zM149 511l-6 -2q-7 -3 -12 -8q-4 -3 -7 -11q-2 -6 -4 -16q-2 -19 -3 -36.5
t-4 -37.5q-2 -8 -4 -14t-5 -13q2 3 1.5 1.5t-0.5 -3.5q2 -5 2.5 -9.5t1.5 -9.5q1 4 2 9.5t3 8.5t2.5 -1t0.5 -10.5t-1 -14.5t-1 -13q-1 -23 -1 -46.5v-46.5q0 -12 0.5 -23.5t1.5 -23.5t2 -23.5t3 -22.5q2 -5 4.5 -16t4.5 -14q2 -2 2.5 -3.5t2.5 -2.5q12 -5 22 -8
q16 -5 20 -5.5t5 0.5t3.5 2t15.5 -1q2 -1 10.5 -2t9.5 -1q13 -1 24 0.5t22 6.5q14 7 21 17.5t13 24.5q5 16 7.5 31t3.5 32v5t-1 4h-1q-2 -2 -3.5 -5t-0.5 5q0 5 0.5 9t0.5 9q3 35 2.5 69t-2.5 69q-2 28 -6 57q-4 19 -10.5 22t-17.5 7t-25.5 9.5t-25.5 11.5q-2 1 -3.5 1.5
t-3.5 2.5q-4 2 -10.5 6t-9.5 7q-2 2 -4 6h-2l-20 4t-20 6zM253 516q0 1 0.5 1.5t0.5 1.5q3 4 3 10q-1 -3 -2 -5t-3 -4l-3 -3z" />
    <glyph glyph-name="nine" unicode="9" horiz-adv-x="391" 
d="M329 815q5 15 10 10t7 -16q6 -17 9 -41.5t5 -43.5q2 -20 3 -41t3 -41t3.5 -29t-4.5 -15q0 -4 0.5 -9t0.5 -10q-1 -9 -1.5 -18.5t-0.5 -19.5q3 11 4 5.5t0.5 -18t-1.5 -26.5t-1 -19q-2 -35 -6 -72.5t-7 -73.5q-2 -12 -3 -24.5t-1 -25.5q1 -5 1.5 -10t0.5 -10q3 -2 5 -1
t3 -8l-1 -2q0 -17 -3 -36t-7.5 -38.5t-10.5 -37.5t-12 -33q-2 -3 -5 -13t-5 -12q-11 -25 -31 -45q-11 -8 -20 -13t-21 -8q-17 -3 -28 -2.5t-26 -0.5q-11 3 -18 10q-6 8 -6.5 17t-0.5 18q-3 4 -7 7h-1q-2 1 -5 3t-5 2q-10 2 -14 1q6 3 14 3q3 1 6 0.5t7 -0.5q7 -2 13 -3
t13 -3q13 -3 24 -5t24 1q8 1 15 7q1 0 2 1.5t2 1.5q3 3 5 6t4 7q2 8 2 14q-4 -5 -9 -9q-3 -2 -2.5 0.5t2 5.5t3.5 6t2 4q11 23 16.5 43t10.5 44q3 16 5 31t4 32q2 14 1.5 26.5t-1.5 26.5q-1 15 -2 18t-2.5 3t-3 2t-1.5 15q1 18 2.5 32t3.5 27q-12 -6 -24 -8t-26 -3
q-26 0 -45.5 4t-43.5 7h-5q-15 2 -26.5 7t-22.5 16q-4 3 -4 3.5t0.5 0t2 -0.5t0.5 3q-8 9 -13.5 18t-10.5 20q-3 8 -6 16.5t-5 17.5q0 -14 -2 -7.5t-4.5 20.5t-5 29.5t-2.5 19.5v9q-2 38 1.5 76t8.5 76q1 6 2 15t0 16v1q-2 5 -2.5 11t-1.5 12q-2 2 -5 1t-1 11q1 13 8 30
q6 15 14 26t19 23q14 12 28 20t32 14q9 4 17.5 5.5t19.5 3.5q14 2 25.5 1.5t25.5 -2.5q14 -3 25 -7t23 -12q9 -5 16 -10t15 -12q2 -2 5 -8t3 -8q2 -13 -8 -23q2 -2 2 -4t1 -4q1 -4 1.5 -7.5t1.5 -8.5q3 -3 4 -5zM298 808q-2 10 -5 18t-8 16q-10 15 -24 23q-7 4 -12.5 6
t-13.5 4q-1 0 -2.5 0.5t-2.5 0.5q-5 1 -9.5 1.5t-9.5 -0.5q-5 -2 -11 -6q6 0 12 -3q3 -1 1 -1.5t-5.5 -1t-7.5 -1l-4 -0.5q-17 -2 -30.5 -8t-26.5 -17l-6 -6t-5 -6q-2 -2 -5 -7.5t-4 -7.5q-8 -20 -5 -41q0 -5 1 -8.5t1 -8.5q1 -13 3 -15t3 -2t2 -1.5t1 -13.5
q-1 -37 -7.5 -68t-4.5 -66q2 -14 4 -27t7 -27q3 -6 3.5 -5t1.5 2.5t2 0.5t4 -13q1 -3 1.5 -7.5t2.5 -7.5q2 -5 4 -10.5t6 -10.5q3 -5 8 -6q18 -4 35.5 -9t35.5 -9q2 -1 8 -2t8 -1h17.5t17.5 5q3 2 4 3.5t6 3.5q7 5 10 7q2 13 2 27.5t-1 34.5q-1 8 -2.5 6.5l-3 -3t-2 1
t1.5 17.5v5t1 9t2 13q2 1 3 21t1.5 44.5t0.5 45.5v24v8q0 23 -0.5 38.5t-3.5 37.5v3z" />
    <glyph glyph-name="ampersand" unicode="&#x26;" horiz-adv-x="676" 
d="M508 425q12 12 15.5 9.5t2 -10.5t-5 -18.5t-5.5 -14.5q-13 -34 -34 -69q6 -11 12 -21t12 -19q5 -7 10 -14.5t11 -13.5q4 -2 12 -8q3 2 4.5 4t6.5 -3q2 -2 5.5 -7t4.5 -7q10 -14 19 -29t19 -30q9 -11 18 -22.5t19 -22.5q5 -6 11 -12.5t14 -10.5q6 -11 -4 -19
q-4 -7 -10 -11.5t-12 -9.5q-3 -3 -3 -7l-1 -2q-2 -7 -6 -2q-1 -2 -0.5 -2.5t-1.5 1.5t-3 4.5t-3 4.5q-7 8 -13 16t-13 16q-4 4 -6 7l-11 11q-6 2 -10 2q2 -4 2 -9q1 -6 -7 3t-18 22.5t-18.5 26t-8.5 13.5q-2 3 -5 6.5t-5 7.5q-8 13 -17 22t-20 19q-9 7 -11.5 7.5t-3.5 -0.5
t-2.5 -1t-8.5 7q-1 3 -5 7q-8 -12 -15.5 -24.5t-15.5 -24.5q-13 -20 -20.5 -34t-18.5 -17q-4 -7 -8 -13t-9 -13q-10 -14 -20 -24t-25 -19q-3 -2 -5.5 -3t-4.5 -2q2 0 5.5 1.5t5.5 1.5q5 2 5.5 2t-4.5 -4q-14 -8 -27.5 -11.5t-29.5 -5.5q-20 -1 -36 2.5t-33 9.5q-18 7 -34 17
q-21 14 -37.5 28.5t-33.5 33.5q-6 8 -11.5 15.5t-10.5 15.5t-8.5 16t-5.5 18q-2 17 -1.5 32.5t3.5 32.5q3 20 9.5 38t15.5 36q2 6 4 11.5t4 11.5q1 1 1 2t1 3q-1 3 -4.5 3.5t5.5 14.5q14 20 32 39t34 39q9 14 21 29.5t25 29.5q-5 12 -11.5 27.5t-12 31t-10 29t-6.5 21.5
q-1 5 -1.5 8.5t-0.5 7.5q-3 20 -6.5 45t-4.5 45v1q0 15 -2 19l-3 6t-1.5 5t2.5 15t7 21.5t12 20.5q17 21 35 31.5t43 19.5q19 6 35 10.5t36 7.5q8 1 6.5 3t-3.5 3.5t0.5 2t20.5 -0.5q1 0 3.5 -0.5t4.5 -0.5h6q25 -4 43.5 -11.5t36.5 -24.5q16 -15 24.5 -30.5t11.5 -37.5
q1 -22 -4 -44q-4 -15 -11 -29q-8 -14 -19.5 -30t-25.5 -26q0 -1 -5 -4q-14 -17 -27.5 -31.5t-24.5 -27.5q-7 -8 -14 -16.5t-15 -16.5q-2 -5 -5 -10.5t-5 -11.5q9 9 18 15q6 3 -6 -12t-31 -38q7 -9 15.5 -18t18.5 -12l2.5 -2.5t1.5 -3.5q1 -2 1 -8q8 1 20 -6.5t24 -17t22 -19
t13 -12.5t6 -6.5t6 -7.5q6 -5 4.5 -3.5t-3.5 -2.5q5 -5 10 -11t10 -11q-1 8 4 4t10 -11q7 11 12.5 21t9.5 19q5 8 8 15t8 15q6 10 8 14t4 5t5.5 1t11.5 3h5q3 -2 3 -7t-1.5 -11t-4 -11t-3.5 -8v-10zM288 439q-3 2 -5.5 3.5t-5.5 3.5q-20 15 -37 36q-11 -14 -21 -26t-15 -20
q-5 -7 -10.5 -13.5t-10.5 -14.5q-2 -3 -11 -13t-18.5 -21t-17.5 -21t-9 -13q-6 -11 -9.5 -21t-6.5 -22q-3 -15 -2.5 -18.5t2 -4.5t3 -4t1.5 -18q0 -1 0.5 -5.5t0.5 -9.5t0.5 -8.5l0.5 -3.5q-1 5 -1 4t2 -5q6 -13 13 -22q11 -17 22 -28.5t28 -22.5q15 -9 30 -13.5t32 -2.5
q4 0 6.5 1t5.5 2q6 3 5 4t-2.5 1.5t-2 2t6.5 4.5q0 1 1.5 1.5t2.5 1.5q5 2 9 6t7 8q30 36 58 72.5t56 74.5l-10.5 10.5t-13.5 11.5q-3 3 -4 1.5t-1.5 -3t-2 -1t-5.5 6.5q-10 14 -17 30q-5 11 -11.5 20.5t-14.5 18.5q-4 5 -12 13.5t-16 16.5zM367 737q3 7 6.5 13.5t5.5 12.5
q3 9 4 17t-2 17q-1 7 -7 14q-1 1 -3.5 3t-4.5 3q-6 3 -8 3.5t-1.5 0.5t1.5 0.5t1 3.5q-8 3 -15 4t-15 2h-22q8 -3 5.5 -4t-11 -2t-18.5 -2t-17 -2q-1 0 -5 -2q-2 -1 -5 -1q-12 -4 -20.5 -8.5t-16.5 -13.5q-6 -8 -9.5 -15t-6.5 -16q-1 -3 -2.5 -9.5t-1.5 -9.5q-1 -5 -1 -9.5
v-9.5q2 -4 3 -7.5t3 -8.5q4 -1 6 0.5t4 -6.5q1 -7 1.5 -14t1.5 -15q6 -42 20 -82l1 -2q15 17 32 36t33 37.5t28 34t17 25.5q11 11 19 12z" />
    <glyph glyph-name="at" unicode="@" horiz-adv-x="959" 
d="M586 552q9 6 13 3t5 -10t0 -15.5t-2 -12.5q-2 -7 -3 -13t-3 -12q6 -17 11.5 -32t11.5 -26q7 -12 17 -20q10 -6 23 -9q19 -1 38 3q16 5 29.5 10.5t28.5 12.5q12 7 22 18q7 8 10 15l3 6t2 6q6 15 8.5 29t3.5 31q0 2 -0.5 7.5t-1.5 7.5q-2 7 -3 13.5t-3 13.5v-14t-1 -13
q0 -6 -2 -16q-2 -9 -2.5 -7.5t-0.5 6.5v11v6q-2 40 -10 77.5t-26 73.5q-23 39 -47 71t-61 59q-1 0 -5.5 3t-6.5 4q-26 16 -49.5 22.5t-54.5 7.5q-42 -1 -74.5 -11t-70.5 -27q-17 -8 -28 -15.5t-21 -14.5t-21 -14.5t-26 -16.5q-11 -6 -21 -12t-20 -13q-18 -11 -32 -21.5
t-27 -26.5q-10 -14 -14.5 -25.5t-8.5 -28.5q-9 -41 -11 -83.5t-10 -87.5q-8 -38 -5.5 -69.5t16.5 -67.5q5 -12 7 -14.5t1.5 0t-1.5 6.5t-0.5 4.5t3.5 -4t11 -20.5q1 0 4 -6l4 -8q22 -35 46 -58.5t59 -45.5q42 -24 80 -35.5t86 -15.5q35 -2 63.5 2.5t61.5 15.5q11 5 21 10
t21 11q34 20 67.5 39t68.5 38q16 9 28 14.5t29 11.5q3 2 12.5 5t12.5 3q15 4 23.5 6t14.5 1t12.5 -4.5t19.5 -9.5q3 -1 3 -5q-8 -3 -29 -7.5t-34 -9.5q-15 -5 -25 -10q-3 -2 -6 -4.5t-6 -5.5q26 5 27 1t-9.5 -11.5t-25.5 -15.5t-21 -11q-66 -39 -127 -80q-51 -32 -98 -45
t-106 -13q-19 0 -35.5 1.5t-34.5 4.5q-38 8 -70 18.5t-65 28.5q-5 3 -3.5 3t3.5 -2q6 -1 2 3l-1 2q-50 29 -84.5 62t-63.5 83l-4 8q-4 8 -4 9q1 -2 3.5 -9.5t3.5 -8.5q5 -14 -2 -1q-30 51 -35 104t4 111q1 2 1 4t1 4q9 43 10 82.5t7 81.5q5 26 12 45.5t21 42.5
q18 26 38.5 42t46.5 32q44 24 86 46q70 34 141 56q13 5 26.5 9t27.5 7q1 2 0 3.5t0 3t6.5 2.5t19.5 3h17q47 -1 83.5 -13t75.5 -38q45 -32 73.5 -70t55.5 -86q4 -8 7.5 -16t6.5 -16q16 -39 23.5 -76t8.5 -79q-1 -27 -4 -50t-13 -48q-5 -12 -11 -21.5t-15 -20.5t-18 -18
t-22 -14q-17 -8 -34 -15.5t-36 -12.5q-17 -4 -30.5 -5.5t-30.5 0.5q-8 1 -14 2t-13 3q-4 2 -12.5 7t-10.5 8q-18 17 -28 39q0 4 -2 8q-8 -14 -11 -19.5t-4 -6t-1.5 1t-2.5 1.5l-3 -3t-2 -3q-14 -14 -31 -22q-11 -5 -25 -8q10 -2 6.5 -3t-13 -1.5t-20.5 -0.5h-17
q-17 1 -34 3.5t-35 3.5q-14 0 -29 6q-6 4 -11 7.5t-10 8.5q-8 8 -12 15.5t-8 17.5q0 1 -1.5 4.5t-1.5 4.5q-2 9 -3 17.5t-2 17.5q-2 5 -3 9t-2 9q-4 1 -6.5 0t-2.5 9q1 10 3.5 20t5.5 19q8 21 18.5 36.5t26.5 31.5q11 15 27 28q15 11 28.5 18.5t31.5 15.5q12 4 24 12
q17 2 23.5 -11.5t9.5 -27.5q2 -1 4 -2.5t4 -2.5q6 -3 14 -9q-17 -2 -30.5 -5t-30.5 -9q-10 -4 -21 -10q-4 -2 -7.5 -4.5t-7.5 -5.5q0 -2 -1 -5t-1 -5v-1q6 2 9 2q5 0 1 -3.5t-5 -4.5q-14 -13 -23.5 -24t-17.5 -29q-1 0 -2 -2t-1 -3q-5 -16 -6.5 -26.5t5.5 -26.5q1 -2 2 -3
l2 -2q5 -4 5.5 -1t5.5 -2q1 -1 0 -1t-2 0.5t-2 0.5q-1 -1 -2 -1t-2 -1q26 -4 52.5 -10.5t52.5 2.5q2 1 1.5 2.5l-1 3t-0.5 2.5t4 1h3q4 0 5 1q4 2 7 6t6 7q8 10 14 21t11 22q5 9 9.5 19.5t8.5 21.5q3 9 3 13.5t2 11.5q3 7 5 10t4.5 3.5t6.5 1t10 2.5q2 1 5 0t2 -11t-1 -12
q1 -3 4 -4z" />
    <glyph glyph-name="zero" unicode="0" horiz-adv-x="429" 
d="M348 666q-1 38 -3.5 72.5t-14.5 76.5l-2 4q-1 2 -1 4q-3 7 -6 12t-7 11q-4 2 -7.5 4t-7.5 4q5 -7 8 -14q1 -4 -2 -2t-7.5 6.5t-10.5 9.5t-11 8q-21 12 -44 15.5t-47 4.5q-4 0 -6.5 -0.5t-6.5 -1.5q0 -1 -1 -1t-1 -1q-2 -1 -6.5 -3.5t-5.5 -4.5q-11 -12 -18 -25t-12 -28
q-3 -11 -5.5 -22.5t-4.5 -23.5q-2 -16 -1.5 -20.5t1.5 -7t1.5 -6.5t-1.5 -19q-4 -23 -7 -45t-8 -45q-6 -31 -9 -56t-4 -49t0 -49.5t3 -58.5q0 -1 4 -5.5t4 -25.5q0 -28 -0.5 -56.5t-2.5 -56.5q-1 -17 3.5 -31.5t12.5 -30.5q4 -8 10 -17q14 -22 34 -41q9 -8 14 -12t10 -6.5
l10 -5t14 -6.5h1q2 -1 5.5 -2t5.5 -2h1q10 3 16 7q7 5 13 9t12 9q4 3 7.5 6t6.5 7q1 3 1.5 5.5t1.5 5.5q-6 -4 -9 -5q-6 -1 0 5l6 6q12 14 21.5 25.5t19.5 26.5q2 2 2 3q9 15 12.5 27.5t1.5 29.5v1q-2 10 -3 12t-2.5 2t-2.5 1t-1 11q1 23 4 35.5t6 24t4 26.5t-3 43
q-1 5 -2 3.5t-2.5 -3.5t-2 0t0.5 14q0 12 3 40t6 60t6.5 63t5.5 49zM213 92q-7 0 -14 3l-1 -1l-6 -1q3 -3 5 -4q6 -5 6 -7.5t-9 -2.5q-19 -1 -38 10.5t-33 22.5q-19 15 -33 31.5t-27 37.5q-14 22 -21 42.5t-9 46.5q-1 10 -2 16t-1 10t0.5 6.5t3.5 6.5q-2 23 -3 46l-2 46
q-2 -14 -3 -12t-1.5 13t-0.5 27v32v27v12q1 33 4 66.5t7 66.5q4 30 9 59t11 58q5 17 9 34t9 34q1 4 1.5 8t1.5 9q2 8 3 11q-1 1 -2.5 1.5t-2 1.5t0 4t3.5 11q6 14 14 25.5t18 22.5q16 16 33 24q11 5 20 7t21 2q26 -1 49.5 -4.5t48.5 -13.5q3 -1 13 -5t11 -6q25 -14 40 -31
t26 -43q6 -15 9.5 -28.5t6 -26t4.5 -25.5t6 -28q0 -6 -0.5 -10.5t-1.5 -9.5q3 -19 4 -50t0.5 -61.5t-1.5 -53.5t-1 -27q1 -11 2 -16t1 -7.5t-1 -3.5t-4 -3q1 -12 1 -24t1 -24q3 7 3.5 3.5t0.5 -12t-0.5 -18.5t-0.5 -14q-1 -25 -5.5 -51t-7.5 -52q0 -1 -0.5 -3t-0.5 -5v-7
q-1 -6 -1 -10q-1 -4 -1 -7.5v-4.5q0 -4 0.5 -8t0.5 -8q2 -2 4.5 -1.5t0.5 -7.5q-2 -11 -7.5 -21.5t-10.5 -19.5q-9 -14 -18 -25t-20 -22q-4 -6 -8 -11t-9 -10q-17 -17 -30 -27t-32 -23q-6 -4 -10 -8q-9 -2 -15 0t-12 10q-2 3 -3 5.5t-3 5.5z" />
  </font>
</defs>
</svg>
